<svg xmlns="http://www.w3.org/2000/svg" width="177.987" height="25.852" viewBox="0 0 177.987 25.852"><path d="M141.331,361.448c-2.54,0-4.376.753-5.613,2.3a9.121,9.121,0,0,0,0,11.031c1.237,1.528,3.073,2.27,5.615,2.27s4.375-.741,5.613-2.268a9.121,9.121,0,0,0,0-11.032c-1.238-1.55-3.073-2.3-5.612-2.3m3.8,7.81a5.95,5.95,0,0,1-.973,3.633,3.721,3.721,0,0,1-5.69,0,7.213,7.213,0,0,1,0-7.264,3.736,3.736,0,0,1,5.69,0,5.919,5.919,0,0,1,.974,3.629" transform="translate(-116.46 -356.621)" fill="#6a7584"/><path d="M257.219,368.012a25.009,25.009,0,0,1-4.173-1.113,1.265,1.265,0,0,1-.709-1.189,1.379,1.379,0,0,1,.643-1.129,3.372,3.372,0,0,1,1.975-.447,2.943,2.943,0,0,1,2.4.892,2.266,2.266,0,0,1,.4.872l.059.241H261.3l-.064-.369a4.267,4.267,0,0,0-1.854-3.092,8.3,8.3,0,0,0-4.484-1.091,6.414,6.414,0,0,0-4.465,1.439,4.441,4.441,0,0,0-1.566,3.417,3.2,3.2,0,0,0,.974,2.538,8.388,8.388,0,0,0,3.517,1.535,18.764,18.764,0,0,1,4.193,1.219,1.345,1.345,0,0,1,.664,1.208,1.329,1.329,0,0,1-.817,1.246,4.347,4.347,0,0,1-1.959.371,3.847,3.847,0,0,1-2.895-.862,2.362,2.362,0,0,1-.53-1.17l-.053-.251H248.4l.035.347a4.546,4.546,0,0,0,1.59,3.069c1.082.957,2.8,1.442,5.1,1.442a7.676,7.676,0,0,0,5.011-1.362,4.317,4.317,0,0,0,1.588-3.48,3.536,3.536,0,0,0-1.09-2.665,7.351,7.351,0,0,0-3.42-1.615" transform="translate(-185.225 -356.704)" fill="#6a7584"/><path d="M360.131,364.477a5.906,5.906,0,0,0-2.507-2.138,8.414,8.414,0,0,0-3.448-.683,7,7,0,0,0-5.224,2.011,7.922,7.922,0,0,0-2.01,5.818c0,2.688.745,4.649,2.214,5.83a8.057,8.057,0,0,0,5.163,1.794,7.061,7.061,0,0,0,5.5-2.116,5.457,5.457,0,0,0,1.241-1.9l.145-.418H357.57l-.092.147a3.3,3.3,0,0,1-.714.831,3.584,3.584,0,0,1-2.337.742,4.263,4.263,0,0,1-2.3-.6,3.825,3.825,0,0,1-1.687-3.355l-.01-.24h10.993v-.315a16.63,16.63,0,0,0-.132-2.4,7.167,7.167,0,0,0-1.165-3.01m-9.628,3.6.038-.265a4.325,4.325,0,0,1,1.113-2.45,3.373,3.373,0,0,1,2.522-.929,3.708,3.708,0,0,1,2.491.866,3.508,3.508,0,0,1,1.132,2.53l.016.247Z" transform="translate(-244.385 -356.746)" fill="#6a7584"/><path d="M180.725,361.586a6.162,6.162,0,0,0-4.974,1.943,6.806,6.806,0,0,0-1.606,4.094v9.447h3.472V368.2a4.307,4.307,0,0,1,.806-2.57,3.1,3.1,0,0,1,4.571,0,4.549,4.549,0,0,1,.809,2.888v8.547h3.518v-8.977a6.9,6.9,0,0,0-1.624-4.564,6.166,6.166,0,0,0-4.976-1.943" transform="translate(-140.645 -356.704)" fill="#6a7584"/><path d="M412.439,361.666a6.165,6.165,0,0,0-4.974,1.944,6.814,6.814,0,0,0-1.605,4.094v9.447h3.472l0-8.865a4.306,4.306,0,0,1,.805-2.569,3.1,3.1,0,0,1,4.571,0,4.545,4.545,0,0,1,.809,2.888v8.547h3.518v-8.977a6.9,6.9,0,0,0-1.624-4.564,6.164,6.164,0,0,0-4.975-1.944" transform="translate(-279.758 -356.752)" fill="#6a7584"/><path d="M436.389,361.666a7.787,7.787,0,0,0-3.095.574l-.466.2.389.328a5.08,5.08,0,0,1,.641.629,7.264,7.264,0,0,1,.911,1.379l.129.255.267-.1a3.315,3.315,0,0,1,1.214-.215,2.767,2.767,0,0,1,2.282,1,4.548,4.548,0,0,1,.809,2.888v8.547h3.518v-8.977a6.9,6.9,0,0,0-1.624-4.564,6.165,6.165,0,0,0-4.975-1.944" transform="translate(-295.948 -356.752)" fill="#6a7584"/><path d="M394.859,362.523l.471-.484-.533-.132a8.853,8.853,0,0,0-2.108-.241,6.164,6.164,0,0,0-4.975,1.944,6.813,6.813,0,0,0-1.605,4.094v9.447h3.473v-8.866a4.315,4.315,0,0,1,.807-2.571,2.781,2.781,0,0,1,2.288-1,3.748,3.748,0,0,1,.48.033l.227.028.1-.207a8.08,8.08,0,0,1,1.137-1.787c.077-.09.159-.173.24-.256" transform="translate(-267.901 -356.751)" fill="#6a7584"/><path d="M220.667,351.011v6.2l-.433-.694a4.559,4.559,0,0,0-1.645-1.587,4.651,4.651,0,0,0-2.32-.572,5.513,5.513,0,0,0-4.568,2.125,9.256,9.256,0,0,0-1.726,5.926,8.018,8.018,0,0,0,1.752,5.335c.143.168.3.336.478.513a3.413,3.413,0,0,0,.388.4,4.542,4.542,0,0,0,2.628,1.079,5.891,5.891,0,0,0,.772.056,3.707,3.707,0,0,0,.667-.058,5.223,5.223,0,0,0,1.957-.668c.9-.52,1.482-.677,1.862-.5a1.24,1.24,0,0,1,.52.452.623.623,0,0,0,.568.282H224.2V349.44h-1.773a1.782,1.782,0,0,0-1.756,1.571m.111,11.237a5.755,5.755,0,0,1-.914,3.357,3.145,3.145,0,0,1-2.736,1.345,3.016,3.016,0,0,1-2.693-1.358,7.27,7.27,0,0,1-.016-6.833,3,3,0,0,1,2.736-1.418,3.247,3.247,0,0,1,2.142.775,5.18,5.18,0,0,1,1.48,4.133" transform="translate(-162.157 -349.412)" fill="#6a7584"/><path d="M102.561,358.814l-.788-.079.706-.36a4.717,4.717,0,0,0,1.482-1.1,4.34,4.34,0,0,0,.89-2.853,4.918,4.918,0,0,0-.891-2.974c-.985-1.341-2.7-2.039-5.095-2.075h-6.78a1.774,1.774,0,0,0-1.764,1.751v18.167h8.951a13.935,13.935,0,0,0,2.833-.271,5.382,5.382,0,0,0,3.6-2.524,5.748,5.748,0,0,0,.872-3.125,5.2,5.2,0,0,0-.757-2.861,3.909,3.909,0,0,0-3.256-1.692m-1.978-1.949a4.335,4.335,0,0,1-2.278.54H93.919v-4.964h3.866a7.871,7.871,0,0,1,2.5.336,2.051,2.051,0,0,1,1.24,2.1,2.15,2.15,0,0,1-.94,1.99m-6.664,3.447h5.254a5.294,5.294,0,0,1,2.132.368,2.414,2.414,0,0,1,1.437,2.4,2.763,2.763,0,0,1-1.471,2.755,4.987,4.987,0,0,1-2.167.383H93.919Z" transform="translate(-90.321 -349.369)" fill="#6a7584"/><path d="M302.24,361.83a4.752,4.752,0,0,0-3,.959,6.16,6.16,0,0,0-1.313,1.492l-.43.659v-2.78h-3.307v7.968a6.124,6.124,0,0,1-.406,2.434,3.013,3.013,0,0,1-2.966,1.769,2.316,2.316,0,0,1-2.317-1.283,4.925,4.925,0,0,1-.324-2.035V362.16H284.6v8.854a9.056,9.056,0,0,0,.625,3.812c.737,1.53,2.139,2.274,4.286,2.274a5.877,5.877,0,0,0,1.943-.292,5.254,5.254,0,0,0,1.71-1.09,2.528,2.528,0,0,0,.479-.556l.542-.833v6.606a1.776,1.776,0,0,0,1.766,1.766h1.667v-8.4l.429.655a5.639,5.639,0,0,0,1.225,1.392,4.661,4.661,0,0,0,2.866.852,5.586,5.586,0,0,0,4.466-2.007,8.866,8.866,0,0,0,1.745-5.919,7.855,7.855,0,0,0-1.781-5.566,5.69,5.69,0,0,0-4.332-1.876m2.514,7.635a6.14,6.14,0,0,1-.914,3.522,3.119,3.119,0,0,1-2.729,1.374,3.485,3.485,0,0,1-2.126-.67,4.583,4.583,0,0,1-1.5-3.88,7.89,7.89,0,0,1,.437-2.824,3.227,3.227,0,0,1,3.193-2.181,3.035,3.035,0,0,1,2.806,1.455,6.154,6.154,0,0,1,.836,3.2" transform="translate(-206.96 -356.85)" fill="#6a7584"/><path d="M526.859,360.44v-3.086h-2.448v-2.435a1.778,1.778,0,0,0-1.749-1.769h-1.684v16.058a2.682,2.682,0,0,0,.6,1.928,4.413,4.413,0,0,0,3.2.9c.144,0,.292,0,.443-.009l1.642-.059V369.5l-.54.012c-.9,0-1.392-.091-1.6-.294s-.306-.613-.306-1.322V360.44Z" transform="translate(-348.872 -351.638)" fill="#6a7584"/><path d="M472.238,362.716a9.431,9.431,0,0,0-4.312-.957c-2.459,0-4.209.639-5.2,1.9a5.25,5.25,0,0,0-1,2.513l-.052.359h3.356l.063-.233a2.821,2.821,0,0,1,.523-1.067,2.74,2.74,0,0,1,2.183-.774,4.285,4.285,0,0,1,2.025.381,1.545,1.545,0,0,1,.775,1.485,1.4,1.4,0,0,1-.989,1.333,6.406,6.406,0,0,1-1.641.364l-1.351.166a9.5,9.5,0,0,0-3.4.939,4.042,4.042,0,0,0-2.042,3.822,3.9,3.9,0,0,0,1.262,3.136,4.726,4.726,0,0,0,3.247,1.112h.043v.011l.335-.021c.068,0,.137-.012.25-.027.159-.016.312-.042.462-.07l.081-.013c.057-.01.113-.02.165-.032.148-.033.291-.076.434-.122h.082l.039-.04a5.032,5.032,0,0,0,.886-.388c.061-.036.122-.075.181-.113l.06-.04c.782-.42,1.284-.53,1.622-.374a1.227,1.227,0,0,1,.523.456c.023.033.035-.019.1.238a1.689,1.689,0,0,1,.033.544h3.059V366.214a3.522,3.522,0,0,0-1.8-3.5m-1.658,6.494V371.1a3.393,3.393,0,0,1-1.231,2.912,4.366,4.366,0,0,1-2.513.787,2.4,2.4,0,0,1-1.528-.5,1.971,1.971,0,0,1-.658-1.642,2.027,2.027,0,0,1,1.048-1.875,6.014,6.014,0,0,1,1.887-.567l.9-.166a6.155,6.155,0,0,0,1.016-.258,4.235,4.235,0,0,0,.724-.361Z" transform="translate(-312.967 -356.807)" fill="#6a7584"/><path d="M503.758,361.666a6.166,6.166,0,0,0-4.975,1.944,6.811,6.811,0,0,0-1.605,4.094v9.447h3.474v-8.865a4.309,4.309,0,0,1,.807-2.57,2.779,2.779,0,0,1,2.288-1,4.974,4.974,0,0,1,.914.05c.173.032.343.071.506.11v-3.1a9.35,9.35,0,0,0-1.408-.107" transform="translate(-334.583 -356.752)" fill="#6a7584"/></svg>