<svg xmlns="http://www.w3.org/2000/svg" width="48" height="48" viewBox="0 0 48 48"><g transform="translate(1100 24795)"><rect width="48" height="48" rx="24" transform="translate(-1100 -24795)" fill="#00e0cb"/><g transform="translate(-1087.97 -24782.008)"><path d="M25.023,23.981V9.509A9.509,9.509,0,0,0,15.514,0H9.509A9.509,9.509,0,0,0,0,9.509v3.5a9.509,9.509,0,0,0,9.509,9.509h6.006A9.475,9.475,0,0,0,19.16,21.8a5.215,5.215,0,0,0,4.821,3.226,1.043,1.043,0,0,0,1.043-1.043" fill="#fff"/><path d="M35.618,56.372a6.876,6.876,0,0,0,6.29-3.626.613.613,0,0,0-1.1-.547,5.66,5.66,0,0,1-5.193,2.947,6.377,6.377,0,0,1-3.158-.8A5.03,5.03,0,0,1,30.411,52.2a.614.614,0,1,0-1.1.538,6.253,6.253,0,0,0,2.542,2.673,7.6,7.6,0,0,0,3.767.961" transform="translate(-23.098 -38.467)" fill="#00e0cb"/></g></g></svg>