<svg xmlns="http://www.w3.org/2000/svg" xmlns:xlink="http://www.w3.org/1999/xlink" width="202" height="202" viewBox="0 0 202 202">
  <defs>
    <clipPath id="clip-path">
      <path id="Union_2" data-name="Union 2" d="M177.081,179.541a2.459,2.459,0,1,1,2.46,2.459A2.46,2.46,0,0,1,177.081,179.541Zm-4.919,0a2.459,2.459,0,1,1,2.46,2.459A2.46,2.46,0,0,1,172.162,179.541Zm-4.919,0A2.459,2.459,0,1,1,169.7,182,2.46,2.46,0,0,1,167.243,179.541Zm-9.837,0A2.459,2.459,0,1,1,159.865,182,2.46,2.46,0,0,1,157.406,179.541Zm-9.838,0A2.459,2.459,0,1,1,150.027,182,2.46,2.46,0,0,1,147.568,179.541Zm-14.757,0a2.459,2.459,0,1,1,2.46,2.459A2.46,2.46,0,0,1,132.811,179.541Zm-4.919,0a2.459,2.459,0,1,1,2.46,2.459A2.46,2.46,0,0,1,127.892,179.541Zm-9.837,0A2.459,2.459,0,1,1,120.514,182,2.459,2.459,0,0,1,118.054,179.541Zm-9.838,0A2.459,2.459,0,1,1,110.676,182,2.46,2.46,0,0,1,108.216,179.541Zm-9.838,0A2.459,2.459,0,1,1,100.838,182,2.46,2.46,0,0,1,98.378,179.541Zm-9.838,0A2.459,2.459,0,1,1,91,182,2.46,2.46,0,0,1,88.541,179.541Zm-9.838,0A2.459,2.459,0,1,1,81.162,182,2.46,2.46,0,0,1,78.7,179.541Zm-4.918,0A2.459,2.459,0,1,1,76.243,182,2.459,2.459,0,0,1,73.784,179.541Zm-4.919,0A2.459,2.459,0,1,1,71.324,182,2.46,2.46,0,0,1,68.865,179.541Zm-19.676,0A2.459,2.459,0,1,1,51.649,182,2.46,2.46,0,0,1,49.189,179.541Zm-9.838,0A2.459,2.459,0,1,1,41.811,182,2.46,2.46,0,0,1,39.351,179.541ZM12.3,182A12.3,12.3,0,0,1,0,169.7v-9.838a12.3,12.3,0,0,1,12.3-12.3h9.838a12.3,12.3,0,0,1,12.3,12.3V169.7a12.3,12.3,0,0,1-12.3,12.3ZM4.919,159.865V169.7a7.378,7.378,0,0,0,7.378,7.378h9.838a7.378,7.378,0,0,0,7.379-7.378v-9.838a7.378,7.378,0,0,0-7.379-7.378H12.3A7.378,7.378,0,0,0,4.919,159.865Zm157.406,14.757a2.459,2.459,0,1,1,2.459,2.459A2.459,2.459,0,0,1,162.325,174.622Zm-4.919,0a2.459,2.459,0,1,1,2.459,2.459A2.46,2.46,0,0,1,157.406,174.622Zm-19.676,0a2.459,2.459,0,1,1,2.46,2.459A2.46,2.46,0,0,1,137.73,174.622Zm-4.919,0a2.459,2.459,0,1,1,2.46,2.459A2.46,2.46,0,0,1,132.811,174.622Zm-4.919,0a2.459,2.459,0,1,1,2.46,2.459A2.46,2.46,0,0,1,127.892,174.622Zm-14.756,0a2.459,2.459,0,1,1,2.459,2.459A2.46,2.46,0,0,1,113.135,174.622Zm-4.919,0a2.459,2.459,0,1,1,2.459,2.459A2.46,2.46,0,0,1,108.216,174.622Zm-9.838,0a2.459,2.459,0,1,1,2.459,2.459A2.46,2.46,0,0,1,98.378,174.622Zm-24.594,0a2.459,2.459,0,1,1,2.459,2.459A2.459,2.459,0,0,1,73.784,174.622Zm-4.919,0a2.459,2.459,0,1,1,2.459,2.459A2.46,2.46,0,0,1,68.865,174.622Zm-4.919,0a2.459,2.459,0,1,1,2.459,2.459A2.46,2.46,0,0,1,63.946,174.622Zm-9.838,0a2.459,2.459,0,1,1,2.459,2.459A2.46,2.46,0,0,1,54.108,174.622Zm-4.919,0a2.459,2.459,0,1,1,2.46,2.459A2.46,2.46,0,0,1,49.189,174.622Zm-9.838,0a2.459,2.459,0,1,1,2.46,2.459A2.46,2.46,0,0,1,39.351,174.622ZM162.325,169.7a2.459,2.459,0,1,1,2.459,2.459A2.459,2.459,0,0,1,162.325,169.7Zm-4.919,0a2.459,2.459,0,1,1,2.459,2.459A2.46,2.46,0,0,1,157.406,169.7Zm-9.838,0a2.459,2.459,0,1,1,2.459,2.459A2.46,2.46,0,0,1,147.568,169.7Zm-9.838,0a2.459,2.459,0,1,1,2.46,2.459A2.46,2.46,0,0,1,137.73,169.7Zm-4.919,0a2.459,2.459,0,1,1,2.46,2.459A2.46,2.46,0,0,1,132.811,169.7Zm-9.838,0a2.459,2.459,0,1,1,2.46,2.459A2.46,2.46,0,0,1,122.973,169.7Zm-14.756,0a2.459,2.459,0,1,1,2.459,2.459A2.46,2.46,0,0,1,108.216,169.7Zm-4.919,0a2.459,2.459,0,1,1,2.459,2.459A2.46,2.46,0,0,1,103.3,169.7Zm-4.919,0a2.459,2.459,0,1,1,2.459,2.459A2.46,2.46,0,0,1,98.378,169.7Zm-19.676,0a2.459,2.459,0,1,1,2.46,2.459A2.46,2.46,0,0,1,78.7,169.7Zm-4.918,0a2.459,2.459,0,1,1,2.459,2.459A2.459,2.459,0,0,1,73.784,169.7Zm-9.838,0a2.459,2.459,0,1,1,2.459,2.459A2.46,2.46,0,0,1,63.946,169.7Zm-14.757,0a2.459,2.459,0,1,1,2.46,2.459A2.46,2.46,0,0,1,49.189,169.7Zm-29.513,0a2.459,2.459,0,1,1,2.459,2.459A2.46,2.46,0,0,1,19.676,169.7Zm-4.919,0a2.459,2.459,0,1,1,2.459,2.459A2.46,2.46,0,0,1,14.757,169.7Zm-4.919,0a2.459,2.459,0,1,1,2.459,2.459A2.46,2.46,0,0,1,9.838,169.7Zm167.243-4.919a2.459,2.459,0,1,1,2.46,2.459A2.459,2.459,0,0,1,177.081,164.784Zm-4.919,0a2.459,2.459,0,1,1,2.46,2.459A2.459,2.459,0,0,1,172.162,164.784Zm-4.919,0a2.459,2.459,0,1,1,2.46,2.459A2.459,2.459,0,0,1,167.243,164.784Zm-4.918,0a2.459,2.459,0,1,1,2.459,2.459A2.459,2.459,0,0,1,162.325,164.784Zm-9.838,0a2.459,2.459,0,1,1,2.459,2.459A2.459,2.459,0,0,1,152.487,164.784Zm-4.919,0a2.459,2.459,0,1,1,2.459,2.459A2.459,2.459,0,0,1,147.568,164.784Zm-4.919,0a2.459,2.459,0,1,1,2.459,2.459A2.459,2.459,0,0,1,142.649,164.784Zm-4.919,0a2.459,2.459,0,1,1,2.46,2.459A2.459,2.459,0,0,1,137.73,164.784Zm-4.919,0a2.459,2.459,0,1,1,2.46,2.459A2.459,2.459,0,0,1,132.811,164.784Zm-4.919,0a2.459,2.459,0,1,1,2.46,2.459A2.459,2.459,0,0,1,127.892,164.784Zm-4.919,0a2.459,2.459,0,1,1,2.46,2.459A2.459,2.459,0,0,1,122.973,164.784Zm-4.918,0a2.459,2.459,0,1,1,2.459,2.459A2.459,2.459,0,0,1,118.054,164.784Zm-4.919,0a2.459,2.459,0,1,1,2.459,2.459A2.459,2.459,0,0,1,113.135,164.784Zm-4.919,0a2.459,2.459,0,1,1,2.459,2.459A2.459,2.459,0,0,1,108.216,164.784Zm-14.757,0a2.459,2.459,0,1,1,2.46,2.459A2.459,2.459,0,0,1,93.459,164.784Zm-19.675,0a2.459,2.459,0,1,1,2.459,2.459A2.459,2.459,0,0,1,73.784,164.784Zm-4.919,0a2.459,2.459,0,1,1,2.459,2.459A2.459,2.459,0,0,1,68.865,164.784Zm-9.838,0a2.459,2.459,0,1,1,2.459,2.459A2.459,2.459,0,0,1,59.027,164.784Zm-4.919,0a2.459,2.459,0,1,1,2.459,2.459A2.459,2.459,0,0,1,54.108,164.784Zm-4.919,0a2.459,2.459,0,1,1,2.46,2.459A2.459,2.459,0,0,1,49.189,164.784Zm-4.919,0a2.459,2.459,0,1,1,2.46,2.459A2.459,2.459,0,0,1,44.27,164.784Zm-24.594,0a2.459,2.459,0,1,1,2.459,2.459A2.459,2.459,0,0,1,19.676,164.784Zm-4.919,0a2.459,2.459,0,1,1,2.459,2.459A2.459,2.459,0,0,1,14.757,164.784Zm-4.919,0a2.459,2.459,0,1,1,2.459,2.459A2.459,2.459,0,0,1,9.838,164.784Zm147.568-4.919a2.459,2.459,0,1,1,2.459,2.46A2.459,2.459,0,0,1,157.406,159.865Zm-4.919,0a2.459,2.459,0,1,1,2.459,2.46A2.459,2.459,0,0,1,152.487,159.865Zm-4.919,0a2.459,2.459,0,1,1,2.459,2.46A2.459,2.459,0,0,1,147.568,159.865Zm-4.919,0a2.459,2.459,0,1,1,2.459,2.46A2.459,2.459,0,0,1,142.649,159.865Zm-4.919,0a2.459,2.459,0,1,1,2.46,2.46A2.46,2.46,0,0,1,137.73,159.865Zm-9.838,0a2.459,2.459,0,1,1,2.46,2.46A2.46,2.46,0,0,1,127.892,159.865Zm-24.594,0a2.459,2.459,0,1,1,2.459,2.46A2.459,2.459,0,0,1,103.3,159.865Zm-4.919,0a2.459,2.459,0,1,1,2.459,2.46A2.459,2.459,0,0,1,98.378,159.865Zm-19.676,0a2.459,2.459,0,1,1,2.46,2.46A2.46,2.46,0,0,1,78.7,159.865Zm-34.432,0a2.459,2.459,0,1,1,2.46,2.46A2.46,2.46,0,0,1,44.27,159.865Zm-24.594,0a2.459,2.459,0,1,1,2.459,2.46A2.459,2.459,0,0,1,19.676,159.865Zm-4.919,0a2.459,2.459,0,1,1,2.459,2.46A2.459,2.459,0,0,1,14.757,159.865Zm-4.919,0a2.459,2.459,0,1,1,2.459,2.46A2.459,2.459,0,0,1,9.838,159.865Zm167.243-4.919a2.459,2.459,0,1,1,2.46,2.46A2.46,2.46,0,0,1,177.081,154.946Zm-4.919,0a2.459,2.459,0,1,1,2.46,2.46A2.46,2.46,0,0,1,172.162,154.946Zm-4.919,0a2.459,2.459,0,1,1,2.46,2.46A2.46,2.46,0,0,1,167.243,154.946Zm-9.837,0a2.459,2.459,0,1,1,2.459,2.46A2.459,2.459,0,0,1,157.406,154.946Zm-19.676,0a2.459,2.459,0,1,1,2.46,2.46A2.46,2.46,0,0,1,137.73,154.946Zm-4.919,0a2.459,2.459,0,1,1,2.46,2.46A2.46,2.46,0,0,1,132.811,154.946Zm-4.919,0a2.459,2.459,0,1,1,2.46,2.46A2.46,2.46,0,0,1,127.892,154.946Zm-4.919,0a2.459,2.459,0,1,1,2.46,2.46A2.46,2.46,0,0,1,122.973,154.946Zm-4.918,0a2.459,2.459,0,1,1,2.459,2.46A2.459,2.459,0,0,1,118.054,154.946Zm-4.919,0a2.459,2.459,0,1,1,2.459,2.46A2.459,2.459,0,0,1,113.135,154.946Zm-9.838,0a2.459,2.459,0,1,1,2.459,2.46A2.459,2.459,0,0,1,103.3,154.946Zm-4.919,0a2.459,2.459,0,1,1,2.459,2.46A2.459,2.459,0,0,1,98.378,154.946Zm-4.919,0a2.459,2.459,0,1,1,2.46,2.46A2.46,2.46,0,0,1,93.459,154.946Zm-9.838,0a2.459,2.459,0,1,1,2.46,2.46A2.46,2.46,0,0,1,83.622,154.946Zm-9.837,0a2.459,2.459,0,1,1,2.459,2.46A2.459,2.459,0,0,1,73.784,154.946Zm-9.838,0a2.459,2.459,0,1,1,2.459,2.46A2.459,2.459,0,0,1,63.946,154.946Zm-4.919,0a2.459,2.459,0,1,1,2.459,2.46A2.459,2.459,0,0,1,59.027,154.946Zm-9.838,0a2.459,2.459,0,1,1,2.46,2.46A2.46,2.46,0,0,1,49.189,154.946Zm-4.919,0a2.459,2.459,0,1,1,2.46,2.46A2.46,2.46,0,0,1,44.27,154.946Zm118.054-4.919a2.459,2.459,0,1,1,2.459,2.46A2.459,2.459,0,0,1,162.325,150.027Zm-4.919,0a2.459,2.459,0,1,1,2.459,2.46A2.459,2.459,0,0,1,157.406,150.027Zm-9.838,0a2.459,2.459,0,1,1,2.459,2.46A2.459,2.459,0,0,1,147.568,150.027Zm-9.838,0a2.459,2.459,0,1,1,2.46,2.46A2.46,2.46,0,0,1,137.73,150.027Zm-9.838,0a2.459,2.459,0,1,1,2.46,2.46A2.46,2.46,0,0,1,127.892,150.027Zm-9.837,0a2.459,2.459,0,1,1,2.459,2.46A2.459,2.459,0,0,1,118.054,150.027Zm-4.919,0a2.459,2.459,0,1,1,2.459,2.46A2.459,2.459,0,0,1,113.135,150.027Zm-4.919,0a2.459,2.459,0,1,1,2.459,2.46A2.459,2.459,0,0,1,108.216,150.027Zm-9.838,0a2.459,2.459,0,1,1,2.459,2.46A2.459,2.459,0,0,1,98.378,150.027Zm-4.919,0a2.459,2.459,0,1,1,2.46,2.46A2.46,2.46,0,0,1,93.459,150.027Zm-4.919,0a2.459,2.459,0,1,1,2.46,2.46A2.46,2.46,0,0,1,88.541,150.027Zm-9.838,0a2.459,2.459,0,1,1,2.46,2.46A2.46,2.46,0,0,1,78.7,150.027Zm-9.837,0a2.459,2.459,0,1,1,2.459,2.46A2.459,2.459,0,0,1,68.865,150.027Zm-9.838,0a2.459,2.459,0,1,1,2.459,2.46A2.459,2.459,0,0,1,59.027,150.027Zm-4.919,0a2.459,2.459,0,1,1,2.459,2.46A2.459,2.459,0,0,1,54.108,150.027Zm-4.919,0a2.459,2.459,0,1,1,2.46,2.46A2.46,2.46,0,0,1,49.189,150.027Zm127.892-4.919a2.459,2.459,0,1,1,2.46,2.46A2.46,2.46,0,0,1,177.081,145.108Zm-4.919,0a2.459,2.459,0,1,1,2.46,2.46A2.46,2.46,0,0,1,172.162,145.108Zm-4.919,0a2.459,2.459,0,1,1,2.46,2.46A2.46,2.46,0,0,1,167.243,145.108Zm-9.837,0a2.459,2.459,0,1,1,2.459,2.46A2.459,2.459,0,0,1,157.406,145.108Zm-19.676,0a2.459,2.459,0,1,1,2.46,2.46A2.46,2.46,0,0,1,137.73,145.108Zm-4.919,0a2.459,2.459,0,1,1,2.46,2.46A2.46,2.46,0,0,1,132.811,145.108Zm-14.756,0a2.459,2.459,0,1,1,2.459,2.46A2.459,2.459,0,0,1,118.054,145.108Zm-9.838,0a2.459,2.459,0,1,1,2.459,2.46A2.459,2.459,0,0,1,108.216,145.108Zm-14.757,0a2.459,2.459,0,1,1,2.46,2.46A2.46,2.46,0,0,1,93.459,145.108Zm-29.513,0a2.459,2.459,0,1,1,2.459,2.46A2.459,2.459,0,0,1,63.946,145.108Zm-24.595,0a2.459,2.459,0,1,1,2.46,2.46A2.46,2.46,0,0,1,39.351,145.108Zm137.73-4.918a2.459,2.459,0,1,1,2.46,2.459A2.46,2.46,0,0,1,177.081,140.19Zm-4.919,0a2.459,2.459,0,1,1,2.46,2.459A2.46,2.46,0,0,1,172.162,140.19Zm-4.919,0a2.459,2.459,0,1,1,2.46,2.459A2.46,2.46,0,0,1,167.243,140.19Zm-4.918,0a2.459,2.459,0,1,1,2.459,2.459A2.459,2.459,0,0,1,162.325,140.19Zm-4.919,0a2.459,2.459,0,1,1,2.459,2.459A2.46,2.46,0,0,1,157.406,140.19Zm-4.919,0a2.459,2.459,0,1,1,2.459,2.459A2.46,2.46,0,0,1,152.487,140.19Zm-4.919,0a2.459,2.459,0,1,1,2.459,2.459A2.46,2.46,0,0,1,147.568,140.19Zm-4.919,0a2.459,2.459,0,1,1,2.459,2.459A2.46,2.46,0,0,1,142.649,140.19Zm-4.919,0a2.459,2.459,0,1,1,2.46,2.459A2.46,2.46,0,0,1,137.73,140.19Zm-9.838,0a2.459,2.459,0,1,1,2.46,2.459A2.46,2.46,0,0,1,127.892,140.19Zm-4.919,0a2.459,2.459,0,1,1,2.46,2.459A2.46,2.46,0,0,1,122.973,140.19Zm-4.918,0a2.459,2.459,0,1,1,2.459,2.459A2.459,2.459,0,0,1,118.054,140.19Zm-14.757,0a2.459,2.459,0,1,1,2.459,2.459A2.46,2.46,0,0,1,103.3,140.19Zm-19.676,0a2.459,2.459,0,1,1,2.46,2.459A2.46,2.46,0,0,1,83.622,140.19Zm-19.675,0a2.459,2.459,0,1,1,2.459,2.459A2.46,2.46,0,0,1,63.946,140.19Zm-4.919,0a2.459,2.459,0,1,1,2.459,2.459A2.46,2.46,0,0,1,59.027,140.19Zm-9.838,0a2.459,2.459,0,1,1,2.46,2.459A2.46,2.46,0,0,1,49.189,140.19Zm-9.838,0a2.459,2.459,0,1,1,2.46,2.459A2.46,2.46,0,0,1,39.351,140.19Zm-4.919,0a2.459,2.459,0,1,1,2.46,2.459A2.46,2.46,0,0,1,34.432,140.19Zm-4.918,0a2.459,2.459,0,1,1,2.459,2.459A2.459,2.459,0,0,1,29.514,140.19Zm-4.919,0a2.459,2.459,0,1,1,2.459,2.459A2.46,2.46,0,0,1,24.595,140.19Zm-9.838,0a2.459,2.459,0,1,1,2.459,2.459A2.46,2.46,0,0,1,14.757,140.19Zm-4.919,0a2.459,2.459,0,1,1,2.459,2.459A2.46,2.46,0,0,1,9.838,140.19Zm-4.919,0a2.459,2.459,0,1,1,2.46,2.459A2.46,2.46,0,0,1,4.919,140.19Zm157.406-4.919a2.459,2.459,0,1,1,2.459,2.459A2.459,2.459,0,0,1,162.325,135.271Zm-4.919,0a2.459,2.459,0,1,1,2.459,2.459A2.46,2.46,0,0,1,157.406,135.271Zm-4.919,0a2.459,2.459,0,1,1,2.459,2.459A2.46,2.46,0,0,1,152.487,135.271Zm-24.595,0a2.459,2.459,0,1,1,2.46,2.459A2.46,2.46,0,0,1,127.892,135.271Zm-4.919,0a2.459,2.459,0,1,1,2.46,2.459A2.46,2.46,0,0,1,122.973,135.271Zm-9.837,0a2.459,2.459,0,1,1,2.459,2.459A2.46,2.46,0,0,1,113.135,135.271Zm-4.919,0a2.459,2.459,0,1,1,2.459,2.459A2.46,2.46,0,0,1,108.216,135.271Zm-4.919,0a2.459,2.459,0,1,1,2.459,2.459A2.46,2.46,0,0,1,103.3,135.271Zm-4.919,0a2.459,2.459,0,1,1,2.459,2.459A2.46,2.46,0,0,1,98.378,135.271Zm-4.919,0a2.459,2.459,0,1,1,2.46,2.459A2.46,2.46,0,0,1,93.459,135.271Zm-4.919,0A2.459,2.459,0,1,1,91,137.73,2.46,2.46,0,0,1,88.541,135.271Zm-4.919,0a2.459,2.459,0,1,1,2.46,2.459A2.46,2.46,0,0,1,83.622,135.271Zm-4.919,0a2.459,2.459,0,1,1,2.46,2.459A2.46,2.46,0,0,1,78.7,135.271Zm-9.837,0a2.459,2.459,0,1,1,2.459,2.459A2.46,2.46,0,0,1,68.865,135.271Zm-4.919,0a2.459,2.459,0,1,1,2.459,2.459A2.46,2.46,0,0,1,63.946,135.271Zm-4.919,0a2.459,2.459,0,1,1,2.459,2.459A2.46,2.46,0,0,1,59.027,135.271Zm-9.838,0a2.459,2.459,0,1,1,2.46,2.459A2.46,2.46,0,0,1,49.189,135.271Zm-4.919,0a2.459,2.459,0,1,1,2.46,2.459A2.46,2.46,0,0,1,44.27,135.271Zm-9.838,0a2.459,2.459,0,1,1,2.46,2.459A2.46,2.46,0,0,1,34.432,135.271Zm-19.675,0a2.459,2.459,0,1,1,2.459,2.459A2.46,2.46,0,0,1,14.757,135.271Zm157.405-4.919a2.459,2.459,0,1,1,2.46,2.459A2.46,2.46,0,0,1,172.162,130.352Zm-9.837,0a2.459,2.459,0,1,1,2.459,2.459A2.459,2.459,0,0,1,162.325,130.352Zm-4.919,0a2.459,2.459,0,1,1,2.459,2.459A2.46,2.46,0,0,1,157.406,130.352Zm-4.919,0a2.459,2.459,0,1,1,2.459,2.459A2.46,2.46,0,0,1,152.487,130.352Zm-9.838,0a2.459,2.459,0,1,1,2.459,2.459A2.46,2.46,0,0,1,142.649,130.352Zm-4.919,0a2.459,2.459,0,1,1,2.46,2.459A2.46,2.46,0,0,1,137.73,130.352Zm-9.838,0a2.459,2.459,0,1,1,2.46,2.459A2.46,2.46,0,0,1,127.892,130.352Zm-9.837,0a2.459,2.459,0,1,1,2.459,2.459A2.459,2.459,0,0,1,118.054,130.352Zm-14.757,0a2.459,2.459,0,1,1,2.459,2.459A2.46,2.46,0,0,1,103.3,130.352Zm-4.919,0a2.459,2.459,0,1,1,2.459,2.459A2.46,2.46,0,0,1,98.378,130.352Zm-29.513,0a2.459,2.459,0,1,1,2.459,2.459A2.46,2.46,0,0,1,68.865,130.352Zm-4.919,0a2.459,2.459,0,1,1,2.459,2.459A2.46,2.46,0,0,1,63.946,130.352Zm-9.838,0a2.459,2.459,0,1,1,2.459,2.459A2.46,2.46,0,0,1,54.108,130.352Zm-4.919,0a2.459,2.459,0,1,1,2.46,2.459A2.46,2.46,0,0,1,49.189,130.352Zm-9.838,0a2.459,2.459,0,1,1,2.46,2.459A2.46,2.46,0,0,1,39.351,130.352Zm-9.837,0a2.459,2.459,0,1,1,2.459,2.459A2.459,2.459,0,0,1,29.514,130.352Zm-9.838,0a2.459,2.459,0,1,1,2.459,2.459A2.46,2.46,0,0,1,19.676,130.352Zm-9.838,0a2.459,2.459,0,1,1,2.459,2.459A2.46,2.46,0,0,1,9.838,130.352Zm-4.919,0a2.459,2.459,0,1,1,2.46,2.459A2.46,2.46,0,0,1,4.919,130.352Zm-4.919,0a2.459,2.459,0,1,1,2.46,2.459A2.46,2.46,0,0,1,0,130.352Zm162.325-4.919a2.459,2.459,0,1,1,2.459,2.459A2.459,2.459,0,0,1,162.325,125.433Zm-4.919,0a2.459,2.459,0,1,1,2.459,2.459A2.46,2.46,0,0,1,157.406,125.433Zm-14.757,0a2.459,2.459,0,1,1,2.459,2.459A2.46,2.46,0,0,1,142.649,125.433Zm-4.919,0a2.459,2.459,0,1,1,2.46,2.459A2.46,2.46,0,0,1,137.73,125.433Zm-9.838,0a2.459,2.459,0,1,1,2.46,2.459A2.46,2.46,0,0,1,127.892,125.433Zm-9.837,0a2.459,2.459,0,1,1,2.459,2.459A2.459,2.459,0,0,1,118.054,125.433Zm-19.676,0a2.459,2.459,0,1,1,2.459,2.459A2.46,2.46,0,0,1,98.378,125.433Zm-19.676,0a2.459,2.459,0,1,1,2.46,2.459A2.46,2.46,0,0,1,78.7,125.433Zm-14.756,0a2.459,2.459,0,1,1,2.459,2.459A2.46,2.46,0,0,1,63.946,125.433Zm-14.757,0a2.459,2.459,0,1,1,2.46,2.459A2.46,2.46,0,0,1,49.189,125.433Zm-4.919,0a2.459,2.459,0,1,1,2.46,2.459A2.46,2.46,0,0,1,44.27,125.433Zm-4.919,0a2.459,2.459,0,1,1,2.46,2.459A2.46,2.46,0,0,1,39.351,125.433Zm-24.594,0a2.459,2.459,0,1,1,2.459,2.459A2.46,2.46,0,0,1,14.757,125.433ZM0,125.433a2.459,2.459,0,1,1,2.46,2.459A2.46,2.46,0,0,1,0,125.433Zm177.081-4.919a2.459,2.459,0,1,1,2.46,2.459A2.459,2.459,0,0,1,177.081,120.514Zm-9.838,0a2.459,2.459,0,1,1,2.46,2.459A2.459,2.459,0,0,1,167.243,120.514Zm-9.837,0a2.459,2.459,0,1,1,2.459,2.459A2.459,2.459,0,0,1,157.406,120.514Zm-24.595,0a2.459,2.459,0,1,1,2.46,2.459A2.459,2.459,0,0,1,132.811,120.514Zm-19.675,0a2.459,2.459,0,1,1,2.459,2.459A2.459,2.459,0,0,1,113.135,120.514Zm-14.757,0a2.459,2.459,0,1,1,2.459,2.459A2.459,2.459,0,0,1,98.378,120.514Zm-4.919,0a2.459,2.459,0,1,1,2.46,2.459A2.459,2.459,0,0,1,93.459,120.514Zm-9.838,0a2.459,2.459,0,1,1,2.46,2.459A2.459,2.459,0,0,1,83.622,120.514Zm-19.675,0a2.459,2.459,0,1,1,2.459,2.459A2.459,2.459,0,0,1,63.946,120.514Zm-4.919,0a2.459,2.459,0,1,1,2.459,2.459A2.459,2.459,0,0,1,59.027,120.514Zm-4.919,0a2.459,2.459,0,1,1,2.459,2.459A2.459,2.459,0,0,1,54.108,120.514Zm-4.919,0a2.459,2.459,0,1,1,2.46,2.459A2.459,2.459,0,0,1,49.189,120.514Zm-9.838,0a2.459,2.459,0,1,1,2.46,2.459A2.459,2.459,0,0,1,39.351,120.514Zm-9.837,0a2.459,2.459,0,1,1,2.459,2.459A2.459,2.459,0,0,1,29.514,120.514Zm-9.838,0a2.459,2.459,0,1,1,2.459,2.459A2.459,2.459,0,0,1,19.676,120.514Zm-4.919,0a2.459,2.459,0,1,1,2.459,2.459A2.459,2.459,0,0,1,14.757,120.514Zm-9.838,0a2.459,2.459,0,1,1,2.46,2.459A2.459,2.459,0,0,1,4.919,120.514Zm167.243-4.919a2.459,2.459,0,1,1,2.46,2.46A2.46,2.46,0,0,1,172.162,115.595Zm-4.919,0a2.459,2.459,0,1,1,2.46,2.46A2.46,2.46,0,0,1,167.243,115.595Zm-14.756,0a2.459,2.459,0,1,1,2.459,2.46A2.459,2.459,0,0,1,152.487,115.595Zm-4.919,0a2.459,2.459,0,1,1,2.459,2.46A2.459,2.459,0,0,1,147.568,115.595Zm-4.919,0a2.459,2.459,0,1,1,2.459,2.46A2.459,2.459,0,0,1,142.649,115.595Zm-19.676,0a2.459,2.459,0,1,1,2.46,2.46A2.46,2.46,0,0,1,122.973,115.595Zm-4.918,0a2.459,2.459,0,1,1,2.459,2.46A2.459,2.459,0,0,1,118.054,115.595Zm-4.919,0a2.459,2.459,0,1,1,2.459,2.46A2.459,2.459,0,0,1,113.135,115.595Zm-9.838,0a2.459,2.459,0,1,1,2.459,2.46A2.459,2.459,0,0,1,103.3,115.595Zm-14.757,0a2.459,2.459,0,1,1,2.46,2.46A2.46,2.46,0,0,1,88.541,115.595Zm-14.756,0a2.459,2.459,0,1,1,2.459,2.46A2.459,2.459,0,0,1,73.784,115.595Zm-9.838,0a2.459,2.459,0,1,1,2.459,2.46A2.459,2.459,0,0,1,63.946,115.595Zm-4.919,0a2.459,2.459,0,1,1,2.459,2.46A2.459,2.459,0,0,1,59.027,115.595Zm-14.757,0a2.459,2.459,0,1,1,2.46,2.46A2.46,2.46,0,0,1,44.27,115.595Zm-24.594,0a2.459,2.459,0,1,1,2.459,2.46A2.459,2.459,0,0,1,19.676,115.595Zm-4.919,0a2.459,2.459,0,1,1,2.459,2.46A2.459,2.459,0,0,1,14.757,115.595Zm-4.919,0a2.459,2.459,0,1,1,2.459,2.46A2.459,2.459,0,0,1,9.838,115.595Zm-4.919,0a2.459,2.459,0,1,1,2.46,2.46A2.46,2.46,0,0,1,4.919,115.595Zm-4.919,0a2.459,2.459,0,1,1,2.46,2.46A2.46,2.46,0,0,1,0,115.595Zm172.162-4.919a2.459,2.459,0,1,1,2.46,2.46A2.46,2.46,0,0,1,172.162,110.676Zm-4.919,0a2.459,2.459,0,1,1,2.46,2.46A2.46,2.46,0,0,1,167.243,110.676Zm-4.918,0a2.459,2.459,0,1,1,2.459,2.46A2.459,2.459,0,0,1,162.325,110.676Zm-4.919,0a2.459,2.459,0,1,1,2.459,2.46A2.459,2.459,0,0,1,157.406,110.676Zm-19.676,0a2.459,2.459,0,1,1,2.46,2.46A2.46,2.46,0,0,1,137.73,110.676Zm-4.919,0a2.459,2.459,0,1,1,2.46,2.46A2.46,2.46,0,0,1,132.811,110.676Zm-4.919,0a2.459,2.459,0,1,1,2.46,2.46A2.46,2.46,0,0,1,127.892,110.676Zm-14.756,0a2.459,2.459,0,1,1,2.459,2.46A2.459,2.459,0,0,1,113.135,110.676Zm-4.919,0a2.459,2.459,0,1,1,2.459,2.46A2.459,2.459,0,0,1,108.216,110.676Zm-4.919,0a2.459,2.459,0,1,1,2.459,2.46A2.459,2.459,0,0,1,103.3,110.676Zm-4.919,0a2.459,2.459,0,1,1,2.459,2.46A2.459,2.459,0,0,1,98.378,110.676Zm-4.919,0a2.459,2.459,0,1,1,2.46,2.46A2.46,2.46,0,0,1,93.459,110.676Zm-4.919,0a2.459,2.459,0,1,1,2.46,2.46A2.46,2.46,0,0,1,88.541,110.676Zm-4.919,0a2.459,2.459,0,1,1,2.46,2.46A2.46,2.46,0,0,1,83.622,110.676Zm-29.513,0a2.459,2.459,0,1,1,2.459,2.46A2.459,2.459,0,0,1,54.108,110.676Zm-4.919,0a2.459,2.459,0,1,1,2.46,2.46A2.46,2.46,0,0,1,49.189,110.676Zm-4.919,0a2.459,2.459,0,1,1,2.46,2.46A2.46,2.46,0,0,1,44.27,110.676Zm-9.838,0a2.459,2.459,0,1,1,2.46,2.46A2.46,2.46,0,0,1,34.432,110.676Zm-4.918,0a2.459,2.459,0,1,1,2.459,2.46A2.459,2.459,0,0,1,29.514,110.676Zm-24.595,0a2.459,2.459,0,1,1,2.46,2.46A2.46,2.46,0,0,1,4.919,110.676Zm-4.919,0a2.459,2.459,0,1,1,2.46,2.46A2.46,2.46,0,0,1,0,110.676Zm162.325-4.919a2.459,2.459,0,1,1,2.459,2.46A2.459,2.459,0,0,1,162.325,105.757Zm-4.919,0a2.459,2.459,0,1,1,2.459,2.46A2.459,2.459,0,0,1,157.406,105.757Zm-4.919,0a2.459,2.459,0,1,1,2.459,2.46A2.459,2.459,0,0,1,152.487,105.757Zm-9.838,0a2.459,2.459,0,1,1,2.459,2.46A2.459,2.459,0,0,1,142.649,105.757Zm-14.757,0a2.459,2.459,0,1,1,2.46,2.46A2.46,2.46,0,0,1,127.892,105.757Zm-24.594,0a2.459,2.459,0,1,1,2.459,2.46A2.459,2.459,0,0,1,103.3,105.757Zm-14.757,0a2.459,2.459,0,1,1,2.46,2.46A2.46,2.46,0,0,1,88.541,105.757Zm-4.919,0a2.459,2.459,0,1,1,2.46,2.46A2.46,2.46,0,0,1,83.622,105.757Zm-4.919,0a2.459,2.459,0,1,1,2.46,2.46A2.46,2.46,0,0,1,78.7,105.757Zm-9.837,0a2.459,2.459,0,1,1,2.459,2.46A2.459,2.459,0,0,1,68.865,105.757Zm-24.595,0a2.459,2.459,0,1,1,2.46,2.46A2.46,2.46,0,0,1,44.27,105.757Zm-29.513,0a2.459,2.459,0,1,1,2.459,2.46A2.459,2.459,0,0,1,14.757,105.757Zm-4.919,0a2.459,2.459,0,1,1,2.459,2.46A2.459,2.459,0,0,1,9.838,105.757Zm-4.919,0a2.459,2.459,0,1,1,2.46,2.46A2.46,2.46,0,0,1,4.919,105.757Zm162.324-4.919a2.459,2.459,0,1,1,2.46,2.46A2.46,2.46,0,0,1,167.243,100.838Zm-4.918,0a2.459,2.459,0,1,1,2.459,2.46A2.459,2.459,0,0,1,162.325,100.838Zm-4.919,0a2.459,2.459,0,1,1,2.459,2.46A2.459,2.459,0,0,1,157.406,100.838Zm-9.838,0a2.459,2.459,0,1,1,2.459,2.46A2.459,2.459,0,0,1,147.568,100.838Zm-4.919,0a2.459,2.459,0,1,1,2.459,2.46A2.459,2.459,0,0,1,142.649,100.838Zm-9.838,0a2.459,2.459,0,1,1,2.46,2.46A2.46,2.46,0,0,1,132.811,100.838Zm-14.756,0a2.459,2.459,0,1,1,2.459,2.46A2.459,2.459,0,0,1,118.054,100.838Zm-9.838,0a2.459,2.459,0,1,1,2.459,2.46A2.459,2.459,0,0,1,108.216,100.838Zm-9.838,0a2.459,2.459,0,1,1,2.459,2.46A2.459,2.459,0,0,1,98.378,100.838Zm-9.838,0A2.459,2.459,0,1,1,91,103.3,2.46,2.46,0,0,1,88.541,100.838Zm-9.838,0a2.459,2.459,0,1,1,2.46,2.46A2.46,2.46,0,0,1,78.7,100.838Zm-9.837,0a2.459,2.459,0,1,1,2.459,2.46A2.459,2.459,0,0,1,68.865,100.838Zm-4.919,0a2.459,2.459,0,1,1,2.459,2.46A2.459,2.459,0,0,1,63.946,100.838Zm-4.919,0a2.459,2.459,0,1,1,2.459,2.46A2.459,2.459,0,0,1,59.027,100.838Zm-14.757,0a2.459,2.459,0,1,1,2.46,2.46A2.46,2.46,0,0,1,44.27,100.838Zm-9.838,0a2.459,2.459,0,1,1,2.46,2.46A2.46,2.46,0,0,1,34.432,100.838Zm-4.918,0a2.459,2.459,0,1,1,2.459,2.46A2.459,2.459,0,0,1,29.514,100.838Zm-4.919,0a2.459,2.459,0,1,1,2.459,2.46A2.459,2.459,0,0,1,24.595,100.838Zm-19.676,0a2.459,2.459,0,1,1,2.46,2.46A2.46,2.46,0,0,1,4.919,100.838Zm-4.919,0a2.459,2.459,0,1,1,2.46,2.46A2.46,2.46,0,0,1,0,100.838Zm177.081-4.918a2.459,2.459,0,1,1,2.46,2.459A2.46,2.46,0,0,1,177.081,95.919Zm-19.675,0a2.459,2.459,0,1,1,2.459,2.459A2.46,2.46,0,0,1,157.406,95.919Zm-4.919,0a2.459,2.459,0,1,1,2.459,2.459A2.46,2.46,0,0,1,152.487,95.919Zm-19.676,0a2.459,2.459,0,1,1,2.46,2.459A2.46,2.46,0,0,1,132.811,95.919Zm-14.756,0a2.459,2.459,0,1,1,2.459,2.459A2.459,2.459,0,0,1,118.054,95.919Zm-4.919,0a2.459,2.459,0,1,1,2.459,2.459A2.46,2.46,0,0,1,113.135,95.919Zm-34.433,0a2.459,2.459,0,1,1,2.46,2.459A2.46,2.46,0,0,1,78.7,95.919Zm-24.594,0a2.459,2.459,0,1,1,2.459,2.459A2.46,2.46,0,0,1,54.108,95.919Zm-14.757,0a2.459,2.459,0,1,1,2.46,2.459A2.46,2.46,0,0,1,39.351,95.919Zm-4.919,0a2.459,2.459,0,1,1,2.46,2.459A2.46,2.46,0,0,1,34.432,95.919Zm-14.756,0a2.459,2.459,0,1,1,2.459,2.459A2.46,2.46,0,0,1,19.676,95.919Zm-4.919,0a2.459,2.459,0,1,1,2.459,2.459A2.46,2.46,0,0,1,14.757,95.919Zm-4.919,0A2.459,2.459,0,1,1,12.3,98.378,2.46,2.46,0,0,1,9.838,95.919Zm-4.919,0a2.459,2.459,0,1,1,2.46,2.459A2.46,2.46,0,0,1,4.919,95.919ZM177.081,91a2.459,2.459,0,1,1,2.46,2.459A2.46,2.46,0,0,1,177.081,91Zm-14.756,0a2.459,2.459,0,1,1,2.459,2.459A2.459,2.459,0,0,1,162.325,91Zm-9.838,0a2.459,2.459,0,1,1,2.459,2.459A2.46,2.46,0,0,1,152.487,91Zm-9.838,0a2.459,2.459,0,1,1,2.459,2.459A2.46,2.46,0,0,1,142.649,91Zm-9.838,0a2.459,2.459,0,1,1,2.46,2.459A2.46,2.46,0,0,1,132.811,91Zm-9.838,0a2.459,2.459,0,1,1,2.46,2.459A2.46,2.46,0,0,1,122.973,91Zm-4.918,0a2.459,2.459,0,1,1,2.459,2.459A2.459,2.459,0,0,1,118.054,91Zm-4.919,0a2.459,2.459,0,1,1,2.459,2.459A2.46,2.46,0,0,1,113.135,91Zm-4.919,0a2.459,2.459,0,1,1,2.459,2.459A2.46,2.46,0,0,1,108.216,91ZM93.459,91a2.459,2.459,0,1,1,2.46,2.459A2.46,2.46,0,0,1,93.459,91ZM73.784,91a2.459,2.459,0,1,1,2.459,2.459A2.459,2.459,0,0,1,73.784,91Zm-4.919,0a2.459,2.459,0,1,1,2.459,2.459A2.46,2.46,0,0,1,68.865,91Zm-4.919,0a2.459,2.459,0,1,1,2.459,2.459A2.46,2.46,0,0,1,63.946,91Zm-9.838,0a2.459,2.459,0,1,1,2.459,2.459A2.46,2.46,0,0,1,54.108,91ZM44.27,91a2.459,2.459,0,1,1,2.46,2.459A2.46,2.46,0,0,1,44.27,91ZM29.514,91a2.459,2.459,0,1,1,2.459,2.459A2.459,2.459,0,0,1,29.514,91ZM9.838,91A2.459,2.459,0,1,1,12.3,93.459,2.46,2.46,0,0,1,9.838,91ZM4.919,91a2.459,2.459,0,1,1,2.46,2.459A2.46,2.46,0,0,1,4.919,91Zm167.243-4.919a2.459,2.459,0,1,1,2.46,2.459A2.46,2.46,0,0,1,172.162,86.081Zm-9.837,0a2.459,2.459,0,1,1,2.459,2.459A2.459,2.459,0,0,1,162.325,86.081Zm-29.514,0a2.459,2.459,0,1,1,2.46,2.459A2.46,2.46,0,0,1,132.811,86.081Zm-9.838,0a2.459,2.459,0,1,1,2.46,2.459A2.46,2.46,0,0,1,122.973,86.081Zm-4.918,0a2.459,2.459,0,1,1,2.459,2.459A2.459,2.459,0,0,1,118.054,86.081Zm-9.838,0a2.459,2.459,0,1,1,2.459,2.459A2.46,2.46,0,0,1,108.216,86.081Zm-4.919,0a2.459,2.459,0,1,1,2.459,2.459A2.46,2.46,0,0,1,103.3,86.081Zm-9.838,0a2.459,2.459,0,1,1,2.46,2.459A2.46,2.46,0,0,1,93.459,86.081Zm-4.919,0A2.459,2.459,0,1,1,91,88.541,2.46,2.46,0,0,1,88.541,86.081Zm-19.675,0a2.459,2.459,0,1,1,2.459,2.459A2.46,2.46,0,0,1,68.865,86.081Zm-9.838,0a2.459,2.459,0,1,1,2.459,2.459A2.46,2.46,0,0,1,59.027,86.081Zm-4.919,0a2.459,2.459,0,1,1,2.459,2.459A2.46,2.46,0,0,1,54.108,86.081Zm-29.513,0a2.459,2.459,0,1,1,2.459,2.459A2.46,2.46,0,0,1,24.595,86.081Zm-9.838,0a2.459,2.459,0,1,1,2.459,2.459A2.46,2.46,0,0,1,14.757,86.081Zm-4.919,0A2.459,2.459,0,1,1,12.3,88.541,2.46,2.46,0,0,1,9.838,86.081Zm-4.919,0a2.459,2.459,0,1,1,2.46,2.459A2.46,2.46,0,0,1,4.919,86.081Zm167.243-4.919a2.459,2.459,0,1,1,2.46,2.459A2.46,2.46,0,0,1,172.162,81.162Zm-4.919,0a2.459,2.459,0,1,1,2.46,2.459A2.46,2.46,0,0,1,167.243,81.162Zm-9.837,0a2.459,2.459,0,1,1,2.459,2.459A2.46,2.46,0,0,1,157.406,81.162Zm-4.919,0a2.459,2.459,0,1,1,2.459,2.459A2.46,2.46,0,0,1,152.487,81.162Zm-39.351,0a2.459,2.459,0,1,1,2.459,2.459A2.46,2.46,0,0,1,113.135,81.162Zm-9.838,0a2.459,2.459,0,1,1,2.459,2.459A2.46,2.46,0,0,1,103.3,81.162Zm-4.919,0a2.459,2.459,0,1,1,2.459,2.459A2.46,2.46,0,0,1,98.378,81.162Zm-9.838,0A2.459,2.459,0,1,1,91,83.622,2.46,2.46,0,0,1,88.541,81.162Zm-4.919,0a2.459,2.459,0,1,1,2.46,2.459A2.46,2.46,0,0,1,83.622,81.162Zm-9.837,0a2.459,2.459,0,1,1,2.459,2.459A2.459,2.459,0,0,1,73.784,81.162Zm-4.919,0a2.459,2.459,0,1,1,2.459,2.459A2.46,2.46,0,0,1,68.865,81.162Zm-4.919,0a2.459,2.459,0,1,1,2.459,2.459A2.46,2.46,0,0,1,63.946,81.162Zm-4.919,0a2.459,2.459,0,1,1,2.459,2.459A2.46,2.46,0,0,1,59.027,81.162Zm-19.676,0a2.459,2.459,0,1,1,2.46,2.459A2.46,2.46,0,0,1,39.351,81.162Zm-9.837,0a2.459,2.459,0,1,1,2.459,2.459A2.459,2.459,0,0,1,29.514,81.162Zm-24.595,0a2.459,2.459,0,1,1,2.46,2.459A2.46,2.46,0,0,1,4.919,81.162ZM0,81.162a2.459,2.459,0,1,1,2.46,2.459A2.46,2.46,0,0,1,0,81.162Zm142.649-4.919a2.459,2.459,0,1,1,2.459,2.459A2.459,2.459,0,0,1,142.649,76.243Zm-9.838,0a2.459,2.459,0,1,1,2.46,2.459A2.459,2.459,0,0,1,132.811,76.243Zm-4.919,0a2.459,2.459,0,1,1,2.46,2.459A2.459,2.459,0,0,1,127.892,76.243Zm-44.27,0a2.459,2.459,0,1,1,2.46,2.459A2.459,2.459,0,0,1,83.622,76.243Zm-9.837,0A2.459,2.459,0,1,1,76.243,78.7,2.459,2.459,0,0,1,73.784,76.243Zm-9.838,0A2.459,2.459,0,1,1,66.405,78.7,2.459,2.459,0,0,1,63.946,76.243Zm-4.919,0A2.459,2.459,0,1,1,61.486,78.7,2.459,2.459,0,0,1,59.027,76.243Zm-14.757,0A2.459,2.459,0,1,1,46.73,78.7,2.459,2.459,0,0,1,44.27,76.243ZM0,76.243A2.459,2.459,0,1,1,2.46,78.7,2.459,2.459,0,0,1,0,76.243Zm177.081-4.919a2.459,2.459,0,1,1,2.46,2.46A2.46,2.46,0,0,1,177.081,71.324Zm-4.919,0a2.459,2.459,0,1,1,2.46,2.46A2.46,2.46,0,0,1,172.162,71.324Zm-9.837,0a2.459,2.459,0,1,1,2.459,2.46A2.459,2.459,0,0,1,162.325,71.324Zm-9.838,0a2.459,2.459,0,1,1,2.459,2.46A2.459,2.459,0,0,1,152.487,71.324Zm-4.919,0a2.459,2.459,0,1,1,2.459,2.46A2.459,2.459,0,0,1,147.568,71.324Zm-9.838,0a2.459,2.459,0,1,1,2.46,2.46A2.46,2.46,0,0,1,137.73,71.324Zm-14.757,0a2.459,2.459,0,1,1,2.46,2.46A2.46,2.46,0,0,1,122.973,71.324Zm-19.675,0a2.459,2.459,0,1,1,2.459,2.46A2.459,2.459,0,0,1,103.3,71.324Zm-4.919,0a2.459,2.459,0,1,1,2.459,2.46A2.459,2.459,0,0,1,98.378,71.324Zm-4.919,0a2.459,2.459,0,1,1,2.46,2.46A2.46,2.46,0,0,1,93.459,71.324Zm-4.919,0A2.459,2.459,0,1,1,91,73.784,2.46,2.46,0,0,1,88.541,71.324Zm-19.675,0a2.459,2.459,0,1,1,2.459,2.46A2.459,2.459,0,0,1,68.865,71.324Zm-9.838,0a2.459,2.459,0,1,1,2.459,2.46A2.459,2.459,0,0,1,59.027,71.324Zm-4.919,0a2.459,2.459,0,1,1,2.459,2.46A2.459,2.459,0,0,1,54.108,71.324Zm-9.838,0a2.459,2.459,0,1,1,2.46,2.46A2.46,2.46,0,0,1,44.27,71.324Zm-14.756,0a2.459,2.459,0,1,1,2.459,2.46A2.459,2.459,0,0,1,29.514,71.324Zm-4.919,0a2.459,2.459,0,1,1,2.459,2.46A2.459,2.459,0,0,1,24.595,71.324Zm-14.757,0a2.459,2.459,0,1,1,2.459,2.46A2.459,2.459,0,0,1,9.838,71.324Zm-4.919,0a2.459,2.459,0,1,1,2.46,2.46A2.46,2.46,0,0,1,4.919,71.324Zm167.243-4.919a2.459,2.459,0,1,1,2.46,2.46A2.46,2.46,0,0,1,172.162,66.405Zm-4.919,0a2.459,2.459,0,1,1,2.46,2.46A2.46,2.46,0,0,1,167.243,66.405Zm-9.837,0a2.459,2.459,0,1,1,2.459,2.46A2.459,2.459,0,0,1,157.406,66.405Zm-9.838,0a2.459,2.459,0,1,1,2.459,2.46A2.459,2.459,0,0,1,147.568,66.405Zm-4.919,0a2.459,2.459,0,1,1,2.459,2.46A2.459,2.459,0,0,1,142.649,66.405Zm-4.919,0a2.459,2.459,0,1,1,2.46,2.46A2.46,2.46,0,0,1,137.73,66.405Zm-4.919,0a2.459,2.459,0,1,1,2.46,2.46A2.46,2.46,0,0,1,132.811,66.405Zm-4.919,0a2.459,2.459,0,1,1,2.46,2.46A2.46,2.46,0,0,1,127.892,66.405Zm-9.837,0a2.459,2.459,0,1,1,2.459,2.46A2.459,2.459,0,0,1,118.054,66.405Zm-9.838,0a2.459,2.459,0,1,1,2.459,2.46A2.459,2.459,0,0,1,108.216,66.405Zm-4.919,0a2.459,2.459,0,1,1,2.459,2.46A2.459,2.459,0,0,1,103.3,66.405Zm-24.595,0a2.459,2.459,0,1,1,2.46,2.46A2.46,2.46,0,0,1,78.7,66.405Zm-4.918,0a2.459,2.459,0,1,1,2.459,2.46A2.459,2.459,0,0,1,73.784,66.405Zm-14.757,0a2.459,2.459,0,1,1,2.459,2.46A2.459,2.459,0,0,1,59.027,66.405Zm-4.919,0a2.459,2.459,0,1,1,2.459,2.46A2.459,2.459,0,0,1,54.108,66.405Zm-4.919,0a2.459,2.459,0,1,1,2.46,2.46A2.46,2.46,0,0,1,49.189,66.405Zm-4.919,0a2.459,2.459,0,1,1,2.46,2.46A2.46,2.46,0,0,1,44.27,66.405Zm-4.919,0a2.459,2.459,0,1,1,2.46,2.46A2.46,2.46,0,0,1,39.351,66.405Zm-19.675,0a2.459,2.459,0,1,1,2.459,2.46A2.459,2.459,0,0,1,19.676,66.405Zm-4.919,0a2.459,2.459,0,1,1,2.459,2.46A2.459,2.459,0,0,1,14.757,66.405Zm-4.919,0a2.459,2.459,0,1,1,2.459,2.46A2.459,2.459,0,0,1,9.838,66.405Zm152.487-4.919a2.459,2.459,0,1,1,2.459,2.46A2.459,2.459,0,0,1,162.325,61.486Zm-9.838,0a2.459,2.459,0,1,1,2.459,2.46A2.459,2.459,0,0,1,152.487,61.486Zm-19.676,0a2.459,2.459,0,1,1,2.46,2.46A2.46,2.46,0,0,1,132.811,61.486Zm-9.838,0a2.459,2.459,0,1,1,2.46,2.46A2.46,2.46,0,0,1,122.973,61.486Zm-14.756,0a2.459,2.459,0,1,1,2.459,2.46A2.459,2.459,0,0,1,108.216,61.486Zm-4.919,0a2.459,2.459,0,1,1,2.459,2.46A2.459,2.459,0,0,1,103.3,61.486Zm-4.919,0a2.459,2.459,0,1,1,2.459,2.46A2.459,2.459,0,0,1,98.378,61.486Zm-24.594,0a2.459,2.459,0,1,1,2.459,2.46A2.459,2.459,0,0,1,73.784,61.486Zm-9.838,0a2.459,2.459,0,1,1,2.459,2.46A2.459,2.459,0,0,1,63.946,61.486Zm-4.919,0a2.459,2.459,0,1,1,2.459,2.46A2.459,2.459,0,0,1,59.027,61.486Zm-4.919,0a2.459,2.459,0,1,1,2.459,2.46A2.459,2.459,0,0,1,54.108,61.486Zm-4.919,0a2.459,2.459,0,1,1,2.46,2.46A2.46,2.46,0,0,1,49.189,61.486Zm-14.757,0a2.459,2.459,0,1,1,2.46,2.46A2.46,2.46,0,0,1,34.432,61.486Zm-4.918,0a2.459,2.459,0,1,1,2.459,2.46A2.459,2.459,0,0,1,29.514,61.486Zm-4.919,0a2.459,2.459,0,1,1,2.459,2.46A2.459,2.459,0,0,1,24.595,61.486Zm-9.838,0a2.459,2.459,0,1,1,2.459,2.46A2.459,2.459,0,0,1,14.757,61.486Zm-9.838,0a2.459,2.459,0,1,1,2.46,2.46A2.46,2.46,0,0,1,4.919,61.486ZM0,61.486a2.459,2.459,0,1,1,2.46,2.46A2.46,2.46,0,0,1,0,61.486Zm172.162-4.919a2.459,2.459,0,1,1,2.46,2.46A2.46,2.46,0,0,1,172.162,56.567Zm-9.837,0a2.459,2.459,0,1,1,2.459,2.46A2.459,2.459,0,0,1,162.325,56.567Zm-4.919,0a2.459,2.459,0,1,1,2.459,2.46A2.459,2.459,0,0,1,157.406,56.567Zm-14.757,0a2.459,2.459,0,1,1,2.459,2.46A2.459,2.459,0,0,1,142.649,56.567Zm-4.919,0a2.459,2.459,0,1,1,2.46,2.46A2.46,2.46,0,0,1,137.73,56.567Zm-4.919,0a2.459,2.459,0,1,1,2.46,2.46A2.46,2.46,0,0,1,132.811,56.567Zm-14.756,0a2.459,2.459,0,1,1,2.459,2.46A2.459,2.459,0,0,1,118.054,56.567Zm-14.757,0a2.459,2.459,0,1,1,2.459,2.46A2.459,2.459,0,0,1,103.3,56.567Zm-4.919,0a2.459,2.459,0,1,1,2.459,2.46A2.459,2.459,0,0,1,98.378,56.567Zm-29.513,0a2.459,2.459,0,1,1,2.459,2.46A2.459,2.459,0,0,1,68.865,56.567Zm-9.838,0a2.459,2.459,0,1,1,2.459,2.46A2.459,2.459,0,0,1,59.027,56.567Zm-14.757,0a2.459,2.459,0,1,1,2.46,2.46A2.46,2.46,0,0,1,44.27,56.567Zm-9.838,0a2.459,2.459,0,1,1,2.46,2.46A2.46,2.46,0,0,1,34.432,56.567Zm137.73-4.918a2.459,2.459,0,1,1,2.46,2.459A2.46,2.46,0,0,1,172.162,51.649Zm-19.675,0a2.459,2.459,0,1,1,2.459,2.459A2.46,2.46,0,0,1,152.487,51.649Zm-14.757,0a2.459,2.459,0,1,1,2.46,2.459A2.46,2.46,0,0,1,137.73,51.649Zm-9.838,0a2.459,2.459,0,1,1,2.46,2.459A2.46,2.46,0,0,1,127.892,51.649Zm-9.837,0a2.459,2.459,0,1,1,2.459,2.459A2.459,2.459,0,0,1,118.054,51.649Zm-34.433,0a2.459,2.459,0,1,1,2.46,2.459A2.46,2.46,0,0,1,83.622,51.649Zm-4.919,0a2.459,2.459,0,1,1,2.46,2.459A2.46,2.46,0,0,1,78.7,51.649Zm-14.756,0a2.459,2.459,0,1,1,2.459,2.459A2.46,2.46,0,0,1,63.946,51.649Zm-19.676,0a2.459,2.459,0,1,1,2.46,2.459A2.46,2.46,0,0,1,44.27,51.649Zm-14.756,0a2.459,2.459,0,1,1,2.459,2.459A2.459,2.459,0,0,1,29.514,51.649Zm-24.595,0a2.459,2.459,0,1,1,2.46,2.459A2.46,2.46,0,0,1,4.919,51.649ZM0,51.649a2.459,2.459,0,1,1,2.46,2.459A2.46,2.46,0,0,1,0,51.649ZM172.162,46.73a2.459,2.459,0,1,1,2.46,2.459A2.46,2.46,0,0,1,172.162,46.73Zm-4.919,0a2.459,2.459,0,1,1,2.46,2.459A2.46,2.46,0,0,1,167.243,46.73Zm-4.918,0a2.459,2.459,0,1,1,2.459,2.459A2.459,2.459,0,0,1,162.325,46.73Zm-9.838,0a2.459,2.459,0,1,1,2.459,2.459A2.46,2.46,0,0,1,152.487,46.73Zm-4.919,0a2.459,2.459,0,1,1,2.459,2.459A2.46,2.46,0,0,1,147.568,46.73Zm-4.919,0a2.459,2.459,0,1,1,2.459,2.459A2.46,2.46,0,0,1,142.649,46.73Zm-4.919,0a2.459,2.459,0,1,1,2.46,2.459A2.46,2.46,0,0,1,137.73,46.73Zm-4.919,0a2.459,2.459,0,1,1,2.46,2.459A2.46,2.46,0,0,1,132.811,46.73Zm-4.919,0a2.459,2.459,0,1,1,2.46,2.459A2.46,2.46,0,0,1,127.892,46.73Zm-4.919,0a2.459,2.459,0,1,1,2.46,2.459A2.46,2.46,0,0,1,122.973,46.73Zm-4.918,0a2.459,2.459,0,1,1,2.459,2.459A2.459,2.459,0,0,1,118.054,46.73Zm-4.919,0a2.459,2.459,0,1,1,2.459,2.459A2.46,2.46,0,0,1,113.135,46.73Zm-14.757,0a2.459,2.459,0,1,1,2.459,2.459A2.46,2.46,0,0,1,98.378,46.73Zm-4.919,0a2.459,2.459,0,1,1,2.46,2.459A2.46,2.46,0,0,1,93.459,46.73Zm-4.919,0A2.459,2.459,0,1,1,91,49.189,2.46,2.46,0,0,1,88.541,46.73Zm-4.919,0a2.459,2.459,0,1,1,2.46,2.459A2.46,2.46,0,0,1,83.622,46.73Zm-9.837,0a2.459,2.459,0,1,1,2.459,2.459A2.459,2.459,0,0,1,73.784,46.73Zm-9.838,0a2.459,2.459,0,1,1,2.459,2.459A2.46,2.46,0,0,1,63.946,46.73Zm-24.595,0a2.459,2.459,0,1,1,2.46,2.459A2.46,2.46,0,0,1,39.351,46.73Zm-4.919,0a2.459,2.459,0,1,1,2.46,2.459A2.46,2.46,0,0,1,34.432,46.73Zm-9.837,0a2.459,2.459,0,1,1,2.459,2.459A2.46,2.46,0,0,1,24.595,46.73Zm-9.838,0a2.459,2.459,0,1,1,2.459,2.459A2.46,2.46,0,0,1,14.757,46.73Zm-4.919,0A2.459,2.459,0,1,1,12.3,49.189,2.46,2.46,0,0,1,9.838,46.73Zm162.324-4.919a2.459,2.459,0,1,1,2.46,2.459A2.46,2.46,0,0,1,172.162,41.811Zm-24.594,0a2.459,2.459,0,1,1,2.459,2.459A2.46,2.46,0,0,1,147.568,41.811Zm-4.919,0a2.459,2.459,0,1,1,2.459,2.459A2.46,2.46,0,0,1,142.649,41.811Zm-4.919,0a2.459,2.459,0,1,1,2.46,2.459A2.46,2.46,0,0,1,137.73,41.811Zm-4.919,0a2.459,2.459,0,1,1,2.46,2.459A2.46,2.46,0,0,1,132.811,41.811Zm-9.838,0a2.459,2.459,0,1,1,2.46,2.459A2.46,2.46,0,0,1,122.973,41.811Zm-4.918,0a2.459,2.459,0,1,1,2.459,2.459A2.459,2.459,0,0,1,118.054,41.811Zm-4.919,0a2.459,2.459,0,1,1,2.459,2.459A2.46,2.46,0,0,1,113.135,41.811Zm-4.919,0a2.459,2.459,0,1,1,2.459,2.459A2.46,2.46,0,0,1,108.216,41.811Zm-14.757,0a2.459,2.459,0,1,1,2.46,2.459A2.46,2.46,0,0,1,93.459,41.811Zm-19.675,0a2.459,2.459,0,1,1,2.459,2.459A2.459,2.459,0,0,1,73.784,41.811Zm-4.919,0a2.459,2.459,0,1,1,2.459,2.459A2.46,2.46,0,0,1,68.865,41.811Zm-4.919,0a2.459,2.459,0,1,1,2.459,2.459A2.46,2.46,0,0,1,63.946,41.811Zm-9.838,0a2.459,2.459,0,1,1,2.459,2.459A2.46,2.46,0,0,1,54.108,41.811Zm-4.919,0a2.459,2.459,0,1,1,2.46,2.459A2.46,2.46,0,0,1,49.189,41.811Zm-4.919,0a2.459,2.459,0,1,1,2.46,2.459A2.46,2.46,0,0,1,44.27,41.811Zm-4.919,0a2.459,2.459,0,1,1,2.46,2.459A2.46,2.46,0,0,1,39.351,41.811Zm-9.837,0a2.459,2.459,0,1,1,2.459,2.459A2.459,2.459,0,0,1,29.514,41.811Zm-24.595,0a2.459,2.459,0,1,1,2.46,2.459A2.46,2.46,0,0,1,4.919,41.811ZM0,41.811A2.459,2.459,0,1,1,2.46,44.27,2.46,2.46,0,0,1,0,41.811Zm132.811-4.919a2.459,2.459,0,1,1,2.46,2.459A2.46,2.46,0,0,1,132.811,36.892Zm-4.919,0a2.459,2.459,0,1,1,2.46,2.459A2.46,2.46,0,0,1,127.892,36.892Zm-14.756,0a2.459,2.459,0,1,1,2.459,2.459A2.46,2.46,0,0,1,113.135,36.892Zm-9.838,0a2.459,2.459,0,1,1,2.459,2.459A2.46,2.46,0,0,1,103.3,36.892Zm-14.757,0A2.459,2.459,0,1,1,91,39.351,2.46,2.46,0,0,1,88.541,36.892Zm-14.756,0a2.459,2.459,0,1,1,2.459,2.459A2.459,2.459,0,0,1,73.784,36.892Zm-4.919,0a2.459,2.459,0,1,1,2.459,2.459A2.46,2.46,0,0,1,68.865,36.892Zm-4.919,0a2.459,2.459,0,1,1,2.459,2.459A2.46,2.46,0,0,1,63.946,36.892Zm-14.757,0a2.459,2.459,0,1,1,2.46,2.459A2.46,2.46,0,0,1,49.189,36.892Zm-9.838,0a2.459,2.459,0,1,1,2.46,2.459A2.46,2.46,0,0,1,39.351,36.892Zm120.514-2.46a12.3,12.3,0,0,1-12.3-12.3V12.3A12.3,12.3,0,0,1,159.865,0H169.7A12.3,12.3,0,0,1,182,12.3v9.838a12.3,12.3,0,0,1-12.3,12.3ZM152.487,12.3v9.838a7.378,7.378,0,0,0,7.378,7.379H169.7a7.378,7.378,0,0,0,7.378-7.379V12.3A7.378,7.378,0,0,0,169.7,4.919h-9.838A7.378,7.378,0,0,0,152.487,12.3ZM137.73,31.973a2.459,2.459,0,1,1,2.46,2.459A2.459,2.459,0,0,1,137.73,31.973Zm-9.838,0a2.459,2.459,0,1,1,2.46,2.459A2.459,2.459,0,0,1,127.892,31.973Zm-9.837,0a2.459,2.459,0,1,1,2.459,2.459A2.459,2.459,0,0,1,118.054,31.973Zm-9.838,0a2.459,2.459,0,1,1,2.459,2.459A2.459,2.459,0,0,1,108.216,31.973Zm-9.838,0a2.459,2.459,0,1,1,2.459,2.459A2.459,2.459,0,0,1,98.378,31.973Zm-9.838,0A2.459,2.459,0,1,1,91,34.432,2.459,2.459,0,0,1,88.541,31.973Zm-9.838,0a2.459,2.459,0,1,1,2.46,2.459A2.459,2.459,0,0,1,78.7,31.973Zm-9.837,0a2.459,2.459,0,1,1,2.459,2.459A2.459,2.459,0,0,1,68.865,31.973Zm-9.838,0a2.459,2.459,0,1,1,2.459,2.459A2.459,2.459,0,0,1,59.027,31.973Zm-9.838,0a2.459,2.459,0,1,1,2.46,2.459A2.459,2.459,0,0,1,49.189,31.973Zm-9.838,0a2.459,2.459,0,1,1,2.46,2.459A2.459,2.459,0,0,1,39.351,31.973ZM12.3,34.432A12.3,12.3,0,0,1,0,22.135V12.3A12.3,12.3,0,0,1,12.3,0h9.838a12.3,12.3,0,0,1,12.3,12.3v9.838a12.3,12.3,0,0,1-12.3,12.3ZM4.919,12.3v9.838A7.379,7.379,0,0,0,12.3,29.514h9.838a7.379,7.379,0,0,0,7.379-7.379V12.3a7.379,7.379,0,0,0-7.379-7.378H12.3A7.379,7.379,0,0,0,4.919,12.3ZM122.973,27.054a2.459,2.459,0,1,1,2.46,2.46A2.46,2.46,0,0,1,122.973,27.054Zm-14.756,0a2.459,2.459,0,1,1,2.459,2.46A2.459,2.459,0,0,1,108.216,27.054Zm-9.838,0a2.459,2.459,0,1,1,2.459,2.46A2.459,2.459,0,0,1,98.378,27.054Zm-4.919,0a2.459,2.459,0,1,1,2.46,2.46A2.46,2.46,0,0,1,93.459,27.054Zm-4.919,0A2.459,2.459,0,1,1,91,29.514,2.46,2.46,0,0,1,88.541,27.054Zm-19.675,0a2.459,2.459,0,1,1,2.459,2.46A2.459,2.459,0,0,1,68.865,27.054Zm-4.919,0a2.459,2.459,0,1,1,2.459,2.46A2.459,2.459,0,0,1,63.946,27.054Zm-4.919,0a2.459,2.459,0,1,1,2.459,2.46A2.459,2.459,0,0,1,59.027,27.054Zm-4.919,0a2.459,2.459,0,1,1,2.459,2.46A2.459,2.459,0,0,1,54.108,27.054Zm-9.838,0a2.459,2.459,0,1,1,2.46,2.46A2.46,2.46,0,0,1,44.27,27.054Zm122.973-4.919a2.459,2.459,0,1,1,2.46,2.46A2.46,2.46,0,0,1,167.243,22.135Zm-4.918,0a2.459,2.459,0,1,1,2.459,2.46A2.459,2.459,0,0,1,162.325,22.135Zm-4.919,0a2.459,2.459,0,1,1,2.459,2.46A2.459,2.459,0,0,1,157.406,22.135Zm-49.189,0a2.459,2.459,0,1,1,2.459,2.46A2.459,2.459,0,0,1,108.216,22.135Zm-4.919,0a2.459,2.459,0,1,1,2.459,2.46A2.459,2.459,0,0,1,103.3,22.135Zm-4.919,0a2.459,2.459,0,1,1,2.459,2.46A2.459,2.459,0,0,1,98.378,22.135Zm-4.919,0a2.459,2.459,0,1,1,2.46,2.46A2.46,2.46,0,0,1,93.459,22.135Zm-14.757,0a2.459,2.459,0,1,1,2.46,2.46A2.46,2.46,0,0,1,78.7,22.135Zm-9.837,0a2.459,2.459,0,1,1,2.459,2.46A2.459,2.459,0,0,1,68.865,22.135Zm-4.919,0a2.459,2.459,0,1,1,2.459,2.46A2.459,2.459,0,0,1,63.946,22.135Zm-14.757,0a2.459,2.459,0,1,1,2.46,2.46A2.46,2.46,0,0,1,49.189,22.135Zm-4.919,0a2.459,2.459,0,1,1,2.46,2.46A2.46,2.46,0,0,1,44.27,22.135Zm-24.594,0a2.459,2.459,0,1,1,2.459,2.46A2.459,2.459,0,0,1,19.676,22.135Zm-4.919,0a2.459,2.459,0,1,1,2.459,2.46A2.459,2.459,0,0,1,14.757,22.135Zm-4.919,0a2.459,2.459,0,1,1,2.459,2.46A2.459,2.459,0,0,1,9.838,22.135Zm157.405-4.919a2.459,2.459,0,1,1,2.46,2.46A2.46,2.46,0,0,1,167.243,17.216Zm-4.918,0a2.459,2.459,0,1,1,2.459,2.46A2.459,2.459,0,0,1,162.325,17.216Zm-4.919,0a2.459,2.459,0,1,1,2.459,2.46A2.459,2.459,0,0,1,157.406,17.216Zm-24.595,0a2.459,2.459,0,1,1,2.46,2.46A2.46,2.46,0,0,1,132.811,17.216Zm-9.838,0a2.459,2.459,0,1,1,2.46,2.46A2.46,2.46,0,0,1,122.973,17.216Zm-9.837,0a2.459,2.459,0,1,1,2.459,2.46A2.459,2.459,0,0,1,113.135,17.216Zm-14.757,0a2.459,2.459,0,1,1,2.459,2.46A2.459,2.459,0,0,1,98.378,17.216Zm-4.919,0a2.459,2.459,0,1,1,2.46,2.46A2.46,2.46,0,0,1,93.459,17.216Zm-4.919,0A2.459,2.459,0,1,1,91,19.676,2.46,2.46,0,0,1,88.541,17.216Zm-4.919,0a2.459,2.459,0,1,1,2.46,2.46A2.46,2.46,0,0,1,83.622,17.216Zm-4.919,0a2.459,2.459,0,1,1,2.46,2.46A2.46,2.46,0,0,1,78.7,17.216Zm-4.918,0a2.459,2.459,0,1,1,2.459,2.46A2.459,2.459,0,0,1,73.784,17.216Zm-4.919,0a2.459,2.459,0,1,1,2.459,2.46A2.459,2.459,0,0,1,68.865,17.216Zm-4.919,0a2.459,2.459,0,1,1,2.459,2.46A2.459,2.459,0,0,1,63.946,17.216Zm-4.919,0a2.459,2.459,0,1,1,2.459,2.46A2.459,2.459,0,0,1,59.027,17.216Zm-39.351,0a2.459,2.459,0,1,1,2.459,2.46A2.459,2.459,0,0,1,19.676,17.216Zm-4.919,0a2.459,2.459,0,1,1,2.459,2.46A2.459,2.459,0,0,1,14.757,17.216Zm-4.919,0a2.459,2.459,0,1,1,2.459,2.46A2.459,2.459,0,0,1,9.838,17.216ZM167.243,12.3a2.459,2.459,0,1,1,2.46,2.46A2.46,2.46,0,0,1,167.243,12.3Zm-4.918,0a2.459,2.459,0,1,1,2.459,2.46A2.459,2.459,0,0,1,162.325,12.3Zm-4.919,0a2.459,2.459,0,1,1,2.459,2.46A2.459,2.459,0,0,1,157.406,12.3Zm-24.595,0a2.459,2.459,0,1,1,2.46,2.46A2.46,2.46,0,0,1,132.811,12.3Zm-9.838,0a2.459,2.459,0,1,1,2.46,2.46A2.46,2.46,0,0,1,122.973,12.3Zm-4.918,0a2.459,2.459,0,1,1,2.459,2.46A2.459,2.459,0,0,1,118.054,12.3Zm-4.919,0a2.459,2.459,0,1,1,2.459,2.46A2.459,2.459,0,0,1,113.135,12.3Zm-4.919,0a2.459,2.459,0,1,1,2.459,2.46A2.459,2.459,0,0,1,108.216,12.3Zm-9.838,0a2.459,2.459,0,1,1,2.459,2.46A2.459,2.459,0,0,1,98.378,12.3Zm-4.919,0a2.459,2.459,0,1,1,2.46,2.46A2.46,2.46,0,0,1,93.459,12.3Zm-4.919,0A2.459,2.459,0,1,1,91,14.757,2.46,2.46,0,0,1,88.541,12.3Zm-4.919,0a2.459,2.459,0,1,1,2.46,2.46A2.46,2.46,0,0,1,83.622,12.3Zm-4.919,0a2.459,2.459,0,1,1,2.46,2.46A2.46,2.46,0,0,1,78.7,12.3Zm-9.837,0a2.459,2.459,0,1,1,2.459,2.46A2.459,2.459,0,0,1,68.865,12.3Zm-14.757,0a2.459,2.459,0,1,1,2.459,2.46A2.459,2.459,0,0,1,54.108,12.3Zm-4.919,0a2.459,2.459,0,1,1,2.46,2.46A2.46,2.46,0,0,1,49.189,12.3Zm-29.513,0a2.459,2.459,0,1,1,2.459,2.46A2.459,2.459,0,0,1,19.676,12.3Zm-4.919,0a2.459,2.459,0,1,1,2.459,2.46A2.459,2.459,0,0,1,14.757,12.3Zm-4.919,0a2.459,2.459,0,1,1,2.459,2.46A2.459,2.459,0,0,1,9.838,12.3ZM122.973,7.379a2.459,2.459,0,1,1,2.46,2.459A2.46,2.46,0,0,1,122.973,7.379Zm-4.918,0a2.459,2.459,0,1,1,2.459,2.459A2.459,2.459,0,0,1,118.054,7.379Zm-9.838,0a2.459,2.459,0,1,1,2.459,2.459A2.46,2.46,0,0,1,108.216,7.379Zm-9.838,0a2.459,2.459,0,1,1,2.459,2.459A2.46,2.46,0,0,1,98.378,7.379Zm-4.919,0a2.459,2.459,0,1,1,2.46,2.459A2.46,2.46,0,0,1,93.459,7.379Zm-9.838,0a2.459,2.459,0,1,1,2.46,2.459A2.46,2.46,0,0,1,83.622,7.379Zm-4.919,0a2.459,2.459,0,1,1,2.46,2.459A2.46,2.46,0,0,1,78.7,7.379Zm-4.918,0a2.459,2.459,0,1,1,2.459,2.459A2.459,2.459,0,0,1,73.784,7.379Zm-14.757,0a2.459,2.459,0,1,1,2.459,2.459A2.46,2.46,0,0,1,59.027,7.379Zm-4.919,0a2.459,2.459,0,1,1,2.459,2.459A2.46,2.46,0,0,1,54.108,7.379Zm-4.919,0a2.459,2.459,0,1,1,2.46,2.459A2.46,2.46,0,0,1,49.189,7.379Zm-4.919,0a2.459,2.459,0,1,1,2.46,2.459A2.46,2.46,0,0,1,44.27,7.379Zm-4.919,0a2.459,2.459,0,1,1,2.46,2.459A2.46,2.46,0,0,1,39.351,7.379ZM137.73,2.46a2.459,2.459,0,1,1,2.46,2.459A2.46,2.46,0,0,1,137.73,2.46Zm-4.919,0a2.459,2.459,0,1,1,2.46,2.459A2.46,2.46,0,0,1,132.811,2.46Zm-4.919,0a2.459,2.459,0,1,1,2.46,2.459A2.46,2.46,0,0,1,127.892,2.46Zm-4.919,0a2.459,2.459,0,1,1,2.46,2.459A2.46,2.46,0,0,1,122.973,2.46Zm-34.432,0A2.459,2.459,0,1,1,91,4.919,2.46,2.46,0,0,1,88.541,2.46Zm-4.919,0a2.459,2.459,0,1,1,2.46,2.459A2.46,2.46,0,0,1,83.622,2.46Zm-14.756,0a2.459,2.459,0,1,1,2.459,2.459A2.46,2.46,0,0,1,68.865,2.46Zm-14.757,0a2.459,2.459,0,1,1,2.459,2.459A2.46,2.46,0,0,1,54.108,2.46Zm-4.919,0a2.459,2.459,0,1,1,2.46,2.459A2.46,2.46,0,0,1,49.189,2.46Z" transform="translate(-0.229 -0.229)" fill="none"/>
    </clipPath>
    <linearGradient id="linear-gradient" x1="1" y1="1" x2="0" gradientUnits="objectBoundingBox">
      <stop offset="0" stop-color="#00adbb"/>
      <stop offset="0.236" stop-color="#00adbb"/>
      <stop offset="0.646" stop-color="#05516a"/>
      <stop offset="1" stop-color="#054963"/>
    </linearGradient>
    <clipPath id="clip-path-2">
      <rect id="Rectangle_26344" data-name="Rectangle 26344" width="42.766" height="36.007" fill="#fff"/>
    </clipPath>
  </defs>
  <g id="Group_155434" data-name="Group 155434" transform="translate(13098 -7273)">
    <g id="Rectangle_44946" data-name="Rectangle 44946" transform="translate(-13097 7274)" fill="#fff" stroke="#d5e0e8" stroke-width="1">
      <rect width="200" height="200" rx="8" stroke="none"/>
      <rect x="-0.5" y="-0.5" width="201" height="201" rx="8.5" fill="none"/>
    </g>
    <g id="adobe_express" transform="translate(-13089 7282)">
      <rect id="Rectangle_44944" data-name="Rectangle 44944" width="184" height="184" fill="#fff"/>
      <g id="Group_155433" data-name="Group 155433" transform="translate(1.228 1.228)" clip-path="url(#clip-path)">
        <rect id="Rectangle_44945" data-name="Rectangle 44945" width="184" height="184" transform="translate(-1.229 -1.229)"/>
      </g>
    </g>
    <g id="IGB_QR_Logo" data-name="IGB QR Logo" transform="translate(-13021 7350)">
      <rect id="Rectangle_19948" data-name="Rectangle 19948" width="48" height="48" rx="2" fill="url(#linear-gradient)"/>
      <g id="Group_99216" data-name="Group 99216" transform="translate(2.605 6.07)">
        <g id="Group_99215" data-name="Group 99215" clip-path="url(#clip-path-2)">
          <path id="Path_90140" data-name="Path 90140" d="M46.839,57.374v.056A1.015,1.015,0,0,1,45.785,58.5a1.074,1.074,0,1,1,0-2.149,1.011,1.011,0,0,1,1.053,1.026M46.7,65.733H44.913V59.314H46.7Z" transform="translate(-33.709 -42.49)" fill="#fff"/>
          <path id="Path_90141" data-name="Path 90141" d="M60.244,62.221v3.937H58.455V56.912h5.657v1.594H60.244v2.135h3.73v1.58Z" transform="translate(-44.078 -42.915)" fill="#fff"/>
          <path id="Path_90142" data-name="Path 90142" d="M83.459,63.737l-.6,2H80.909l3.1-9.385h2l3.16,9.385H87.217l-.611-2Zm.457-1.525h2.246L85,58.552Z" transform="translate(-61.01 -42.49)" fill="#fff"/>
          <path id="Path_90143" data-name="Path 90143" d="M123.043,58.472h-2V58.43c0-.637-.43-.984-1.248-.984-.8,0-1.345.388-1.345.97,0,.541.417.873,1.526,1.247l.652.222c1.775.6,2.509,1.359,2.509,2.634,0,1.705-1.427,2.924-3.438,2.924a3.2,3.2,0,0,1-3.009-1.288,2.71,2.71,0,0,1-.513-1.816h1.985l-.016.111c0,.846.569,1.345,1.54,1.345.9,0,1.454-.388,1.454-1.013,0-.541-.291-.79-1.441-1.206l-.735-.276c-1.815-.68-2.452-1.373-2.452-2.69,0-1.692,1.344-2.828,3.355-2.828,2,0,3.145.985,3.174,2.69" transform="translate(-87.606 -42.063)" fill="#fff"/>
          <path id="Path_90144" data-name="Path 90144" d="M151.213,58.575v7.583h-1.857V58.575h-2.412V56.912h6.626v1.663Z" transform="translate(-110.805 -42.915)" fill="#fff"/>
          <path id="Path_90145" data-name="Path 90145" d="M83.133,106.911h.649V109.3h-.595v-.318a2.214,2.214,0,0,1-1.319.372,2.565,2.565,0,0,1-1.193-.284,2.173,2.173,0,0,1-.879-.829,2.448,2.448,0,0,1-.328-1.288A2.423,2.423,0,0,1,79.8,105.7a2.319,2.319,0,0,1,.906-.869,2.682,2.682,0,0,1,1.3-.315,2.746,2.746,0,0,1,1.031.186,2.107,2.107,0,0,1,.788.544l-.419.419a1.906,1.906,0,0,0-1.373-.548,1.976,1.976,0,0,0-.97.237,1.727,1.727,0,0,0-.673.656,2,2,0,0,0,0,1.921,1.639,1.639,0,0,0,.652.625,1.864,1.864,0,0,0,.879.213,1.914,1.914,0,0,0,.646-.112,1.745,1.745,0,0,0,.565-.328Z" transform="translate(-59.924 -78.812)" fill="#fff"/>
          <path id="Path_90146" data-name="Path 90146" d="M101.473,108.354a1.1,1.1,0,0,1-.284-.808v-3.963h.649v3.908a.649.649,0,0,0,.138.446.528.528,0,0,0,.416.156.76.76,0,0,0,.318-.068l.034.534a1.361,1.361,0,0,1-.467.081,1.081,1.081,0,0,1-.8-.287" transform="translate(-76.302 -78.108)" fill="#fff"/>
          <path id="Path_90147" data-name="Path 90147" d="M108.611,112.7a1.714,1.714,0,0,1-.666-.652,1.972,1.972,0,0,1,0-1.887,1.691,1.691,0,0,1,.666-.649,2.087,2.087,0,0,1,1.917,0,1.7,1.7,0,0,1,.663.649,1.975,1.975,0,0,1,0,1.887,1.724,1.724,0,0,1-.663.652,2.058,2.058,0,0,1-1.917,0m1.579-.49a1.12,1.12,0,0,0,.429-.446,1.475,1.475,0,0,0,0-1.319,1.1,1.1,0,0,0-.429-.443,1.309,1.309,0,0,0-1.237,0,1.12,1.12,0,0,0-.433.443,1.448,1.448,0,0,0,0,1.319,1.142,1.142,0,0,0,.433.446,1.284,1.284,0,0,0,1.237,0" transform="translate(-81.216 -82.4)" fill="#fff"/>
          <path id="Path_90148" data-name="Path 90148" d="M128.658,105.213a1.653,1.653,0,0,1,.646.642,2.071,2.071,0,0,1,0,1.91,1.646,1.646,0,0,1-.646.646,1.885,1.885,0,0,1-.933.23,1.694,1.694,0,0,1-.73-.156,1.4,1.4,0,0,1-.548-.453v.568h-.622v-5.018h.649v1.975a1.376,1.376,0,0,1,.541-.429,1.717,1.717,0,0,1,.71-.145,1.884,1.884,0,0,1,.933.23m-.368,2.7a1.143,1.143,0,0,0,.433-.446,1.445,1.445,0,0,0,0-1.318,1.121,1.121,0,0,0-.433-.443,1.3,1.3,0,0,0-1.234,0,1.093,1.093,0,0,0-.433.443,1.476,1.476,0,0,0,0,1.318,1.114,1.114,0,0,0,.433.446,1.278,1.278,0,0,0,1.234,0" transform="translate(-94.88 -78.108)" fill="#fff"/>
          <path id="Path_90149" data-name="Path 90149" d="M146.254,109.309v3.584h-.622v-.568a1.406,1.406,0,0,1-.548.453,1.7,1.7,0,0,1-.73.156,1.885,1.885,0,0,1-.933-.23,1.646,1.646,0,0,1-.646-.646,2.072,2.072,0,0,1,0-1.91,1.653,1.653,0,0,1,.646-.642,1.885,1.885,0,0,1,.933-.23,1.717,1.717,0,0,1,.71.145,1.379,1.379,0,0,1,.541.429v-.541Zm-1.231,2.9a1.116,1.116,0,0,0,.433-.446,1.476,1.476,0,0,0,0-1.319,1.1,1.1,0,0,0-.433-.443,1.3,1.3,0,0,0-1.234,0,1.122,1.122,0,0,0-.433.443,1.448,1.448,0,0,0,0,1.319,1.144,1.144,0,0,0,.433.446,1.278,1.278,0,0,0,1.234,0" transform="translate(-107.485 -82.4)" fill="#fff"/>
          <path id="Path_90150" data-name="Path 90150" d="M162.238,108.354a1.1,1.1,0,0,1-.284-.808v-3.963h.649v3.908a.649.649,0,0,0,.139.446.528.528,0,0,0,.416.156.76.76,0,0,0,.318-.068l.034.534a1.361,1.361,0,0,1-.467.081,1.081,1.081,0,0,1-.8-.287" transform="translate(-122.123 -78.108)" fill="#fff"/>
          <path id="Path_90151" data-name="Path 90151" d="M106.2,129.985a1.172,1.172,0,0,1,.232.747,1.075,1.075,0,0,1-.455.93,2.265,2.265,0,0,1-1.325.325H102.43v-4.65h2.086a2.056,2.056,0,0,1,1.232.319,1.034,1.034,0,0,1,.435.883,1.149,1.149,0,0,1-.169.631,1.1,1.1,0,0,1-.455.405,1.193,1.193,0,0,1,.638.408m-3.1-2.109v1.488h1.362a1.383,1.383,0,0,0,.787-.189.7.7,0,0,0,0-1.109,1.384,1.384,0,0,0-.787-.189Zm2.378,3.388a.647.647,0,0,0,.286-.585q0-.777-1.136-.777h-1.528v1.548h1.528a1.573,1.573,0,0,0,.85-.186" transform="translate(-77.238 -96.02)" fill="#fff"/>
          <path id="Path_90152" data-name="Path 90152" d="M124.145,131.828v3.521h-.611v-.558a1.383,1.383,0,0,1-.538.445,1.665,1.665,0,0,1-.717.153,1.849,1.849,0,0,1-.917-.226,1.618,1.618,0,0,1-.634-.634,1.889,1.889,0,0,1-.229-.94,1.869,1.869,0,0,1,.229-.937,1.624,1.624,0,0,1,.634-.631,1.851,1.851,0,0,1,.917-.226,1.686,1.686,0,0,1,.7.143,1.358,1.358,0,0,1,.531.422v-.531Zm-1.209,2.846a1.1,1.1,0,0,0,.425-.439,1.449,1.449,0,0,0,0-1.3,1.076,1.076,0,0,0-.425-.435,1.279,1.279,0,0,0-1.212,0,1.1,1.1,0,0,0-.425.435,1.423,1.423,0,0,0,0,1.3,1.123,1.123,0,0,0,.425.439,1.255,1.255,0,0,0,1.212,0" transform="translate(-90.863 -99.381)" fill="#fff"/>
          <path id="Path_90153" data-name="Path 90153" d="M141.432,132.183a1.529,1.529,0,0,1,.4,1.139v2.026h-.637v-1.953a1.081,1.081,0,0,0-.246-.771.925.925,0,0,0-.7-.259,1.1,1.1,0,0,0-.817.3,1.18,1.18,0,0,0-.3.867v1.814h-.638v-3.521h.611v.532a1.238,1.238,0,0,1,.521-.419,1.822,1.822,0,0,1,.747-.146,1.455,1.455,0,0,1,1.066.389" transform="translate(-104.427 -99.381)" fill="#fff"/>
          <path id="Path_90154" data-name="Path 90154" d="M156.492,129.491l-.731.678v.963h-.638V126.2h.638v3.162l1.92-1.754h.77l-1.481,1.455,1.627,2.066h-.784Z" transform="translate(-116.972 -95.164)" fill="#fff"/>
          <path id="Path_90155" data-name="Path 90155" d="M101.857,47.633a.405.405,0,0,1-.776.232c0-.011-.007-.023-.01-.034a.4.4,0,0,1,.259-.481.406.406,0,0,1,.516.249c0,.012.007.023.01.034" transform="translate(-76.204 -35.687)" fill="#c9edee"/>
          <path id="Path_90156" data-name="Path 90156" d="M98.89,40.778a.405.405,0,0,1-.724.364.342.342,0,0,1-.016-.032.4.4,0,0,1,.172-.519.406.406,0,0,1,.552.155c.006.01.011.021.016.032" transform="translate(-73.984 -30.569)" fill="#c9edee"/>
          <path id="Path_90157" data-name="Path 90157" d="M94.777,34.541a.405.405,0,0,1-.65.483L94.106,35a.4.4,0,0,1,.079-.541.406.406,0,0,1,.57.057.336.336,0,0,1,.022.029" transform="translate(-70.908 -25.912)" fill="#c9edee"/>
          <path id="Path_90158" data-name="Path 90158" d="M89.641,29.11a.406.406,0,0,1,.016.546.406.406,0,0,1-.572.043l-.026-.025a.4.4,0,0,1-.017-.546.407.407,0,0,1,.572-.042l.026.025" transform="translate(-67.069 -21.859)" fill="#c9edee"/>
          <path id="Path_90159" data-name="Path 90159" d="M106.794,45.76a.459.459,0,0,1-.292.542.455.455,0,0,1-.581-.28.324.324,0,0,1-.012-.039.456.456,0,0,1,.873-.262.362.362,0,0,1,.012.039" transform="translate(-79.851 -34.246)" fill="#c9edee"/>
          <path id="Path_90160" data-name="Path 90160" d="M103.457,38.032a.459.459,0,0,1-.193.585.456.456,0,0,1-.621-.175.379.379,0,0,1-.018-.036.456.456,0,0,1,.814-.409c.007.012.013.024.018.036" transform="translate(-77.354 -28.475)" fill="#c9edee"/>
          <path id="Path_90161" data-name="Path 90161" d="M98.828,31a.458.458,0,0,1-.089.609.456.456,0,0,1-.642-.064c-.009-.011-.017-.021-.024-.032a.456.456,0,0,1,.731-.545l.024.032" transform="translate(-73.893 -23.226)" fill="#c9edee"/>
          <path id="Path_90162" data-name="Path 90162" d="M93.05,24.881a.459.459,0,0,1,.018.616.456.456,0,0,1-.643.048l-.03-.028a.456.456,0,0,1,.625-.664l.03.028" transform="translate(-69.574 -18.657)" fill="#c9edee"/>
          <path id="Path_90163" data-name="Path 90163" d="M112.224,43.73a.515.515,0,0,1-.328.608.512.512,0,0,1-.652-.314.413.413,0,0,1-.013-.044.512.512,0,0,1,.98-.294c.005.015.009.029.013.044" transform="translate(-83.863 -32.683)" fill="#c9edee"/>
          <path id="Path_90164" data-name="Path 90164" d="M108.479,35.058a.514.514,0,0,1-.217.656.511.511,0,0,1-.7-.2.358.358,0,0,1-.02-.041.512.512,0,0,1,.913-.46c.007.013.014.027.02.041" transform="translate(-81.061 -26.208)" fill="#c9edee"/>
          <path id="Path_90165" data-name="Path 90165" d="M103.286,27.169a.514.514,0,0,1-.1.684.511.511,0,0,1-.72-.072c-.01-.012-.019-.024-.027-.036a.512.512,0,0,1,.82-.611c.01.012.019.024.027.036" transform="translate(-77.177 -20.318)" fill="#c9edee"/>
          <path id="Path_90166" data-name="Path 90166" d="M96.8,20.3a.514.514,0,0,1,.02.691.511.511,0,0,1-.722.054c-.012-.01-.023-.02-.033-.031a.512.512,0,0,1,.7-.744.437.437,0,0,1,.033.031" transform="translate(-72.329 -15.191)" fill="#c9edee"/>
          <path id="Path_90167" data-name="Path 90167" d="M118.148,41.516a.576.576,0,0,1-.366.681.573.573,0,0,1-.729-.352q-.008-.024-.015-.049a.573.573,0,0,1,1.1-.329q.008.024.015.049" transform="translate(-88.24 -30.979)" fill="#c9edee"/>
          <path id="Path_90168" data-name="Path 90168" d="M113.959,31.814a.576.576,0,0,1-.243.734.572.572,0,0,1-.78-.22.471.471,0,0,1-.023-.045.573.573,0,0,1,1.022-.514c.008.015.016.03.023.045" transform="translate(-85.105 -23.735)" fill="#c9edee"/>
          <path id="Path_90169" data-name="Path 90169" d="M108.147,22.987a.576.576,0,0,1-.112.765.572.572,0,0,1-.806-.081c-.011-.013-.021-.027-.03-.041a.573.573,0,0,1,.917-.684c.011.013.021.027.03.041" transform="translate(-80.759 -17.145)" fill="#c9edee"/>
          <path id="Path_90170" data-name="Path 90170" d="M100.893,15.3a.576.576,0,0,1,.023.773.572.572,0,0,1-.808.06c-.013-.011-.025-.023-.037-.035a.573.573,0,0,1,.785-.833c.013.011.025.023.037.035" transform="translate(-75.337 -11.408)" fill="#c9edee"/>
          <path id="Path_90171" data-name="Path 90171" d="M100.643,44.109a.405.405,0,0,1-.526.512.4.4,0,0,1-.226-.212c0-.011-.009-.022-.013-.033a.4.4,0,0,1,.216-.5.406.406,0,0,1,.536.2c0,.011.009.022.013.033" transform="translate(-75.296 -33.056)" fill="#c9edee"/>
          <path id="Path_90172" data-name="Path 90172" d="M97.085,37.542a.405.405,0,0,1-.689.426c-.007-.01-.013-.02-.019-.031A.4.4,0,0,1,96.5,37.4a.407.407,0,0,1,.563.106l.019.03" transform="translate(-72.635 -28.153)" fill="#c9edee"/>
          <path id="Path_90173" data-name="Path 90173" d="M92.439,31.689a.405.405,0,0,1-.6.539L91.81,32.2a.4.4,0,0,1,.031-.545.406.406,0,0,1,.573.007l.024.027" transform="translate(-69.161 -23.784)" fill="#c9edee"/>
          <path id="Path_90174" data-name="Path 90174" d="M105.409,41.795a.458.458,0,0,1-.243.566.456.456,0,0,1-.6-.228c-.006-.012-.011-.025-.015-.038a.456.456,0,0,1,.847-.338c.006.013.011.025.015.038" transform="translate(-78.815 -31.285)" fill="#c9edee"/>
          <path id="Path_90175" data-name="Path 90175" d="M101.4,34.39a.456.456,0,0,1-.483.671.453.453,0,0,1-.292-.191c-.008-.011-.015-.023-.021-.034a.456.456,0,0,1,.775-.48l.021.034" transform="translate(-75.82 -25.757)" fill="#c9edee"/>
          <path id="Path_90176" data-name="Path 90176" d="M96.177,27.794a.459.459,0,0,1-.035.615A.456.456,0,0,1,95.5,28.4l-.027-.03a.456.456,0,0,1,.68-.607.344.344,0,0,1,.027.03" transform="translate(-71.912 -20.832)" fill="#c9edee"/>
          <path id="Path_90177" data-name="Path 90177" d="M110.654,39.28a.515.515,0,0,1-.273.635.512.512,0,0,1-.677-.256c-.006-.014-.012-.028-.017-.042a.512.512,0,0,1,.95-.379q.01.021.017.042" transform="translate(-82.689 -29.361)" fill="#c9edee"/>
          <path id="Path_90178" data-name="Path 90178" d="M106.161,30.971a.515.515,0,0,1-.158.673.512.512,0,0,1-.712-.135c-.008-.013-.016-.025-.024-.039a.512.512,0,0,1,.87-.538c.008.013.016.026.024.039" transform="translate(-79.328 -23.157)" fill="#c9edee"/>
          <path id="Path_90179" data-name="Path 90179" d="M100.294,23.568a.514.514,0,0,1-.039.69.512.512,0,0,1-.724-.009.438.438,0,0,1-.03-.034.512.512,0,0,1,.763-.681l.03.034" transform="translate(-74.942 -17.63)" fill="#c9edee"/>
          <path id="Path_90180" data-name="Path 90180" d="M116.376,36.537a.576.576,0,0,1-.305.71.572.572,0,0,1-.758-.286c-.007-.015-.013-.031-.019-.047a.573.573,0,0,1,1.063-.424c.007.016.014.031.019.047" transform="translate(-86.914 -27.261)" fill="#c9edee"/>
          <path id="Path_90181" data-name="Path 90181" d="M111.35,27.241a.576.576,0,0,1-.177.752.572.572,0,0,1-.8-.15.5.5,0,0,1-.027-.043.573.573,0,0,1,.973-.6c.01.014.018.029.027.043" transform="translate(-83.154 -20.32)" fill="#c9edee"/>
          <path id="Path_90182" data-name="Path 90182" d="M104.786,18.958a.576.576,0,0,1-.044.772.572.572,0,0,1-.81-.01c-.012-.012-.023-.025-.034-.038a.573.573,0,0,1,.854-.762c.012.012.023.025.034.038" transform="translate(-78.247 -14.137)" fill="#c9edee"/>
          <path id="Path_90183" data-name="Path 90183" d="M83.638,24.654a.4.4,0,0,1-.445.676l-.03-.02a.4.4,0,0,1-.111-.535.407.407,0,0,1,.556-.141l.03.02" transform="translate(-62.583 -18.533)" fill="#a6e2e4"/>
          <path id="Path_90184" data-name="Path 90184" d="M76.952,21.3a.407.407,0,0,1,.2.508.406.406,0,0,1-.523.235l-.033-.014a.4.4,0,0,1,.32-.742l.033.014" transform="translate(-57.587 -16.034)" fill="#a6e2e4"/>
          <path id="Path_90185" data-name="Path 90185" d="M69.784,19.165a.407.407,0,0,1,.287.465.405.405,0,0,1-.474.322l-.035-.008a.4.4,0,0,1,.186-.787l.035.008" transform="translate(-52.232 -14.44)" fill="#a6e2e4"/>
          <path id="Path_90186" data-name="Path 90186" d="M62.353,18.3a.407.407,0,0,1,.364.408.4.4,0,0,1-.41.4l-.036,0a.4.4,0,0,1,.047-.807l.036,0" transform="translate(-46.681 -13.798)" fill="#a6e2e4"/>
          <path id="Path_90187" data-name="Path 90187" d="M86.3,19.857a.458.458,0,0,1,.125.6.456.456,0,0,1-.625.159l-.034-.022a.456.456,0,0,1,.5-.762l.034.022" transform="translate(-64.527 -14.908)" fill="#a6e2e4"/>
          <path id="Path_90188" data-name="Path 90188" d="M78.775,16.081a.459.459,0,0,1,.228.572.457.457,0,0,1-.589.265l-.037-.016a.456.456,0,0,1,.36-.837l.037.016" transform="translate(-58.906 -12.092)" fill="#a6e2e4"/>
          <path id="Path_90189" data-name="Path 90189" d="M70.711,13.67a.457.457,0,0,1,.132.816.454.454,0,0,1-.342.071l-.039-.009a.456.456,0,0,1,.21-.887l.039.009" transform="translate(-52.882 -10.295)" fill="#a6e2e4"/>
          <path id="Path_90190" data-name="Path 90190" d="M62.351,12.7a.458.458,0,0,1,.41.46.456.456,0,0,1-.462.45l-.04,0a.456.456,0,0,1,.052-.91l.041,0" transform="translate(-46.638 -9.572)" fill="#a6e2e4"/>
          <path id="Path_90191" data-name="Path 90191" d="M89.222,14.662a.515.515,0,0,1,.14.677.512.512,0,0,1-.7.178l-.038-.025a.512.512,0,0,1,.561-.855l.038.025" transform="translate(-66.666 -10.983)" fill="#a6e2e4"/>
          <path id="Path_90192" data-name="Path 90192" d="M80.781,10.424a.515.515,0,0,1,.256.642.512.512,0,0,1-.66.3l-.042-.018a.512.512,0,0,1,.4-.939l.042.018" transform="translate(-60.359 -7.822)" fill="#a6e2e4"/>
          <path id="Path_90193" data-name="Path 90193" d="M71.732,7.719a.514.514,0,0,1,.363.588.512.512,0,0,1-.6.408L71.453,8.7a.512.512,0,0,1,.235-1l.044.01" transform="translate(-53.599 -5.806)" fill="#a6e2e4"/>
          <path id="Path_90194" data-name="Path 90194" d="M62.35,6.625a.514.514,0,0,1,.459.516.511.511,0,0,1-.518.505l-.045,0A.512.512,0,0,1,62.3,6.623l.046,0" transform="translate(-46.59 -4.994)" fill="#a6e2e4"/>
          <path id="Path_90195" data-name="Path 90195" d="M92.414,8.994a.576.576,0,0,1,.157.757.572.572,0,0,1-.785.2l-.042-.028a.573.573,0,0,1,.628-.956.5.5,0,0,1,.043.028" transform="translate(-69 -6.701)" fill="#a6e2e4"/>
          <path id="Path_90196" data-name="Path 90196" d="M82.969,4.254a.576.576,0,0,1,.286.718.573.573,0,0,1-.738.333l-.047-.02a.573.573,0,0,1,.453-1.051l.047.02" transform="translate(-61.943 -3.165)" fill="#a6e2e4"/>
          <path id="Path_90197" data-name="Path 90197" d="M72.845,1.227a.576.576,0,0,1,.406.658.573.573,0,0,1-.669.456l-.049-.012A.573.573,0,0,1,72.8,1.215l.049.012" transform="translate(-54.379 -0.909)" fill="#a6e2e4"/>
          <path id="Path_90198" data-name="Path 90198" d="M62.349,0a.575.575,0,0,1,.514.577.572.572,0,0,1-.58.565l-.051,0A.573.573,0,0,1,62.3,0l.051,0" transform="translate(-46.539 -0.001)" fill="#a6e2e4"/>
          <path id="Path_90199" data-name="Path 90199" d="M86.845,26.733a.405.405,0,0,1-.5.635l-.028-.022a.4.4,0,0,1-.064-.543.407.407,0,0,1,.566-.092l.028.022" transform="translate(-64.98 -20.084)" fill="#a6e2e4"/>
          <path id="Path_90200" data-name="Path 90200" d="M80.474,22.82a.4.4,0,0,1-.383.712l-.032-.017a.4.4,0,0,1-.158-.523.406.406,0,0,1,.541-.189l.032.017" transform="translate(-60.22 -17.164)" fill="#a6e2e4"/>
          <path id="Path_90201" data-name="Path 90201" d="M73.52,20.072a.406.406,0,0,1,.246.488.406.406,0,0,1-.5.28l-.034-.011a.4.4,0,0,1,.254-.768l.034.011" transform="translate(-55.024 -15.116)" fill="#a6e2e4"/>
          <path id="Path_90202" data-name="Path 90202" d="M66.191,18.57a.4.4,0,0,1-.116.8l-.036-.005a.4.4,0,0,1-.328-.438.406.406,0,0,1,.444-.363l.036.005" transform="translate(-49.549 -13.998)" fill="#a6e2e4"/>
          <path id="Path_90203" data-name="Path 90203" d="M89.884,22.205a.459.459,0,0,1,.072.611.456.456,0,0,1-.637.1.324.324,0,0,1-.032-.025.456.456,0,0,1,.564-.716l.032.025" transform="translate(-67.208 -16.661)" fill="#a6e2e4"/>
          <path id="Path_90204" data-name="Path 90204" d="M82.715,17.793a.459.459,0,0,1,.178.59.456.456,0,0,1-.609.213l-.036-.019a.456.456,0,0,1,.431-.8l.036.019" transform="translate(-61.852 -13.369)" fill="#a6e2e4"/>
          <path id="Path_90205" data-name="Path 90205" d="M74.891,14.694a.459.459,0,0,1,.277.55.457.457,0,0,1-.563.316l-.038-.013a.456.456,0,0,1,.286-.865l.038.013" transform="translate(-56.006 -11.058)" fill="#a6e2e4"/>
          <path id="Path_90206" data-name="Path 90206" d="M66.646,13a.458.458,0,0,1,.368.493.456.456,0,0,1-.5.409l-.04-.006a.456.456,0,0,1,.131-.9l.04.006" transform="translate(-49.847 -9.797)" fill="#a6e2e4"/>
          <path id="Path_90207" data-name="Path 90207" d="M93.231,17.3a.515.515,0,0,1,.081.686.512.512,0,0,1-.714.117l-.036-.028a.512.512,0,0,1,.633-.8l.036.028" transform="translate(-69.663 -12.949)" fill="#a6e2e4"/>
          <path id="Path_90208" data-name="Path 90208" d="M85.187,12.345a.512.512,0,0,1-.093.923.509.509,0,0,1-.391-.022l-.04-.022a.512.512,0,0,1,.484-.9l.04.021" transform="translate(-63.652 -9.255)" fill="#a6e2e4"/>
          <path id="Path_90209" data-name="Path 90209" d="M76.406,8.867a.515.515,0,0,1,.311.617.512.512,0,0,1-.631.354l-.043-.014a.512.512,0,0,1,.32-.971l.043.014" transform="translate(-57.091 -6.661)" fill="#a6e2e4"/>
          <path id="Path_90210" data-name="Path 90210" d="M67.154,6.968a.514.514,0,0,1,.413.554.511.511,0,0,1-.56.459l-.045-.007a.512.512,0,0,1,.147-1.012l.045.006" transform="translate(-50.18 -5.247)" fill="#a6e2e4"/>
          <path id="Path_90211" data-name="Path 90211" d="M96.883,11.941a.576.576,0,0,1,.091.768.573.573,0,0,1-.8.131c-.014-.01-.027-.02-.04-.031a.573.573,0,0,1,.709-.9l.04.032" transform="translate(-72.341 -8.9)" fill="#a6e2e4"/>
          <path id="Path_90212" data-name="Path 90212" d="M87.884,6.4a.576.576,0,0,1,.223.74.573.573,0,0,1-.764.268L87.3,7.386a.573.573,0,0,1,.542-1.008l.045.024" transform="translate(-65.616 -4.767)" fill="#a6e2e4"/>
          <path id="Path_90213" data-name="Path 90213" d="M78.059,2.511a.576.576,0,0,1,.348.69.573.573,0,0,1-.706.4l-.048-.016A.573.573,0,0,1,78.011,2.5l.048.016" transform="translate(-58.276 -1.866)" fill="#a6e2e4"/>
          <path id="Path_90214" data-name="Path 90214" d="M67.707.385A.576.576,0,0,1,68.17,1a.572.572,0,0,1-.627.513l-.05-.007A.573.573,0,0,1,67.657.378l.05.007" transform="translate(-50.543 -0.283)" fill="#a6e2e4"/>
          <path id="Path_90215" data-name="Path 90215" d="M54.883,18.738a.407.407,0,0,1,.429.339.4.4,0,0,1-.335.464l-.036,0a.4.4,0,0,1-.095-.8l.036,0" transform="translate(-41.102 -14.128)" fill="#6ccfd4"/>
          <path id="Path_90216" data-name="Path 90216" d="M47.6,20.463a.408.408,0,0,1,.482.259.4.4,0,0,1-.249.515l-.034.01a.4.4,0,0,1-.233-.774l.034-.01" transform="translate(-35.665 -15.421)" fill="#6ccfd4"/>
          <path id="Path_90217" data-name="Path 90217" d="M40.735,23.424a.408.408,0,0,1,.52.172.4.4,0,0,1-.156.55l-.032.016a.4.4,0,0,1-.364-.722l.032-.016" transform="translate(-30.536 -17.636)" fill="#6ccfd4"/>
          <path id="Path_90218" data-name="Path 90218" d="M34.486,27.53a.408.408,0,0,1,.542.079.4.4,0,0,1-.057.569l-.029.021a.4.4,0,0,1-.484-.648l.029-.022" transform="translate(-25.87 -20.707)" fill="#6ccfd4"/>
          <path id="Path_90219" data-name="Path 90219" d="M53.948,13.188a.459.459,0,0,1,.483.382.456.456,0,0,1-.377.524l-.04,0a.456.456,0,0,1-.106-.905l.04,0" transform="translate(-40.361 -9.944)" fill="#6ccfd4"/>
          <path id="Path_90220" data-name="Path 90220" d="M45.758,15.132a.459.459,0,0,1,.542.292.456.456,0,0,1-.28.581l-.039.012a.456.456,0,0,1-.262-.873l.039-.012" transform="translate(-34.245 -11.4)" fill="#6ccfd4"/>
          <path id="Path_90221" data-name="Path 90221" d="M38.031,18.47a.459.459,0,0,1,.585.193.456.456,0,0,1-.175.621L38.4,19.3a.456.456,0,0,1-.409-.814l.036-.018" transform="translate(-28.475 -13.898)" fill="#6ccfd4"/>
          <path id="Path_90222" data-name="Path 90222" d="M31,23.1a.458.458,0,0,1,.609.089.456.456,0,0,1-.064.642.385.385,0,0,1-.032.024.456.456,0,0,1-.545-.73L31,23.1" transform="translate(-23.226 -17.358)" fill="#6ccfd4"/>
          <path id="Path_90223" data-name="Path 90223" d="M52.92,7.178a.515.515,0,0,1,.542.428.512.512,0,0,1-.423.587l-.045.005a.512.512,0,0,1-.119-1.016l.045-.005" transform="translate(-39.547 -5.411)" fill="#6ccfd4"/>
          <path id="Path_90224" data-name="Path 90224" d="M43.729,9.36a.515.515,0,0,1,.608.328.512.512,0,0,1-.314.652l-.044.013a.512.512,0,0,1-.294-.979l.044-.013" transform="translate(-32.683 -7.046)" fill="#6ccfd4"/>
          <path id="Path_90225" data-name="Path 90225" d="M35.058,13.1a.514.514,0,0,1,.656.217.512.512,0,0,1-.2.7l-.041.02a.512.512,0,0,1-.46-.913l.041-.021" transform="translate(-26.208 -9.848)" fill="#6ccfd4"/>
          <path id="Path_90226" data-name="Path 90226" d="M27.168,18.3a.514.514,0,0,1,.684.1.511.511,0,0,1-.072.72l-.036.027a.512.512,0,0,1-.611-.82l.036-.027" transform="translate(-20.317 -13.733)" fill="#6ccfd4"/>
          <path id="Path_90227" data-name="Path 90227" d="M51.8.621a.576.576,0,0,1,.607.479.573.573,0,0,1-.473.657l-.051.006A.573.573,0,0,1,51.748.627L51.8.621" transform="translate(-38.659 -0.467)" fill="#6ccfd4"/>
          <path id="Path_90228" data-name="Path 90228" d="M41.515,3.062a.576.576,0,0,1,.681.367.572.572,0,0,1-.351.729l-.049.015a.573.573,0,0,1-.329-1.1l.049-.015" transform="translate(-30.979 -2.296)" fill="#6ccfd4"/>
          <path id="Path_90229" data-name="Path 90229" d="M31.813,7.253a.576.576,0,0,1,.734.243.573.573,0,0,1-.22.78l-.045.023a.573.573,0,0,1-.514-1.022l.045-.023" transform="translate(-23.734 -5.432)" fill="#6ccfd4"/>
          <path id="Path_90230" data-name="Path 90230" d="M22.987,13.064a.575.575,0,0,1,.765.112.572.572,0,0,1-.081.806c-.013.011-.027.021-.041.03a.573.573,0,0,1-.684-.917c.013-.011.027-.021.041-.03" transform="translate(-17.144 -9.777)" fill="#6ccfd4"/>
          <path id="Path_90231" data-name="Path 90231" d="M58.713,18.363a.407.407,0,0,1,.4.374.4.4,0,0,1-.374.434H58.7a.4.4,0,0,1-.025-.808h.036" transform="translate(-43.963 -13.847)" fill="#6ccfd4"/>
          <path id="Path_90232" data-name="Path 90232" d="M51.311,19.454a.407.407,0,0,1,.458.3.4.4,0,0,1-.293.492l-.035.007a.4.4,0,0,1-.165-.791l.035-.007" transform="translate(-38.435 -14.665)" fill="#6ccfd4"/>
          <path id="Path_90233" data-name="Path 90233" d="M44.211,21.813a.407.407,0,0,1,.5.216.4.4,0,0,1-.2.535l-.033.013a.4.4,0,0,1-.3-.751l.033-.013" transform="translate(-33.133 -16.431)" fill="#6ccfd4"/>
          <path id="Path_90234" data-name="Path 90234" d="M37.63,25.366a.408.408,0,0,1,.533.125.4.4,0,0,1-.107.562l-.031.019a.4.4,0,0,1-.426-.687l.03-.019" transform="translate(-28.219 -19.089)" fill="#6ccfd4"/>
          <path id="Path_90235" data-name="Path 90235" d="M58.233,12.765a.459.459,0,0,1,.448.422.456.456,0,0,1-.421.489h-.04a.456.456,0,0,1-.028-.911h.041" transform="translate(-43.563 -9.625)" fill="#6ccfd4"/>
          <path id="Path_90236" data-name="Path 90236" d="M49.905,13.994a.458.458,0,0,1,.515.338.455.455,0,0,1-.329.555l-.04.008A.456.456,0,0,1,49.866,14l.04-.008" transform="translate(-37.343 -10.548)" fill="#6ccfd4"/>
          <path id="Path_90237" data-name="Path 90237" d="M41.919,16.651a.459.459,0,0,1,.566.243.456.456,0,0,1-.228.6l-.038.015a.456.456,0,0,1-.338-.847l.038-.015" transform="translate(-31.378 -12.537)" fill="#6ccfd4"/>
          <path id="Path_90238" data-name="Path 90238" d="M34.515,20.655a.459.459,0,0,1,.6.141.456.456,0,0,1-.12.634l-.034.021a.456.456,0,0,1-.48-.775l.034-.021" transform="translate(-25.85 -15.532)" fill="#6ccfd4"/>
          <path id="Path_90239" data-name="Path 90239" d="M57.712,6.7a.514.514,0,0,1,.5.474.512.512,0,0,1-.472.549H57.7A.512.512,0,0,1,57.666,6.7h.046" transform="translate(-43.127 -5.054)" fill="#6ccfd4"/>
          <path id="Path_90240" data-name="Path 90240" d="M48.367,8.082a.512.512,0,0,1,.522.767.509.509,0,0,1-.314.235l-.045.009a.512.512,0,0,1-.208-1l.045-.009" transform="translate(-36.148 -6.089)" fill="#6ccfd4"/>
          <path id="Path_90241" data-name="Path 90241" d="M39.4,11.064a.515.515,0,0,1,.635.273.512.512,0,0,1-.256.677l-.042.017a.512.512,0,0,1-.379-.95l.042-.017" transform="translate(-29.454 -8.321)" fill="#6ccfd4"/>
          <path id="Path_90242" data-name="Path 90242" d="M31.095,15.558a.515.515,0,0,1,.673.159.512.512,0,0,1-.135.711l-.039.024a.512.512,0,0,1-.538-.87l.039-.024" transform="translate(-23.25 -11.683)" fill="#6ccfd4"/>
          <path id="Path_90243" data-name="Path 90243" d="M57.144.089a.576.576,0,0,1,.563.53.573.573,0,0,1-.528.614h-.05A.573.573,0,0,1,57.093.091l.051,0" transform="translate(-42.652 -0.067)" fill="#6ccfd4"/>
          <path id="Path_90244" data-name="Path 90244" d="M46.689,1.632a.576.576,0,0,1,.646.424.572.572,0,0,1-.413.7l-.05.01a.573.573,0,0,1-.233-1.12l.05-.01" transform="translate(-34.843 -1.225)" fill="#6ccfd4"/>
          <path id="Path_90245" data-name="Path 90245" d="M36.661,4.968a.576.576,0,0,1,.71.305.573.573,0,0,1-.286.757l-.047.019a.573.573,0,0,1-.424-1.063l.047-.019" transform="translate(-27.355 -3.723)" fill="#6ccfd4"/>
          <path id="Path_90246" data-name="Path 90246" d="M27.365,10a.576.576,0,0,1,.752.177.572.572,0,0,1-.15.8L27.924,11a.573.573,0,0,1-.6-.973L27.365,10" transform="translate(-20.414 -7.483)" fill="#6ccfd4"/>
          <path id="Path_90247" data-name="Path 90247" d="M29.046,32.656a.408.408,0,0,1,.547-.016.4.4,0,0,1,.043.571l-.025.026a.405.405,0,0,1-.59-.554l.025-.026" transform="translate(-21.81 -24.539)" fill="#24bcc4"/>
          <path id="Path_90248" data-name="Path 90248" d="M24.579,38.647a.408.408,0,0,1,.536-.111.4.4,0,0,1,.141.555c-.006.01-.013.02-.02.03a.405.405,0,0,1-.677-.444l.02-.03" transform="translate(-18.476 -29.016)" fill="#24bcc4"/>
          <path id="Path_90249" data-name="Path 90249" d="M21.223,45.32a.408.408,0,0,1,.509-.2.4.4,0,0,1,.236.522c0,.011-.009.022-.014.033a.405.405,0,0,1-.744-.32c0-.011.009-.022.014-.033" transform="translate(-15.973 -34.002)" fill="#24bcc4"/>
          <path id="Path_90250" data-name="Path 90250" d="M19.08,52.475a.408.408,0,0,1,.466-.287.4.4,0,0,1,.323.473.328.328,0,0,1-.008.035.405.405,0,0,1-.788-.186c0-.012,0-.024.008-.035" transform="translate(-14.376 -39.347)" fill="#24bcc4"/>
          <path id="Path_90251" data-name="Path 90251" d="M18.214,59.891a.407.407,0,0,1,.409-.363.4.4,0,0,1,.4.41c0,.012,0,.024,0,.036a.405.405,0,0,1-.809-.046c0-.012,0-.024,0-.036" transform="translate(-13.733 -44.888)" fill="#24bcc4"/>
          <path id="Path_90252" data-name="Path 90252" d="M24.881,28.878a.459.459,0,0,1,.616-.018.456.456,0,0,1,.048.643c-.009.01-.018.02-.028.029a.456.456,0,0,1-.663-.625l.028-.03" transform="translate(-18.657 -21.679)" fill="#24bcc4"/>
          <path id="Path_90253" data-name="Path 90253" d="M19.857,35.631a.459.459,0,0,1,.6-.125.456.456,0,0,1,.159.625c-.007.012-.015.023-.022.034a.456.456,0,0,1-.762-.5c.007-.012.014-.023.022-.034" transform="translate(-14.908 -26.726)" fill="#24bcc4"/>
          <path id="Path_90254" data-name="Path 90254" d="M16.082,43.153a.458.458,0,0,1,.572-.227.456.456,0,0,1,.265.588c0,.013-.01.025-.016.037a.456.456,0,0,1-.837-.36c0-.013.01-.025.016-.037" transform="translate(-12.092 -32.346)" fill="#24bcc4"/>
          <path id="Path_90255" data-name="Path 90255" d="M13.67,51.217a.459.459,0,0,1,.524-.323.456.456,0,0,1,.364.533c0,.013-.006.027-.009.039a.456.456,0,0,1-.887-.21.351.351,0,0,1,.009-.039" transform="translate(-10.295 -38.371)" fill="#24bcc4"/>
          <path id="Path_90256" data-name="Path 90256" d="M12.7,59.577a.458.458,0,0,1,.46-.41.456.456,0,0,1,.45.462c0,.014,0,.027,0,.04a.456.456,0,0,1-.91-.052c0-.014,0-.027,0-.04" transform="translate(-9.571 -44.616)" fill="#24bcc4"/>
          <path id="Path_90257" data-name="Path 90257" d="M20.3,24.785a.514.514,0,0,1,.691-.02.511.511,0,0,1,.054.722c-.01.012-.02.023-.031.033a.512.512,0,0,1-.744-.7q.015-.017.031-.033" transform="translate(-15.191 -18.581)" fill="#24bcc4"/>
          <path id="Path_90258" data-name="Path 90258" d="M14.662,32.363a.514.514,0,0,1,.677-.14.511.511,0,0,1,.178.7c-.008.013-.016.026-.025.038a.512.512,0,0,1-.855-.561c.008-.013.016-.026.025-.038" transform="translate(-10.983 -24.244)" fill="#24bcc4"/>
          <path id="Path_90259" data-name="Path 90259" d="M10.425,40.8a.515.515,0,0,1,.642-.256.512.512,0,0,1,.3.66c-.005.014-.011.028-.018.042a.512.512,0,0,1-.939-.4c.005-.014.011-.028.018-.042" transform="translate(-7.822 -30.551)" fill="#24bcc4"/>
          <path id="Path_90260" data-name="Path 90260" d="M7.719,49.854a.515.515,0,0,1,.588-.363.512.512,0,0,1,.408.6c0,.015-.006.03-.011.044a.512.512,0,0,1-1-.235q0-.022.01-.044" transform="translate(-5.806 -37.312)" fill="#24bcc4"/>
          <path id="Path_90261" data-name="Path 90261" d="M6.625,59.237a.515.515,0,0,1,.516-.46.511.511,0,0,1,.505.518c0,.015,0,.03,0,.045a.512.512,0,0,1-1.021-.059c0-.015,0-.03,0-.045" transform="translate(-4.994 -44.321)" fill="#24bcc4"/>
          <path id="Path_90262" data-name="Path 90262" d="M15.3,20.32a.576.576,0,0,1,.773-.023.572.572,0,0,1,.06.808c-.011.013-.023.025-.035.037a.573.573,0,0,1-.833-.785c.011-.013.023-.025.035-.037" transform="translate(-11.408 -15.202)" fill="#24bcc4"/>
          <path id="Path_90263" data-name="Path 90263" d="M8.993,28.8a.576.576,0,0,1,.757-.157.572.572,0,0,1,.2.785.5.5,0,0,1-.028.043.573.573,0,0,1-.956-.628c.009-.015.018-.029.028-.043" transform="translate(-6.7 -21.538)" fill="#24bcc4"/>
          <path id="Path_90264" data-name="Path 90264" d="M4.254,38.243a.576.576,0,0,1,.718-.286.573.573,0,0,1,.333.738c-.006.016-.013.031-.02.047a.573.573,0,0,1-1.051-.453c.006-.016.013-.031.02-.047" transform="translate(-3.165 -28.594)" fill="#24bcc4"/>
          <path id="Path_90265" data-name="Path 90265" d="M1.226,48.368a.576.576,0,0,1,.658-.406.573.573,0,0,1,.456.669c0,.017-.007.033-.012.049a.573.573,0,0,1-1.114-.263c0-.017.007-.033.012-.049" transform="translate(-0.908 -36.159)" fill="#24bcc4"/>
          <path id="Path_90266" data-name="Path 90266" d="M0,58.865a.576.576,0,0,1,.577-.514.573.573,0,0,1,.565.58c0,.017,0,.034,0,.051A.573.573,0,0,1,0,58.916c0-.017,0-.034,0-.051" transform="translate(-0.001 -44)" fill="#24bcc4"/>
          <path id="Path_90267" data-name="Path 90267" d="M31.765,30.006a.408.408,0,0,1,.546.031.4.4,0,0,1-.007.572l-.027.024a.4.4,0,0,1-.539-.6l.027-.024" transform="translate(-23.84 -22.558)" fill="#24bcc4"/>
          <path id="Path_90268" data-name="Path 90268" d="M26.8,35.59a.408.408,0,0,1,.544-.064.4.4,0,0,1,.093.565l-.022.028a.405.405,0,0,1-.636-.5c.007-.01.015-.019.022-.028" transform="translate(-20.132 -26.732)" fill="#24bcc4"/>
          <path id="Path_90269" data-name="Path 90269" d="M22.874,41.95a.408.408,0,0,1,.524-.157.4.4,0,0,1,.19.54c-.005.011-.011.021-.017.031a.405.405,0,0,1-.713-.382q.008-.016.017-.032" transform="translate(-17.205 -31.484)" fill="#24bcc4"/>
          <path id="Path_90270" data-name="Path 90270" d="M20.118,48.892a.408.408,0,0,1,.489-.246.4.4,0,0,1,.28.5.33.33,0,0,1-.011.034.405.405,0,0,1-.769-.253c0-.012.007-.023.011-.034" transform="translate(-15.151 -36.671)" fill="#24bcc4"/>
          <path id="Path_90271" data-name="Path 90271" d="M18.612,56.208a.408.408,0,0,1,.439-.327.4.4,0,0,1,.363.443c0,.012,0,.024-.005.036a.405.405,0,0,1-.8-.116c0-.012,0-.024.005-.036" transform="translate(-14.029 -42.136)" fill="#24bcc4"/>
          <path id="Path_90272" data-name="Path 90272" d="M27.918,25.884a.458.458,0,0,1,.615.035.456.456,0,0,1-.008.645l-.03.027a.456.456,0,0,1-.607-.68l.03-.027" transform="translate(-20.926 -19.441)" fill="#24bcc4"/>
          <path id="Path_90273" data-name="Path 90273" d="M22.329,32.178a.459.459,0,0,1,.611-.072.456.456,0,0,1,.1.637c-.008.011-.016.022-.025.032a.456.456,0,0,1-.716-.564l.025-.032" transform="translate(-16.754 -24.146)" fill="#24bcc4"/>
          <path id="Path_90274" data-name="Path 90274" d="M17.918,39.346a.458.458,0,0,1,.589-.177.456.456,0,0,1,.213.609c-.006.012-.012.024-.019.036a.456.456,0,0,1-.8-.431c.006-.012.012-.024.019-.036" transform="translate(-13.463 -29.502)" fill="#24bcc4"/>
          <path id="Path_90275" data-name="Path 90275" d="M14.818,47.171a.458.458,0,0,1,.55-.277.456.456,0,0,1,.316.562c0,.013-.008.026-.013.038a.456.456,0,0,1-.865-.285c0-.013.008-.026.013-.039" transform="translate(-11.152 -35.348)" fill="#24bcc4"/>
          <path id="Path_90276" data-name="Path 90276" d="M13.126,55.416a.458.458,0,0,1,.493-.368.456.456,0,0,1,.409.5c0,.014,0,.027-.006.04a.456.456,0,0,1-.9-.131c0-.014,0-.027.006-.04" transform="translate(-9.892 -41.508)" fill="#24bcc4"/>
          <path id="Path_90277" data-name="Path 90277" d="M23.693,21.425a.515.515,0,0,1,.69.039.512.512,0,0,1-.009.724l-.034.03a.512.512,0,0,1-.681-.763l.034-.03" transform="translate(-17.724 -16.07)" fill="#24bcc4"/>
          <path id="Path_90278" data-name="Path 90278" d="M17.421,28.488a.515.515,0,0,1,.686-.081.511.511,0,0,1,.117.714c-.009.012-.018.024-.028.036a.512.512,0,0,1-.8-.633.45.45,0,0,1,.028-.036" transform="translate(-13.043 -21.349)" fill="#24bcc4"/>
          <path id="Path_90279" data-name="Path 90279" d="M12.471,36.532a.514.514,0,0,1,.662-.2.512.512,0,0,1,.24.683c-.007.014-.014.027-.022.04a.512.512,0,0,1-.9-.484c.007-.014.014-.027.021-.04" transform="translate(-9.349 -27.36)" fill="#24bcc4"/>
          <path id="Path_90280" data-name="Path 90280" d="M8.992,45.314A.514.514,0,0,1,9.609,45a.512.512,0,0,1,.354.631c0,.015-.009.029-.014.043a.512.512,0,0,1-.971-.32c0-.015.009-.029.014-.043" transform="translate(-6.755 -33.921)" fill="#24bcc4"/>
          <path id="Path_90281" data-name="Path 90281" d="M7.092,54.566a.514.514,0,0,1,.554-.413.512.512,0,0,1,.458.56c0,.015,0,.03-.007.045a.512.512,0,0,1-1.012-.147c0-.015,0-.03.006-.045" transform="translate(-5.341 -40.833)" fill="#24bcc4"/>
          <path id="Path_90282" data-name="Path 90282" d="M19.082,16.56a.576.576,0,0,1,.772.044.573.573,0,0,1-.01.81c-.012.012-.025.023-.038.034a.573.573,0,0,1-.762-.854c.012-.012.025-.023.038-.034" transform="translate(-14.23 -12.391)" fill="#24bcc4"/>
          <path id="Path_90283" data-name="Path 90283" d="M12.065,24.463a.576.576,0,0,1,.768-.091.573.573,0,0,1,.131.8c-.01.014-.02.027-.031.04a.573.573,0,0,1-.9-.708c.01-.014.021-.027.031-.04" transform="translate(-8.993 -18.297)" fill="#24bcc4"/>
          <path id="Path_90284" data-name="Path 90284" d="M6.527,33.464a.576.576,0,0,1,.74-.223.573.573,0,0,1,.268.764c-.007.015-.015.03-.024.045A.573.573,0,0,1,6.5,33.508c.007-.015.015-.03.024-.045" transform="translate(-4.861 -25.023)" fill="#24bcc4"/>
          <path id="Path_90285" data-name="Path 90285" d="M2.635,43.288a.576.576,0,0,1,.69-.348.573.573,0,0,1,.4.706.5.5,0,0,1-.016.048.573.573,0,0,1-1.087-.358c0-.016.01-.033.016-.048" transform="translate(-1.959 -32.363)" fill="#24bcc4"/>
          <path id="Path_90286" data-name="Path 90286" d="M.509,53.64a.576.576,0,0,1,.62-.462.572.572,0,0,1,.513.627q0,.025-.007.05A.573.573,0,0,1,.5,53.69c0-.017,0-.034.007-.05" transform="translate(-0.377 -40.097)" fill="#24bcc4"/>
          <path id="Path_90287" data-name="Path 90287" d="M18.652,67.345a.407.407,0,0,1,.339-.429.405.405,0,0,1,.465.334c0,.012,0,.024,0,.036a.405.405,0,0,1-.8.094c0-.012,0-.024,0-.036" transform="translate(-14.064 -50.455)" fill="#009fae"/>
          <path id="Path_90288" data-name="Path 90288" d="M20.38,74.61a.407.407,0,0,1,.259-.481.406.406,0,0,1,.516.248.348.348,0,0,1,.01.034.4.4,0,0,1-.259.481.406.406,0,0,1-.516-.249c0-.011-.008-.023-.011-.034" transform="translate(-15.358 -55.88)" fill="#009fae"/>
          <path id="Path_90289" data-name="Path 90289" d="M23.346,81.466a.405.405,0,0,1,.48-.555.4.4,0,0,1,.244.192.325.325,0,0,1,.016.032.4.4,0,0,1-.172.519.407.407,0,0,1-.552-.155c-.006-.01-.011-.021-.016-.032" transform="translate(-17.578 -61)" fill="#009fae"/>
          <path id="Path_90290" data-name="Path 90290" d="M27.461,87.7a.406.406,0,0,1,.079-.54.406.406,0,0,1,.57.057l.021.029a.4.4,0,0,1-.079.541.406.406,0,0,1-.57-.057c-.008-.009-.015-.019-.022-.029" transform="translate(-20.655 -65.657)" fill="#009fae"/>
          <path id="Path_90291" data-name="Path 90291" d="M32.6,93.134a.407.407,0,0,1-.016-.546.406.406,0,0,1,.572-.042l.026.025a.4.4,0,0,1,.016.546.406.406,0,0,1-.572.043l-.026-.025" transform="translate(-24.495 -69.711)" fill="#009fae"/>
          <path id="Path_90292" data-name="Path 90292" d="M38.6,97.59a.406.406,0,0,1-.111-.535.406.406,0,0,1,.556-.141l.03.02a.4.4,0,0,1,.111.535.406.406,0,0,1-.556.141l-.03-.019" transform="translate(-28.981 -73.036)" fill="#009fae"/>
          <path id="Path_90293" data-name="Path 90293" d="M45.287,100.939a.407.407,0,0,1-.2-.508.406.406,0,0,1,.523-.235l.033.014a.4.4,0,0,1,.2.508.406.406,0,0,1-.523.235l-.033-.014" transform="translate(-33.977 -75.534)" fill="#009fae"/>
          <path id="Path_90294" data-name="Path 90294" d="M52.455,103.078a.407.407,0,0,1-.287-.465.405.405,0,0,1,.474-.322l.035.008a.4.4,0,0,1-.186.787l-.035-.008" transform="translate(-39.332 -77.128)" fill="#009fae"/>
          <path id="Path_90295" data-name="Path 90295" d="M59.886,103.943a.407.407,0,0,1-.364-.408.4.4,0,0,1,.41-.4l.036,0a.4.4,0,0,1-.046.807l-.036,0" transform="translate(-44.883 -77.771)" fill="#009fae"/>
          <path id="Path_90296" data-name="Path 90296" d="M13.187,67.979a.459.459,0,0,1,.382-.483.456.456,0,0,1,.524.377c0,.014,0,.027,0,.04a.456.456,0,0,1-.905.106c0-.013,0-.027,0-.04" transform="translate(-9.943 -50.891)" fill="#009fae"/>
          <path id="Path_90297" data-name="Path 90297" d="M15.132,76.168a.459.459,0,0,1,.292-.542.456.456,0,0,1,.581.28c0,.013.008.026.012.039a.456.456,0,0,1-.873.262c0-.013-.008-.026-.012-.039" transform="translate(-11.4 -57.007)" fill="#009fae"/>
          <path id="Path_90298" data-name="Path 90298" d="M18.469,83.9a.459.459,0,0,1,.193-.585.457.457,0,0,1,.621.175l.018.036a.456.456,0,0,1-.814.41c-.007-.012-.013-.024-.019-.036" transform="translate(-13.897 -62.778)" fill="#009fae"/>
          <path id="Path_90299" data-name="Path 90299" d="M23.1,90.927a.458.458,0,0,1,.089-.609.456.456,0,0,1,.642.064c.009.011.017.021.024.032a.456.456,0,0,1-.73.545c-.009-.011-.017-.021-.024-.032" transform="translate(-17.358 -68.027)" fill="#009fae"/>
          <path id="Path_90300" data-name="Path 90300" d="M28.878,97.048a.459.459,0,0,1-.018-.616.456.456,0,0,1,.643-.048l.029.028a.456.456,0,0,1-.625.663.394.394,0,0,1-.03-.028" transform="translate(-21.679 -72.596)" fill="#009fae"/>
          <path id="Path_90301" data-name="Path 90301" d="M35.63,102.071a.458.458,0,0,1-.125-.6.456.456,0,0,1,.625-.159l.034.022a.456.456,0,0,1-.5.762l-.034-.022" transform="translate(-26.725 -76.344)" fill="#009fae"/>
          <path id="Path_90302" data-name="Path 90302" d="M43.153,105.846a.458.458,0,0,1-.227-.572.456.456,0,0,1,.588-.265l.037.016a.456.456,0,0,1-.36.837l-.037-.016" transform="translate(-32.346 -79.16)" fill="#009fae"/>
          <path id="Path_90303" data-name="Path 90303" d="M51.216,108.257a.458.458,0,0,1-.323-.524.456.456,0,0,1,.533-.363l.039.01a.456.456,0,0,1-.21.887l-.039-.009" transform="translate(-38.37 -80.957)" fill="#009fae"/>
          <path id="Path_90304" data-name="Path 90304" d="M59.576,109.232a.459.459,0,0,1-.41-.46.456.456,0,0,1,.462-.45l.04,0a.456.456,0,0,1-.052.91l-.04,0" transform="translate(-44.615 -81.681)" fill="#009fae"/>
          <path id="Path_90305" data-name="Path 90305" d="M7.177,68.665a.515.515,0,0,1,.428-.542.512.512,0,0,1,.588.423c0,.015,0,.03.005.045a.512.512,0,0,1-1.016.12c0-.015,0-.03-.005-.045" transform="translate(-5.411 -51.364)" fill="#009fae"/>
          <path id="Path_90306" data-name="Path 90306" d="M9.359,77.856a.515.515,0,0,1,.328-.608.512.512,0,0,1,.652.315.444.444,0,0,1,.013.044.512.512,0,0,1-.979.294c-.005-.014-.01-.029-.013-.044" transform="translate(-7.045 -58.227)" fill="#009fae"/>
          <path id="Path_90307" data-name="Path 90307" d="M13.1,86.527a.514.514,0,0,1,.217-.656.511.511,0,0,1,.7.2.447.447,0,0,1,.02.041.512.512,0,0,1-.913.46c-.008-.013-.015-.027-.021-.041" transform="translate(-9.848 -64.703)" fill="#009fae"/>
          <path id="Path_90308" data-name="Path 90308" d="M18.3,94.418a.514.514,0,0,1,.1-.684.511.511,0,0,1,.72.072c.01.012.019.024.027.036a.512.512,0,0,1-.82.611c-.01-.012-.019-.024-.027-.036" transform="translate(-13.733 -70.594)" fill="#009fae"/>
          <path id="Path_90309" data-name="Path 90309" d="M24.785,101.287a.515.515,0,0,1-.02-.691.512.512,0,0,1,.722-.054c.012.01.023.02.033.031a.512.512,0,0,1-.7.744l-.033-.031" transform="translate(-18.581 -75.721)" fill="#009fae"/>
          <path id="Path_90310" data-name="Path 90310" d="M32.363,106.924a.514.514,0,0,1-.14-.677.511.511,0,0,1,.7-.178l.038.025a.512.512,0,0,1-.561.855l-.038-.025" transform="translate(-24.244 -79.928)" fill="#009fae"/>
          <path id="Path_90311" data-name="Path 90311" d="M40.8,111.161a.515.515,0,0,1-.256-.642.512.512,0,0,1,.66-.3l.042.018a.512.512,0,0,1-.4.939l-.042-.018" transform="translate(-30.551 -83.088)" fill="#009fae"/>
          <path id="Path_90312" data-name="Path 90312" d="M49.854,113.867a.515.515,0,0,1-.363-.588.511.511,0,0,1,.6-.407l.044.011a.512.512,0,0,1-.235,1l-.044-.01" transform="translate(-37.312 -85.105)" fill="#009fae"/>
          <path id="Path_90313" data-name="Path 90313" d="M59.236,114.961a.514.514,0,0,1-.46-.516.512.512,0,0,1,.518-.505l.045,0a.512.512,0,0,1-.059,1.021l-.046,0" transform="translate(-44.32 -85.917)" fill="#009fae"/>
          <path id="Path_90314" data-name="Path 90314" d="M.62,69.414a.576.576,0,0,1,.479-.607.573.573,0,0,1,.657.473c0,.017,0,.034.006.05a.573.573,0,0,1-1.136.134c0-.017,0-.034-.006-.05" transform="translate(-0.467 -51.879)" fill="#009fae"/>
          <path id="Path_90315" data-name="Path 90315" d="M3.062,79.7a.576.576,0,0,1,.367-.681.572.572,0,0,1,.729.352c.005.016.011.032.015.049a.573.573,0,0,1-1.1.329c-.006-.016-.011-.032-.015-.049" transform="translate(-2.296 -59.558)" fill="#009fae"/>
          <path id="Path_90316" data-name="Path 90316" d="M7.252,89.4a.576.576,0,0,1,.243-.734.573.573,0,0,1,.78.22.459.459,0,0,1,.023.045.573.573,0,0,1-1.022.514c-.008-.015-.016-.03-.023-.045" transform="translate(-5.431 -66.803)" fill="#009fae"/>
          <path id="Path_90317" data-name="Path 90317" d="M13.064,98.227a.575.575,0,0,1,.112-.765.573.573,0,0,1,.806.081c.011.013.021.027.03.041a.573.573,0,0,1-.917.684c-.011-.013-.021-.027-.03-.041" transform="translate(-9.777 -73.395)" fill="#009fae"/>
          <path id="Path_90318" data-name="Path 90318" d="M20.32,105.912a.576.576,0,0,1-.023-.773.573.573,0,0,1,.808-.06.45.45,0,0,1,.037.035.573.573,0,0,1-.785.833l-.037-.035" transform="translate(-15.201 -79.131)" fill="#009fae"/>
          <path id="Path_90319" data-name="Path 90319" d="M28.8,112.218a.576.576,0,0,1-.157-.757.572.572,0,0,1,.785-.2c.015.009.029.018.042.028a.573.573,0,0,1-.628.956l-.043-.028" transform="translate(-21.537 -83.837)" fill="#009fae"/>
          <path id="Path_90320" data-name="Path 90320" d="M38.243,116.958a.576.576,0,0,1-.286-.718.573.573,0,0,1,.738-.333l.046.02a.573.573,0,0,1-.452,1.051l-.047-.02" transform="translate(-28.594 -87.373)" fill="#009fae"/>
          <path id="Path_90321" data-name="Path 90321" d="M48.368,119.986a.576.576,0,0,1-.406-.658.573.573,0,0,1,.669-.456l.049.012A.573.573,0,0,1,48.417,120l-.049-.012" transform="translate(-36.158 -89.629)" fill="#009fae"/>
          <path id="Path_90322" data-name="Path 90322" d="M58.864,121.21a.576.576,0,0,1-.514-.577.573.573,0,0,1,.58-.565l.051,0a.573.573,0,0,1-.066,1.142l-.051,0" transform="translate(-43.999 -90.538)" fill="#009fae"/>
          <path id="Path_90323" data-name="Path 90323" d="M18.4,63.671a.407.407,0,0,1,.375-.4.405.405,0,0,1,.435.373c0,.012,0,.024,0,.036a.405.405,0,0,1-.81.025.351.351,0,0,1,0-.036" transform="translate(-13.875 -47.711)" fill="#009fae"/>
          <path id="Path_90324" data-name="Path 90324" d="M19.492,71.058a.406.406,0,0,1,.793-.165c0,.012.005.023.007.035a.405.405,0,0,1-.793.165c0-.012-.005-.023-.007-.035" transform="translate(-14.694 -53.228)" fill="#009fae"/>
          <path id="Path_90325" data-name="Path 90325" d="M21.853,78.143a.405.405,0,0,1,.526-.512.4.4,0,0,1,.226.212c0,.011.009.022.013.033a.405.405,0,0,1-.752.3c0-.011-.01-.022-.014-.033" transform="translate(-16.461 -58.519)" fill="#009fae"/>
          <path id="Path_90326" data-name="Path 90326" d="M25.411,84.712a.406.406,0,0,1,.126-.532.406.406,0,0,1,.563.106c.007.01.013.02.019.031a.4.4,0,0,1-.125.532.407.407,0,0,1-.563-.106l-.019-.031" transform="translate(-19.123 -63.424)" fill="#009fae"/>
          <path id="Path_90327" data-name="Path 90327" d="M30.058,90.564a.406.406,0,0,1,.031-.545.406.406,0,0,1,.573.007l.024.027a.4.4,0,0,1-.031.545.406.406,0,0,1-.573-.007l-.024-.027" transform="translate(-22.597 -67.793)" fill="#009fae"/>
          <path id="Path_90328" data-name="Path 90328" d="M35.652,95.521a.405.405,0,0,1,.5-.635l.028.022a.4.4,0,0,1,.064.543.407.407,0,0,1-.566.092l-.028-.022" transform="translate(-26.778 -71.492)" fill="#009fae"/>
          <path id="Path_90329" data-name="Path 90329" d="M42.022,99.434a.406.406,0,0,1-.157-.523.406.406,0,0,1,.541-.189l.031.017a.4.4,0,0,1,.158.523.406.406,0,0,1-.541.189l-.032-.017" transform="translate(-31.539 -74.411)" fill="#009fae"/>
          <path id="Path_90330" data-name="Path 90330" d="M48.977,102.181a.407.407,0,0,1-.246-.488.406.406,0,0,1,.5-.28l.034.011a.4.4,0,0,1,.246.488.406.406,0,0,1-.5.28l-.034-.011" transform="translate(-36.735 -76.46)" fill="#009fae"/>
          <path id="Path_90331" data-name="Path 90331" d="M56.305,103.682a.407.407,0,0,1-.327-.438.406.406,0,0,1,.444-.362l.036.005a.4.4,0,0,1-.116.8l-.036,0" transform="translate(-42.209 -77.578)" fill="#009fae"/>
          <path id="Path_90332" data-name="Path 90332" d="M12.89,63.83a.458.458,0,0,1,.422-.448.456.456,0,0,1,.489.421c0,.014,0,.027,0,.04a.456.456,0,0,1-.911.028c0-.014,0-.027,0-.041" transform="translate(-9.72 -47.793)" fill="#009fae"/>
          <path id="Path_90333" data-name="Path 90333" d="M14.119,72.156a.459.459,0,0,1,.338-.515.457.457,0,0,1,.555.33c0,.013.006.026.008.039a.456.456,0,0,1-.892.186c0-.013-.006-.026-.008-.04" transform="translate(-10.642 -54.011)" fill="#009fae"/>
          <path id="Path_90334" data-name="Path 90334" d="M16.776,80.143a.459.459,0,0,1,.243-.566.456.456,0,0,1,.6.228c.006.012.011.025.015.038a.456.456,0,0,1-.846.338c-.006-.012-.011-.025-.015-.038" transform="translate(-12.631 -59.975)" fill="#009fae"/>
          <path id="Path_90335" data-name="Path 90335" d="M20.78,87.548a.459.459,0,0,1,.141-.6.456.456,0,0,1,.634.12.37.37,0,0,1,.021.034.456.456,0,0,1-.775.48l-.021-.034" transform="translate(-15.626 -65.505)" fill="#009fae"/>
          <path id="Path_90336" data-name="Path 90336" d="M26.009,94.144a.458.458,0,0,1,.035-.615.456.456,0,0,1,.645.008l.027.03a.456.456,0,0,1-.68.607c-.01-.01-.019-.02-.027-.03" transform="translate(-19.536 -70.429)" fill="#009fae"/>
          <path id="Path_90337" data-name="Path 90337" d="M32.3,99.733a.459.459,0,0,1-.072-.612.456.456,0,0,1,.637-.1l.031.025a.456.456,0,0,1-.564.716l-.032-.025" transform="translate(-24.24 -74.6)" fill="#009fae"/>
          <path id="Path_90338" data-name="Path 90338" d="M39.47,104.144a.459.459,0,0,1-.177-.59.456.456,0,0,1,.609-.213l.036.019a.456.456,0,0,1-.431.8l-.036-.019" transform="translate(-29.596 -77.891)" fill="#009fae"/>
          <path id="Path_90339" data-name="Path 90339" d="M47.3,107.243a.459.459,0,0,1-.277-.55.456.456,0,0,1,.562-.316l.038.013a.456.456,0,0,1-.285.865l-.039-.013" transform="translate(-35.443 -80.202)" fill="#009fae"/>
          <path id="Path_90340" data-name="Path 90340" d="M55.54,108.937a.459.459,0,0,1-.368-.493.456.456,0,0,1,.5-.409l.04.006a.456.456,0,0,1-.131.9l-.04-.006" transform="translate(-41.601 -81.463)" fill="#009fae"/>
          <path id="Path_90341" data-name="Path 90341" d="M6.827,64.008a.514.514,0,0,1,.474-.5.512.512,0,0,1,.549.472.4.4,0,0,1,0,.045.512.512,0,0,1-1.022.031c0-.015,0-.03,0-.045" transform="translate(-5.148 -47.886)" fill="#009fae"/>
          <path id="Path_90342" data-name="Path 90342" d="M8.206,73.352a.515.515,0,0,1,.379-.578.512.512,0,0,1,.622.37c0,.015.007.03.009.045a.512.512,0,0,1-1,.208c0-.015-.007-.03-.009-.045" transform="translate(-6.183 -54.864)" fill="#009fae"/>
          <path id="Path_90343" data-name="Path 90343" d="M11.188,82.316a.515.515,0,0,1,.273-.635.512.512,0,0,1,.677.256.391.391,0,0,1,.017.042.512.512,0,0,1-.95.379c-.006-.014-.012-.028-.017-.042" transform="translate(-8.415 -61.558)" fill="#009fae"/>
          <path id="Path_90344" data-name="Path 90344" d="M15.682,90.626a.515.515,0,0,1,.159-.673.512.512,0,0,1,.711.134c.009.013.016.026.024.039a.512.512,0,0,1-.869.538c-.009-.013-.017-.026-.024-.039" transform="translate(-11.776 -67.763)" fill="#009fae"/>
          <path id="Path_90345" data-name="Path 90345" d="M21.55,98.028a.514.514,0,0,1,.039-.69.512.512,0,0,1,.724.009.426.426,0,0,1,.03.034.512.512,0,0,1-.763.681.438.438,0,0,1-.031-.034" transform="translate(-16.164 -73.289)" fill="#009fae"/>
          <path id="Path_90346" data-name="Path 90346" d="M28.613,104.3a.515.515,0,0,1-.081-.686.512.512,0,0,1,.714-.117l.035.028a.512.512,0,0,1-.633.8l-.036-.028" transform="translate(-21.443 -77.97)" fill="#009fae"/>
          <path id="Path_90347" data-name="Path 90347" d="M36.657,109.25a.515.515,0,0,1-.2-.662.512.512,0,0,1,.683-.239l.04.022a.512.512,0,0,1-.484.9l-.04-.021" transform="translate(-27.454 -81.663)" fill="#009fae"/>
          <path id="Path_90348" data-name="Path 90348" d="M45.439,112.728a.515.515,0,0,1-.311-.617.512.512,0,0,1,.631-.354l.043.014a.512.512,0,0,1-.32.971l-.043-.014" transform="translate(-34.015 -84.257)" fill="#009fae"/>
          <path id="Path_90349" data-name="Path 90349" d="M54.691,114.628a.515.515,0,0,1-.413-.554.512.512,0,0,1,.56-.458l.045.007a.512.512,0,0,1-.147,1.012l-.045-.006" transform="translate(-40.926 -85.671)" fill="#009fae"/>
          <path id="Path_90350" data-name="Path 90350" d="M.213,64.2a.576.576,0,0,1,.53-.563.573.573,0,0,1,.614.528c0,.017,0,.034,0,.051a.573.573,0,0,1-1.144.035c0-.017,0-.034,0-.051" transform="translate(-0.16 -47.988)" fill="#009fae"/>
          <path id="Path_90351" data-name="Path 90351" d="M1.756,74.658a.576.576,0,0,1,.424-.647.573.573,0,0,1,.7.414.5.5,0,0,1,.01.05.573.573,0,0,1-1.12.233c0-.016-.008-.033-.011-.05" transform="translate(-1.319 -55.795)" fill="#009fae"/>
          <path id="Path_90352" data-name="Path 90352" d="M5.092,84.686a.576.576,0,0,1,.305-.71.573.573,0,0,1,.757.286c.007.016.013.031.019.047a.573.573,0,0,1-1.063.424c-.007-.016-.013-.032-.019-.047" transform="translate(-3.816 -63.284)" fill="#009fae"/>
          <path id="Path_90353" data-name="Path 90353" d="M10.12,93.983a.576.576,0,0,1,.177-.752.573.573,0,0,1,.8.15c.01.014.018.029.027.043a.573.573,0,0,1-.973.6c-.009-.014-.018-.029-.027-.043" transform="translate(-7.577 -70.226)" fill="#009fae"/>
          <path id="Path_90354" data-name="Path 90354" d="M16.685,102.265a.576.576,0,0,1,.044-.772.573.573,0,0,1,.81.01c.012.012.023.025.034.038a.573.573,0,0,1-.854.762c-.012-.012-.023-.025-.034-.038" transform="translate(-12.485 -76.409)" fill="#009fae"/>
          <path id="Path_90355" data-name="Path 90355" d="M24.588,109.283a.576.576,0,0,1-.091-.768.573.573,0,0,1,.8-.131l.04.031a.573.573,0,0,1-.708.9l-.04-.031" transform="translate(-18.392 -81.647)" fill="#009fae"/>
          <path id="Path_90356" data-name="Path 90356" d="M33.588,114.821a.575.575,0,0,1-.223-.74.572.572,0,0,1,.764-.268l.045.024a.573.573,0,0,1-.542,1.008l-.045-.024" transform="translate(-25.117 -85.778)" fill="#009fae"/>
          <path id="Path_90357" data-name="Path 90357" d="M43.412,118.711a.576.576,0,0,1-.348-.691.573.573,0,0,1,.706-.4l.048.016a.573.573,0,0,1-.358,1.087l-.048-.016" transform="translate(-32.457 -88.68)" fill="#009fae"/>
          <path id="Path_90358" data-name="Path 90358" d="M53.764,120.838a.576.576,0,0,1-.462-.62.573.573,0,0,1,.627-.513l.05.008a.572.572,0,0,1-.164,1.132l-.05-.007" transform="translate(-40.19 -90.263)" fill="#009fae"/>
        </g>
      </g>
    </g>
  </g>
</svg>
