<svg xmlns="http://www.w3.org/2000/svg" width="85.719" height="25.708" viewBox="0 0 85.719 25.708"><g transform="translate(0 0)"><g transform="translate(-0.001 0.001)"><path d="M422.475,21.512a11.472,11.472,0,0,1-10.868,7.73,11.854,11.854,0,0,1-11.6-12A11.863,11.863,0,0,1,411.7,5.142a11.706,11.706,0,0,1,11.5,11.823q0,.75-.136,2.183h-18.78a7.654,7.654,0,0,0,7.5,6.23,7.248,7.248,0,0,0,6.412-3.865h4.275Zm-18.189-5.639h14.688a7.35,7.35,0,0,0-7.322-6.821,7.6,7.6,0,0,0-5.593,2.455C404.968,12.736,404.6,13.645,404.286,15.874Z" transform="translate(-337.483 -4.338)" fill="#6a7584"/><path d="M299.971,6.3a8.477,8.477,0,0,0-5.632,1.838v5.251a5.294,5.294,0,0,1,5.132-3.224,5.444,5.444,0,0,1,4.729,2.319c.682,1.046.955,2.547.955,4.775V29.633h4.275V15.673c0-5.593-3.82-9.368-9.459-9.368Z" transform="translate(-248.329 -5.319)" fill="#6a7584"/><path d="M225.51,10.087l-6.762,7.251a8.041,8.041,0,0,1,1.1,3.987l5.664-6.354V32.824h4.32V10.087Z" transform="translate(-184.554 -8.51)" fill="#6a7584"/><g transform="translate(26.628 0.986)"><path d="M182.882,62.656,178.9,67.127a8.011,8.011,0,0,1-7.89,6.774c-.223,0-.444-.012-.663-.03v3.877c.22.012.441.018.663.018a12.189,12.189,0,0,0,12.278-12.1,11.446,11.446,0,0,0-.4-3.015Z" transform="translate(-170.344 -53.847)" fill="#6a7584"/><path d="M170.344,10.2c.219-.018.44-.03.663-.03a7.978,7.978,0,0,1,6.381,3.19l2.838-3.043a12.456,12.456,0,0,0-9.219-4.011c-.222,0-.443.007-.663.018V10.2Z" transform="translate(-170.344 -6.305)" fill="#6a7584"/></g><path d="M-9757.291-11986.117H-9783v-25.708h25.708v25.707Zm-16.07-10.994v.456a2.013,2.013,0,0,0,2.089,2.025c1.4,0,2.11-.843,2.11-2.5,0-1.229-.2-1.927-1.284-2.337l-.935-.373c-.643-.253-.7-.485-.7-1.14,0-.742.271-1.1.829-1.1s.862.376.862,1.031v.277h1.224v-.6a2.018,2.018,0,0,0-2.038-1.932,2.06,2.06,0,0,0-2.1,2.339,2.021,2.021,0,0,0,1.329,2.194l.874.359c.584.234.709.372.709,1.3,0,.792-.06,1.272-.887,1.272a.811.811,0,0,1-.865-.878v-.383Zm9.381-2.782h.024v5.194h1.224v-8.54h-1.187l-1.559,4.521h-.024l-1.57-4.521h-1.176v8.54h1.224v-5.194h.024l1.2,3.672h.611l1.212-3.671Zm-13.58-3.346v8.54h1.224v-3.647h2.11v-1.151h-2.11v-2.59h2.424v-1.151Z" transform="translate(9783 12011.824)" fill="#6a7584"/></g></g></svg>