<svg xmlns="http://www.w3.org/2000/svg" width="128.367" height="42" viewBox="0 0 128.367 42"><g transform="translate(0 9.327)"><path d="M5.6,82.2v.145a2.665,2.665,0,0,1-2.765,2.8,2.819,2.819,0,1,1,0-5.638A2.658,2.658,0,0,1,5.6,82.2ZM5.238,87.3V104.14H.546V87.3H5.238Z" transform="translate(0 -79.144)" fill="#6a7584"/><path d="M77.5,96.424v10.333H72.81V82.49H87.654v4.184H77.5v5.6H87.29v4.147Z" transform="translate(-63.934 -81.761)" fill="#6a7584"/><path d="M198.394,98.9l-1.564,5.24H191.7l8.15-24.63h5.238l8.3,24.63h-5.13l-1.6-5.24H198.4Zm1.2-4h5.893l-3.056-9.605L199.594,94.9Z" transform="translate(-168.33 -79.144)" fill="#6a7584"/><path d="M396.508,83.57h-5.24v-.11c0-1.674-1.128-2.583-3.274-2.583s-3.529,1.019-3.529,2.547c0,1.419,1.091,2.292,4,3.274l1.71.582c4.657,1.564,6.586,3.565,6.586,6.912,0,4.475-3.747,7.677-9.022,7.677-3.966,0-6.331-1.018-7.895-3.383a7.072,7.072,0,0,1-1.346-4.767h5.2l-.037.291c0,2.219,1.491,3.529,4.038,3.529,2.365,0,3.819-1.019,3.819-2.656,0-1.419-.764-2.074-3.784-3.165l-1.929-.728c-4.767-1.784-6.44-3.6-6.44-7.059,0-4.439,3.529-7.422,8.8-7.422s8.259,2.583,8.331,7.059Z" transform="translate(-332.357 -76.51)" fill="#6a7584"/><path d="M552.586,86.856v19.9h-4.875v-19.9H541.38V82.49h17.39v4.366h-6.186Z" transform="translate(-475.381 -81.761)" fill="#6a7584"/></g><path d="M729.46,0h0a21,21,0,0,0-21,21h0a21,21,0,0,0,21,21h0a20.937,20.937,0,0,0,7.934-1.551,8.01,8.01,0,0,1,5.549-14.1,7.89,7.89,0,0,1,5.83,2.909A20.925,20.925,0,0,0,750.46,21h0A21,21,0,0,0,729.46,0Z" transform="translate(-622.092)" fill="#6a7584"/><g transform="translate(93.751 12.305)"><path d="M863.672,110.58l-8.844,15.039H850l.044-.088L847.44,110.58h4.673l1.543,8.8,5.171-8.8h4.846Z" transform="translate(-837.881 -109.405)" fill="#fff"/><path d="M785.272,114.366H780.86l.783-3.786h13.039l-.781,3.786h-4.412l-2.326,11.252h-4.217Z" transform="translate(-779.418 -109.405)" fill="#fff"/><path d="M784.294,102.115l-.781,3.786H779.1l-2.326,11.252h-4.217l2.326-11.252h-4.412l.783-3.786h13.039m1.442-1.175H770.3l-.194.937-.783,3.786-.293,1.413h4.412l-2.033,9.839-.293,1.413h6.615l.194-.937,2.132-10.315h4.412l.194-.937.781-3.786.291-1.412h0Z" transform="translate(-769.03 -100.94)" fill="#6a7584"/></g><circle cx="7.255" cy="7.255" r="7.255" transform="translate(113.253 27.11)" fill="#6a7584"/><path d="M967.13,257.354v-2.338a1.3,1.3,0,0,1,1.965-1.107l3.857,2.338a1.293,1.293,0,0,1,0,2.213L969.1,260.8a1.3,1.3,0,0,1-1.965-1.107v-2.338Z" transform="translate(-849.228 -222.789)" fill="#fff"/></svg>