<svg xmlns="http://www.w3.org/2000/svg" width="105" height="43.164" viewBox="0 0 105 43.164"><path d="M16.256,0H0V23.349L11.681,11.669,8.158,8.182H18.869V18.767l-3.517-3.487h0L3.737,26.9,0,30.626V43.164l5.355-5.355,5.516-5.546,5.32-5.355h-.28a13.633,13.633,0,0,0,13.6-13.644h0A13.263,13.263,0,0,0,16.256,0Z" fill="#6a7584"/><path d="M19.636,19.6l-.006.012.006.006Z" transform="translate(-7.949 -7.937)" fill="#6a7584"/><path d="M75.757,14.8v.107a1.952,1.952,0,0,1-1.846,2.052c-.059,0-.118,0-.177,0a2.065,2.065,0,1,1,0-4.13h0A1.946,1.946,0,0,1,75.756,14.7c0,.035,0,.068,0,.1Zm-.268,3.731V30.859H72.056V18.529h3.433Z" transform="translate(-29.023 -5.195)" fill="#6a7584"/><path d="M88.233,23.479v7.563H84.8V13.28H95.665v3.058H88.233v4.106h7.14v3.035h-7.14Z" transform="translate(-34.341 -5.378)" fill="#6a7584"/><path d="M108.273,27.022l-1.148,3.838H103.37l5.95-18.03h3.832l6.075,18.03h-3.755l-1.19-3.838Zm.875-2.928h4.314l-2.231-7.027-2.083,7.027Z" transform="translate(-41.861 -5.196)" fill="#6a7584"/><path d="M144.582,17.563H140.75V17.48c0-1.226-.827-1.892-2.38-1.892s-2.582.75-2.582,1.868.8,1.678,2.928,2.38l1.25.428c3.41,1.142,4.82,2.612,4.82,5.058,0,3.279-2.743,5.623-6.6,5.623-2.9,0-4.629-.75-5.778-2.481a5.182,5.182,0,0,1-.982-3.487h3.808l-.03.214c0,1.624,1.095,2.582,2.975,2.582,1.732,0,2.8-.744,2.8-1.946,0-1.035-.559-1.517-2.773-2.315l-1.41-.536c-3.523-1.291-4.748-2.624-4.748-5.135,0-3.249,2.582-5.433,6.444-5.433S144.535,14.272,144.582,17.563Z" transform="translate(-53.22 -5.026)" fill="#6a7584"/><path d="M163.31,16.475V31.042h-3.57V16.475H155.11v-3.2h12.7v3.2Z" transform="translate(-62.814 -5.378)" fill="#6a7584"/><path d="M73.564,59.91a1.1,1.1,0,0,0,1.226.875,1.714,1.714,0,0,0,1.1-.381l.649.637a2.5,2.5,0,0,1-1.785.666,2.172,2.172,0,1,1-.287-4.334q.108-.007.216,0c1.375,0,2.231.851,2.077,2.541h-3.2Zm2.237-.845a.946.946,0,0,0-1.071-.8,1.106,1.106,0,0,0-1.148.8Z" transform="translate(-29.335 -23.232)" fill="#6a7584"/><path d="M87.7,58.244H86.041v2.267h-1.1V54.68H87.7C90.545,54.668,90.551,58.244,87.7,58.244Zm-1.654-1.006H87.7c1.4,0,1.4-1.517,0-1.517H86.041Z" transform="translate(-34.398 -22.143)" fill="#6a7584"/><path d="M102.5,60.511H98.16V54.68H102.5v1.065H99.231V57.09h3.154v1.023H99.231v1.315H102.5Z" transform="translate(-39.751 -22.143)" fill="#6a7584"/><path d="M114.909,54.66h1.1V60.5h-1.1l-2.648-3.945v3.933h-1.1V54.66h1.089l2.66,3.63Z" transform="translate(-45.016 -22.135)" fill="#6a7584"/><path d="M128.3,55.927a1.677,1.677,0,0,0-1.386-.649c-.815,0-1.19.345-1.19.774s.6.655,1.3.738c1.19.149,2.35.464,2.35,1.857s-1.148,1.857-2.446,1.857a2.43,2.43,0,0,1-2.547-1.428l.922-.476a1.648,1.648,0,0,0,1.636.922c.7,0,1.345-.238,1.345-.875,0-.547-.6-.774-1.351-.857-1.19-.143-2.291-.458-2.291-1.785,0-1.19,1.19-1.69,2.255-1.7a2.379,2.379,0,0,1,2.3,1.19l-.893.434Z" transform="translate(-50.369 -21.986)" fill="#6a7584"/><path d="M137.96,60.511V54.68h1.095v5.831Z" transform="translate(-55.869 -22.143)" fill="#6a7584"/><path d="M151.162,57.6a3,3,0,1,1-3-3A3,3,0,0,1,151.162,57.6Zm-4.909,0a1.916,1.916,0,1,0,3.826.213,1.827,1.827,0,0,0,0-.214,1.922,1.922,0,1,0-3.826,0Z" transform="translate(-58.789 -22.113)" fill="#6a7584"/><path d="M164.269,54.66h1.1V60.5h-1.1l-2.654-3.945v3.933H160.52V54.66h1.089l2.66,3.618V54.66Z" transform="translate(-65.005 -22.135)" fill="#6a7584"/></svg>