<svg xmlns="http://www.w3.org/2000/svg" width="41.649" height="41.65" viewBox="0 0 41.649 41.65"><path d="M41.649,41.65H0V0H41.649V41.649ZM23.093,22.194a2.329,2.329,0,0,0,.441,1.564,2.749,2.749,0,0,0,2.589,1.109,3.267,3.267,0,0,0,2.127-.709,2.339,2.339,0,0,0,.831-1.809c0-1.1-.626-1.752-2.16-2.267l-.56-.191c-.957-.323-1.313-.614-1.313-1.074,0-.5.465-.835,1.157-.835s1.074.293,1.074.847v.036H29c-.024-1.471-1.02-2.315-2.732-2.315s-2.886.978-2.886,2.434c0,1.127.553,1.732,2.111,2.315l.633.238c.985.358,1.24.571,1.24,1.039,0,.537-.48.87-1.253.87-.829,0-1.324-.433-1.324-1.157l.013-.1Zm6.323-5.4v1.432h2.076v6.526h1.6V18.221h2.029V16.789Zm-11.6,6.24h2.709l.525,1.718h1.682L20.014,16.67H18.3l-2.673,8.077h1.682l.513-1.717ZM10.673,16.79v7.957h1.539V21.359h3.209V20H12.212V18.162h3.329V16.79ZM7.345,19.224v5.523H8.884V19.224ZM8.1,16.67a.925.925,0,1,0,0,1.85A.873.873,0,0,0,9,17.6v-.048A.873.873,0,0,0,8.1,16.67Zm12.049,5.047H18.213l.931-3.149,1,3.148Z" fill="#6a7584"/></svg>