<svg xmlns="http://www.w3.org/2000/svg" width="103.579" height="46.839" viewBox="0 0 103.579 46.839"><g transform="translate(0 0)"><g transform="translate(39.727)"><path d="M334.642,126.514,328.4,116.329v18.037l6.9,5.942Z" transform="translate(-328.399 -116.329)" fill="#6a7584"/><path d="M335.45,274.924l-7.05-5.73v24.828l7.711-2.547Z" transform="translate(-328.399 -247.183)" fill="#6a7584"/></g><g transform="translate(53.873 19.031)"><path d="M429.976,251.606v.087a1.588,1.588,0,0,1-1.647,1.669,1.68,1.68,0,1,1,0-3.36A1.584,1.584,0,0,1,429.976,251.606Zm-.217,3.035v10.037h-2.8V254.641Z" transform="translate(-426.638 -249.785)" fill="#6a7584"/><path d="M466.165,259.81v6.156h-2.8V251.508h8.844V254h-6.048v3.338H472v2.471Z" transform="translate(-458.08 -251.074)" fill="#6a7584"/><path d="M529.835,261.556l-.932,3.121h-3.056L530.7,250h3.122l4.942,14.675h-3.056l-.954-3.121Zm.715-2.385h3.512l-1.821-5.723Z" transform="translate(-511.561 -249.785)" fill="#6a7584"/><path d="M630.815,252.7h-3.121v-.065c0-1-.672-1.539-1.951-1.539-1.257,0-2.1.607-2.1,1.517,0,.845.651,1.366,2.385,1.951l1.019.347c2.775.932,3.924,2.124,3.924,4.119,0,2.666-2.233,4.574-5.376,4.574-2.363,0-3.772-.607-4.7-2.016a4.215,4.215,0,0,1-.8-2.84h3.1l-.022.173c0,1.322.889,2.1,2.406,2.1,1.409,0,2.276-.607,2.276-1.582,0-.846-.455-1.236-2.254-1.886l-1.149-.434c-2.84-1.062-3.837-2.146-3.837-4.206,0-2.645,2.1-4.422,5.246-4.422C628.973,248.5,630.772,250.036,630.815,252.7Z" transform="translate(-592.23 -248.497)" fill="#6a7584"/><path d="M706.548,254.109v11.857h-2.9V254.109h-3.772v-2.6h10.362v2.6Z" transform="translate(-660.528 -251.074)" fill="#6a7584"/></g><g transform="translate(14.35)"><path d="M170.276,126.514l18.037-10.185v18.037l-19.946,5.942Z" transform="translate(-166.032 -116.329)" fill="#6a7584"/><path d="M154.064,274.924l20.371-5.73v24.828l-22.281-2.547Z" transform="translate(-152.155 -247.183)" fill="#6a7584"/></g><path d="M54.834,313.07l10.822-3.608-1.943,16.392L52.5,324.53Z" transform="translate(-52.5 -281.653)" fill="#6a7584"/></g><g transform="translate(39.727)"><path d="M334.642,126.514,328.4,116.329v18.037l6.9,5.942Z" transform="translate(-328.399 -116.329)" fill="#6a7584"/><path d="M335.45,274.924l-7.05-5.73v24.828l7.711-2.547Z" transform="translate(-328.399 -247.183)" fill="#6a7584"/></g><g transform="translate(53.963 37.964)"><g transform="translate(0 0)"><path d="M434.22,382.478l-.842.08a2.282,2.282,0,0,0-.5-1.081,2.5,2.5,0,0,0-1.945-.785c-1.763,0-2.787,1.228-2.787,3.333,0,1.877,1.058,3.082,2.7,3.082a2.628,2.628,0,0,0,2.593-2.036l.842.091a3.581,3.581,0,0,1-6.222,1.377,4.368,4.368,0,0,1-.8-2.6,3.656,3.656,0,0,1,3.719-3.958A3.028,3.028,0,0,1,434.22,382.478Z" transform="translate(-427.259 -379.976)" fill="#6a7584"/><path d="M490.709,384.7v2.787h3.572v.785h-4.459v-7.587h4.459v.785h-3.572v2.457h3.458v.773Z" transform="translate(-480.813 -380.584)" fill="#6a7584"/><path d="M540.889,380.686v7.587H540l-4.243-6.188v6.188h-.83v-7.587h.887l4.243,6.165v-6.165Z" transform="translate(-519.425 -380.584)" fill="#6a7584"/><path d="M591.741,381.471v6.8h-.887v-6.8h-2.286v-.785h5.4v.785Z" transform="translate(-565.341 -380.584)" fill="#6a7584"/><path d="M637.879,385.042v3.23h-.887v-7.587h2.571a2.415,2.415,0,0,1,1.808.558,2.17,2.17,0,0,1-1.1,3.662l1.979,3.367h-1.024l-1.854-3.23Zm0-.785h1.6c1.058,0,1.638-.5,1.638-1.422s-.535-1.365-1.661-1.365h-1.581Z" transform="translate(-606.792 -380.584)" fill="#6a7584"/><path d="M686.393,380.686l2.935,7.587h-.944l-.8-2.173h-3.105l-.785,2.173h-.887l2.855-7.587Zm-1.695,4.8h2.65l-1.319-3.629Z" transform="translate(-646.013 -380.584)" fill="#6a7584"/><path d="M742.154,380.686v6.8h3.4v.785h-4.288v-7.587Z" transform="translate(-696.052 -380.584)" fill="#6a7584"/></g></g><g transform="translate(53.873 19.031)"><g transform="translate(0 0)"><path d="M429.976,251.606v.087a1.588,1.588,0,0,1-1.647,1.669,1.68,1.68,0,1,1,0-3.36A1.584,1.584,0,0,1,429.976,251.606Zm-.217,3.035v10.037h-2.8V254.641Z" transform="translate(-426.638 -249.785)" fill="#6a7584"/><path d="M466.165,259.81v6.156h-2.8V251.508h8.844V254h-6.048v3.338H472v2.471Z" transform="translate(-458.08 -251.074)" fill="#6a7584"/><path d="M529.835,261.556l-.932,3.121h-3.056L530.7,250h3.122l4.942,14.675h-3.056l-.954-3.121Zm.715-2.385h3.512l-1.821-5.723Z" transform="translate(-511.561 -249.785)" fill="#6a7584"/><path d="M630.815,252.7h-3.121v-.065c0-1-.672-1.539-1.951-1.539-1.257,0-2.1.607-2.1,1.517,0,.845.651,1.366,2.385,1.951l1.019.347c2.775.932,3.924,2.124,3.924,4.119,0,2.666-2.233,4.574-5.376,4.574-2.363,0-3.772-.607-4.7-2.016a4.215,4.215,0,0,1-.8-2.84h3.1l-.022.173c0,1.322.889,2.1,2.406,2.1,1.409,0,2.276-.607,2.276-1.582,0-.846-.455-1.236-2.254-1.886l-1.149-.434c-2.84-1.062-3.837-2.146-3.837-4.206,0-2.645,2.1-4.422,5.246-4.422C628.973,248.5,630.772,250.036,630.815,252.7Z" transform="translate(-592.23 -248.497)" fill="#6a7584"/><path d="M706.548,254.109v11.857h-2.9V254.109h-3.772v-2.6h10.362v2.6Z" transform="translate(-660.528 -251.074)" fill="#6a7584"/></g></g><g transform="translate(14.35)"><path d="M170.276,126.514l18.037-10.185v18.037l-19.946,5.942Z" transform="translate(-166.032 -116.329)" fill="#6a7584"/><path d="M154.064,274.924l20.371-5.73v24.828l-22.281-2.547Z" transform="translate(-152.155 -247.183)" fill="#6a7584"/></g><path d="M54.834,313.07l10.822-3.608-1.943,16.392L52.5,324.53Z" transform="translate(-52.5 -281.652)" fill="#6a7584"/></svg>