<svg xmlns="http://www.w3.org/2000/svg" width="158.441" height="31.104" viewBox="0 0 158.441 31.104"><g transform="translate(0.619)"><g transform="translate(35.086 7.2)"><g transform="translate(0)"><path d="M157.28,62.774v.1a1.757,1.757,0,0,1-1.822,1.846,1.858,1.858,0,1,1,0-3.716A1.752,1.752,0,0,1,157.28,62.774Zm-.24,3.357v11.1h-3.093v-11.1Z" transform="translate(-153.587 -60.76)" fill="#6a7584"/><path d="M174.018,70.894V77.7h-3.093V61.71h9.783v2.758h-6.69V68.16h6.45v2.734Z" transform="translate(-165.075 -61.231)" fill="#6a7584"/><path d="M203.645,73.781l-1.031,3.453h-3.381L204.6,61h3.453l5.467,16.233h-3.382l-1.054-3.453Zm.791-2.638h3.885l-2.014-6.33Z" transform="translate(-183.831 -60.76)" fill="#6a7584"/><path d="M255.586,64.941h-3.453v-.072c0-1.1-.743-1.7-2.159-1.7-1.391,0-2.326.671-2.326,1.678,0,.935.719,1.511,2.637,2.158l1.127.383c3.069,1.031,4.34,2.35,4.34,4.556,0,2.95-2.47,5.059-5.947,5.059-2.614,0-4.172-.671-5.2-2.229a4.659,4.659,0,0,1-.887-3.141h3.428l-.024.192c0,1.463.984,2.326,2.662,2.326,1.558,0,2.517-.671,2.517-1.75,0-.935-.5-1.367-2.494-2.087l-1.271-.479c-3.141-1.175-4.244-2.374-4.244-4.652,0-2.926,2.326-4.892,5.8-4.892C253.547,60.289,255.538,61.992,255.586,64.941Z" transform="translate(-213.304 -60.289)" fill="#6a7584"/><path d="M289.887,64.588V77.7h-3.213V64.588H282.5V61.71h11.462v2.878Z" transform="translate(-239.002 -61.231)" fill="#6a7584"/></g><g transform="translate(58.547 0.479)"><path d="M327.889,65.356V68.5h-.8v-6.8h3.893v.7h-3.1v2.252h2.944v.693Z" transform="translate(-327.094 -61.708)" fill="#6a7584"/><path d="M345.919,61.708v4.463a2.159,2.159,0,0,1-1.416,2.2,3.271,3.271,0,0,1-1.223.234,2.241,2.241,0,0,1-2.506-2.272V61.708h.794v4.565a1.566,1.566,0,0,0,1.783,1.63,2.019,2.019,0,0,0,1.355-.438,1.5,1.5,0,0,0,.418-1.233V61.708Z" transform="translate(-336.158 -61.708)" fill="#6a7584"/><path d="M365.2,61.708v6.8H364.4l-3.8-5.543V68.5h-.744v-6.8h.8l3.8,5.523V61.708Z" transform="translate(-348.802 -61.708)" fill="#6a7584"/><path d="M379.663,61.708h2.456c1.742,0,2.781,1.243,2.781,3.3s-1.162,3.495-2.863,3.495h-2.375Zm.8,6.144h1.6c1.243,0,2.048-1.1,2.048-2.782a3.272,3.272,0,0,0-.6-2.109,1.993,1.993,0,0,0-1.579-.6h-1.467Z" transform="translate(-361.925 -61.708)" fill="#6a7584"/><path d="M334.033,89.117v6.8h-.794v-5.3l-2.436,5.3h-.51l-2.455-5.237v5.237h-.744v-6.8h.826l2.639,5.7,2.629-5.7Z" transform="translate(-327.094 -79.868)" fill="#6a7584"/><path d="M353.374,89.117l2.629,6.8h-.846l-.713-1.946h-2.781l-.7,1.946h-.794l2.557-6.8Zm-1.518,4.3h2.374l-1.183-3.25Z" transform="translate(-342.38 -79.868)" fill="#6a7584"/><path d="M375.583,89.117v6.8h-.795l-3.8-5.543v5.543h-.744v-6.8h.8l3.8,5.523V89.117Z" transform="translate(-355.683 -79.868)" fill="#6a7584"/><path d="M392.111,89.117l2.629,6.8h-.846l-.713-1.946H390.4l-.7,1.946H388.9l2.557-6.8Zm-1.518,4.3h2.374l-1.182-3.25Z" transform="translate(-368.046 -79.868)" fill="#6a7584"/><path d="M410.874,92.036h3.149v.082a3.866,3.866,0,0,1-.713,2.527,2.9,2.9,0,0,1-2.517,1.142,2.757,2.757,0,0,1-2.364-1.06,4.107,4.107,0,0,1,.194-5.125,3,3,0,0,1,2.334-.907,2.711,2.711,0,0,1,2.914,2.079l-.785.082a2.112,2.112,0,0,0-2.13-1.518c-1.528,0-2.527,1.161-2.527,2.934,0,1.732.978,2.863,2.487,2.863,1.365,0,2.18-.876,2.252-2.394h-2.293Z" transform="translate(-380.451 -79.588)" fill="#6a7584"/><path d="M430.943,92.714v2.5h3.2v.7h-3.995v-6.8h3.995v.7h-3.2v2.2h3.1v.693Z" transform="translate(-395.374 -79.868)" fill="#6a7584"/><path d="M452.065,89.117v6.8h-.794v-5.3l-2.436,5.3h-.51l-2.455-5.237v5.237h-.744v-6.8h.826l2.639,5.7,2.629-5.7Z" transform="translate(-405.298 -79.868)" fill="#6a7584"/><path d="M470.561,92.714v2.5h3.2v.7h-3.995v-6.8h3.995v.7h-3.2v2.2h3.1v.693Z" transform="translate(-421.624 -79.868)" fill="#6a7584"/><path d="M490.081,89.117v6.8h-.795l-3.8-5.543v5.543h-.744v-6.8h.8l3.8,5.523V89.117Z" transform="translate(-431.546 -79.868)" fill="#6a7584"/><path d="M505.823,89.82v6.093h-.795V89.82h-2.048v-.7h4.839v.7Z" transform="translate(-443.631 -79.868)" fill="#6a7584"/></g></g><path d="M0,22.24V14.885c1.229-.254,2.209-.409,2.815-.495A.926.926,0,0,0,3,14.61a.907.907,0,0,0,.592.221l.067,0a.909.909,0,0,0-.068-1.815l-.062,0a.91.91,0,0,0-.789.594c-.592.083-1.549.233-2.74.477V12.3c1.223-.254,2.206-.41,2.815-.5A.925.925,0,0,0,3,12.019a.906.906,0,0,0,.593.222l.067,0a.909.909,0,0,0-.07-1.815l-.062,0a.913.913,0,0,0-.787.593C2.153,11.1,1.2,11.251,0,11.5V9.705c1.223-.254,2.206-.41,2.815-.5A.925.925,0,0,0,3,9.428a.906.906,0,0,0,.593.222l.067,0A.909.909,0,0,0,3.6,7.833l-.067,0a.91.91,0,0,0-.788.593C2.152,8.511,1.2,8.661,0,8.906V4.349A3.455,3.455,0,0,1,2.85.944L8.134,0V17.891a3.455,3.455,0,0,1-2.85,3.4L0,22.24Z" transform="translate(22.127 2.225)" fill="#6a7584" stroke="rgba(0,0,0,0)" stroke-miterlimit="10" stroke-width="1"/><path d="M85.168,68.7l-7.575,1.354V44.845a4.611,4.611,0,0,1,3.8-4.539l7.575-1.354v25.21A4.611,4.611,0,0,1,85.168,68.7Z" transform="translate(-68.149 -38.951)" fill="#6a7584"/><path d="M85.17,68.7,77.6,70.055V44.845a4.611,4.611,0,0,1,3.8-4.539l7.575-1.354v25.21A4.611,4.611,0,0,1,85.17,68.7Z" transform="translate(-68.151 -38.951)" fill="none"/><path d="M.45,22.16h0a24.672,24.672,0,0,1,7.683-7.206v2.938a3.455,3.455,0,0,1-2.85,3.4L.451,22.16ZM0,21.775H0v-1.5a24.239,24.239,0,0,1,8.134-7.914v1.9A25.478,25.478,0,0,0,0,21.774Zm0-2.59H0v-1.5A24.248,24.248,0,0,1,8.134,9.773v1.905A25.475,25.475,0,0,0,0,19.185ZM0,16.6H0V4.349A3.455,3.455,0,0,1,2.85.944L8.134,0V9.088A25.47,25.47,0,0,0,0,16.594Z" transform="translate(0 7.397)" fill="#6a7584" stroke="rgba(0,0,0,0)" stroke-miterlimit="10" stroke-width="1"/><g transform="translate(24.998 10.478)"><path d="M125.329,78.046a.53.53,0,1,1-.566-.49A.529.529,0,0,1,125.329,78.046Z" transform="translate(-124.075 -75.006)" fill="#6a7584"/><path d="M125.329,78.046a.53.53,0,1,1-.566-.49A.529.529,0,0,1,125.329,78.046Z" transform="translate(-124.075 -72.392)" fill="#6a7584"/><path d="M125.329,78.046a.53.53,0,1,1-.566-.49A.529.529,0,0,1,125.329,78.046Z" transform="translate(-124.075 -77.555)" fill="#6a7584"/><path d="M124.415,78.424a.728.728,0,1,1,.053,0Zm0-1.059h-.024a.334.334,0,0,0-.194.585.335.335,0,0,0,.242.08.334.334,0,0,0,.309-.357A.334.334,0,0,0,124.415,77.365Z" transform="translate(-123.689 -74.62)" fill="none"/></g><path d="M0,31.1H0V21.625a40.025,40.025,0,0,1,6-2.7,49.482,49.482,0,0,1,5.37-1.581v7.87a4.606,4.606,0,0,1-3.8,4.539L0,31.1ZM0,20.868H0V19.036a40.032,40.032,0,0,1,6-2.7,49.5,49.5,0,0,1,5.37-1.582v1.907a50.382,50.382,0,0,0-5.348,1.553A41.342,41.342,0,0,0,0,20.868Zm0-2.589H0V16.445a40.032,40.032,0,0,1,6-2.7,49.488,49.488,0,0,1,5.37-1.582v1.907A50.4,50.4,0,0,0,6.027,15.62,41.352,41.352,0,0,0,0,18.279Zm0-2.59H0V5.893A4.606,4.606,0,0,1,3.8,1.354L11.375,0V11.476a50.412,50.412,0,0,0-5.348,1.553A41.351,41.351,0,0,0,0,15.689Z" transform="translate(9.444)" fill="#6a7584"/></g></svg>