<svg xmlns="http://www.w3.org/2000/svg" xmlns:xlink="http://www.w3.org/1999/xlink" width="96" height="46.35" viewBox="0 0 96 46.35"><defs><clipPath id="a"><rect width="96" height="46.35" fill="none"/></clipPath></defs><g clip-path="url(#a)"><path d="M12.19,13.523v.086a1.58,1.58,0,0,1-1.64,1.66,1.674,1.674,0,1,1,0-3.348,1.58,1.58,0,0,1,1.64,1.6m-.211,13.023H9.19v-10h2.786Z" transform="translate(5.631 7.573)" fill="#6a7584"/><path d="M14.874,20.328v6.134H12.087v-14.4H20.9v2.484H14.875v3.326h5.81v2.461Z" transform="translate(7.677 7.658)" fill="#6a7584"/><path d="M21.32,23.435l-.927,3.11H17.349l4.835-14.62H25.3l4.921,14.616H27.175l-.948-3.11Zm.717-2.372h3.5l-1.814-5.7Z" transform="translate(11.019 7.573)" fill="#6a7584"/><path d="M36.3,15.982H33.193v-.065c0-.992-.67-1.533-1.945-1.533-1.251,0-2.094.6-2.094,1.511,0,.843.649,1.361,2.375,1.945l1.015.346c2.765.929,3.91,2.117,3.91,4.108,0,2.656-2.224,4.556-5.355,4.556-2.356,0-3.757-.6-4.688-2.008a4.214,4.214,0,0,1-.8-2.828H28.7l-.024.174c0,1.317.886,2.094,2.4,2.094,1.4,0,2.266-.6,2.266-1.58,0-.843-.455-1.231-2.245-1.879l-1.146-.43c-2.827-1.06-3.82-2.138-3.82-4.191,0-2.633,2.093-4.405,5.226-4.405,3.109,0,4.9,1.534,4.945,4.189" transform="translate(16.267 7.489)" fill="#6a7584"/><path d="M39.471,14.649V26.461H36.578V14.649H32.82V12.058H43.143v2.591Z" transform="translate(20.847 7.657)" fill="#6a7584"/><path d="M22.833,27.33h1.1v4.039h-1v-.536a3.733,3.733,0,0,1-2.226.632,4.335,4.335,0,0,1-2.013-.479,3.652,3.652,0,0,1-1.483-1.4,4.438,4.438,0,0,1,0-4.3,3.915,3.915,0,0,1,1.528-1.466,4.521,4.521,0,0,1,2.2-.527,4.635,4.635,0,0,1,1.74.316A3.565,3.565,0,0,1,24,24.534l-.708.707a3.214,3.214,0,0,0-2.317-.924,3.335,3.335,0,0,0-1.638.4A2.93,2.93,0,0,0,18.2,25.823a3.38,3.38,0,0,0,.006,3.241,2.76,2.76,0,0,0,1.1,1.053,3.132,3.132,0,0,0,1.483.36,3.265,3.265,0,0,0,1.089-.189,2.949,2.949,0,0,0,.948-.554Z" transform="translate(10.575 14.793)" fill="#6a7584"/><path d="M22.641,31.108a1.86,1.86,0,0,1-.479-1.364V23.055h1.093v6.594a1.085,1.085,0,0,0,.234.754.884.884,0,0,0,.7.261,1.306,1.306,0,0,0,.538-.113l.057.9a2.3,2.3,0,0,1-.788.137,1.818,1.818,0,0,1-1.357-.486" transform="translate(14.076 14.642)" fill="#6a7584"/><path d="M25.343,30.273a2.884,2.884,0,0,1-1.123-1.1,3.339,3.339,0,0,1,0-3.183,2.844,2.844,0,0,1,1.123-1.1,3.518,3.518,0,0,1,3.236,0,2.865,2.865,0,0,1,1.117,1.1,3.327,3.327,0,0,1,0,3.183,2.912,2.912,0,0,1-1.117,1.1,3.476,3.476,0,0,1-3.236,0m2.664-.827a1.913,1.913,0,0,0,.726-.752,2.5,2.5,0,0,0,0-2.226,1.869,1.869,0,0,0-.726-.747,2.2,2.2,0,0,0-2.088,0,1.888,1.888,0,0,0-.729.747,2.456,2.456,0,0,0,0,2.226,1.933,1.933,0,0,0,.729.752,2.167,2.167,0,0,0,2.088,0" transform="translate(15.128 15.56)" fill="#6a7584"/><path d="M33.193,25.8a2.814,2.814,0,0,1,1.09,1.084,3.222,3.222,0,0,1,.393,1.609,3.266,3.266,0,0,1-.393,1.616,2.783,2.783,0,0,1-1.09,1.089,3.183,3.183,0,0,1-1.575.388,2.862,2.862,0,0,1-1.231-.261,2.357,2.357,0,0,1-.924-.765v.959H28.41V23.055h1.1v3.331a2.311,2.311,0,0,1,.912-.725,2.892,2.892,0,0,1,1.2-.245,3.183,3.183,0,0,1,1.575.388m-.621,4.559a1.933,1.933,0,0,0,.729-.752,2.429,2.429,0,0,0,0-2.226,1.888,1.888,0,0,0-.729-.747,2.189,2.189,0,0,0-2.081,0,1.839,1.839,0,0,0-.731.747,2.483,2.483,0,0,0,0,2.226,1.881,1.881,0,0,0,.731.752,2.154,2.154,0,0,0,2.081,0" transform="translate(18.047 14.642)" fill="#6a7584"/><path d="M38.918,24.556V30.6H37.864v-.959a2.37,2.37,0,0,1-.924.765,2.864,2.864,0,0,1-1.232.261,3.183,3.183,0,0,1-1.575-.388,2.768,2.768,0,0,1-1.089-1.089,3.243,3.243,0,0,1-.394-1.616,3.205,3.205,0,0,1,.4-1.6,2.8,2.8,0,0,1,1.089-1.084,3.183,3.183,0,0,1,1.575-.388,2.9,2.9,0,0,1,1.2.245,2.334,2.334,0,0,1,.912.725v-.912Zm-2.076,4.889a1.9,1.9,0,0,0,.731-.752,2.5,2.5,0,0,0,0-2.226,1.849,1.849,0,0,0-.731-.747,2.189,2.189,0,0,0-2.081,0,1.88,1.88,0,0,0-.731.747,2.443,2.443,0,0,0,0,2.226,1.926,1.926,0,0,0,.731.752,2.154,2.154,0,0,0,2.081,0" transform="translate(20.742 15.56)" fill="#6a7584"/><path d="M38.061,31.108a1.86,1.86,0,0,1-.479-1.364V23.055h1.1v6.594a1.092,1.092,0,0,0,.234.754.889.889,0,0,0,.7.261,1.3,1.3,0,0,0,.536-.113l.057.9a2.284,2.284,0,0,1-.788.137,1.82,1.82,0,0,1-1.357-.486" transform="translate(23.87 14.642)" fill="#6a7584"/><path d="M47.915,27.9a2,2,0,0,1,.4,1.284,1.85,1.85,0,0,1-.782,1.6,3.9,3.9,0,0,1-2.277.559h-3.81V23.348H45.03a3.532,3.532,0,0,1,2.116.548,1.776,1.776,0,0,1,.749,1.518A1.981,1.981,0,0,1,47.6,26.5a1.906,1.906,0,0,1-.782.7,2.03,2.03,0,0,1,1.092.7m-5.326-3.624v2.556h2.339a2.381,2.381,0,0,0,1.353-.323,1.2,1.2,0,0,0,0-1.907,2.381,2.381,0,0,0-1.353-.325Zm4.085,5.82a1.111,1.111,0,0,0,.491-1q0-1.335-1.952-1.335H42.59v2.657h2.623a2.708,2.708,0,0,0,1.462-.316" transform="translate(26.327 14.828)" fill="#6a7584"/><path d="M52.381,24.556V30.6H51.327v-.959a2.37,2.37,0,0,1-.924.765,2.864,2.864,0,0,1-1.232.261,3.183,3.183,0,0,1-1.575-.388,2.768,2.768,0,0,1-1.089-1.089,3.243,3.243,0,0,1-.394-1.616,3.205,3.205,0,0,1,.4-1.6A2.8,2.8,0,0,1,47.6,24.891a3.183,3.183,0,0,1,1.575-.388,2.9,2.9,0,0,1,1.2.245,2.334,2.334,0,0,1,.912.725v-.912ZM50.3,29.444a1.9,1.9,0,0,0,.731-.752,2.5,2.5,0,0,0,0-2.226,1.849,1.849,0,0,0-.731-.747,2.189,2.189,0,0,0-2.081,0,1.88,1.88,0,0,0-.731.747,2.443,2.443,0,0,0,0,2.226,1.926,1.926,0,0,0,.731.752,2.154,2.154,0,0,0,2.081,0" transform="translate(29.291 15.56)" fill="#6a7584"/><path d="M55.822,25.167a2.624,2.624,0,0,1,.678,1.957V30.6h-1.1V27.248a1.855,1.855,0,0,0-.421-1.323,1.59,1.59,0,0,0-1.208-.445,1.9,1.9,0,0,0-1.4.518,2.034,2.034,0,0,0-.513,1.489V30.6h-1.1V24.557h1.053v.912a2.14,2.14,0,0,1,.9-.719A3.138,3.138,0,0,1,54,24.5a2.5,2.5,0,0,1,1.832.667" transform="translate(32.242 15.561)" fill="#6a7584"/><path d="M57.411,28.7l-1.256,1.164v1.655H55.061V23.055h1.094v5.432l3.3-3.014h1.323l-2.544,2.5,2.8,3.548H59.682Z" transform="translate(34.973 14.643)" fill="#6a7584"/><path d="M24.175,11.223A.613.613,0,0,1,23,11.575l-.017-.053a.613.613,0,0,1,1.172-.352l.017.053" transform="translate(14.588 6.832)" fill="#6a7584"/><path d="M23.471,9.574a.613.613,0,0,1-1.093.55l-.024-.05a.607.607,0,0,1,.26-.784.613.613,0,0,1,.834.234l.024.05" transform="translate(14.163 5.851)" fill="#6a7584"/><path d="M22.493,8.078a.612.612,0,0,1-.981.731l-.033-.044a.607.607,0,0,1,.119-.817.615.615,0,0,1,.862.086l.033.044" transform="translate(13.574 4.96)" fill="#6a7584"/><path d="M21.268,6.773a.612.612,0,0,1-.84.89.446.446,0,0,1-.041-.038.609.609,0,0,1-.024-.826.616.616,0,0,1,.865-.064l.039.038" transform="translate(12.84 4.184)" fill="#6a7584"/><path d="M19.834,5.706a.612.612,0,0,1-.672,1.022L19.117,6.7a.612.612,0,0,1,.672-1.021l.045.029" transform="translate(11.981 3.547)" fill="#6a7584"/><path d="M18.238,4.894a.611.611,0,0,1-.485,1.121.471.471,0,0,1-.051-.021.607.607,0,0,1-.305-.767.613.613,0,0,1,.79-.355.471.471,0,0,1,.051.021" transform="translate(11.024 3.068)" fill="#6a7584"/><path d="M16.523,4.375a.611.611,0,0,1-.281,1.186.491.491,0,0,1-.053-.012.607.607,0,0,1-.435-.7.614.614,0,0,1,.716-.488l.053.013" transform="translate(10 2.763)" fill="#6a7584"/><path d="M14.744,4.162a.611.611,0,0,1-.07,1.22h-.054a.608.608,0,0,1-.551-.616.614.614,0,0,1,.621-.6h.054" transform="translate(8.936 2.641)" fill="#6a7584"/><path d="M12.959,4.26A.611.611,0,0,1,13.1,5.474a.151.151,0,0,0-.054.006.611.611,0,1,1-.142-1.214.155.155,0,0,0,.054-.006" transform="translate(7.866 2.704)" fill="#6a7584"/><path d="M11.212,4.666a.612.612,0,0,1,.352,1.17.489.489,0,0,1-.053.015.611.611,0,0,1-.352-1.169l.053-.017" transform="translate(6.828 2.951)" fill="#6a7584"/><path d="M9.565,5.369a.616.616,0,0,1,.785.26.61.61,0,0,1-.236.832.421.421,0,0,1-.047.023.612.612,0,0,1-.551-1.091l.05-.024" transform="translate(5.846 3.375)" fill="#6a7584"/><path d="M8.067,6.345a.615.615,0,0,1,.817.119.609.609,0,0,1-.086.861.421.421,0,0,1-.042.033.613.613,0,0,1-.737-.98l.044-.033" transform="translate(4.951 3.963)" fill="#6a7584"/><path d="M6.76,7.568a.612.612,0,0,1,.891.837.445.445,0,0,1-.038.041A.613.613,0,1,1,6.722,7.6l.038-.039" transform="translate(4.174 4.697)" fill="#6a7584"/><path d="M5.685,9a.614.614,0,0,1,1.09.211.6.6,0,0,1-.067.462l-.029.045a.612.612,0,0,1-1.024-.67L5.684,9" transform="translate(3.537 5.554)" fill="#6a7584"/><path d="M4.876,10.592A.613.613,0,0,1,6,11.077l-.023.05a.612.612,0,0,1-1.123-.482.471.471,0,0,1,.021-.051" transform="translate(3.058 6.508)" fill="#6a7584"/><path d="M4.356,12.3a.614.614,0,0,1,.7-.433.6.6,0,0,1,.393.257.606.606,0,0,1,.1.458.49.49,0,0,1-.013.053.613.613,0,0,1-1.192-.281l.013-.053" transform="translate(2.752 7.532)" fill="#6a7584"/><path d="M4.142,14.079a.616.616,0,0,1,.618-.55.61.61,0,0,1,.43.184.6.6,0,0,1,.174.435.3.3,0,0,1,0,.054.608.608,0,0,1-.616.55.614.614,0,0,1-.6-.619q0-.027,0-.054" transform="translate(2.629 8.592)" fill="#6a7584"/><path d="M4.241,15.864a.615.615,0,1,1,1.221-.142q0,.027,0,.054a.608.608,0,0,1-.512.648.614.614,0,0,1-.7-.506.157.157,0,0,0-.006-.054" transform="translate(2.692 9.657)" fill="#6a7584"/><path d="M4.647,17.6a.613.613,0,0,1,1.172-.352l.017.053a.613.613,0,0,1-1.172.352L4.647,17.6" transform="translate(2.94 10.697)" fill="#6a7584"/><path d="M5.352,19.243a.614.614,0,0,1,1.1-.546l.024.05a.606.606,0,0,1-.26.784.615.615,0,0,1-.835-.234l-.027-.054" transform="translate(3.365 11.676)" fill="#6a7584"/><path d="M6.329,20.749a.615.615,0,0,1,.982-.737l.033.044a.607.607,0,0,1-.119.817.615.615,0,0,1-.862-.086l-.034-.038" transform="translate(3.954 12.569)" fill="#6a7584"/><path d="M7.555,22.053a.612.612,0,0,1,.84-.89.446.446,0,0,1,.041.038.608.608,0,0,1,.024.824.615.615,0,0,1-.865.065l-.04-.037" transform="translate(4.69 13.344)" fill="#6a7584"/><path d="M8.987,23.12A.612.612,0,0,1,9.659,22.1a.45.45,0,0,1,.045.031.612.612,0,0,1-.672,1.021l-.045-.029" transform="translate(5.548 13.981)" fill="#6a7584"/><path d="M10.585,23.929a.612.612,0,0,1,.485-1.122.468.468,0,0,1,.051.021.607.607,0,0,1,.305.767.613.613,0,0,1-.79.355.469.469,0,0,1-.051-.021" transform="translate(6.505 14.459)" fill="#6a7584"/><path d="M12.3,24.446a.611.611,0,1,1,.281-1.189.272.272,0,0,1,.053.013.606.606,0,0,1,.435.7.614.614,0,0,1-.716.488l-.053-.013" transform="translate(7.528 14.764)" fill="#6a7584"/><path d="M14.078,24.662a.611.611,0,0,1,.07-1.22H14.2a.608.608,0,0,1,.551.616.614.614,0,0,1-.621.6h-.054" transform="translate(8.592 14.887)" fill="#6a7584"/><path d="M24.175,11.211A.613.613,0,0,1,23,11.563a.49.49,0,0,1-.017-.053.613.613,0,0,1,1.172-.352l.017.053" transform="translate(14.588 6.827)" fill="#6a7584"/><path d="M23.472,9.566a.613.613,0,0,1-1.094.549l-.024-.047a.613.613,0,0,1,1.094-.551l.024.05" transform="translate(14.163 5.844)" fill="#6a7584"/><path d="M22.494,8.067a.613.613,0,0,1-.981.732l-.033-.044a.613.613,0,1,1,.981-.737l.033.044" transform="translate(13.573 4.95)" fill="#6a7584"/><path d="M21.27,6.76a.613.613,0,1,1-.843.891.446.446,0,0,1-.041-.038.613.613,0,1,1,.843-.891l.039.038" transform="translate(12.839 4.174)" fill="#6a7584"/><path d="M19.834,5.685a.613.613,0,0,1-.675,1.023l-.046-.028a.613.613,0,0,1,.672-1.024l.045.029" transform="translate(11.981 3.536)" fill="#6a7584"/><path d="M18.237,4.876a.617.617,0,0,1,.305.769.6.6,0,0,1-.316.341.614.614,0,0,1-.47.015.476.476,0,0,1-.051-.023.612.612,0,0,1,.484-1.123.471.471,0,0,1,.051.021" transform="translate(11.025 3.057)" fill="#6a7584"/><path d="M16.523,4.356a.613.613,0,0,1-.281,1.192.489.489,0,0,1-.053-.013.607.607,0,0,1-.435-.7.614.614,0,0,1,.716-.489l.053.013" transform="translate(10 2.751)" fill="#6a7584"/><path d="M14.744,4.142a.613.613,0,0,1-.07,1.222h-.054a.613.613,0,0,1,.071-1.223h.054" transform="translate(8.936 2.628)" fill="#6a7584"/><path d="M12.958,4.241A.613.613,0,0,1,13.1,5.457h-.054A.612.612,0,0,1,12.9,4.242a.157.157,0,0,0,.054-.006" transform="translate(7.868 2.691)" fill="#6a7584"/><path d="M11.211,4.647a.613.613,0,0,1,.352,1.172.488.488,0,0,1-.053.017.613.613,0,0,1-.352-1.172l.053-.017" transform="translate(6.828 2.94)" fill="#6a7584"/><path d="M9.566,5.351a.613.613,0,0,1,.549,1.094l-.047.024a.613.613,0,0,1-.551-1.094l.05-.024" transform="translate(5.845 3.364)" fill="#6a7584"/><path d="M8.067,6.329A.612.612,0,0,1,8.8,7.31a.421.421,0,0,1-.042.033.613.613,0,0,1-.737-.981l.044-.033" transform="translate(4.951 3.953)" fill="#6a7584"/><path d="M6.76,7.556a.613.613,0,1,1,.891.843.445.445,0,0,1-.038.041A.613.613,0,0,1,6.722,7.6l.038-.039" transform="translate(4.174 4.688)" fill="#6a7584"/><path d="M5.685,8.987a.614.614,0,0,1,1.09.211.608.608,0,0,1-.067.465l-.029.045a.613.613,0,0,1-1.024-.672l.029-.045" transform="translate(3.537 5.547)" fill="#6a7584"/><path d="M4.876,10.585a.617.617,0,0,1,.769-.305.6.6,0,0,1,.341.316.614.614,0,0,1,.015.47.477.477,0,0,1-.023.051.612.612,0,0,1-1.123-.484.471.471,0,0,1,.021-.051" transform="translate(3.058 6.504)" fill="#6a7584"/><path d="M4.356,12.3a.613.613,0,0,1,1.192.281.489.489,0,0,1-.013.053.607.607,0,0,1-.7.435.614.614,0,0,1-.489-.716l.013-.053" transform="translate(2.752 7.528)" fill="#6a7584"/><path d="M4.142,14.078a.613.613,0,0,1,1.222.07.3.3,0,0,1,0,.054.608.608,0,0,1-.616.551.614.614,0,0,1-.6-.621v-.054" transform="translate(2.629 8.592)" fill="#6a7584"/><path d="M4.241,15.866a.615.615,0,0,1,1.221-.14v.054a.612.612,0,0,1-1.215.142.157.157,0,0,0-.006-.054" transform="translate(2.692 9.659)" fill="#6a7584"/><path d="M4.647,17.611a.613.613,0,0,1,1.172-.352.489.489,0,0,1,.017.053.613.613,0,0,1-1.172.352l-.017-.053" transform="translate(2.94 10.7)" fill="#6a7584"/><path d="M5.352,19.258a.613.613,0,0,1,1.094-.549l.024.047a.611.611,0,0,1-.26.787.617.617,0,0,1-.835-.236l-.023-.05" transform="translate(3.365 11.682)" fill="#6a7584"/><path d="M6.329,20.756a.613.613,0,0,1,.981-.732l.033.044a.613.613,0,1,1-.981.737l-.033-.044" transform="translate(3.954 12.576)" fill="#6a7584"/><path d="M7.556,22.065a.613.613,0,0,1,.843-.891.446.446,0,0,1,.041.038A.613.613,0,0,1,7.6,22.1l-.039-.038" transform="translate(4.689 13.352)" fill="#6a7584"/><path d="M8.987,23.138a.614.614,0,0,1,.211-1.09.608.608,0,0,1,.465.067l.045.029a.613.613,0,0,1-.672,1.024l-.045-.029" transform="translate(5.548 13.99)" fill="#6a7584"/><path d="M10.585,23.947a.617.617,0,0,1-.305-.769.6.6,0,0,1,.316-.341.614.614,0,0,1,.47-.015l.051.021a.613.613,0,0,1-.484,1.125.473.473,0,0,1-.051-.021" transform="translate(6.505 14.47)" fill="#6a7584"/><path d="M12.3,24.466a.613.613,0,0,1,.281-1.192.491.491,0,0,1,.053.013.608.608,0,0,1,.435.7.614.614,0,0,1-.716.489l-.053-.013" transform="translate(7.529 14.776)" fill="#6a7584"/><path d="M14.078,24.68a.613.613,0,0,1,.07-1.222.3.3,0,0,1,.054,0,.608.608,0,0,1,.551.616.614.614,0,0,1-.621.6h-.054" transform="translate(8.592 14.899)" fill="#6a7584"/><path d="M25.426,10.842a.69.69,0,0,1-1.32.4c-.006-.02-.012-.039-.017-.059a.683.683,0,0,1,.44-.82.691.691,0,0,1,.879.421c.006.02.013.039.018.059" transform="translate(15.286 6.555)" fill="#6a7584"/><path d="M24.634,8.988a.689.689,0,0,1-1.229.619.441.441,0,0,1-.027-.056.689.689,0,0,1,1.229-.618c.009.018.02.036.027.054" transform="translate(14.808 5.45)" fill="#6a7584"/><path d="M23.532,7.3a.689.689,0,0,1-.639,1.072.67.67,0,0,1-.462-.251.286.286,0,0,1-.039-.05A.69.69,0,0,1,23.5,7.252l.035.05" transform="translate(14.146 4.444)" fill="#6a7584"/><path d="M22.154,5.832a.69.69,0,0,1-.946,1l-.044-.042a.685.685,0,0,1-.027-.929.692.692,0,0,1,.973-.074l.044.042" transform="translate(13.319 3.571)" fill="#6a7584"/><path d="M20.542,4.624a.69.69,0,0,1-.759,1.151.36.36,0,0,1-.053-.035.689.689,0,0,1,.757-1.149.536.536,0,0,1,.051.033" transform="translate(12.352 2.853)" fill="#6a7584"/><path d="M18.744,3.712a.692.692,0,0,1,.343.865.684.684,0,0,1-.361.384.691.691,0,0,1-.527.017l-.056-.024a.69.69,0,0,1,.545-1.264l.056.024" transform="translate(11.278 2.314)" fill="#6a7584"/><path d="M16.818,3.13a.691.691,0,0,1,.488.791.677.677,0,0,1-.29.441.688.688,0,0,1-.517.105.189.189,0,0,1-.057-.015.69.69,0,0,1,.317-1.341l.059.015" transform="translate(10.124 1.97)" fill="#6a7584"/><path d="M14.815,2.888a.69.69,0,0,1-.078,1.376h-.062a.69.69,0,0,1,.08-1.375h.06" transform="translate(8.93 1.832)" fill="#6a7584"/><path d="M12.806,3a.691.691,0,0,1,.729.577.684.684,0,0,1-.119.513.693.693,0,0,1-.45.278l-.06.006A.692.692,0,1,1,12.745,3a.191.191,0,0,0,.06-.006" transform="translate(7.725 1.902)" fill="#6a7584"/><path d="M10.842,3.457a.69.69,0,0,1,.4,1.32l-.059.017a.683.683,0,0,1-.82-.44.691.691,0,0,1,.421-.879l.059-.018" transform="translate(6.556 2.182)" fill="#6a7584"/><path d="M8.988,4.248a.689.689,0,0,1,.619,1.229.44.44,0,0,1-.056.027.689.689,0,0,1-.618-1.229c.018-.009.036-.02.054-.027" transform="translate(5.451 2.66)" fill="#6a7584"/><path d="M7.3,5.35a.689.689,0,0,1,1.072.639.677.677,0,0,1-.251.465.388.388,0,0,1-.05.038.69.69,0,0,1-.822-1.106L7.3,5.35" transform="translate(4.446 3.322)" fill="#6a7584"/><path d="M5.832,6.727a.688.688,0,0,1,1,.946l-.042.044a.685.685,0,0,1-.929.027.692.692,0,0,1-.074-.973l.042-.044" transform="translate(3.572 4.149)" fill="#6a7584"/><path d="M4.624,8.339A.69.69,0,0,1,5.775,9.1a.36.36,0,0,1-.035.053.684.684,0,0,1-.911.189.691.691,0,0,1-.239-.948l.033-.051" transform="translate(2.854 5.115)" fill="#6a7584"/><path d="M3.715,10.137a.69.69,0,0,1,1.266.545l-.026.056a.685.685,0,0,1-.864.346.692.692,0,0,1-.4-.889l.026-.056" transform="translate(2.315 6.192)" fill="#6a7584"/><path d="M3.129,12.065a.69.69,0,0,1,1.341.317.2.2,0,0,1-.015.059.689.689,0,0,1-1.339-.316.3.3,0,0,1,.013-.059" transform="translate(1.971 7.344)" fill="#6a7584"/><path d="M2.888,14.066a.69.69,0,0,1,1.376.078v.062a.69.69,0,0,1-1.375-.08v-.06" transform="translate(1.832 8.541)" fill="#6a7584"/><path d="M3,16.079a.69.69,0,0,1,1.369-.16.2.2,0,0,0,.006.06.689.689,0,0,1-1.369.16A.191.191,0,0,1,3,16.079" transform="translate(1.903 9.742)" fill="#6a7584"/><path d="M3.457,18.044a.69.69,0,0,1,1.32-.4c.006.02.012.039.017.059a.683.683,0,0,1-.44.82.69.69,0,0,1-.879-.421c-.006-.02-.013-.039-.018-.059" transform="translate(2.183 10.913)" fill="#6a7584"/><path d="M4.248,19.892a.69.69,0,0,1,1.229-.625.353.353,0,0,1,.027.056.689.689,0,0,1-1.229.618.559.559,0,0,1-.027-.054" transform="translate(2.66 12.017)" fill="#6a7584"/><path d="M5.35,21.58a.689.689,0,0,1,.639-1.072.677.677,0,0,1,.465.25.387.387,0,0,1,.038.05.69.69,0,0,1-1.1.823l-.036-.05" transform="translate(3.324 13.023)" fill="#6a7584"/><path d="M6.727,23.05a.69.69,0,0,1,.946-1l.044.042a.685.685,0,0,1,.027.929.692.692,0,0,1-.973.074l-.044-.042" transform="translate(4.15 13.897)" fill="#6a7584"/><path d="M8.339,24.263A.69.69,0,0,1,9.1,23.112a.562.562,0,0,1,.053.033A.69.69,0,0,1,8.394,24.3l-.055-.033" transform="translate(5.116 14.615)" fill="#6a7584"/><path d="M10.137,25.166a.689.689,0,0,1,.545-1.265l.056.024a.69.69,0,0,1-.545,1.264l-.056-.024" transform="translate(6.192 15.153)" fill="#6a7584"/><path d="M12.065,25.753a.69.69,0,0,1,.316-1.341l.059.015a.689.689,0,0,1-.316,1.339.3.3,0,0,1-.059-.013" transform="translate(7.346 15.498)" fill="#6a7584"/><path d="M14.065,25.993a.69.69,0,0,1,.079-1.376h.062a.69.69,0,0,1-.08,1.375h-.06" transform="translate(8.54 15.636)" fill="#6a7584"/><path d="M25.426,10.842a.69.69,0,0,1-1.32.4c-.006-.02-.012-.039-.017-.059a.683.683,0,0,1,.44-.82.691.691,0,0,1,.879.421c.006.02.013.039.018.059" transform="translate(15.286 6.555)" fill="#6a7584"/><path d="M24.634,8.988a.689.689,0,0,1-1.229.619.441.441,0,0,1-.027-.056.689.689,0,0,1,1.229-.618c.009.018.02.036.027.054" transform="translate(14.808 5.45)" fill="#6a7584"/><path d="M23.532,7.3a.689.689,0,0,1-.639,1.072.67.67,0,0,1-.462-.251.286.286,0,0,1-.039-.05A.69.69,0,0,1,23.5,7.252l.035.05" transform="translate(14.146 4.444)" fill="#6a7584"/><path d="M22.154,5.832a.69.69,0,0,1-.946,1l-.044-.042a.685.685,0,0,1-.027-.929.692.692,0,0,1,.973-.074l.044.042" transform="translate(13.319 3.571)" fill="#6a7584"/><path d="M20.542,4.624a.69.69,0,0,1-.759,1.151.36.36,0,0,1-.053-.035.689.689,0,0,1,.757-1.149.536.536,0,0,1,.051.033" transform="translate(12.352 2.853)" fill="#6a7584"/><path d="M18.744,3.712a.692.692,0,0,1,.343.865.684.684,0,0,1-.361.384.691.691,0,0,1-.527.017l-.056-.024a.69.69,0,0,1,.545-1.264l.056.024" transform="translate(11.278 2.314)" fill="#6a7584"/><path d="M16.818,3.13a.691.691,0,0,1,.488.791.677.677,0,0,1-.29.441.688.688,0,0,1-.517.105.189.189,0,0,1-.057-.015.69.69,0,0,1,.317-1.341l.059.015" transform="translate(10.124 1.97)" fill="#6a7584"/><path d="M14.815,2.888a.69.69,0,0,1-.078,1.376h-.062a.69.69,0,0,1,.08-1.375h.06" transform="translate(8.93 1.832)" fill="#6a7584"/><path d="M12.806,3a.691.691,0,0,1,.729.577.684.684,0,0,1-.119.513.693.693,0,0,1-.45.278l-.06.006A.692.692,0,1,1,12.745,3a.191.191,0,0,0,.06-.006" transform="translate(7.725 1.902)" fill="#6a7584"/><path d="M10.842,3.457a.69.69,0,0,1,.4,1.32l-.059.017a.683.683,0,0,1-.82-.44.691.691,0,0,1,.421-.879l.059-.018" transform="translate(6.556 2.182)" fill="#6a7584"/><path d="M8.988,4.248a.689.689,0,0,1,.619,1.229.44.44,0,0,1-.056.027.689.689,0,0,1-.618-1.229c.018-.009.036-.02.054-.027" transform="translate(5.451 2.66)" fill="#6a7584"/><path d="M7.3,5.35a.689.689,0,0,1,1.072.639.677.677,0,0,1-.251.465.388.388,0,0,1-.05.038.69.69,0,0,1-.822-1.106L7.3,5.35" transform="translate(4.446 3.322)" fill="#6a7584"/><path d="M5.832,6.727a.688.688,0,0,1,1,.946l-.042.044a.685.685,0,0,1-.929.027.692.692,0,0,1-.074-.973l.042-.044" transform="translate(3.572 4.149)" fill="#6a7584"/><path d="M4.624,8.339A.69.69,0,0,1,5.775,9.1a.36.36,0,0,1-.035.053.684.684,0,0,1-.911.189.691.691,0,0,1-.239-.948l.033-.051" transform="translate(2.854 5.115)" fill="#6a7584"/><path d="M3.715,10.137a.69.69,0,0,1,1.266.545l-.026.056a.685.685,0,0,1-.864.346.692.692,0,0,1-.4-.889l.026-.056" transform="translate(2.315 6.192)" fill="#6a7584"/><path d="M3.129,12.065a.69.69,0,0,1,1.341.317.2.2,0,0,1-.015.059.689.689,0,0,1-1.339-.316.3.3,0,0,1,.013-.059" transform="translate(1.971 7.344)" fill="#6a7584"/><path d="M2.888,14.066a.69.69,0,0,1,1.376.078v.062a.69.69,0,0,1-1.375-.08v-.06" transform="translate(1.832 8.541)" fill="#6a7584"/><path d="M3,16.079a.69.69,0,0,1,1.369-.16.2.2,0,0,0,.006.06.689.689,0,0,1-1.369.16A.191.191,0,0,1,3,16.079" transform="translate(1.903 9.742)" fill="#6a7584"/><path d="M3.457,18.044a.69.69,0,0,1,1.32-.4c.006.02.012.039.017.059a.683.683,0,0,1-.44.82.69.69,0,0,1-.879-.421c-.006-.02-.013-.039-.018-.059" transform="translate(2.183 10.913)" fill="#6a7584"/><path d="M4.248,19.892a.69.69,0,0,1,1.229-.625.353.353,0,0,1,.027.056.689.689,0,0,1-1.229.618.559.559,0,0,1-.027-.054" transform="translate(2.66 12.017)" fill="#6a7584"/><path d="M5.35,21.58a.689.689,0,0,1,.639-1.072.677.677,0,0,1,.465.25.387.387,0,0,1,.038.05.69.69,0,0,1-1.1.823l-.036-.05" transform="translate(3.324 13.023)" fill="#6a7584"/><path d="M6.727,23.05a.69.69,0,0,1,.946-1l.044.042a.685.685,0,0,1,.027.929.692.692,0,0,1-.973.074l-.044-.042" transform="translate(4.15 13.897)" fill="#6a7584"/><path d="M8.339,24.263A.69.69,0,0,1,9.1,23.112a.562.562,0,0,1,.053.033A.69.69,0,0,1,8.394,24.3l-.055-.033" transform="translate(5.116 14.615)" fill="#6a7584"/><path d="M10.137,25.166a.689.689,0,0,1,.545-1.265l.056.024a.69.69,0,0,1-.545,1.264l-.056-.024" transform="translate(6.192 15.153)" fill="#6a7584"/><path d="M12.065,25.753a.69.69,0,0,1,.316-1.341l.059.015a.689.689,0,0,1-.316,1.339.3.3,0,0,1-.059-.013" transform="translate(7.346 15.498)" fill="#6a7584"/><path d="M14.065,25.993a.69.69,0,0,1,.079-1.376h.062a.69.69,0,0,1-.08,1.375h-.06" transform="translate(8.54 15.636)" fill="#6a7584"/><path d="M26.8,10.435a.777.777,0,0,1-.494.919.763.763,0,0,1-.59-.033.773.773,0,0,1-.4-.441c-.006-.023-.013-.044-.018-.065a.768.768,0,0,1,.494-.921.776.776,0,0,1,.986.476c.006.021.013.044.018.065" transform="translate(16.055 6.256)" fill="#6a7584"/><path d="M25.912,8.355a.774.774,0,0,1-1.382.7.55.55,0,0,1-.031-.062.773.773,0,0,1,1.38-.693.642.642,0,0,1,.031.06" transform="translate(15.518 5.017)" fill="#6a7584"/><path d="M24.673,6.464a.775.775,0,0,1-1.239.928c-.015-.018-.027-.036-.041-.056a.773.773,0,1,1,1.24-.924c.015.018.027.038.041.056" transform="translate(14.773 3.887)" fill="#6a7584"/><path d="M23.13,4.812a.775.775,0,0,1,.029,1.043.755.755,0,0,1-.527.267.773.773,0,0,1-.563-.184l-.051-.047a.774.774,0,0,1,1.061-1.125.538.538,0,0,1,.051.047" transform="translate(13.847 2.907)" fill="#6a7584"/><path d="M21.32,3.455a.774.774,0,0,1-.85,1.291.534.534,0,0,1-.057-.038.773.773,0,0,1,.845-1.29.534.534,0,0,1,.057.038" transform="translate(12.763 2.102)" fill="#6a7584"/><path d="M19.306,2.436a.773.773,0,0,1-.612,1.419l-.062-.026a.775.775,0,1,1,.61-1.425c.023.008.042.018.064.027" transform="translate(11.553 1.495)" fill="#6a7584"/><path d="M17.14,1.78a.776.776,0,0,1,.548.888.762.762,0,0,1-.323.5.771.771,0,0,1-.579.121.219.219,0,0,1-.067-.017.768.768,0,0,1-.55-.888.776.776,0,0,1,.9-.616.219.219,0,0,1,.067.017" transform="translate(10.261 1.111)" fill="#6a7584"/><path d="M14.9,1.508a.774.774,0,0,1-.088,1.543h-.068a.773.773,0,0,1,.088-1.542H14.9" transform="translate(8.92 0.955)" fill="#6a7584"/><path d="M12.636,1.633a.774.774,0,0,1,.18,1.536c-.023,0-.044.006-.067.008a.774.774,0,0,1-.181-1.536c.023,0,.045-.006.068-.008" transform="translate(7.571 1.035)" fill="#6a7584"/><path d="M10.433,2.147a.773.773,0,0,1,.445,1.479.584.584,0,0,1-.065.02.773.773,0,0,1-.445-1.475c.021-.006.044-.015.065-.02" transform="translate(6.258 1.348)" fill="#6a7584"/><path d="M8.355,3.035a.774.774,0,0,1,.7,1.382.55.55,0,0,1-.062.031.773.773,0,0,1-.693-1.38.643.643,0,0,1,.06-.031" transform="translate(5.017 1.884)" fill="#6a7584"/><path d="M6.465,4.272a.775.775,0,0,1,.928,1.24c-.018.015-.036.027-.056.041a.776.776,0,0,1-.928-1.244c.018-.015.038-.027.056-.041" transform="translate(3.888 2.628)" fill="#6a7584"/><path d="M4.812,5.817a.777.777,0,0,1,1.043-.031.764.764,0,0,1,.269.527.783.783,0,0,1-.184.563.561.561,0,0,1-.05.051A.773.773,0,0,1,4.765,5.868a.442.442,0,0,1,.046-.051" transform="translate(2.909 3.556)" fill="#6a7584"/><path d="M3.456,7.626a.774.774,0,0,1,1.291.849c-.012.02-.024.039-.036.057a.774.774,0,0,1-1.294-.849.534.534,0,0,1,.038-.057" transform="translate(2.102 4.64)" fill="#6a7584"/><path d="M2.435,9.644a.774.774,0,0,1,1.42.612c-.008.021-.017.042-.026.062a.773.773,0,0,1-1.419-.61c.008-.021.017-.042.026-.064" transform="translate(1.498 5.848)" fill="#6a7584"/><path d="M1.78,11.808a.776.776,0,0,1,.888-.548.762.762,0,0,1,.5.323.771.771,0,0,1,.121.579.219.219,0,0,1-.017.067.768.768,0,0,1-.888.55.776.776,0,0,1-.616-.9.219.219,0,0,1,.017-.067" transform="translate(1.111 7.143)" fill="#6a7584"/><path d="M1.509,14.053a.773.773,0,0,1,1.541.088.482.482,0,0,1,0,.068.773.773,0,0,1-1.542-.088v-.068" transform="translate(0.957 8.484)" fill="#6a7584"/><path d="M1.633,16.31a.774.774,0,0,1,1.536-.18c0,.023.006.044.008.067a.774.774,0,0,1-1.536.181c0-.023-.006-.045-.008-.068" transform="translate(1.036 9.832)" fill="#6a7584"/><path d="M2.147,18.512a.773.773,0,0,1,1.479-.445.519.519,0,0,1,.02.067.773.773,0,0,1-1.475.443c-.006-.021-.015-.044-.02-.065" transform="translate(1.349 11.145)" fill="#6a7584"/><path d="M3.035,20.591a.774.774,0,0,1,1.382-.7.441.441,0,0,1,.031.062.773.773,0,0,1-1.38.693.643.643,0,0,1-.031-.06" transform="translate(1.885 12.386)" fill="#6a7584"/><path d="M4.272,22.485a.775.775,0,0,1,1.24-.928c.015.018.027.036.041.056a.773.773,0,1,1-1.24.924c-.015-.018-.027-.038-.041-.056" transform="translate(2.629 13.514)" fill="#6a7584"/><path d="M5.817,24.134a.774.774,0,0,1,1.06-1.125.538.538,0,0,1,.051.047.773.773,0,0,1-1.06,1.125.693.693,0,0,1-.051-.047" transform="translate(3.557 14.495)" fill="#6a7584"/><path d="M7.626,25.491A.774.774,0,0,1,8.475,24.2a.534.534,0,0,1,.057.038.773.773,0,0,1-.849,1.291.534.534,0,0,1-.057-.038" transform="translate(4.642 15.3)" fill="#6a7584"/><path d="M9.644,26.514a.774.774,0,0,1,.612-1.42l.062.026a.773.773,0,0,1-.61,1.419.574.574,0,0,1-.064-.026" transform="translate(5.849 15.905)" fill="#6a7584"/><path d="M11.809,27.169a.773.773,0,0,1,.354-1.5.219.219,0,0,1,.067.017.773.773,0,0,1-.355,1.5.219.219,0,0,1-.067-.017" transform="translate(7.143 16.292)" fill="#6a7584"/><path d="M14.053,27.438A.771.771,0,0,1,14.14,25.9h.068a.773.773,0,0,1-.088,1.542h-.068" transform="translate(8.485 16.447)" fill="#6a7584"/><path d="M28.3,9.991a.866.866,0,0,1-1.656.5.623.623,0,0,1-.021-.074.865.865,0,0,1,1.655-.5A.632.632,0,0,1,28.3,10" transform="translate(16.893 5.93)" fill="#6a7584"/><path d="M27.308,7.665a.866.866,0,0,1-1.545.776c-.012-.023-.024-.045-.035-.068A.866.866,0,0,1,27.273,7.6a.672.672,0,0,1,.035.068" transform="translate(16.293 4.543)" fill="#6a7584"/><path d="M25.923,5.545a.865.865,0,0,1-1.386,1.031c-.017-.02-.031-.041-.045-.062a.866.866,0,0,1,1.385-1.031c.017.021.031.041.045.062" transform="translate(15.461 3.282)" fill="#6a7584"/><path d="M24.2,3.7a.866.866,0,1,1-1.185,1.264c-.02-.018-.039-.035-.056-.053A.866.866,0,1,1,24.14,3.65c.02.017.038.035.056.053" transform="translate(14.42 2.182)" fill="#6a7584"/><path d="M22.169,2.182a.866.866,0,0,1-.948,1.446.692.692,0,0,1-.065-.042A.866.866,0,0,1,22.1,2.141c.023.013.042.027.064.042" transform="translate(13.21 1.282)" fill="#6a7584"/><path d="M19.913,1.04a.865.865,0,0,1-.684,1.589.527.527,0,0,1-.071-.029.865.865,0,0,1,.684-1.587.527.527,0,0,1,.071.029" transform="translate(11.858 0.605)" fill="#6a7584"/><path d="M17.494.307a.866.866,0,0,1-.4,1.683.56.56,0,0,1-.075-.018.866.866,0,0,1,.4-1.685.3.3,0,0,1,.075.018" transform="translate(10.408 0.172)" fill="#6a7584"/><path d="M14.98,0a.866.866,0,0,1-.1,1.726.607.607,0,0,1-.077,0,.859.859,0,0,1-.776-.871A.868.868,0,0,1,14.9,0h.077" transform="translate(8.909 -0.001)" fill="#6a7584"/><path d="M12.454.143a.865.865,0,0,1,.2,1.717.659.659,0,0,1-.077.009.865.865,0,0,1-.2-1.717.66.66,0,0,1,.077-.009" transform="translate(7.4 0.089)" fill="#6a7584"/><path d="M9.991.718a.866.866,0,0,1,.5,1.656.622.622,0,0,1-.074.021.865.865,0,0,1-.5-1.654A.632.632,0,0,1,9.991.718" transform="translate(5.931 0.438)" fill="#6a7584"/><path d="M7.665,1.712a.866.866,0,0,1,.776,1.545c-.023.012-.044.024-.068.035A.866.866,0,0,1,7.6,1.747c.023-.012.045-.024.068-.035" transform="translate(4.544 1.039)" fill="#6a7584"/><path d="M5.546,3.095A.865.865,0,0,1,6.577,4.481c-.02.017-.041.031-.062.045A.866.866,0,0,1,5.483,3.14l.062-.045" transform="translate(3.283 1.871)" fill="#6a7584"/><path d="M3.7,4.824A.865.865,0,0,1,4.959,6.009a.434.434,0,0,1-.054.056A.857.857,0,0,1,3.739,6.1a.867.867,0,0,1-.092-1.222c.017-.02.036-.038.054-.056" transform="translate(2.184 2.909)" fill="#6a7584"/><path d="M2.182,6.849a.866.866,0,0,1,1.446.95c-.013.021-.027.042-.042.064a.866.866,0,0,1-1.445-.948c.013-.021.027-.042.042-.064" transform="translate(1.283 4.123)" fill="#6a7584"/><path d="M1.04,9.106a.865.865,0,0,1,1.586.684A.37.37,0,0,1,2.6,9.86a.866.866,0,0,1-1.59-.684.439.439,0,0,1,.031-.071" transform="translate(0.606 5.473)" fill="#6a7584"/><path d="M.307,11.532a.866.866,0,0,1,1.683.4A.56.56,0,0,1,1.973,12a.866.866,0,1,1-1.685-.4.3.3,0,0,1,.018-.075" transform="translate(0.173 6.922)" fill="#6a7584"/><path d="M0,14.039a.866.866,0,0,1,1.726.1.607.607,0,0,1,0,.077A.866.866,0,0,1,0,14.115v-.077" transform="translate(0 8.423)" fill="#6a7584"/><path d="M.143,16.565a.865.865,0,0,1,1.717-.2.592.592,0,0,1,.009.075.865.865,0,0,1-1.717.2.617.617,0,0,1-.009-.077" transform="translate(0.09 9.931)" fill="#6a7584"/><path d="M.718,19.028a.866.866,0,0,1,1.656-.5A.623.623,0,0,1,2.4,18.6a.865.865,0,0,1-1.655.5c-.008-.024-.017-.05-.023-.074" transform="translate(0.439 11.401)" fill="#6a7584"/><path d="M1.712,21.354a.866.866,0,0,1,1.545-.776q.017.032.035.068a.866.866,0,0,1-1.545.776c-.012-.023-.024-.045-.035-.068" transform="translate(1.04 12.787)" fill="#6a7584"/><path d="M3.095,23.468a.865.865,0,0,1,1.386-1.031c.017.02.031.041.045.062A.866.866,0,0,1,3.14,23.533c-.017-.021-.031-.041-.045-.062" transform="translate(1.871 14.049)" fill="#6a7584"/><path d="M4.826,25.32a.866.866,0,1,1,1.185-1.264c.02.018.039.035.056.053a.866.866,0,0,1-1.185,1.264c-.02-.017-.038-.035-.056-.053" transform="translate(2.908 15.146)" fill="#6a7584"/><path d="M6.849,26.835a.866.866,0,0,1,.95-1.446c.021.013.042.027.064.042a.866.866,0,0,1-.948,1.445c-.021-.013-.042-.027-.064-.042" transform="translate(4.123 16.049)" fill="#6a7584"/><path d="M9.106,27.983a.865.865,0,0,1,.684-1.588.532.532,0,0,1,.071.029.865.865,0,0,1-.684,1.587.641.641,0,0,1-.071-.029" transform="translate(5.474 16.726)" fill="#6a7584"/><path d="M11.532,28.712a.866.866,0,0,1,.4-1.683.562.562,0,0,1,.075.018.866.866,0,0,1-.4,1.685.3.3,0,0,1-.075-.018" transform="translate(6.922 17.157)" fill="#6a7584"/><path d="M14.039,29.014a.87.87,0,0,1-.776-.871.843.843,0,0,1,.261-.608.861.861,0,0,1,.615-.246h.077a.866.866,0,0,1-.1,1.726h-.077" transform="translate(8.424 17.331)" fill="#6a7584"/><path d="M23.886,10.373a.612.612,0,0,1-.794.773.6.6,0,0,1-.341-.316.471.471,0,0,1-.021-.051.613.613,0,0,1,1.138-.453l.02.051" transform="translate(14.415 6.328)" fill="#6a7584"/><path d="M23.04,8.8a.612.612,0,0,1-.648.9A.6.6,0,0,1,22,9.44a.191.191,0,0,1-.027-.045.6.6,0,0,1,.189-.8.611.611,0,0,1,.85.16.2.2,0,0,1,.029.045" transform="translate(13.905 5.388)" fill="#6a7584"/><path d="M21.934,7.393a.613.613,0,0,1-.047.824.6.6,0,0,1-.435.174.612.612,0,0,1-.432-.183l-.036-.041a.608.608,0,0,1,.047-.824.615.615,0,0,1,.867.009c.013.013.024.027.036.041" transform="translate(13.24 4.553)" fill="#6a7584"/><path d="M20.6,6.2a.612.612,0,0,1-.758.96L19.8,7.126a.607.607,0,0,1-.1-.82.614.614,0,0,1,.855-.139A.421.421,0,0,1,20.6,6.2" transform="translate(12.44 3.845)" fill="#6a7584"/><path d="M19.077,5.259a.611.611,0,0,1-.111,1.1.6.6,0,0,1-.468-.026l-.05-.024a.608.608,0,0,1-.237-.791.614.614,0,0,1,.817-.287.44.44,0,0,1,.047.026" transform="translate(11.528 3.285)" fill="#6a7584"/><path d="M17.415,4.595a.612.612,0,0,1-.384,1.159l-.051-.018a.611.611,0,0,1,.382-1.159.489.489,0,0,1,.053.017" transform="translate(10.534 2.892)" fill="#6a7584"/><path d="M15.662,4.23a.613.613,0,0,1,.494.66.606.606,0,0,1-.221.414.62.62,0,0,1-.45.136l-.053-.008a.612.612,0,0,1,.175-1.21.12.12,0,0,1,.054.008" transform="translate(9.485 2.678)" fill="#6a7584"/><path d="M13.872,4.173a.611.611,0,0,1,.037,1.221h-.054a.608.608,0,0,1-.6-.566.615.615,0,0,1,.566-.655h.054" transform="translate(8.416 2.65)" fill="#6a7584"/><path d="M12.1,4.428a.616.616,0,0,1,.692.453.6.6,0,0,1-.067.462.612.612,0,0,1-.376.281l-.053.009a.611.611,0,0,1-.251-1.2.326.326,0,0,0,.054-.012" transform="translate(7.357 2.806)" fill="#6a7584"/><path d="M10.4,4.986a.618.618,0,0,1,.761.325.611.611,0,0,1-.308.809.271.271,0,0,1-.051.02A.612.612,0,0,1,10.349,5l.051-.02" transform="translate(6.342 3.145)" fill="#6a7584"/><path d="M8.816,5.83a.615.615,0,0,1,.8.19.6.6,0,0,1,.1.458.606.606,0,0,1-.257.391c-.015.012-.031.02-.045.029A.612.612,0,0,1,8.77,5.859a.273.273,0,0,1,.045-.029" transform="translate(5.402 3.654)" fill="#6a7584"/><path d="M7.412,6.935a.612.612,0,0,1,.814.911.392.392,0,0,1-.039.036.612.612,0,0,1-.816-.911c.013-.013.027-.024.041-.036" transform="translate(4.563 4.317)" fill="#6a7584"/><path d="M6.216,8.268a.617.617,0,0,1,.821-.1.6.6,0,0,1,.246.4.607.607,0,0,1-.105.456l-.035.042a.612.612,0,0,1-.961-.753l.035-.042" transform="translate(3.854 5.117)" fill="#6a7584"/><path d="M5.273,9.786a.612.612,0,0,1,1.078.579c-.006.017-.017.031-.024.047a.613.613,0,0,1-1.08-.579.269.269,0,0,1,.026-.047" transform="translate(3.294 6.026)" fill="#6a7584"/><path d="M4.6,11.447a.618.618,0,0,1,.737-.371.612.612,0,0,1,.421.754.46.46,0,0,1-.017.051A.612.612,0,0,1,4.585,11.5a.49.49,0,0,1,.017-.053" transform="translate(2.9 7.02)" fill="#6a7584"/><path d="M4.239,13.2A.616.616,0,0,1,4.9,12.7a.609.609,0,0,1,.414.221.6.6,0,0,1,.136.448.12.12,0,0,1-.008.054.613.613,0,0,1-1.211-.175.12.12,0,0,1,.008-.054" transform="translate(2.685 8.065)" fill="#6a7584"/><path d="M4.182,14.984a.616.616,0,0,1,.568-.6.608.608,0,0,1,.445.147.6.6,0,0,1,.211.421A.3.3,0,0,1,5.4,15a.612.612,0,0,1-1.221.028q0-.027,0-.054" transform="translate(2.657 9.133)" fill="#6a7584"/><path d="M4.437,16.753a.613.613,0,0,1,1.2-.249l.012.053a.613.613,0,0,1-1.2.249.492.492,0,0,1-.012-.053" transform="translate(2.813 10.189)" fill="#6a7584"/><path d="M5,18.451a.612.612,0,0,1,.794-.773.6.6,0,0,1,.341.316.471.471,0,0,1,.021.051.613.613,0,0,1-1.138.453l-.02-.051" transform="translate(3.151 11.203)" fill="#6a7584"/><path d="M5.841,20.026a.613.613,0,0,1,1.042-.643.421.421,0,0,1,.027.045.6.6,0,0,1-.19.8.612.612,0,0,1-.85-.16.273.273,0,0,1-.029-.045" transform="translate(3.661 12.141)" fill="#6a7584"/><path d="M6.947,21.431a.613.613,0,0,1,.047-.824.6.6,0,0,1,.435-.174.612.612,0,0,1,.432.183l.036.041a.608.608,0,0,1-.047.824.615.615,0,0,1-.867-.009c-.013-.013-.024-.027-.036-.041" transform="translate(4.325 12.977)" fill="#6a7584"/><path d="M8.282,22.622a.612.612,0,0,1-.1-.82.6.6,0,0,1,.4-.246.609.609,0,0,1,.458.105l.042.035a.607.607,0,0,1,.1.82.614.614,0,0,1-.855.139.421.421,0,0,1-.042-.033" transform="translate(5.126 13.686)" fill="#6a7584"/><path d="M9.8,23.565a.611.611,0,0,1,.112-1.1.6.6,0,0,1,.468.026l.05.024a.613.613,0,0,1-.58,1.078.441.441,0,0,1-.047-.026" transform="translate(6.038 14.244)" fill="#6a7584"/><path d="M11.466,24.229a.613.613,0,0,1-.371-.737.6.6,0,0,1,.29-.368.609.609,0,0,1,.466-.056l.051.018a.6.6,0,0,1,.373.737.613.613,0,0,1-.755.421.489.489,0,0,1-.053-.017" transform="translate(7.033 14.637)" fill="#6a7584"/><path d="M13.219,24.593a.613.613,0,0,1-.494-.663.6.6,0,0,1,.221-.412.61.61,0,0,1,.45-.134l.053.006a.612.612,0,0,1-.175,1.21.12.12,0,0,1-.054-.008" transform="translate(8.08 14.851)" fill="#6a7584"/><path d="M23.886,10.368a.613.613,0,0,1-.794.775.607.607,0,0,1-.341-.322.5.5,0,0,1-.021-.05.613.613,0,0,1,1.138-.455l.02.051" transform="translate(14.415 6.323)" fill="#6a7584"/><path d="M23.04,8.789A.613.613,0,0,1,22,9.434l-.027-.045a.612.612,0,0,1,1.04-.645.272.272,0,0,1,.029.045" transform="translate(13.905 5.382)" fill="#6a7584"/><path d="M21.934,7.381a.615.615,0,0,1-.047.826.608.608,0,0,1-.435.175.62.62,0,0,1-.432-.184l-.036-.046a.613.613,0,0,1,.914-.816c.013.013.024.027.036.041" transform="translate(13.239 4.543)" fill="#6a7584"/><path d="M20.6,6.187a.614.614,0,0,1,.1.821.6.6,0,0,1-.4.246.609.609,0,0,1-.458-.105L19.8,7.114a.613.613,0,0,1,.758-.962l.042.035" transform="translate(12.439 3.834)" fill="#6a7584"/><path d="M19.077,5.243a.613.613,0,0,1-.579,1.08l-.05-.026a.613.613,0,0,1,.58-1.08.441.441,0,0,1,.047.026" transform="translate(11.527 3.274)" fill="#6a7584"/><path d="M17.411,4.577a.61.61,0,0,1-.381,1.159.421.421,0,0,1-.054-.017A.613.613,0,0,1,17.36,4.56a.131.131,0,0,1,.051.017" transform="translate(10.533 2.882)" fill="#6a7584"/><path d="M15.659,4.21a.619.619,0,0,1,.5.663.613.613,0,0,1-.224.414.6.6,0,0,1-.448.136.471.471,0,0,1-.054-.008A.613.613,0,0,1,15.606,4.2a.12.12,0,0,1,.054.008" transform="translate(9.485 2.666)" fill="#6a7584"/><path d="M13.871,4.154a.612.612,0,0,1,.037,1.223.3.3,0,0,1-.054,0,.608.608,0,0,1-.6-.566.615.615,0,0,1,.566-.657h.054" transform="translate(8.415 2.637)" fill="#6a7584"/><path d="M12.1,4.409a.613.613,0,0,1,.249,1.2.49.49,0,0,1-.053.012.613.613,0,0,1-.25-1.2.326.326,0,0,0,.054-.012" transform="translate(7.357 2.795)" fill="#6a7584"/><path d="M10.4,4.968a.613.613,0,0,1,.775.794.607.607,0,0,1-.322.341.5.5,0,0,1-.05.021.613.613,0,0,1-.455-1.138l.051-.02" transform="translate(6.342 3.133)" fill="#6a7584"/><path d="M8.816,5.813a.615.615,0,0,1,.8.19.6.6,0,0,1,.1.459.613.613,0,0,1-.257.393l-.045.027a.612.612,0,0,1-.645-1.04.273.273,0,0,1,.045-.029" transform="translate(5.4 3.642)" fill="#6a7584"/><path d="M7.412,6.92a.615.615,0,0,1,.826.047.6.6,0,0,1,.174.435.612.612,0,0,1-.183.432l-.041.036a.613.613,0,0,1-.816-.914c.013-.013.027-.024.041-.036" transform="translate(4.563 4.308)" fill="#6a7584"/><path d="M6.215,8.255a.614.614,0,0,1,.821-.1.6.6,0,0,1,.246.4.609.609,0,0,1-.105.458l-.035.038a.613.613,0,0,1-.962-.758l.035-.042" transform="translate(3.853 5.108)" fill="#6a7584"/><path d="M5.272,9.777a.613.613,0,0,1,1.079.579l-.026.05a.613.613,0,0,1-1.08-.58.44.44,0,0,1,.026-.047" transform="translate(3.293 6.019)" fill="#6a7584"/><path d="M4.6,11.44a.611.611,0,0,1,1.159.382.489.489,0,0,1-.017.053.613.613,0,0,1-1.159-.382A.49.49,0,0,1,4.6,11.44" transform="translate(2.901 7.014)" fill="#6a7584"/><path d="M4.239,13.192a.613.613,0,0,1,1.212.175.471.471,0,0,1-.008.054.613.613,0,0,1-1.211-.175.12.12,0,0,1,.008-.054" transform="translate(2.685 8.062)" fill="#6a7584"/><path d="M4.182,14.983A.612.612,0,0,1,5.4,14.946.3.3,0,0,1,5.4,15a.608.608,0,0,1-.566.6.615.615,0,0,1-.655-.57v-.054" transform="translate(2.657 9.133)" fill="#6a7584"/><path d="M4.437,16.756a.613.613,0,0,1,1.2-.249.492.492,0,0,1,.012.053.613.613,0,0,1-1.2.251.326.326,0,0,0-.012-.054" transform="translate(2.813 10.191)" fill="#6a7584"/><path d="M5,18.457a.613.613,0,0,1,.794-.775A.607.607,0,0,1,6.132,18a.471.471,0,0,1,.021.051.613.613,0,0,1-1.138.453L5,18.457" transform="translate(3.152 11.205)" fill="#6a7584"/><path d="M5.842,20.036a.614.614,0,0,1,.19-.8.6.6,0,0,1,.458-.1.614.614,0,0,1,.394.257l.026.045a.612.612,0,0,1-1.039.645.272.272,0,0,1-.029-.045" transform="translate(3.662 12.146)" fill="#6a7584"/><path d="M6.948,21.443A.615.615,0,0,1,7,20.617a.6.6,0,0,1,.435-.174.612.612,0,0,1,.432.183c.012.015.024.027.036.041a.613.613,0,0,1-.914.816c-.013-.013-.024-.027-.036-.041" transform="translate(4.326 12.984)" fill="#6a7584"/><path d="M8.283,22.639a.614.614,0,0,1-.1-.821.6.6,0,0,1,.4-.246.609.609,0,0,1,.458.105l.042.035a.612.612,0,0,1-.758.96.421.421,0,0,1-.042-.033" transform="translate(5.127 13.695)" fill="#6a7584"/><path d="M9.805,23.582a.614.614,0,0,1,.584-1.079l.05.026a.613.613,0,0,1-.58,1.08.442.442,0,0,1-.047-.026" transform="translate(6.039 14.254)" fill="#6a7584"/><path d="M11.469,24.247a.611.611,0,0,1,.382-1.159.489.489,0,0,1,.053.017.613.613,0,0,1-.382,1.159.49.49,0,0,1-.053-.017" transform="translate(7.034 14.647)" fill="#6a7584"/><path d="M13.225,24.614A.613.613,0,0,1,13.4,23.4l.054.008a.613.613,0,0,1-.175,1.211.12.12,0,0,1-.054-.008" transform="translate(8.082 14.862)" fill="#6a7584"/><path d="M25.1,9.892a.689.689,0,0,1-1.279.51.6.6,0,0,1-.023-.057.689.689,0,0,1,1.279-.51c.008.02.017.038.023.057" transform="translate(15.088 5.988)" fill="#6a7584"/><path d="M24.144,8.118a.688.688,0,0,1-1.167.725.564.564,0,0,1-.033-.053.689.689,0,0,1,1.17-.725c.012.018.023.035.033.053" transform="translate(14.516 4.929)" fill="#6a7584"/><path d="M22.9,6.531a.688.688,0,0,1-1.026.914.544.544,0,0,1-.041-.045.689.689,0,0,1,1.027-.917.544.544,0,0,1,.041.045" transform="translate(13.767 3.987)" fill="#6a7584"/><path d="M21.4,5.189a.69.69,0,0,1-.856,1.081.388.388,0,0,1-.05-.038.689.689,0,0,1,.853-1.081.532.532,0,0,1,.047.038" transform="translate(12.866 3.188)" fill="#6a7584"/><path d="M19.685,4.127a.69.69,0,0,1-.652,1.213c-.018-.009-.036-.018-.054-.029a.686.686,0,0,1-.269-.891.693.693,0,0,1,.921-.322l.054.029" transform="translate(11.841 2.559)" fill="#6a7584"/><path d="M17.814,3.377a.689.689,0,0,1-.429,1.308.468.468,0,0,1-.062-.018.689.689,0,0,1,.43-1.308l.057.02" transform="translate(10.721 2.116)" fill="#6a7584"/><path d="M15.841,2.965a.69.69,0,0,1-.2,1.364.131.131,0,0,1-.06-.009.689.689,0,0,1,.2-1.362l.06.008" transform="translate(9.543 1.875)" fill="#6a7584"/><path d="M13.829,2.9a.693.693,0,0,1,.677.637.68.68,0,0,1-.163.5.688.688,0,0,1-.471.239H13.81A.689.689,0,0,1,13.769,2.9h.06" transform="translate(8.339 1.841)" fill="#6a7584"/><path d="M11.831,3.188a.691.691,0,0,1,.281,1.353l-.06.012A.69.69,0,1,1,11.775,3.2l.06-.013" transform="translate(7.147 2.018)" fill="#6a7584"/><path d="M9.924,3.817a.689.689,0,0,1,.51,1.279.6.6,0,0,1-.057.023.689.689,0,0,1-.51-1.279c.02-.008.038-.017.057-.023" transform="translate(6.007 2.399)" fill="#6a7584"/><path d="M8.144,4.767a.688.688,0,0,1,.725,1.167.564.564,0,0,1-.053.033A.689.689,0,0,1,8.091,4.8c.018-.012.035-.023.053-.033" transform="translate(4.949 2.973)" fill="#6a7584"/><path d="M6.562,6.014A.688.688,0,0,1,7.477,7.04a.544.544,0,0,1-.045.041.689.689,0,1,1-.92-1.026.545.545,0,0,1,.045-.041" transform="translate(4.004 3.721)" fill="#6a7584"/><path d="M5.218,7.512A.69.69,0,0,1,6.3,8.368a.388.388,0,0,1-.038.05A.689.689,0,0,1,5.18,7.565a.532.532,0,0,1,.038-.053" transform="translate(3.207 4.622)" fill="#6a7584"/><path d="M4.155,9.227a.689.689,0,0,1,1.211.653c-.009.018-.018.036-.029.054a.69.69,0,0,1-1.213-.652l.032-.055" transform="translate(2.577 5.647)" fill="#6a7584"/><path d="M3.4,11.1a.693.693,0,0,1,.831-.421A.68.68,0,0,1,4.649,11a.692.692,0,0,1,.062.527.588.588,0,0,1-.02.057.689.689,0,0,1-1.308-.43L3.4,11.1" transform="translate(2.134 6.766)" fill="#6a7584"/><path d="M2.994,13.07a.69.69,0,0,1,1.364.2.131.131,0,0,1-.009.06.689.689,0,0,1-1.363-.2.146.146,0,0,1,.008-.06" transform="translate(1.894 7.946)" fill="#6a7584"/><path d="M2.93,15.083A.686.686,0,0,1,4.3,15.038V15.1a.689.689,0,0,1-1.377.041v-.06" transform="translate(1.86 9.149)" fill="#6a7584"/><path d="M3.216,17.079A.691.691,0,0,1,4.569,16.8a.389.389,0,0,0,.012.059.689.689,0,0,1-1.347.281.38.38,0,0,0-.013-.06" transform="translate(2.038 10.339)" fill="#6a7584"/><path d="M3.845,18.993a.689.689,0,0,1,1.279-.51.6.6,0,0,1,.023.057.689.689,0,0,1-1.28.509c-.008-.02-.017-.038-.023-.057" transform="translate(2.419 11.481)" fill="#6a7584"/><path d="M4.8,20.769a.688.688,0,0,1,1.167-.725A.565.565,0,0,1,6,20.1a.689.689,0,0,1-1.17.725c-.012-.018-.023-.035-.033-.053" transform="translate(2.991 12.539)" fill="#6a7584"/><path d="M6.042,22.352a.688.688,0,0,1,1.026-.914.545.545,0,0,1,.041.045.689.689,0,0,1-1.027.917.544.544,0,0,1-.041-.045" transform="translate(3.74 13.482)" fill="#6a7584"/><path d="M7.543,23.7A.691.691,0,0,1,8.4,22.613a.573.573,0,0,1,.05.039A.689.689,0,0,1,7.6,23.732a.531.531,0,0,1-.047-.038" transform="translate(4.641 14.28)" fill="#6a7584"/><path d="M9.255,24.758a.689.689,0,0,1,.652-1.213.439.439,0,0,1,.054.029.69.69,0,0,1-.652,1.213l-.054-.029" transform="translate(5.665 14.91)" fill="#6a7584"/><path d="M11.123,25.508a.693.693,0,0,1-.421-.831.68.68,0,0,1,.325-.415.692.692,0,0,1,.527-.062.337.337,0,0,1,.057.02.689.689,0,0,1-.43,1.308l-.058-.02" transform="translate(6.785 15.353)" fill="#6a7584"/><path d="M13.1,25.919a.69.69,0,0,1,.2-1.364l.06.009a.689.689,0,0,1-.2,1.362l-.06-.008" transform="translate(7.964 15.593)" fill="#6a7584"/><path d="M25.1,9.892a.689.689,0,0,1-1.279.51.6.6,0,0,1-.023-.057.689.689,0,0,1,1.279-.51c.008.02.017.038.023.057" transform="translate(15.088 5.988)" fill="#6a7584"/><path d="M24.144,8.118a.688.688,0,0,1-1.167.725.564.564,0,0,1-.033-.053.689.689,0,0,1,1.17-.725c.012.018.023.035.033.053" transform="translate(14.516 4.929)" fill="#6a7584"/><path d="M22.9,6.531a.688.688,0,0,1-1.026.914.544.544,0,0,1-.041-.045.689.689,0,0,1,1.027-.917.544.544,0,0,1,.041.045" transform="translate(13.767 3.987)" fill="#6a7584"/><path d="M21.4,5.189a.69.69,0,0,1-.856,1.081.388.388,0,0,1-.05-.038.689.689,0,0,1,.853-1.081.532.532,0,0,1,.047.038" transform="translate(12.866 3.188)" fill="#6a7584"/><path d="M19.685,4.127a.69.69,0,0,1-.652,1.213c-.018-.009-.036-.018-.054-.029a.686.686,0,0,1-.269-.891.693.693,0,0,1,.921-.322l.054.029" transform="translate(11.841 2.559)" fill="#6a7584"/><path d="M17.814,3.377a.689.689,0,0,1-.429,1.308.468.468,0,0,1-.062-.018.689.689,0,0,1,.43-1.308l.057.02" transform="translate(10.721 2.116)" fill="#6a7584"/><path d="M15.841,2.965a.69.69,0,0,1-.2,1.364.131.131,0,0,1-.06-.009.689.689,0,0,1,.2-1.362l.06.008" transform="translate(9.543 1.875)" fill="#6a7584"/><path d="M13.829,2.9a.693.693,0,0,1,.677.637.68.68,0,0,1-.163.5.688.688,0,0,1-.471.239H13.81A.689.689,0,0,1,13.769,2.9h.06" transform="translate(8.339 1.841)" fill="#6a7584"/><path d="M11.831,3.188a.691.691,0,0,1,.281,1.353l-.06.012A.69.69,0,1,1,11.775,3.2l.06-.013" transform="translate(7.147 2.018)" fill="#6a7584"/><path d="M9.924,3.817a.689.689,0,0,1,.51,1.279.6.6,0,0,1-.057.023.689.689,0,0,1-.51-1.279c.02-.008.038-.017.057-.023" transform="translate(6.007 2.399)" fill="#6a7584"/><path d="M8.144,4.767a.688.688,0,0,1,.725,1.167.564.564,0,0,1-.053.033A.689.689,0,0,1,8.091,4.8c.018-.012.035-.023.053-.033" transform="translate(4.949 2.973)" fill="#6a7584"/><path d="M6.562,6.014A.688.688,0,0,1,7.477,7.04a.544.544,0,0,1-.045.041.689.689,0,1,1-.92-1.026.545.545,0,0,1,.045-.041" transform="translate(4.004 3.721)" fill="#6a7584"/><path d="M5.218,7.512A.69.69,0,0,1,6.3,8.368a.388.388,0,0,1-.038.05A.689.689,0,0,1,5.18,7.565a.532.532,0,0,1,.038-.053" transform="translate(3.207 4.622)" fill="#6a7584"/><path d="M4.155,9.227a.689.689,0,0,1,1.211.653c-.009.018-.018.036-.029.054a.69.69,0,0,1-1.213-.652l.032-.055" transform="translate(2.577 5.647)" fill="#6a7584"/><path d="M3.4,11.1a.693.693,0,0,1,.831-.421A.68.68,0,0,1,4.649,11a.692.692,0,0,1,.062.527.588.588,0,0,1-.02.057.689.689,0,0,1-1.308-.43L3.4,11.1" transform="translate(2.134 6.766)" fill="#6a7584"/><path d="M2.994,13.07a.69.69,0,0,1,1.364.2.131.131,0,0,1-.009.06.689.689,0,0,1-1.363-.2.146.146,0,0,1,.008-.06" transform="translate(1.894 7.946)" fill="#6a7584"/><path d="M2.93,15.083A.686.686,0,0,1,4.3,15.038V15.1a.689.689,0,0,1-1.377.041v-.06" transform="translate(1.86 9.149)" fill="#6a7584"/><path d="M3.216,17.079A.691.691,0,0,1,4.569,16.8a.389.389,0,0,0,.012.059.689.689,0,0,1-1.347.281.38.38,0,0,0-.013-.06" transform="translate(2.038 10.339)" fill="#6a7584"/><path d="M3.845,18.993a.689.689,0,0,1,1.279-.51.6.6,0,0,1,.023.057.689.689,0,0,1-1.28.509c-.008-.02-.017-.038-.023-.057" transform="translate(2.419 11.481)" fill="#6a7584"/><path d="M4.8,20.769a.688.688,0,0,1,1.167-.725A.565.565,0,0,1,6,20.1a.689.689,0,0,1-1.17.725c-.012-.018-.023-.035-.033-.053" transform="translate(2.991 12.539)" fill="#6a7584"/><path d="M6.042,22.352a.688.688,0,0,1,1.026-.914.545.545,0,0,1,.041.045.689.689,0,0,1-1.027.917.544.544,0,0,1-.041-.045" transform="translate(3.74 13.482)" fill="#6a7584"/><path d="M7.543,23.7A.691.691,0,0,1,8.4,22.613a.573.573,0,0,1,.05.039A.689.689,0,0,1,7.6,23.732a.531.531,0,0,1-.047-.038" transform="translate(4.641 14.28)" fill="#6a7584"/><path d="M9.255,24.758a.689.689,0,0,1,.652-1.213.439.439,0,0,1,.054.029.69.69,0,0,1-.652,1.213l-.054-.029" transform="translate(5.665 14.91)" fill="#6a7584"/><path d="M11.123,25.508a.693.693,0,0,1-.421-.831.68.68,0,0,1,.325-.415.692.692,0,0,1,.527-.062.337.337,0,0,1,.057.02.689.689,0,0,1-.43,1.308l-.058-.02" transform="translate(6.785 15.353)" fill="#6a7584"/><path d="M13.1,25.919a.69.69,0,0,1,.2-1.364l.06.009a.689.689,0,0,1-.2,1.362l-.06-.008" transform="translate(7.964 15.593)" fill="#6a7584"/><path d="M26.427,9.367a.773.773,0,0,1-1.436.572.511.511,0,0,1-.024-.064A.773.773,0,0,1,26.4,9.3c.009.021.018.042.026.064" transform="translate(15.831 5.62)" fill="#6a7584"/><path d="M25.36,7.377a.773.773,0,0,1-1.315.812.677.677,0,0,1-.04-.057.775.775,0,0,1,1.319-.813l.036.059" transform="translate(15.185 4.431)" fill="#6a7584"/><path d="M23.961,5.6A.778.778,0,0,1,23.9,6.64a.768.768,0,0,1-.55.219.759.759,0,0,1-.545-.234.674.674,0,0,1-.045-.051.773.773,0,0,1,1.152-1.028.675.675,0,0,1,.045.051" transform="translate(14.347 3.374)" fill="#6a7584"/><path d="M22.276,4.09A.774.774,0,0,1,21.319,5.3a.476.476,0,0,1-.054-.042.773.773,0,0,1,.958-1.213q.028.02.054.042" transform="translate(13.335 2.477)" fill="#6a7584"/><path d="M20.354,2.9a.773.773,0,1,1-.732,1.362l-.059-.033a.773.773,0,0,1,.729-1.362.527.527,0,0,1,.06.033" transform="translate(12.186 1.771)" fill="#6a7584"/><path d="M18.252,2.057a.773.773,0,0,1-.478,1.468.6.6,0,0,1-.065-.023.773.773,0,0,1,.484-1.466.593.593,0,0,1,.065.021" transform="translate(10.93 1.274)" fill="#6a7584"/><path d="M16.047,1.6a.774.774,0,0,1,.346,1.359.766.766,0,0,1-.568.17.441.441,0,0,1-.067-.009.765.765,0,0,1-.625-.835.773.773,0,0,1,.843-.693.5.5,0,0,1,.072.009" transform="translate(9.606 1.004)" fill="#6a7584"/><path d="M13.782,1.523a.774.774,0,0,1,.047,1.545h-.068a.774.774,0,0,1-.047-1.545h.068" transform="translate(8.257 0.966)" fill="#6a7584"/><path d="M11.545,1.844a.773.773,0,0,1,.316,1.513.515.515,0,0,1-.068.015.773.773,0,0,1-.316-1.513.492.492,0,0,1,.067-.015" transform="translate(6.92 1.165)" fill="#6a7584"/><path d="M9.4,2.55a.773.773,0,0,1,.572,1.436A.51.51,0,0,1,9.9,4.01a.773.773,0,0,1-.571-1.434L9.4,2.55" transform="translate(5.639 1.592)" fill="#6a7584"/><path d="M7.4,3.618a.773.773,0,0,1,.812,1.315c-.018.013-.038.024-.057.036a.774.774,0,0,1-.814-1.315L7.4,3.618" transform="translate(4.451 2.236)" fill="#6a7584"/><path d="M5.626,5.016A.773.773,0,0,1,6.654,6.167a.673.673,0,0,1-.051.045A.773.773,0,0,1,5.576,5.06a.674.674,0,0,1,.051-.045" transform="translate(3.393 3.075)" fill="#6a7584"/><path d="M4.119,6.7a.775.775,0,0,1,1.213.962.476.476,0,0,1-.042.054.773.773,0,0,1-1.213-.956c.013-.018.027-.036.042-.054" transform="translate(2.497 4.086)" fill="#6a7584"/><path d="M2.927,8.621a.774.774,0,0,1,1.362.737l-.033.06a.773.773,0,0,1-1.362-.733.545.545,0,0,1,.033-.06" transform="translate(1.789 5.235)" fill="#6a7584"/><path d="M2.086,10.725a.773.773,0,0,1,1.468.478.442.442,0,0,1-.023.065.773.773,0,0,1-1.466-.484.592.592,0,0,1,.021-.065" transform="translate(1.294 6.493)" fill="#6a7584"/><path d="M1.624,12.932a.773.773,0,0,1,1.53.218.441.441,0,0,1-.009.067.765.765,0,0,1-.835.625A.773.773,0,0,1,1.615,13a.171.171,0,0,1,.009-.068" transform="translate(1.022 7.816)" fill="#6a7584"/><path d="M1.552,15.2A.774.774,0,0,1,3.1,15.148v.068a.774.774,0,0,1-1.545.047V15.2" transform="translate(0.986 9.166)" fill="#6a7584"/><path d="M1.873,17.433a.773.773,0,0,1,1.513-.314.443.443,0,0,1,.015.067.773.773,0,0,1-1.513.316.444.444,0,0,1-.015-.067" transform="translate(1.183 10.502)" fill="#6a7584"/><path d="M2.578,19.581a.773.773,0,0,1,1.436-.572.51.51,0,0,1,.024.064.773.773,0,0,1-1.435.572c-.009-.021-.018-.042-.026-.064" transform="translate(1.611 11.783)" fill="#6a7584"/><path d="M3.647,21.575a.773.773,0,0,1,1.315-.812c.013.018.024.038.036.057a.774.774,0,0,1-1.315.814l-.036-.059" transform="translate(2.254 12.971)" fill="#6a7584"/><path d="M5.044,23.351A.773.773,0,0,1,6.2,22.322a.673.673,0,0,1,.045.051A.773.773,0,0,1,5.089,23.4a.674.674,0,0,1-.045-.051" transform="translate(3.094 14.029)" fill="#6a7584"/><path d="M6.729,24.859a.774.774,0,0,1,.958-1.213.343.343,0,0,1,.054.042A.773.773,0,0,1,6.784,24.9c-.018-.013-.036-.027-.054-.042" transform="translate(4.105 14.925)" fill="#6a7584"/><path d="M8.651,26.052a.773.773,0,0,1,.73-1.362.546.546,0,0,1,.06.033.773.773,0,0,1-.729,1.362.546.546,0,0,1-.06-.033" transform="translate(5.256 15.633)" fill="#6a7584"/><path d="M10.75,26.892a.773.773,0,0,1,.478-1.468l.065.021a.774.774,0,0,1-.484,1.468.592.592,0,0,1-.065-.021" transform="translate(6.512 16.128)" fill="#6a7584"/><path d="M12.963,27.355a.773.773,0,0,1,.218-1.53.473.473,0,0,1,.067.009.773.773,0,0,1-.213,1.53.5.5,0,0,1-.068-.009" transform="translate(7.834 16.4)" fill="#6a7584"/><path d="M27.881,8.8a.866.866,0,0,1-1.606.64.554.554,0,0,1-.029-.072.866.866,0,0,1,1.609-.639c.009.024.02.047.027.072" transform="translate(16.639 5.217)" fill="#6a7584"/><path d="M26.683,6.568a.865.865,0,0,1-1.471.909.694.694,0,0,1-.041-.064A.867.867,0,0,1,26.646,6.5c.015.021.027.042.041.065" transform="translate(15.918 3.888)" fill="#6a7584"/><path d="M25.123,4.58a.865.865,0,1,1-1.291,1.151c-.018-.018-.035-.038-.05-.057a.866.866,0,0,1,1.295-1.151c.018.018.035.038.051.057" transform="translate(14.978 2.703)" fill="#6a7584"/><path d="M23.237,2.892a.866.866,0,0,1-1.071,1.358.666.666,0,0,1-.059-.05.859.859,0,0,1-.139-1.159.868.868,0,0,1,1.208-.2.66.66,0,0,1,.06.047" transform="translate(13.849 1.702)" fill="#6a7584"/><path d="M21.086,1.558a.867.867,0,0,1-.822,1.524c-.023-.012-.045-.024-.068-.038a.865.865,0,0,1,.82-1.522l.067.036" transform="translate(12.56 0.912)" fill="#6a7584"/><path d="M18.738.618a.865.865,0,0,1,.116,1.563.843.843,0,0,1-.657.079c-.024-.006-.05-.015-.074-.023A.866.866,0,0,1,18.664.594l.074.024" transform="translate(11.156 0.355)" fill="#6a7584"/><path d="M16.261.1a.866.866,0,0,1-.249,1.712.368.368,0,0,1-.075-.012A.866.866,0,0,1,16.184.088.366.366,0,0,1,16.261.1" transform="translate(9.675 0.053)" fill="#6a7584"/><path d="M13.732.02a.866.866,0,0,1,.057,1.729.6.6,0,0,1-.077,0A.865.865,0,0,1,13.659.022a.6.6,0,0,1,.077,0" transform="translate(8.166 0.012)" fill="#6a7584"/><path d="M11.227.381a.865.865,0,0,1,.352,1.693L11.5,2.09A.865.865,0,0,1,11.152.4l.075-.017" transform="translate(6.672 0.233)" fill="#6a7584"/><path d="M8.827,1.169A.864.864,0,0,1,9.46,2.776a.666.666,0,0,1-.072.029.866.866,0,0,1-.636-1.6.666.666,0,0,1,.076-.035" transform="translate(5.239 0.712)" fill="#6a7584"/><path d="M6.6,2.364a.869.869,0,0,1,1.137.269.849.849,0,0,1,.134.648.859.859,0,0,1-.363.554c-.02.015-.042.027-.062.041A.867.867,0,0,1,6.532,2.4c.021-.015.042-.027.065-.041" transform="translate(3.906 1.432)" fill="#6a7584"/><path d="M4.61,3.928A.867.867,0,0,1,5.777,4a.854.854,0,0,1,.246.615.869.869,0,0,1-.26.608l-.057.051a.866.866,0,1,1-1.155-1.29.436.436,0,0,1,.057-.051" transform="translate(2.723 2.371)" fill="#6a7584"/><path d="M2.921,5.815A.864.864,0,0,1,4.279,6.882a.551.551,0,0,1-.047.06A.865.865,0,0,1,2.873,5.873a.66.66,0,0,1,.047-.06" transform="translate(1.722 3.502)" fill="#6a7584"/><path d="M1.587,7.962a.866.866,0,0,1,1.523.822.54.54,0,0,1-.038.067.865.865,0,0,1-1.52-.827c.012-.023.021-.045.035-.067" transform="translate(0.929 4.789)" fill="#6a7584"/><path d="M.647,10.311A.869.869,0,0,1,1.69,9.785a.857.857,0,0,1,.52.409.843.843,0,0,1,.076.663c-.006.024-.015.05-.023.074A.866.866,0,0,1,.62,10.388l.024-.074" transform="translate(0.375 6.195)" fill="#6a7584"/><path d="M.129,12.787a.866.866,0,0,1,1.712.249.368.368,0,0,1-.012.075.866.866,0,0,1-1.712-.246.366.366,0,0,1,.012-.077" transform="translate(0.072 7.676)" fill="#6a7584"/><path d="M.049,15.316a.865.865,0,0,1,1.728-.052.4.4,0,0,1,0,.077.864.864,0,0,1-1.725.053.617.617,0,0,1,0-.077" transform="translate(0.031 9.185)" fill="#6a7584"/><path d="M.409,17.822A.865.865,0,0,1,2.1,17.47a.558.558,0,0,1,.017.075A.865.865,0,0,1,.426,17.9c-.006-.024-.012-.051-.017-.075" transform="translate(0.252 10.68)" fill="#6a7584"/><path d="M1.2,20.224a.866.866,0,0,1,1.606-.64.553.553,0,0,1,.029.072.866.866,0,0,1-1.605.642.666.666,0,0,1-.029-.072" transform="translate(0.731 12.114)" fill="#6a7584"/><path d="M2.392,22.454a.869.869,0,0,1,.269-1.137.85.85,0,0,1,.648-.136.863.863,0,0,1,.554.361l.041.065a.867.867,0,0,1-1.475.911c-.015-.021-.027-.044-.041-.065" transform="translate(1.45 13.443)" fill="#6a7584"/><path d="M3.957,24.443a.865.865,0,1,1,1.291-1.151c.018.018.035.038.05.057A.866.866,0,0,1,4.008,24.5c-.018-.018-.035-.038-.051-.057" transform="translate(2.388 14.625)" fill="#6a7584"/><path d="M5.842,26.129A.866.866,0,0,1,6.914,24.77a.666.666,0,0,1,.059.05.856.856,0,0,1,.137,1.159.866.866,0,0,1-1.207.2.659.659,0,0,1-.06-.047" transform="translate(3.521 15.629)" fill="#6a7584"/><path d="M7.991,27.464a.867.867,0,0,1,.822-1.524c.023.012.045.024.067.038a.865.865,0,0,1-.82,1.522l-.067-.036" transform="translate(4.808 16.42)" fill="#6a7584"/><path d="M10.339,28.4a.865.865,0,0,1,.541-1.641l.074.023a.866.866,0,0,1-.542,1.643l-.074-.024" transform="translate(6.214 16.976)" fill="#6a7584"/><path d="M12.816,28.921a.868.868,0,0,1-.7-.936.843.843,0,0,1,.316-.583.857.857,0,0,1,.632-.193.368.368,0,0,1,.075.012.866.866,0,0,1-.246,1.712.366.366,0,0,1-.077-.012" transform="translate(7.694 17.278)" fill="#6a7584"/></g></svg>