<svg xmlns="http://www.w3.org/2000/svg" width="151.01" height="25.405" viewBox="0 0 151.01 25.405"><path d="M118.951,85.946v.146a2.67,2.67,0,0,1-2.77,2.807,2.825,2.825,0,1,1,0-5.65A2.663,2.663,0,0,1,118.951,85.946Zm-.364,5.1v16.877h-4.7V91.049Z" transform="translate(-113.338 -82.885)" fill="#6a7584"/><path d="M201.509,100.627v10.352h-4.7V86.667h14.872v4.192h-10.17v5.613h9.8v4.155Z" transform="translate(-187.914 -85.939)" fill="#6a7584"/><path d="M339.8,102.676l-1.567,5.249H333.09l8.165-24.677H346.5l8.311,24.677h-5.139l-1.6-5.249Zm1.2-4.009h5.9l-3.062-9.623Z" transform="translate(-309.676 -82.885)" fill="#6a7584"/><path d="M565.268,86.9h-5.249v-.109c0-1.677-1.13-2.588-3.28-2.588-2.114,0-3.536,1.02-3.536,2.551,0,1.422,1.094,2.3,4.01,3.28l1.713.583c4.666,1.568,6.6,3.572,6.6,6.926,0,4.483-3.755,7.691-9.04,7.691-3.973,0-6.343-1.02-7.91-3.39a7.087,7.087,0,0,1-1.348-4.775h5.212l-.036.292c0,2.223,1.495,3.536,4.046,3.536,2.369,0,3.827-1.021,3.827-2.661,0-1.422-.765-2.078-3.791-3.171l-1.932-.729c-4.775-1.786-6.452-3.609-6.452-7.071,0-4.447,3.536-7.436,8.821-7.436C562.17,79.831,565.194,82.419,565.268,86.9Z" transform="translate(-500.996 -79.831)" fill="#6a7584"/><path d="M745.176,91.042v19.938h-4.884V91.042H733.95V86.667h17.423v4.375Z" transform="translate(-667.826 -85.939)" fill="#6a7584"/><g transform="translate(89.18 0.666)"><path d="M955.469,91.34h4.955v.129a6.082,6.082,0,0,1-1.123,3.977,4.56,4.56,0,0,1-3.961,1.8,4.34,4.34,0,0,1-3.721-1.668,6.042,6.042,0,0,1-1.267-3.849,5.979,5.979,0,0,1,1.572-4.218A4.719,4.719,0,0,1,955.6,86.08c2.438,0,4.074,1.171,4.588,3.272l-1.235.128A3.325,3.325,0,0,0,955.6,87.09c-2.405,0-3.977,1.828-3.977,4.619,0,2.727,1.54,4.507,3.913,4.507,2.149,0,3.432-1.379,3.545-3.769h-3.608Z" transform="translate(-950.352 -86.08)" fill="#6a7584"/><path d="M1074.9,88.186v9.591h4.795v1.106h-6.046v-10.7Z" transform="translate(-1060.517 -87.962)" fill="#6a7584"/><path d="M1157.047,92.061v.24a5.236,5.236,0,0,1-1.459,3.913,4.977,4.977,0,0,1-3.929,1.62,4.546,4.546,0,0,1-3.5-1.379,5.841,5.841,0,0,1-1.588-4.106,5.258,5.258,0,0,1,5.309-5.517C1154.946,86.832,1156.951,88.853,1157.047,92.061Zm-1.266-.016c-.08-2.614-1.573-4.2-3.978-4.2-2.341,0-3.961,1.86-3.961,4.507,0,2.678,1.588,4.458,3.978,4.458,2.406,0,3.961-1.8,3.961-4.555Z" transform="translate(-1125.667 -86.752)" fill="#6a7584"/><path d="M1274.087,88.186h3.241c2,0,3.207.995,3.207,2.647a2.632,2.632,0,0,1-1.508,2.47,2.33,2.33,0,0,1,1.492.963,2.668,2.668,0,0,1,.48,1.556,2.97,2.97,0,0,1-.914,2.165,3.552,3.552,0,0,1-2.663.9h-3.337Zm1.172,4.715h2.069a1.794,1.794,0,0,0,1.941-1.908c0-1.155-.674-1.78-1.957-1.78h-2.053Zm0,4.956h2.277c1.444,0,2.214-.642,2.214-1.861,0-1.363-.771-2.069-2.246-2.069h-2.245Z" transform="translate(-1239.594 -87.962)" fill="#6a7584"/><path d="M1364.764,88.186l4.137,10.7h-1.332l-1.122-3.063h-4.379l-1.106,3.063h-1.252l4.025-10.7Zm-2.391,6.768h3.737l-1.86-5.116Z" transform="translate(-1316.095 -87.962)" fill="#6a7584"/><path d="M1472.065,88.186v9.591h4.8v1.106h-6.047v-10.7Z" transform="translate(-1415.36 -87.962)" fill="#6a7584"/><path d="M963.535,213.645v10.7h-1.251V216l-3.833,8.34h-.8l-3.865-8.244v8.244h-1.171v-10.7h1.3l4.154,8.966,4.138-8.966Z" transform="translate(-952.373 -200.053)" fill="#6a7584"/><path d="M1068.917,213.645l4.139,10.7h-1.332l-1.123-3.064h-4.379l-1.106,3.064h-1.251l4.025-10.7Zm-2.389,6.768h3.736l-1.86-5.116Z" transform="translate(-1051.771 -200.053)" fill="#6a7584"/><path d="M1161.467,219.787v4.555h-1.251v-10.7h3.625a3.41,3.41,0,0,1,2.55.786,3.06,3.06,0,0,1-1.556,5.164l2.79,4.748h-1.442l-2.615-4.555Zm0-1.107h2.261c1.492,0,2.31-.705,2.31-2,0-1.315-.754-1.925-2.341-1.925h-2.23Z" transform="translate(-1137.855 -200.053)" fill="#6a7584"/><path d="M1241.561,213.645v4.972l4.86-4.972h1.588l-5.165,5.164,5.246,5.534h-1.637l-4.891-5.181v5.181h-1.251v-10.7Z" transform="translate(-1209.416 -200.053)" fill="#6a7584"/><path d="M1321.648,219.306v3.93h5.036v1.107H1320.4v-10.7h6.288v1.106h-5.036v3.464h4.875v1.09Z" transform="translate(-1280.97 -200.053)" fill="#6a7584"/><path d="M1387.955,214.751v9.591H1386.7v-9.591h-3.223v-1.106h7.617v1.106Z" transform="translate(-1337.333 -200.053)" fill="#6a7584"/><path d="M1465.846,215.11h-1.187c-.144-1.187-.947-1.813-2.325-1.813-1.46,0-2.374.738-2.374,1.909,0,1.01.513,1.491,1.893,1.8l1.3.273c1.459.32,2.213.754,2.629,1.508a2.8,2.8,0,0,1,.322,1.331c0,1.94-1.62,3.256-4.01,3.256-2.23,0-3.641-1.219-3.689-3.224h1.2a2.325,2.325,0,0,0,2.614,2.2c1.636,0,2.615-.8,2.615-2.149,0-1.058-.466-1.491-1.941-1.8l-1.443-.3c-1.877-.385-2.742-1.266-2.742-2.742,0-1.86,1.427-3.063,3.608-3.063C1464.386,212.287,1465.685,213.329,1465.846,215.11Z" transform="translate(-1404.273 -198.84)" fill="#6a7584"/></g></svg>