<svg xmlns="http://www.w3.org/2000/svg" width="142.635" height="62.877" viewBox="0 0 142.635 62.877"><path d="M1040.076,724.06a8.541,8.541,0,0,1,2.229-.262c2.165,0,3.537.983,3.537,3.255a3.143,3.143,0,0,1-3.146,3.255,4.727,4.727,0,0,1-1.442-.219l.218.787a6.772,6.772,0,0,0,1.312.131c2.884,0,5.242-1.966,5.242-4.7,0-2.4-2.294-3.342-4.369-3.342h-.149c-1.183.022-2.447.065-3.716.065-1.248,0-2.491-.043-3.933-.065v.655l.986.065c.545.044.783.153.936.372a3.649,3.649,0,0,1,.218,1.595v9.808a3.966,3.966,0,0,1-.193,1.639c-.134.218-.4.306-.922.328l-1.045.065v.655c1.135-.044,2.16-.066,3.23-.066,1.006,0,2.032.022,3.171.066V737.5l-1.05-.065c-.525-.022-.788-.109-.917-.328a3.838,3.838,0,0,1-.2-1.639v-11.4Zm13.2,0a8.471,8.471,0,0,1,2.224-.262c1.7,0,3.453.655,3.453,3.014a3.222,3.222,0,0,1-2.839,3.059,9.362,9.362,0,0,1-1.333.11,5.038,5.038,0,0,1-.589-.022l-.134.262c.371.459.788.874,1.139,1.355l4.018,5.4c.282.393.614.765.9,1.18.5-.022.981-.066,1.486-.066s1.006.044,1.571.066V737.5a1.681,1.681,0,0,1-1.333-.568l-4.959-6.466c2.12-.415,4.26-1.835,4.26-4.216,0-1.551-.872-3.277-4.215-3.277h-.2c-1.263.022-2.532.065-3.819.065s-2.557-.043-3.716-.065v.655l.9.065c.525.044.788.109.917.328a3.841,3.841,0,0,1,.2,1.638v9.808a3.848,3.848,0,0,1-.2,1.639c-.129.218-.392.306-.917.328l-1.05.065v.655c1.135-.044,2.165-.066,3.235-.066,1.006,0,2.031.022,3.166.066V737.5l-1.045-.065c-.525-.022-.788-.109-.922-.328a3.873,3.873,0,0,1-.193-1.639v-11.4Zm12.518,11.4a3.843,3.843,0,0,1-.2,1.639c-.133.218-.4.284-.916.328l-.788.065v.655c.788-.022,1.506-.066,2.339-.066,1.352,0,3.081.044,4.761.066h.679c1.4,0,2.794-.044,3.626-.066a18.851,18.851,0,0,1,.347-3.582h-.763c-.154,1.31-.436,2.272-.763,2.446a20.088,20.088,0,0,1-4.414.284,7.6,7.6,0,0,1-1.838-.175v-6.117c.679-.065,1.486-.065,2.537-.065a5.424,5.424,0,0,1,2.313.262c.109.065.153.262.178.545l.109,1.29h.654c-.02-.787-.065-1.617-.065-2.425s.044-1.638.065-2.534H1073l-.109,1.136c-.025.283-.069.481-.178.568a6.059,6.059,0,0,1-2.313.24c-1.051,0-1.834-.022-2.537-.065V724.06a7.6,7.6,0,0,1,1.838-.175,13.508,13.508,0,0,1,4.28.459c.173.065.2.306.2.589v1.42h.763a14.5,14.5,0,0,1,.351-3.321c-.852-.043-1.837-.065-2.818-.065-1.244,0-3.255.065-5.157.065-.609,0-1.244-.022-1.858-.022-.61-.022-1.224-.044-1.833-.044v.655l1.05.065c.52.022.783.109.916.328a3.836,3.836,0,0,1,.2,1.638v9.808Zm20.47-8.869a15.388,15.388,0,0,1,.3-3.081,10.212,10.212,0,0,0-3.953-.917c-2.62,0-5.593,1.551-5.593,4.938,0,2.271,1.357,3.342,4.786,3.735,2.229.262,3.844.852,3.844,2.928,0,2.162-1.942,3.364-3.909,3.364-1.729,0-3.453-.83-3.562-1.748l-.174-1.464h-.7v.831a16.548,16.548,0,0,1-.149,2.512,9.344,9.344,0,0,0,3.736.831c3.255,0,6.594-1.791,6.594-5.527,0-2.49-1.942-3.255-5.023-3.583-2.73-.306-3.6-1.224-3.6-2.709a3.111,3.111,0,0,1,3.23-3.19,4.862,4.862,0,0,1,2.383.525c.807.5.9.721.961,1.31l.129,1.245Zm7.361,8.869a3.845,3.845,0,0,1-.2,1.639c-.133.218-.391.306-.917.328l-1.05.065v.655c1.134-.044,2.164-.066,3.235-.066,1.006,0,2.031.022,3.166.066V737.5l-1.05-.065c-.52-.022-.783-.109-.916-.328a3.869,3.869,0,0,1-.193-1.639v-9.24c0-.83.02-1.529.084-2.185h3.389c.654,0,.827.2.872.721l.089,1.725h.673c0-1.18.044-2.381.154-3.517-.783,0-1.57.022-2.358.022-.788.022-1.571.043-2.358.043h-3.171c-1.57,0-3.146-.065-4.716-.065.109,1.136.153,2.337.153,3.517h.674l.089-1.725c.044-.525.218-.721.872-.721h3.389c.064.655.088,1.354.088,2.185v9.24Zm12.449-9.808a3.839,3.839,0,0,1,.2-1.638c.129-.218.391-.306.916-.328l1.05-.065v-.655c-1.139.044-2.165.065-3.17.065-1.07,0-2.1-.022-3.23-.065v.655l1.045.065c.525.022.788.109.922.328a3.95,3.95,0,0,1,.193,1.638v9.808a3.957,3.957,0,0,1-.193,1.639c-.134.218-.4.306-.922.328l-1.045.065v.655c1.135-.044,2.16-.066,3.23-.066,1.005,0,2.031.022,3.17.066V737.5l-1.05-.065c-.525-.022-.787-.109-.916-.328a3.846,3.846,0,0,1-.2-1.639v-9.808Zm15.665,10.289a2.069,2.069,0,0,1-.108.9c-.134.393-1.378.765-3.057.765-4.5,0-7.035-3.124-7.035-7.472,0-3.888,2.16-6.62,6.312-6.62a9.371,9.371,0,0,1,3.057.394c1.03.372,1.813.72,1.813,1.748v1.157h.679a13.675,13.675,0,0,1,.436-3.321,17.2,17.2,0,0,0-5.415-.9c-5.267,0-9.22,3.1-9.22,7.909,0,5.484,3.933,8.018,8.8,8.018a24.579,24.579,0,0,0,5.747-1.114v-3.67c0-.633,0-.721.238-.808l.634-.219-.089-.547c-.892.022-1.789.044-2.685.044-.872,0-1.769-.022-2.666-.044v.655l1.813.154c.57.044.743.262.743.764v2.206Zm6.292-.481a3.84,3.84,0,0,1-.2,1.639c-.128.218-.391.284-.916.328l-.787.065v.655c.787-.022,1.511-.066,2.338-.066,1.357,0,3.081.044,4.766.066h.674c1.4,0,2.8-.044,3.626-.066a18.876,18.876,0,0,1,.351-3.582h-.767c-.149,1.31-.436,2.272-.763,2.446a20.026,20.026,0,0,1-4.414.284,7.535,7.535,0,0,1-1.833-.175v-6.117c.679-.065,1.486-.065,2.531-.065a5.471,5.471,0,0,1,2.319.262c.109.065.154.262.173.545l.109,1.29h.659c-.025-.787-.069-1.617-.069-2.425s.044-1.638.069-2.534h-.659l-.109,1.136c-.02.283-.064.481-.173.568a6.113,6.113,0,0,1-2.319.24c-1.045,0-1.833-.022-2.531-.065V724.06a7.536,7.536,0,0,1,1.833-.175,13.525,13.525,0,0,1,4.286.459c.173.065.193.306.193.589v1.42h.768a14.766,14.766,0,0,1,.347-3.321c-.852-.043-1.833-.065-2.819-.065-1.243,0-3.255.065-5.152.065-.615,0-1.249-.022-1.858-.022-.615-.022-1.224-.044-1.838-.044v.655l1.05.065c.525.022.788.109.916.328a3.833,3.833,0,0,1,.2,1.638v9.808Z" transform="translate(-995.629 -687.671)" fill="#6a7584"/><path d="M1039.872,699.171v6.943h1.937v-6.943Zm.946-3.209a1.162,1.162,0,1,0,0,2.324,1.1,1.1,0,0,0,1.139-1.154v-.06a1.1,1.1,0,0,0-1.139-1.11Zm9.284,5.893v-1.71h-4.033v-2.309h4.182v-1.724h-6.118v10h1.937v-4.258Zm7,2.1.659,2.159h2.115l-3.423-10.151h-2.16l-3.359,10.151h2.115l.644-2.159Zm-1.744-5.608,1.263,3.959h-2.432l1.169-3.959Zm9.779-2.535c-2.175,0-3.631,1.23-3.631,3.059,0,1.425.693,2.175,2.655,2.909l.8.3c1.244.45,1.556.72,1.556,1.3,0,.675-.6,1.095-1.571,1.095-1.05,0-1.664-.54-1.664-1.454l.015-.12h-2.145a2.909,2.909,0,0,0,.555,1.965c.644.974,1.62,1.395,3.254,1.395,2.175,0,3.715-1.32,3.715-3.164,0-1.38-.792-2.205-2.714-2.849l-.7-.24c-1.2-.4-1.65-.764-1.65-1.349,0-.63.585-1.05,1.457-1.05s1.347.376,1.347,1.065v.045h2.16c-.03-1.844-1.273-2.909-3.433-2.909Zm12.187,2.1v-1.8h-7.164v1.8h2.606v8.2h2.011v-8.2Zm10.755,4.468h2.279a2.3,2.3,0,0,1-2.4,2.175c-1.614,0-2.709-1.364-2.709-3.4,0-2.085,1.11-3.464,2.789-3.464a2.309,2.309,0,0,1,2.249,1.469l2.05-.255c-.569-2.1-1.887-3.014-4.394-3.014-2.908,0-4.87,2.114-4.87,5.233a6.479,6.479,0,0,0,.465,2.4,4.238,4.238,0,0,0,4.316,2.819,5.145,5.145,0,0,0,2.774-.795c1.367-.87,2.026-2.354,2.026-4.529v-.42h-4.573v1.784Zm6.644-6.268v10h6.039v-1.859h-4.032v-8.143Zm12.192-.225a4.915,4.915,0,0,0-4.949,5.264c0,3.044,1.962,5.114,4.854,5.114,2.973,0,4.994-2.114,4.994-5.233,0-3.059-1.977-5.144-4.9-5.144Zm-.035,8.593c-1.694,0-2.74-1.3-2.74-3.36,0-2.114,1.11-3.509,2.8-3.509s2.71,1.335,2.71,3.495c0,2.085-1.06,3.374-2.774,3.374Zm7.02,1.634h3.825c2.071,0,3.329-1.109,3.329-2.923a2.145,2.145,0,0,0-1.65-2.324,2.238,2.238,0,0,0,1.362-2.16,2.592,2.592,0,0,0-2.819-2.594H1113.9v10Zm1.937-8.352h1.615a1.23,1.23,0,0,1,.05,2.459h-1.664v-2.459Zm0,4.018h1.709a1.254,1.254,0,0,1,1.422,1.35c0,.839-.466,1.274-1.392,1.274h-1.739V701.78Zm12.677,2.175.659,2.159h2.115l-3.418-10.151h-2.16l-3.359,10.151h2.115l.643-2.159Zm-1.739-5.608,1.258,3.959H1125.6l1.169-3.959Zm6.074-2.235v10h6.044v-1.859h-4.038v-8.143Z" transform="translate(-997.551 -674.157)" fill="#6a7584"/><path d="M962.4,766.974a1.648,1.648,0,0,1,.079-.669c.055-.089.164-.125.377-.133l.425-.027v-.268c-.46.018-.881.027-1.292.027-.436,0-.852-.009-1.318-.027v.268l.426.027c.218.008.322.045.377.133a1.555,1.555,0,0,1,.079.669v4a1.554,1.554,0,0,1-.079.669c-.055.089-.159.125-.377.134l-.426.027v.267c.466-.018.882-.027,1.318-.027.411,0,.832.009,1.292.027v-.267l-.425-.027c-.214-.009-.322-.045-.377-.134a1.647,1.647,0,0,1-.079-.669v-4Zm3.062,2.274c0-.365.55-.839,1.095-.839a1,1,0,0,1,1.026,1.133v2.532c.2-.009.466-.027.714-.027s.51.017.733.027v-.267l-.367-.027c-.153-.009-.253-.045-.287-.125a1.836,1.836,0,0,1-.044-.517v-1.721c0-.972-.427-1.552-1.471-1.552a.946.946,0,0,0-.723.223l-.659.57h-.015V767.9l-.084-.036a5,5,0,0,1-1.387.365v.25h.327c.188,0,.277.027.332.1a1.43,1.43,0,0,1,.059.552v2.007a1.661,1.661,0,0,1-.045.517c-.034.08-.133.116-.282.125l-.4.027v.267c.312-.009.669-.027,1.1-.027s.793.017,1.1.027v-.267l-.4-.027c-.149-.009-.248-.045-.282-.125a1.683,1.683,0,0,1-.044-.517v-1.891Zm8.13-.428c.124-.267.277-.58.5-.6l.277-.018v-.249c-.277.009-.564.027-.837.027s-.565-.018-.842-.027v.249l.366.018c.144.009.213.08.213.241a1.816,1.816,0,0,1-.168.642l-.372.945c-.173.419-.367.838-.555,1.248l-1.06-2.568a.9.9,0,0,1-.079-.321c0-.133.079-.178.223-.187l.436-.018v-.249c-.347.009-.689.027-1.035.027s-.694-.018-1.045-.027v.249l.307.018c.169.009.223.169.273.294l1.536,3.594h.446c.124-.3.213-.642.367-.972l1.05-2.319Zm3.71-.66c.644,0,.946.678.946,1.507-.312.018-.644.027-.991.027a9.9,9.9,0,0,1-1.134-.053v-.117a1.2,1.2,0,0,1,1.18-1.364Zm.045-.294a2.049,2.049,0,0,0-.873.241,2.708,2.708,0,0,0-.554.357,1.984,1.984,0,0,0-.644,1.7,1.907,1.907,0,0,0,2.061,2.06,2.6,2.6,0,0,0,1.426-.5l.179-.3-.114-.089a2.137,2.137,0,0,1-1.1.419A1.536,1.536,0,0,1,976.107,770h1.3a9.847,9.847,0,0,0,1.61-.125,2.362,2.362,0,0,0,.02-.374,1.581,1.581,0,0,0-1.694-1.632Zm2.784,2.907a5.682,5.682,0,0,1-.1,1.239,3.624,3.624,0,0,0,1.248.214c.991,0,1.972-.517,1.972-1.5,0-.7-.5-.963-1.56-1.142-.679-.116-.976-.321-.976-.7,0-.3.119-.722.876-.722.506,0,1.036.268,1.036.731v.205h.248c.01-.357.02-.687.045-1.008a3.387,3.387,0,0,0-1.149-.223c-.838,0-1.679.338-1.679,1.3a.993.993,0,0,0,.757.972,12.275,12.275,0,0,0,1.313.356.57.57,0,0,1,.426.589c0,.482-.48.812-1.04.812-.52,0-1.149-.206-1.149-.758v-.365Zm4.731-2.131v2.568c0,.722.4.945.877.945.188,0,.5-.018.58-.107l.426-.473-.114-.152a1.018,1.018,0,0,1-.525.17c-.376,0-.49-.205-.49-.615v-2.336h1.139l.079-.482-1.218.054v-.339a11.152,11.152,0,0,1,.094-1.266l-.1-.1a3.27,3.27,0,0,1-.758.339,6.819,6.819,0,0,1,.035.7v.624l-.693.312v.187l.674-.036Zm3.364,2.5a1.855,1.855,0,0,1-.044.517c-.035.08-.134.116-.287.125l-.406.027v.267c.317-.009.674-.027,1.115-.027s.792.017,1.075.027v-.267l-.371-.027c-.153-.009-.253-.045-.287-.125a1.83,1.83,0,0,1-.045-.517v-1.891c0-.365.555-.839,1.1-.839.58,0,.837.536.837,1.133v1.6a1.855,1.855,0,0,1-.044.517c-.035.08-.134.116-.287.125l-.411.027v.267c.322-.009.679-.027,1.115-.027s.8.017,1.115.027v-.267l-.406-.027c-.153-.009-.253-.045-.287-.125a1.849,1.849,0,0,1-.045-.517v-1.891c0-.365.555-.839,1.095-.839.579,0,.842.536.842,1.133v2.532c.2-.009.461-.027.713-.027s.506.017.783.027v-.267l-.421-.027c-.149-.009-.248-.045-.283-.125a1.878,1.878,0,0,1-.044-.517V769.3a1.29,1.29,0,0,0-1.283-1.436,1.113,1.113,0,0,0-.788.223l-.679.606a1.253,1.253,0,0,0-1.219-.829,1.1,1.1,0,0,0-.788.223l-.614.57V767.9l-.079-.036a5.089,5.089,0,0,1-1.392.365v.25h.332c.188,0,.277.027.327.1a1.393,1.393,0,0,1,.064.552v2.007Zm9.7-2.978c.639,0,.941.678.941,1.507-.312.018-.639.027-.986.027a9.848,9.848,0,0,1-1.135-.053v-.117c0-.891.516-1.364,1.18-1.364Zm.045-.294a2.046,2.046,0,0,0-.877.241,2.823,2.823,0,0,0-.55.357,1.986,1.986,0,0,0-.643,1.7,1.906,1.906,0,0,0,2.061,2.06,2.636,2.636,0,0,0,1.427-.5l.178-.3-.119-.089a2.11,2.11,0,0,1-1.1.419A1.538,1.538,0,0,1,996.72,770h1.3a9.914,9.914,0,0,0,1.616-.125,2.377,2.377,0,0,0,.02-.374,1.58,1.58,0,0,0-1.694-1.632Zm3.948,1.382c0-.365.555-.839,1.095-.839a1,1,0,0,1,1.025,1.133v2.532c.208-.009.466-.027.714-.027s.51.017.733.027v-.267l-.367-.027c-.149-.009-.248-.045-.282-.125a1.661,1.661,0,0,1-.045-.517v-1.721c0-.972-.431-1.552-1.471-1.552a.94.94,0,0,0-.723.223l-.659.57h-.02V767.9l-.079-.036a5.091,5.091,0,0,1-1.392.365v.25h.332c.183,0,.273.027.327.1a1.391,1.391,0,0,1,.065.552v2.007a1.828,1.828,0,0,1-.045.517c-.034.08-.133.116-.287.125l-.4.027v.267c.312-.009.669-.027,1.1-.027s.8.017,1.109.027v-.267l-.4-.027c-.153-.009-.253-.045-.287-.125a1.854,1.854,0,0,1-.045-.517v-1.891Zm4.974-.606v2.568c0,.722.4.945.876.945a1.1,1.1,0,0,0,.58-.107l.427-.473-.114-.152a1.04,1.04,0,0,1-.53.17c-.371,0-.49-.205-.49-.615v-2.336h1.144l.079-.482-1.224.054v-.339a10.175,10.175,0,0,1,.1-1.266l-.1-.1a3.389,3.389,0,0,1-.758.339,6.994,6.994,0,0,1,.035.7v.624l-.7.312v.187l.679-.036Zm7.079-2.318a3.5,3.5,0,0,1,.911-.107c.882,0,1.447.4,1.447,1.328a1.286,1.286,0,0,1-1.288,1.329,1.906,1.906,0,0,1-.585-.09l.09.321a2.713,2.713,0,0,0,.535.054,2.007,2.007,0,0,0,2.14-1.917c0-.981-.936-1.364-1.784-1.364h-.064c-.481.009-1,.027-1.516.027s-1.016-.018-1.605-.027v.268l.4.027c.223.018.322.062.381.152a1.452,1.452,0,0,1,.089.651v4a1.552,1.552,0,0,1-.079.669c-.055.089-.158.125-.372.134l-.431.027v.267c.466-.018.882-.027,1.323-.027.406,0,.827.009,1.293.027v-.267l-.431-.027c-.213-.009-.322-.045-.372-.134a1.526,1.526,0,0,1-.084-.669v-4.655Zm4.835,4.815a1.86,1.86,0,0,1-.044.517c-.035.08-.134.116-.288.125l-.406.027v.267c.317-.009.674-.027,1.115-.027s.793.017,1.115.027v-.267l-.411-.027c-.154-.009-.253-.045-.288-.125a1.878,1.878,0,0,1-.044-.517v-5.494l-.079-.071a6.189,6.189,0,0,1-1.392.33v.25h.5c.2,0,.223.161.223.366v4.619Zm4.122-1.5c-.822.151-1.724.41-1.724,1.435a1.008,1.008,0,0,0,1.09,1.079.856.856,0,0,0,.411-.072l1.1-.766-.044.758c.233-.009.456-.027.683-.027s.446.017.669.027v-.267l-.347-.018c-.124-.009-.2-.045-.223-.134a2.688,2.688,0,0,1-.025-.384V769.64c0-1.284-.342-1.775-1.457-1.775a1.985,1.985,0,0,0-1.03.3l-.476.285v.58l.233.062.114-.277a1.749,1.749,0,0,1,.153-.294c.114-.152.242-.187.624-.187a1,1,0,0,1,1.124,1.115v.027l-.881.161Zm.881,1.3a1.331,1.331,0,0,1-.287.294,1.573,1.573,0,0,1-.857.41.7.7,0,0,1-.694-.731.954.954,0,0,1,.535-.838,5.41,5.41,0,0,1,1.3-.312v1.177Zm2.889-2.3v2.568c0,.722.4.945.872.945.188,0,.5-.018.58-.107l.431-.473-.119-.152a1,1,0,0,1-.525.17c-.372,0-.49-.205-.49-.615v-2.336h1.144l.079-.482-1.224.054v-.339a10.266,10.266,0,0,1,.1-1.266l-.108-.1a3.174,3.174,0,0,1-.758.339,5.652,5.652,0,0,1,.04.7v.624l-.7.312v.187l.679-.036Zm5.519-2.987a1.055,1.055,0,0,0-.4-.1,1.092,1.092,0,0,0-.8.374l-.515.589a1.849,1.849,0,0,0-.376,1.284v.375l-.614.276v.2l.614-.036v2.523a1.86,1.86,0,0,1-.044.517c-.035.08-.134.116-.282.125l-.412.027v.267c.322-.009.679-.027,1.115-.027s.793.017,1.115.027v-.267l-.411-.027c-.153-.009-.248-.045-.287-.125a1.848,1.848,0,0,1-.045-.517v-2.523h1.11l.06-.473-1.17.036v-.758c0-1.016.1-1.275.655-1.275a.868.868,0,0,1,.589.25l.1-.053v-.687Zm2.621,6.572a2.241,2.241,0,0,0,2.339-2.328,2,2,0,0,0-2.026-2.033,2.127,2.127,0,0,0-2.274,2.274,1.94,1.94,0,0,0,1.9,2.087Zm.109-4.066c.857,0,1.4.981,1.4,2.131,0,.83-.352,1.641-1.159,1.641-1.144,0-1.481-1.24-1.481-2.176,0-.83.292-1.6,1.238-1.6Zm3.889,2.978a1.865,1.865,0,0,1-.044.517c-.035.08-.134.116-.287.125l-.411.027v.267c.322-.009.679-.027,1.115-.027s.8.017,1.258.027v-.267l-.46-.027c-.208-.009-.342-.045-.377-.125a1.847,1.847,0,0,1-.045-.517V769.6a.909.909,0,0,1,.783-.981.65.65,0,0,1,.609.41h.188l.079-1.07a.851.851,0,0,0-.411-.1,1,1,0,0,0-.748.365l-.481.57h-.02v-.9l-.079-.036a5.085,5.085,0,0,1-1.392.365v.25h.332c.184,0,.273.027.327.1a1.4,1.4,0,0,1,.064.552v2.007Zm3.924,0a1.855,1.855,0,0,1-.044.517c-.035.08-.134.116-.288.125l-.411.027v.267c.322-.009.678-.027,1.115-.027s.8.017,1.08.027v-.267l-.371-.027c-.154-.009-.253-.045-.287-.125a1.852,1.852,0,0,1-.045-.517v-1.891c0-.365.555-.839,1.095-.839.58,0,.842.536.842,1.133v1.6a1.852,1.852,0,0,1-.045.517c-.04.08-.134.116-.288.125l-.411.027v.267c.322-.009.678-.027,1.115-.027s.793.017,1.115.027v-.267l-.411-.027c-.149-.009-.248-.045-.282-.125a1.865,1.865,0,0,1-.044-.517v-1.891c0-.365.549-.839,1.095-.839.579,0,.837.536.837,1.133v2.532c.208-.009.466-.027.713-.027s.511.017.788.027v-.267l-.421-.027c-.149-.009-.248-.045-.282-.125a1.683,1.683,0,0,1-.044-.517V769.3a1.291,1.291,0,0,0-1.288-1.436,1.1,1.1,0,0,0-.783.223l-.678.606a1.254,1.254,0,0,0-1.219-.829,1.1,1.1,0,0,0-.788.223l-.615.57V767.9l-.079-.036a5.088,5.088,0,0,1-1.393.365v.25h.332c.184,0,.273.027.327.1a1.391,1.391,0,0,1,.065.552v2.007Zm13.153-5.484a1.055,1.055,0,0,0-.4-.1,1.085,1.085,0,0,0-.8.374l-.52.589a1.846,1.846,0,0,0-.372,1.284v.375l-.614.276v.2l.614-.036v2.523a1.865,1.865,0,0,1-.044.517c-.035.08-.134.116-.288.125l-.411.027v.267c.322-.009.678-.027,1.115-.027s.8.017,1.114.027v-.267l-.406-.027c-.154-.009-.253-.045-.288-.125a1.864,1.864,0,0,1-.045-.517v-2.523h1.1l.064-.473-1.169.036v-.758c0-1.016.1-1.275.649-1.275a.858.858,0,0,1,.589.25l.109-.053v-.687Zm2.621,6.572a2.244,2.244,0,0,0,2.338-2.328,2.005,2.005,0,0,0-2.026-2.033,2.125,2.125,0,0,0-2.275,2.274,1.939,1.939,0,0,0,1.9,2.087Zm.109-4.066c.852,0,1.4.981,1.4,2.131,0,.83-.347,1.641-1.16,1.641-1.139,0-1.481-1.24-1.481-2.176,0-.83.3-1.6,1.243-1.6Zm3.884,2.978a1.874,1.874,0,0,1-.044.517c-.035.08-.134.116-.282.125l-.411.027v.267c.322-.009.679-.027,1.115-.027s.793.017,1.258.027v-.267l-.465-.027c-.2-.009-.337-.045-.377-.125a1.937,1.937,0,0,1-.039-.517V769.6a.908.908,0,0,1,.782-.981.638.638,0,0,1,.6.41h.188l.079-1.07a.83.83,0,0,0-.406-.1,1.014,1.014,0,0,0-.753.365l-.48.57h-.015v-.9l-.084-.036a5,5,0,0,1-1.387.365v.25h.327c.188,0,.278.027.332.1a1.434,1.434,0,0,1,.059.552v2.007Zm12.058-4.164a1.553,1.553,0,0,1,.079-.669c.054-.089.158-.125.376-.133l.426-.027v-.268c-.465.018-.882.027-1.293.027-.436,0-.857-.009-1.318-.027v.268l.426.027c.213.008.322.045.376.133a1.625,1.625,0,0,1,.08.669v1.587c-.109.009-.347.018-.743.018H1070.9c-.391,0-.635-.009-.738-.018v-1.587a1.555,1.555,0,0,1,.079-.669c.055-.089.158-.125.377-.133l.426-.027v-.268c-.466.018-.882.027-1.293.027-.437,0-.857-.009-1.318-.027v.268l.426.027c.213.008.322.045.376.133a1.624,1.624,0,0,1,.079.669v4a1.623,1.623,0,0,1-.079.669c-.054.089-.163.125-.376.134l-.426.027v.267c.461-.018.881-.027,1.318-.027.411,0,.827.009,1.293.027v-.267l-.426-.027c-.218-.009-.322-.045-.377-.134a1.554,1.554,0,0,1-.079-.669v-1.989c.1-.008.347-.017.738-.017h2.086c.4,0,.634.009.743.017v1.989a1.624,1.624,0,0,1-.08.669c-.054.089-.163.125-.376.134l-.426.027v.267c.461-.018.882-.027,1.318-.027.411,0,.828.009,1.293.027v-.267l-.426-.027c-.218-.009-.322-.045-.376-.134a1.552,1.552,0,0,1-.079-.669v-4Zm2.522,4a1.546,1.546,0,0,1-.08.669c-.054.089-.158.116-.376.134l-.392.027v.267c.357-.009.714-.027,1.036-.027.357,0,.679.017,1.07.027v-.267l-.391-.027c-.213-.018-.322-.045-.376-.134a1.631,1.631,0,0,1-.079-.669v-4.111h.02l4.2,5.216.8.143c0-.107-.025-.223-.025-.33v-4.922a1.635,1.635,0,0,1,.079-.669c.055-.089.163-.115.377-.133l.391-.027v-.268c-.391.009-.714.027-1.071.027-.322,0-.678-.018-1.035-.027v.268l.391.027c.218.018.322.045.377.133a1.553,1.553,0,0,1,.079.669v4.164h-.025l-4.266-5.261c-.158.009-.317.027-.48.027-.323,0-.679-.018-1.071-.027v.268l.392.027c.218.018.322.045.376.133a1.547,1.547,0,0,1,.08.669v4Zm12.326-.687c.223.616.436,1.133.634,1.837h.446c.069-.365.168-.642.237-.9l1.368-4.8a.338.338,0,0,1,.337-.258l.287-.027v-.268c-.312.009-.619.027-.936.027s-.624-.018-.936-.027v.268l.357.027c.282.027.416.062.416.205a.3.3,0,0,1-.01.089l-1.165,4.334h-.019l-1.382-3.87a11.079,11.079,0,0,1-.367-1.124h-.282c-.243.731-.53,1.445-.8,2.149l-1.1,2.782h-.016l-.886-3.978a1.343,1.343,0,0,1-.035-.276c0-.268.153-.294.332-.312l.371-.027v-.268c-.371.009-.738.027-1.12.027s-.752-.018-1.124-.027v.268l.248.027c.188.018.356.062.446.445l1.06,4.593c.074.312.144.588.208.918h.446c.089-.312.2-.615.322-.918l1.55-3.942,1.115,3.023Zm5.821-3.317a1.649,1.649,0,0,1,.079-.669c.055-.089.164-.125.377-.133l.426-.027v-.268c-.461.018-.882.027-1.294.027-.435,0-.852-.009-1.317-.027v.268l.426.027c.218.008.322.045.377.133a1.553,1.553,0,0,1,.079.669v4a1.552,1.552,0,0,1-.079.669c-.054.089-.159.125-.377.134l-.426.027v.267c.466-.018.882-.027,1.317-.027.411,0,.833.009,1.294.027v-.267l-.426-.027c-.213-.009-.322-.045-.377-.134a1.648,1.648,0,0,1-.079-.669v-4Zm1.893,3.8a5.674,5.674,0,0,1-.1,1.239,3.646,3.646,0,0,0,1.248.214c.991,0,1.972-.517,1.972-1.5,0-.7-.5-.963-1.561-1.142-.678-.116-.971-.321-.971-.7,0-.3.114-.722.872-.722.51,0,1.036.268,1.036.731v.205h.248c.01-.357.02-.687.044-1.008a3.366,3.366,0,0,0-1.149-.223c-.837,0-1.674.338-1.674,1.3a.988.988,0,0,0,.758.972,11.855,11.855,0,0,0,1.308.356.573.573,0,0,1,.431.589c0,.482-.486.812-1.045.812-.515,0-1.149-.206-1.149-.758v-.365Z" transform="translate(-957.699 -709.349)" fill="#6a7584"/><line x2="139.639" transform="translate(2.996 53.553)" fill="none" stroke="gray" stroke-width="0.5"/><path d="M991.648,725.076l8.2-5.125s-1.625-2.093-2.333-1.9-5.693,3.571-4.9,3.782c1.362.363-1.164,1.728-1.11,2.291.03.3.149.955.149.955Z" transform="translate(-973.254 -685.37)" fill="#6a7584"/><path d="M1004.643,730.987a5.257,5.257,0,0,0,1.407,4.391,7.561,7.561,0,0,0,3.423,2.141s-3.314-.381-4.548-1.843c-1.729-2.048-.282-4.689-.282-4.689Z" transform="translate(-979.601 -691.906)" fill="#6a7584"/><path d="M1007.109,717.383a22.4,22.4,0,0,1,1.695-2.655,19.147,19.147,0,0,1-.05,2.969,4.77,4.77,0,0,0-.664-.642,4.332,4.332,0,0,0-.982.328Z" transform="translate(-981.131 -683.702)" fill="#6a7584"/><path d="M1012.71,726.913a6.2,6.2,0,0,1,1.779-.2c.213.053-.159.877-.159.877l-1.62-.682Z" transform="translate(-983.957 -689.739)" fill="#6a7584"/><path d="M980.333,652.1s-6.742,10.223-7.466,19.945c-.713,9.666,7.1,14.054,8.2,19.27a23.258,23.258,0,0,1-.625,10.5s.937-6.413-.4-10.374c-2.1-6.248-9.214-11.8-8.734-19.475s9.016-19.866,9.016-19.866Z" transform="translate(-963.058 -652.099)" fill="#6a7584"/><path d="M967.467,674.971s-1.956,7.208-1.748,11.422c.243,4.837,2.437,4.883,3.789,7.66.511,1.046,1.125,2.862,1.125,2.862s-1.471-1.729-1.863-2.3c-1.952-2.832-3.919-3.235-4.092-7.559-.217-5.557,2.789-12.085,2.789-12.085Z" transform="translate(-959.715 -663.64)" fill="#6a7584"/><path d="M958.641,694.586a11.863,11.863,0,0,0,1.714,6.732c1.848,3.062,3.24,3.078,4.771,4.644a10.218,10.218,0,0,1,1.5,2.747s-1.025-1.011-1.674-1.649c-1.714-1.689-4.141-2.245-5.484-5.093s-.827-7.381-.827-7.381Z" transform="translate(-956.625 -673.537)" fill="#6a7584"/><path d="M955.39,708.411a11.589,11.589,0,0,0,2.71,4.723c1.877,2.009,2.73,1.436,4.255,2.24a11.222,11.222,0,0,1,2.1,1.978s-1.179-.581-1.818-.9c-1.7-.852-3.254-.522-4.89-2.36s-2.358-5.678-2.358-5.678Z" transform="translate(-955.033 -680.514)" fill="#6a7584"/><path d="M954.67,718.84a9.667,9.667,0,0,0,3.141,3.3c1.932,1.259,2.348.753,3.75,1.1a7.62,7.62,0,0,1,1.937,1.149s-1.313-.108-1.9-.241c-1.55-.353-2.284.129-3.978-1.039s-2.953-4.272-2.953-4.272Z" transform="translate(-954.67 -685.777)" fill="#6a7584"/><path d="M954.89,728.284a8.991,8.991,0,0,0,3.185,1.7,7.469,7.469,0,0,0,3.181.427,11.188,11.188,0,0,1,2.135.642,17.222,17.222,0,0,1-2.071.233c-1.382-.063-1.63.274-3.369-.341a7.733,7.733,0,0,1-3.061-2.665Z" transform="translate(-954.781 -690.541)" fill="#6a7584"/><path d="M955.21,735.285a7.423,7.423,0,0,0,2.893,1.056c1.858.384,1.927-.1,3.125-.162a9.38,9.38,0,0,1,1.972.349,15.021,15.021,0,0,1-1.9.451c-1.318.091-1.571.659-3.29.264a5.5,5.5,0,0,1-2.8-1.958Z" transform="translate(-954.943 -694.075)" fill="#6a7584"/><path d="M957.63,741.789a5.369,5.369,0,0,0,2.551.507c1.6.04,1.575-.391,2.581-.668a8.05,8.05,0,0,1,1.729-.071,15.654,15.654,0,0,1-1.644.794c-1.1.329-.763.752-2.7.8a3.532,3.532,0,0,1-2.512-1.362Z" transform="translate(-956.164 -697.231)" fill="#6a7584"/><path d="M962.63,746.244a3,3,0,0,0,1.853.163c.867-.115,1.08-.644,1.774-1.052a3.839,3.839,0,0,1,1.229-.256s-.872.774-1.159.952c-.753.473-.783,1.087-1.848,1.213-1.03.122-1.847-1.02-1.847-1.02Z" transform="translate(-958.687 -699.027)" fill="#6a7584"/><path d="M991.648,725.076l8.2-5.125s-1.625-2.093-2.333-1.9-5.693,3.571-4.9,3.782c1.362.363-1.164,1.728-1.11,2.291.03.3.149.955.149.955Z" transform="translate(-973.254 -685.37)" fill="#6a7584"/><path d="M1008.53,719.823s4.622-2.235,4.889-1.967-1.956,2.238-2.031,2.579c-.139.611,1.883.28,1.883.28a2.165,2.165,0,0,1,.748,1.153c.089.626,2.284,6.738,3.439,8.348s3.359,2.782,1.58,3.935c0,0,.45-.3-.1-1.482a26.83,26.83,0,0,0-1.987-2.2c-1.788-2.253-2.645-6.295-3.408-7.062-.505-.511-.129-1.183-.253-1.382-.446-.715-1.521-.72-2.556-.875-.867-.129.718-1.987.718-1.987l-2.918.659Z" transform="translate(-981.848 -685.269)" fill="#6a7584"/><path d="M1027.71,748.647a1.021,1.021,0,0,0-1-.546c-.66.108.347.484.49.764s.505-.218.505-.218Z" transform="translate(-990.912 -700.536)" fill="#6a7584"/><path d="M1004.643,730.987a5.257,5.257,0,0,0,1.407,4.391,7.561,7.561,0,0,0,3.423,2.141s-3.314-.381-4.548-1.843c-1.729-2.048-.282-4.689-.282-4.689Z" transform="translate(-979.601 -691.906)" fill="#6a7584"/><path d="M1007.109,717.383a22.4,22.4,0,0,1,1.695-2.655,19.147,19.147,0,0,1-.05,2.969,4.77,4.77,0,0,0-.664-.642,4.332,4.332,0,0,0-.982.328Z" transform="translate(-981.131 -683.702)" fill="#6a7584"/><path d="M1012.71,726.913a6.2,6.2,0,0,1,1.779-.2c.213.053-.159.877-.159.877l-1.62-.682Z" transform="translate(-983.957 -689.739)" fill="#6a7584"/><path d="M995.27,725.094H966.819V696.473H995.27v28.621Z" transform="translate(-960.801 -674.49)" fill="#6a7584"/><path d="M995.27,718.772v-1.516a51.817,51.817,0,0,1-2.3-6.167,2.164,2.164,0,0,0-.748-1.153s-2.021.331-1.883-.28c.074-.341,2.3-2.311,2.031-2.579s-4.889,1.967-4.889,1.967l2.918-.659s-1.585,1.857-.718,1.986c1.035.155,2.11.16,2.556.875.124.2-.253.871.253,1.382.669.672,1.406,3.851,2.779,6.144Zm-6.846-10.287a19.117,19.117,0,0,0,.05-2.969,22.45,22.45,0,0,0-1.695,2.655,4.336,4.336,0,0,1,.981-.328,4.753,4.753,0,0,1,.664.642Zm-1.031.585s-1.625-2.093-2.333-1.9-5.693,3.571-4.9,3.782c1.362.363-1.164,1.728-1.11,2.291.03.3.149.955.149.955l8.2-5.125Zm-8.58,4.635c-1.016-4.834-7.793-8.964-8.214-17.234h-1.466c.763,6.61,6.762,11.7,8.66,17.359,1.333,3.96.4,10.374.4,10.374a23.256,23.256,0,0,0,.625-10.5Zm-11.994,8.978c.838-.184.926-.735,1.621-1.169.287-.178,1.159-.952,1.159-.952a3.842,3.842,0,0,0-1.229.256c-.629.37-.867.836-1.551,1.007v.859Zm.912-9.819c.584.133,1.9.241,1.9.241a7.619,7.619,0,0,0-1.937-1.149,5.316,5.316,0,0,0-.872-.138v.911a6.258,6.258,0,0,1,.912.135Zm.673-2.44c.64.321,1.818.9,1.818.9a11.232,11.232,0,0,0-2.1-1.978,5.679,5.679,0,0,0-1.3-.476v.989a8.039,8.039,0,0,1,1.585.561Zm.723-2.412c.649.638,1.674,1.649,1.674,1.649a10.212,10.212,0,0,0-1.5-2.747,22.234,22.234,0,0,0-2.482-1.93v1.307a15.031,15.031,0,0,1,2.309,1.721Zm1.466-3.109c-1.332-2.742-3.488-2.831-3.775-7.487v4.361c.788,1.231,1.913,2.059,3.037,3.688.391.571,1.863,2.3,1.863,2.3s-.614-1.816-1.125-2.862Zm-3.111,14.706a15.622,15.622,0,0,0,1.644-.794,8.041,8.041,0,0,0-1.729.071,3.351,3.351,0,0,0-.58.218v.793a2.793,2.793,0,0,1,.664-.289Zm-.664-5.262v.884c.159,0,.322,0,.521.006A17.226,17.226,0,0,0,969.41,715a11.181,11.181,0,0,0-2.135-.642c-.173-.011-.322-.015-.456-.015Zm.267,2.246c-.1.006-.183.017-.267.027v.814c.109-.016.218-.032.342-.041a15.019,15.019,0,0,0,1.9-.451,9.38,9.38,0,0,0-1.972-.349Zm18.756-3.023s-1.446,2.641.282,4.689c1.234,1.462,4.548,1.843,4.548,1.843a7.56,7.56,0,0,1-3.423-2.141,5.256,5.256,0,0,1-1.407-4.391Zm3.711-1.906,1.62.682s.372-.824.159-.877a6.2,6.2,0,0,0-1.779.2Z" transform="translate(-960.801 -674.489)" fill="#fff"/></svg>