<svg xmlns="http://www.w3.org/2000/svg" width="37" height="37" viewBox="0 0 37 37"><g transform="translate(0.5 0.5)"><circle cx="18" cy="18" r="18" fill="#00e0cb" stroke="#fff" stroke-width="1"/><g transform="translate(7.355 7.803)"><path d="M20.788,6a7.452,7.452,0,0,0-.474-2.474A5.224,5.224,0,0,0,17.33.538,7.471,7.471,0,0,0,14.856.064C13.764.012,13.417,0,10.648,0s-3.116.012-4.2.06A7.454,7.454,0,0,0,3.971.534,4.976,4.976,0,0,0,2.162,1.713a5.021,5.021,0,0,0-1.175,1.8A7.472,7.472,0,0,0,.513,5.992C.461,7.084.449,7.43.449,10.2s.012,3.116.06,4.2a7.452,7.452,0,0,0,.474,2.474,5.224,5.224,0,0,0,2.984,2.984,7.472,7.472,0,0,0,2.474.474c1.088.048,1.434.06,4.2.06s3.116-.012,4.2-.06a7.45,7.45,0,0,0,2.474-.474,5.217,5.217,0,0,0,2.984-2.984A7.477,7.477,0,0,0,20.78,14.4c.048-1.088.06-1.434.06-4.2S20.836,7.084,20.788,6Zm-1.837,8.327a5.59,5.59,0,0,1-.351,1.892,3.383,3.383,0,0,1-1.936,1.936,5.61,5.61,0,0,1-1.892.35c-1.076.048-1.4.06-4.119.06S7.6,18.55,6.533,18.5a5.587,5.587,0,0,1-1.892-.35,3.138,3.138,0,0,1-1.171-.761,3.171,3.171,0,0,1-.761-1.171,5.611,5.611,0,0,1-.35-1.892c-.048-1.076-.06-1.4-.06-4.12s.012-3.048.06-4.119A5.587,5.587,0,0,1,2.708,4.2a3.1,3.1,0,0,1,.765-1.171,3.166,3.166,0,0,1,1.171-.761,5.614,5.614,0,0,1,1.892-.351c1.076-.048,1.4-.06,4.119-.06s3.048.012,4.12.06a5.59,5.59,0,0,1,1.892.351,3.136,3.136,0,0,1,1.171.761A3.17,3.17,0,0,1,18.6,4.2a5.613,5.613,0,0,1,.351,1.892c.048,1.076.06,1.4.06,4.119S19,13.247,18.951,14.323Zm0,0" transform="translate(0 0)" fill="#fff"/><path d="M130.188,124.5a5.239,5.239,0,1,0,5.239,5.239A5.24,5.24,0,0,0,130.188,124.5Zm0,8.638a3.4,3.4,0,1,1,3.4-3.4A3.4,3.4,0,0,1,130.188,133.138Zm0,0" transform="translate(-119.54 -119.54)" fill="#fff"/><path d="M364.9,89.825a1.223,1.223,0,1,1-1.223-1.223A1.223,1.223,0,0,1,364.9,89.825Zm0,0" transform="translate(-347.578 -85.072)" fill="#fff"/></g></g></svg>