<svg xmlns="http://www.w3.org/2000/svg" width="37" height="37" viewBox="0 0 37 37"><g transform="translate(0.5 0.5)"><circle cx="18" cy="18" r="18" fill="#00e0cb" stroke="#fff" stroke-width="1"/><path d="M11.895,15V10.129c0-1.164-.017-2.659-1.614-2.659-1.619,0-1.862,1.269-1.862,2.572V15H5.314V4.981H8.287V6.353h.041A3.266,3.266,0,0,1,11.27,4.738C14.416,4.738,15,6.811,15,9.51V15ZM3.353,15H.243V4.981H3.354V15h0ZM5.308,4.981h.006ZM0,1.807A1.8,1.8,0,1,1,1.8,3.614,1.808,1.808,0,0,1,0,1.807Z" transform="translate(11 10)" fill="#fff"/></g></svg>