<svg xmlns="http://www.w3.org/2000/svg" xmlns:xlink="http://www.w3.org/1999/xlink" width="115.984" height="55.999" viewBox="0 0 115.984 55.999">
  <defs>
    <clipPath id="clip-path">
      <rect id="Rectangle_19947" data-name="Rectangle 19947" width="115.984" height="55.999" fill="none"/>
    </clipPath>
  </defs>
  <g id="Group_68936" data-name="Group 68936" transform="translate(0 0)">
    <g id="Group_68935" data-name="Group 68935" transform="translate(0 0)" clip-path="url(#clip-path)">
      <path id="Path_48319" data-name="Path 48319" d="M45.905,12.045a.94.94,0,0,1-.182,1.249.935.935,0,0,1-1.315-.133.607.607,0,0,1-.049-.067.934.934,0,0,1,1.5-1.116c.018.022.034.044.05.067" transform="translate(1.757 0.462)" fill="#fff"/>
      <path id="Path_48320" data-name="Path 48320" d="M43.027,8.982a.939.939,0,0,1,.037,1.261.934.934,0,0,1-1.318.1.769.769,0,0,1-.059-.057.934.934,0,0,1,1.28-1.359c.021.019.042.037.06.057" transform="translate(1.646 0.345)" fill="#fff"/>
      <path id="Path_48321" data-name="Path 48321" d="M39.661,6.466A.939.939,0,0,1,39.915,7.7a.932.932,0,0,1-1.28.325c-.024-.015-.047-.029-.07-.046A.934.934,0,0,1,39.59,6.42c.025.015.049.03.071.046" transform="translate(1.517 0.25)" fill="#e6e7e8"/>
      <path id="Path_48322" data-name="Path 48322" d="M50.737,14.21a1.052,1.052,0,0,1-.443,1.34,1.047,1.047,0,0,1-1.423-.4.884.884,0,0,1-.042-.083,1.046,1.046,0,0,1,1.866-.939c.015.027.029.055.042.083" transform="translate(1.937 0.54)" fill="#fff"/>
      <path id="Path_48323" data-name="Path 48323" d="M48.16,10.276a1.051,1.051,0,0,1-.2,1.4,1.046,1.046,0,0,1-1.471-.148.77.77,0,0,1-.055-.075A1.045,1.045,0,0,1,48.105,10.2c.02.024.037.049.055.074" transform="translate(1.838 0.39)" fill="#fff"/>
      <path id="Path_48324" data-name="Path 48324" d="M44.94,6.849a1.051,1.051,0,0,1,.042,1.411,1.047,1.047,0,0,1-1.474.11c-.023-.021-.046-.043-.068-.064a1.045,1.045,0,0,1,1.433-1.52c.024.02.046.042.068.063" transform="translate(1.715 0.259)" fill="#fff"/>
      <path id="Path_48325" data-name="Path 48325" d="M41.172,4.035a1.046,1.046,0,0,1-1.147,1.747c-.026-.017-.052-.033-.077-.052a1.045,1.045,0,0,1,1.146-1.746c.027.016.053.033.078.051" transform="translate(1.571 0.152)" fill="#e6e7e8"/>
      <path id="Path_48326" data-name="Path 48326" d="M47.18,13.738a.934.934,0,0,1-1.588.983c-.016-.023-.03-.047-.044-.071a.934.934,0,0,1,1.588-.983c.016.023.03.047.044.071" transform="translate(1.806 0.527)" fill="#fff"/>
      <path id="Path_48327" data-name="Path 48327" d="M44.576,10.439A.939.939,0,0,1,44.5,11.7a.934.934,0,0,1-1.322-.016.788.788,0,0,1-.055-.062.934.934,0,0,1,1.393-1.242c.02.02.037.041.055.061" transform="translate(1.706 0.401)" fill="#fff"/>
      <path id="Path_48328" data-name="Path 48328" d="M41.44,7.642a.939.939,0,0,1,.148,1.253.92.92,0,0,1-.607.376.93.93,0,0,1-.7-.163.771.771,0,0,1-.064-.051.934.934,0,0,1,1.155-1.466.787.787,0,0,1,.066.051" transform="translate(1.586 0.294)" fill="#e6e7e8"/>
      <path id="Path_48329" data-name="Path 48329" d="M37.865,5.431a.94.94,0,0,1,.364,1.208.936.936,0,0,1-1.248.437.811.811,0,0,1-.073-.04.935.935,0,0,1,.884-1.645c.025.012.049.026.073.04" transform="translate(1.449 0.21)" fill="#e6e7e8"/>
      <path id="Path_48330" data-name="Path 48330" d="M49.58,12.171a1.051,1.051,0,0,1-.323,1.374A1.045,1.045,0,0,1,47.8,13.27c-.017-.025-.033-.052-.048-.079a1.045,1.045,0,0,1,1.776-1.1c.018.026.033.052.049.079" transform="translate(1.893 0.462)" fill="#fff"/>
      <path id="Path_48331" data-name="Path 48331" d="M46.667,8.48a1.051,1.051,0,0,1-.08,1.409,1.046,1.046,0,0,1-1.479-.018c-.022-.023-.043-.046-.061-.07a1.045,1.045,0,0,1,1.559-1.39c.021.022.042.045.061.069" transform="translate(1.781 0.321)" fill="#fff"/>
      <path id="Path_48332" data-name="Path 48332" d="M43.157,5.35a1.051,1.051,0,0,1,.165,1.4,1.044,1.044,0,0,1-1.459.239c-.025-.019-.05-.037-.073-.057a1.046,1.046,0,0,1,1.293-1.641c.025.018.05.037.073.057" transform="translate(1.647 0.202)" fill="#e6e7e8"/>
      <path id="Path_48333" data-name="Path 48333" d="M39.157,2.877a1.05,1.05,0,0,1,.407,1.352,1.045,1.045,0,0,1-1.4.489q-.042-.02-.081-.044a1.045,1.045,0,0,1,.988-1.84c.028.014.056.028.082.044" transform="translate(1.494 0.108)" fill="#e6e7e8"/>
      <path id="Path_48334" data-name="Path 48334" d="M20.862,24.588v.105A1.91,1.91,0,0,1,18.88,26.7a2.022,2.022,0,1,1,0-4.044,1.9,1.9,0,0,1,1.982,1.93M20.6,40.321H17.237V28.239H20.6Z" transform="translate(0.67 0.9)" fill="#fff"/>
      <path id="Path_48335" data-name="Path 48335" d="M26.333,32.9v7.41H22.965V22.91H33.613v3h-7.28v4.018h7.02V32.9Z" transform="translate(0.913 0.91)" fill="#fff"/>
      <path id="Path_48336" data-name="Path 48336" d="M37.76,36.565l-1.12,3.757h-3.68L38.8,22.658h3.758l5.946,17.663H44.834l-1.149-3.757Zm.861-2.87h4.228l-2.19-6.889Z" transform="translate(1.31 0.9)" fill="#fff"/>
      <path id="Path_48337" data-name="Path 48337" d="M61.582,27.468H57.823v-.079c0-1.2-.81-1.852-2.35-1.852-1.511,0-2.531.731-2.531,1.827,0,1.018.784,1.643,2.872,2.348l1.227.417c3.341,1.122,4.721,2.558,4.721,4.959,0,3.21-2.686,5.5-6.469,5.5-2.847,0-4.539-.73-5.665-2.425a5.1,5.1,0,0,1-.965-3.418H52.4l-.03.208c0,1.591,1.071,2.531,2.9,2.531,1.7,0,2.738-.73,2.738-1.9,0-1.018-.547-1.488-2.712-2.27l-1.384-.521c-3.417-1.279-4.616-2.584-4.616-5.063,0-3.184,2.53-5.322,6.314-5.322,3.757,0,5.919,1.853,5.974,5.061" transform="translate(1.934 0.89)" fill="#fff"/>
      <path id="Path_48338" data-name="Path 48338" d="M70.393,26.04V40.311H66.9V26.04h-4.54V22.909H74.83V26.04Z" transform="translate(2.479 0.91)" fill="#fff"/>
      <path id="Path_48339" data-name="Path 48339" d="M39.1,49.136h1.324v4.88H39.215v-.648a4.512,4.512,0,0,1-2.688.758,5.222,5.222,0,0,1-2.433-.579A4.423,4.423,0,0,1,32.3,51.858a5.369,5.369,0,0,1,0-5.189A4.726,4.726,0,0,1,34.149,44.9a5.462,5.462,0,0,1,2.653-.64,5.6,5.6,0,0,1,2.1.378,4.285,4.285,0,0,1,1.605,1.11l-.855.855a3.883,3.883,0,0,0-2.8-1.117,4.037,4.037,0,0,0-1.979.482A3.525,3.525,0,0,0,33.508,47.3a4.084,4.084,0,0,0,.007,3.915,3.344,3.344,0,0,0,1.33,1.275,3.793,3.793,0,0,0,1.793.435,3.9,3.9,0,0,0,1.316-.228A3.567,3.567,0,0,0,39.1,52.03Z" transform="translate(1.257 1.759)" fill="#fff"/>
      <path id="Path_48340" data-name="Path 48340" d="M42.686,53.53a2.243,2.243,0,0,1-.579-1.647V43.805h1.324v7.968a1.321,1.321,0,0,0,.283.91,1.076,1.076,0,0,0,.847.317,1.552,1.552,0,0,0,.648-.138l.069,1.089a2.756,2.756,0,0,1-.95.165,2.2,2.2,0,0,1-1.641-.585" transform="translate(1.674 1.741)" fill="#fff"/>
      <path id="Path_48341" data-name="Path 48341" d="M47.1,53.524a3.5,3.5,0,0,1-1.357-1.33,4.02,4.02,0,0,1,0-3.846A3.447,3.447,0,0,1,47.1,47.024a4.009,4.009,0,0,1,1.958-.475A3.967,3.967,0,0,1,51,47.024a3.465,3.465,0,0,1,1.351,1.324,4.02,4.02,0,0,1,0,3.846A3.516,3.516,0,0,1,51,53.524a3.915,3.915,0,0,1-1.951.482,3.957,3.957,0,0,1-1.958-.482m3.219-1a2.284,2.284,0,0,0,.875-.91,3.006,3.006,0,0,0,0-2.688,2.242,2.242,0,0,0-.875-.9,2.674,2.674,0,0,0-2.522,0,2.293,2.293,0,0,0-.883.9,2.954,2.954,0,0,0,0,2.688,2.337,2.337,0,0,0,.883.91,2.614,2.614,0,0,0,2.522,0" transform="translate(1.799 1.85)" fill="#fff"/>
      <path id="Path_48342" data-name="Path 48342" d="M59.761,47.127a3.364,3.364,0,0,1,1.317,1.309,4.226,4.226,0,0,1,0,3.894,3.349,3.349,0,0,1-1.317,1.316,3.834,3.834,0,0,1-1.9.469A3.448,3.448,0,0,1,56.37,53.8a2.864,2.864,0,0,1-1.117-.923v1.158H53.985V43.8h1.324V47.83a2.807,2.807,0,0,1,1.1-.875,3.5,3.5,0,0,1,1.447-.3,3.834,3.834,0,0,1,1.9.469m-.751,5.507a2.327,2.327,0,0,0,.882-.91,2.946,2.946,0,0,0,0-2.688,2.283,2.283,0,0,0-.882-.9,2.662,2.662,0,0,0-2.516,0,2.23,2.23,0,0,0-.882.9,3.006,3.006,0,0,0,0,2.688,2.272,2.272,0,0,0,.882.91,2.6,2.6,0,0,0,2.516,0" transform="translate(2.146 1.741)" fill="#fff"/>
      <path id="Path_48343" data-name="Path 48343" d="M69.614,46.618v7.306H68.346V52.766a2.864,2.864,0,0,1-1.117.923,3.448,3.448,0,0,1-1.489.317,3.834,3.834,0,0,1-1.9-.469,3.353,3.353,0,0,1-1.316-1.316,4.218,4.218,0,0,1,0-3.894,3.369,3.369,0,0,1,1.316-1.309,3.834,3.834,0,0,1,1.9-.469,3.5,3.5,0,0,1,1.447.3,2.8,2.8,0,0,1,1.1.875v-1.1Zm-2.509,5.907a2.281,2.281,0,0,0,.883-.91,3.015,3.015,0,0,0,0-2.688,2.239,2.239,0,0,0-.883-.9,2.662,2.662,0,0,0-2.516,0,2.29,2.29,0,0,0-.882.9,2.946,2.946,0,0,0,0,2.688,2.334,2.334,0,0,0,.882.91,2.6,2.6,0,0,0,2.516,0" transform="translate(2.466 1.85)" fill="#fff"/>
      <path id="Path_48344" data-name="Path 48344" d="M71.985,53.53a2.243,2.243,0,0,1-.579-1.647V43.805H72.73v7.968a1.321,1.321,0,0,0,.283.91A1.076,1.076,0,0,0,73.86,53a1.552,1.552,0,0,0,.648-.138l.069,1.089a2.758,2.758,0,0,1-.951.165,2.2,2.2,0,0,1-1.64-.585" transform="translate(2.838 1.741)" fill="#fff"/>
      <path id="Path_48345" data-name="Path 48345" d="M86.567,49.855a2.432,2.432,0,0,1,.482,1.55,2.228,2.228,0,0,1-.944,1.93,4.693,4.693,0,0,1-2.75.676h-4.6V44.362h4.328a4.27,4.27,0,0,1,2.557.661,2.145,2.145,0,0,1,.9,1.833,2.379,2.379,0,0,1-.351,1.31,2.287,2.287,0,0,1-.944.841,2.475,2.475,0,0,1,1.324.847M80.13,45.479v3.087h2.825a2.874,2.874,0,0,0,1.633-.392,1.444,1.444,0,0,0,0-2.3,2.866,2.866,0,0,0-1.633-.392Zm4.935,7.03a1.342,1.342,0,0,0,.593-1.213q0-1.613-2.357-1.613H80.13v3.212H83.3a3.26,3.26,0,0,0,1.764-.386" transform="translate(3.13 1.763)" fill="#fff"/>
      <path id="Path_48346" data-name="Path 48346" d="M95.187,46.618v7.306H93.919V52.766a2.856,2.856,0,0,1-1.117.923,3.448,3.448,0,0,1-1.489.317,3.834,3.834,0,0,1-1.9-.469A3.353,3.353,0,0,1,88.1,52.221a4.218,4.218,0,0,1,0-3.894,3.369,3.369,0,0,1,1.316-1.309,3.834,3.834,0,0,1,1.9-.469,3.5,3.5,0,0,1,1.447.3,2.8,2.8,0,0,1,1.1.875v-1.1Zm-2.509,5.907a2.281,2.281,0,0,0,.883-.91,3.015,3.015,0,0,0,0-2.688,2.239,2.239,0,0,0-.883-.9,2.662,2.662,0,0,0-2.516,0,2.29,2.29,0,0,0-.882.9,2.946,2.946,0,0,0,0,2.688,2.334,2.334,0,0,0,.882.91,2.6,2.6,0,0,0,2.516,0" transform="translate(3.483 1.85)" fill="#fff"/>
      <path id="Path_48347" data-name="Path 48347" d="M102.563,47.356a3.172,3.172,0,0,1,.82,2.364v4.2h-1.324V49.872a2.241,2.241,0,0,0-.509-1.6,1.918,1.918,0,0,0-1.462-.538,2.275,2.275,0,0,0-1.695.627,2.449,2.449,0,0,0-.621,1.8v3.763H96.449V46.619h1.268v1.1a2.575,2.575,0,0,1,1.082-.868,3.784,3.784,0,0,1,1.55-.3,3.019,3.019,0,0,1,2.213.807" transform="translate(3.834 1.85)" fill="#fff"/>
      <path id="Path_48348" data-name="Path 48348" d="M107.456,50.628l-1.516,1.406v2h-1.324V43.8h1.324v6.562l3.983-3.639h1.6l-3.074,3.019,3.377,4.287H110.2Z" transform="translate(4.158 1.741)" fill="#fff"/>
      <path id="Path_48349" data-name="Path 48349" d="M45.1,20.994a.74.74,0,0,1-1.416.424.474.474,0,0,1-.019-.062.734.734,0,0,1,.473-.879.742.742,0,0,1,.943.454q.011.031.019.062" transform="translate(1.735 0.812)" fill="#fff"/>
      <path id="Path_48350" data-name="Path 48350" d="M43.784,17.942a.74.74,0,0,1-1.322.663.607.607,0,0,1-.029-.058.733.733,0,0,1,.314-.947.743.743,0,0,1,1.008.284c.01.019.02.038.029.058" transform="translate(1.684 0.695)" fill="#fff"/>
      <path id="Path_48351" data-name="Path 48351" d="M41.96,15.162a.739.739,0,0,1-.686,1.15.733.733,0,0,1-.5-.267c-.015-.018-.027-.035-.04-.053a.733.733,0,0,1,.145-.987.741.741,0,0,1,1.041.105.623.623,0,0,1,.04.052" transform="translate(1.614 0.589)" fill="#fff"/>
      <path id="Path_48352" data-name="Path 48352" d="M39.68,12.742a.739.739,0,0,1-.476,1.252.735.735,0,0,1-.538-.178c-.017-.015-.033-.029-.048-.045a.733.733,0,0,1-.03-1,.742.742,0,0,1,1.044-.077c.017.015.032.029.048.045" transform="translate(1.527 0.497)" fill="#fff"/>
      <path id="Path_48353" data-name="Path 48353" d="M37.013,10.752a.739.739,0,0,1-.812,1.234l-.055-.036a.733.733,0,0,1-.2-.976.742.742,0,0,1,1.015-.258l.055.036" transform="translate(1.424 0.422)" fill="#e6e7e8"/>
      <path id="Path_48354" data-name="Path 48354" d="M34.041,9.256a.742.742,0,0,1,.369.926.729.729,0,0,1-.388.412.739.739,0,0,1-.567.018c-.02-.008-.041-.017-.059-.026a.733.733,0,0,1-.37-.926.743.743,0,0,1,.954-.429l.06.026" transform="translate(1.311 0.365)" fill="#e6e7e8"/>
      <path id="Path_48355" data-name="Path 48355" d="M30.853,8.3a.743.743,0,0,1,.525.848.729.729,0,0,1-.311.473.736.736,0,0,1-.554.115.566.566,0,0,1-.063-.016.732.732,0,0,1-.525-.848.74.74,0,0,1,.864-.587.645.645,0,0,1,.064.015" transform="translate(1.189 0.328)" fill="#e6e7e8"/>
      <path id="Path_48356" data-name="Path 48356" d="M27.547,7.905a.743.743,0,0,1,.664.744.738.738,0,0,1-.75.729q-.033,0-.066,0A.739.739,0,0,1,27.482,7.9q.033,0,.066,0" transform="translate(1.063 0.314)" fill="#e6e7e8"/>
      <path id="Path_48357" data-name="Path 48357" d="M24.224,8.092a.742.742,0,0,1,.783.618.727.727,0,0,1-.129.551.738.738,0,0,1-.481.3c-.022,0-.044.006-.066.007A.739.739,0,0,1,24.159,8.1l.066-.007" transform="translate(0.936 0.321)" fill="#bcbec0"/>
      <path id="Path_48358" data-name="Path 48358" d="M20.983,8.853a.744.744,0,0,1,.88.473.739.739,0,0,1-.454.941.637.637,0,0,1-.063.019.739.739,0,0,1-.425-1.414c.021-.007.043-.014.063-.019" transform="translate(0.812 0.351)" fill="#bcbec0"/>
      <path id="Path_48359" data-name="Path 48359" d="M17.924,10.163a.745.745,0,0,1,.948.313.736.736,0,0,1-.284,1.005.617.617,0,0,1-.058.03.739.739,0,0,1-.664-1.318.617.617,0,0,1,.058-.03" transform="translate(0.695 0.401)" fill="#bcbec0"/>
      <path id="Path_48360" data-name="Path 48360" d="M15.139,11.984a.745.745,0,0,1,.989.145.737.737,0,0,1-.105,1.039.622.622,0,0,1-.052.04.74.74,0,0,1-.885-1.183l.053-.04" transform="translate(0.589 0.471)" fill="#bcbec0"/>
      <path id="Path_48361" data-name="Path 48361" d="M12.714,14.26a.746.746,0,0,1,1-.029.737.737,0,0,1,.077,1.042.639.639,0,0,1-.045.047.739.739,0,0,1-1.076-1.012c.015-.017.029-.032.045-.048" transform="translate(0.496 0.558)" fill="#939598"/>
      <path id="Path_48362" data-name="Path 48362" d="M10.72,16.922a.745.745,0,0,1,.978-.2.737.737,0,0,1,.258,1.012.505.505,0,0,1-.036.055.74.74,0,0,1-1.236-.81c.011-.019.024-.037.036-.055" transform="translate(0.421 0.66)" fill="#939598"/>
      <path id="Path_48363" data-name="Path 48363" d="M9.221,19.888a.746.746,0,0,1,.928-.369.739.739,0,0,1,.43.952c-.008.021-.017.042-.026.06a.74.74,0,0,1-1.359-.583c.008-.021.017-.041.026-.06" transform="translate(0.364 0.774)" fill="#939598"/>
      <path id="Path_48364" data-name="Path 48364" d="M8.26,23.07a.745.745,0,0,1,.851-.524.734.734,0,0,1,.473.31.725.725,0,0,1,.115.553.645.645,0,0,1-.015.064.74.74,0,0,1-1.439-.34c0-.021.008-.043.015-.063" transform="translate(0.327 0.895)" fill="#939598"/>
      <path id="Path_48365" data-name="Path 48365" d="M7.868,26.368a.744.744,0,0,1,.747-.663.738.738,0,0,1,.73.749.438.438,0,0,1,0,.064.74.74,0,0,1-1.475-.084q0-.033,0-.066" transform="translate(0.313 1.021)" fill="#939598"/>
      <path id="Path_48366" data-name="Path 48366" d="M8.055,29.685a.74.74,0,0,1,1.469-.173c0,.022.006.044.007.066a.74.74,0,0,1-1.468.173c0-.022-.006-.044-.008-.066" transform="translate(0.32 1.148)" fill="#808285"/>
      <path id="Path_48367" data-name="Path 48367" d="M8.817,32.92a.74.74,0,0,1,1.417-.424c.006.021.014.042.019.062a.74.74,0,0,1-1.417.424.618.618,0,0,1-.019-.062" transform="translate(0.35 1.272)" fill="#808285"/>
      <path id="Path_48368" data-name="Path 48368" d="M10.13,35.974a.74.74,0,0,1,1.322-.663.608.608,0,0,1,.029.058.733.733,0,0,1-.314.947.741.741,0,0,1-1.006-.284.617.617,0,0,1-.03-.058" transform="translate(0.4 1.388)" fill="#808285"/>
      <path id="Path_48369" data-name="Path 48369" d="M11.955,38.753a.739.739,0,0,1,.686-1.15.733.733,0,0,1,.5.267c.015.018.027.035.04.053a.733.733,0,0,1-.145.987.741.741,0,0,1-1.041-.1l-.04-.053" transform="translate(0.47 1.494)" fill="#808285"/>
      <path id="Path_48370" data-name="Path 48370" d="M14.235,41.174a.742.742,0,0,1-.029-1,.731.731,0,0,1,.505-.255.742.742,0,0,1,.539.177c.016.015.032.03.047.046a.732.732,0,0,1,.03,1,.742.742,0,0,1-1.044.077c-.017-.015-.032-.029-.048-.045" transform="translate(0.558 1.586)" fill="#808285"/>
      <path id="Path_48371" data-name="Path 48371" d="M16.9,43.162a.739.739,0,0,1,.812-1.234c.019.011.037.024.054.036a.732.732,0,0,1,.2.976.741.741,0,0,1-1.015.257.618.618,0,0,1-.055-.035" transform="translate(0.66 1.662)" fill="#808285"/>
      <path id="Path_48372" data-name="Path 48372" d="M19.874,44.66a.742.742,0,0,1-.369-.926.741.741,0,0,1,.954-.429.6.6,0,0,1,.059.026.733.733,0,0,1,.37.926.743.743,0,0,1-.954.429l-.06-.026" transform="translate(0.773 1.719)" fill="#808285"/>
      <path id="Path_48373" data-name="Path 48373" d="M23.062,45.617a.742.742,0,0,1-.525-.848.741.741,0,0,1,.865-.588.628.628,0,0,1,.063.016.738.738,0,0,1-.339,1.436.644.644,0,0,1-.064-.015" transform="translate(0.895 1.755)" fill="#808285"/>
      <path id="Path_48374" data-name="Path 48374" d="M26.367,46.009a.742.742,0,0,1-.664-.744.738.738,0,0,1,.75-.729q.033,0,.066,0a.739.739,0,0,1-.085,1.474l-.066,0" transform="translate(1.022 1.77)" fill="#808285"/>
      <path id="Path_48375" data-name="Path 48375" d="M45.1,20.983a.744.744,0,0,1-.473.88.74.74,0,0,1-.943-.454.444.444,0,0,1-.019-.063.74.74,0,0,1,1.416-.424q.011.031.019.062" transform="translate(1.735 0.811)" fill="#fff"/>
      <path id="Path_48376" data-name="Path 48376" d="M43.784,17.924a.74.74,0,0,1-1.322.664.607.607,0,0,1-.029-.058.74.74,0,0,1,1.322-.664c.01.019.02.038.029.058" transform="translate(1.684 0.695)" fill="#fff"/>
      <path id="Path_48377" data-name="Path 48377" d="M41.96,15.139a.743.743,0,0,1-.145.989.739.739,0,0,1-1.041-.105.623.623,0,0,1-.04-.052.74.74,0,0,1,1.185-.885c.015.018.027.035.04.053" transform="translate(1.614 0.589)" fill="#fff"/>
      <path id="Path_48378" data-name="Path 48378" d="M39.68,12.714a.746.746,0,0,1,.03,1,.74.74,0,0,1-1.044.077c-.017-.015-.033-.029-.048-.045a.74.74,0,0,1,1.014-1.076c.017.015.032.029.048.045" transform="translate(1.527 0.496)" fill="#fff"/>
      <path id="Path_48379" data-name="Path 48379" d="M37.013,10.72a.744.744,0,0,1,.2.978.741.741,0,0,1-1.015.258.63.63,0,0,1-.055-.036.74.74,0,0,1,.812-1.236l.055.036" transform="translate(1.424 0.42)" fill="#e6e7e8"/>
      <path id="Path_48380" data-name="Path 48380" d="M34.041,9.221a.744.744,0,0,1,.369.928.731.731,0,0,1-.388.413.738.738,0,0,1-.567.018c-.02-.008-.041-.017-.059-.026a.74.74,0,0,1,.584-1.359l.06.026" transform="translate(1.311 0.363)" fill="#e6e7e8"/>
      <path id="Path_48381" data-name="Path 48381" d="M30.853,8.26a.744.744,0,0,1,.525.851.741.741,0,0,1-.865.588.566.566,0,0,1-.063-.015.74.74,0,0,1,.339-1.439.645.645,0,0,1,.064.015" transform="translate(1.189 0.327)" fill="#e6e7e8"/>
      <path id="Path_48382" data-name="Path 48382" d="M27.547,7.868a.745.745,0,0,1,.664.747.74.74,0,0,1-.75.73.462.462,0,0,1-.066,0,.74.74,0,0,1,.085-1.475q.033,0,.066,0" transform="translate(1.063 0.312)" fill="#e6e7e8"/>
      <path id="Path_48383" data-name="Path 48383" d="M24.224,8.055a.743.743,0,0,1,.783.62.728.728,0,0,1-.129.551.739.739,0,0,1-.481.3c-.022,0-.044.006-.066.007a.74.74,0,0,1-.173-1.468c.022,0,.044-.006.066-.008" transform="translate(0.936 0.32)" fill="#bcbec0"/>
      <path id="Path_48384" data-name="Path 48384" d="M20.983,8.818a.743.743,0,0,1,.88.474.739.739,0,0,1-.454.942.641.641,0,0,1-.063.02.741.741,0,0,1-.425-1.417c.021-.007.043-.014.063-.019" transform="translate(0.812 0.349)" fill="#bcbec0"/>
      <path id="Path_48385" data-name="Path 48385" d="M17.924,10.13a.74.74,0,0,1,.664,1.322.608.608,0,0,1-.058.029.74.74,0,0,1-.664-1.32.618.618,0,0,1,.058-.03" transform="translate(0.695 0.4)" fill="#bcbec0"/>
      <path id="Path_48386" data-name="Path 48386" d="M15.139,11.955a.743.743,0,0,1,.989.145.739.739,0,0,1-.105,1.041.622.622,0,0,1-.052.04.74.74,0,0,1-.885-1.185l.053-.04" transform="translate(0.589 0.47)" fill="#bcbec0"/>
      <path id="Path_48387" data-name="Path 48387" d="M12.714,14.235a.745.745,0,0,1,1-.029.74.74,0,0,1,.077,1.044.638.638,0,0,1-.045.047.74.74,0,0,1-1.076-1.014c.015-.017.029-.032.045-.048" transform="translate(0.496 0.557)" fill="#939598"/>
      <path id="Path_48388" data-name="Path 48388" d="M10.72,16.9a.745.745,0,0,1,.978-.2.741.741,0,0,1,.258,1.015.63.63,0,0,1-.036.055.74.74,0,0,1-1.236-.812c.011-.019.024-.037.036-.055" transform="translate(0.421 0.659)" fill="#939598"/>
      <path id="Path_48389" data-name="Path 48389" d="M9.221,19.874a.744.744,0,0,1,.928-.369.731.731,0,0,1,.413.388.738.738,0,0,1,.018.567c-.008.02-.017.041-.026.059a.74.74,0,0,1-1.359-.584c.008-.021.017-.041.026-.06" transform="translate(0.364 0.773)" fill="#939598"/>
      <path id="Path_48390" data-name="Path 48390" d="M8.26,23.062a.745.745,0,0,1,.851-.525A.741.741,0,0,1,9.7,23.4c0,.022-.008.043-.015.064a.74.74,0,0,1-1.439-.34.645.645,0,0,1,.015-.064" transform="translate(0.327 0.895)" fill="#939598"/>
      <path id="Path_48391" data-name="Path 48391" d="M7.868,26.367a.745.745,0,0,1,.747-.664.74.74,0,0,1,.73.75.462.462,0,0,1,0,.066.74.74,0,0,1-1.475-.085q0-.033,0-.066" transform="translate(0.313 1.021)" fill="#939598"/>
      <path id="Path_48392" data-name="Path 48392" d="M8.055,29.691a.744.744,0,0,1,.62-.784.729.729,0,0,1,.551.13.737.737,0,0,1,.3.481c0,.022.006.044.007.066a.74.74,0,0,1-1.468.173c0-.022-.006-.044-.008-.066" transform="translate(0.32 1.148)" fill="#808285"/>
      <path id="Path_48393" data-name="Path 48393" d="M8.817,32.932a.743.743,0,0,1,.474-.88.741.741,0,0,1,.943.454c.006.021.014.042.019.063A.741.741,0,0,1,8.836,33c-.007-.021-.014-.043-.019-.063" transform="translate(0.35 1.272)" fill="#808285"/>
      <path id="Path_48394" data-name="Path 48394" d="M10.13,35.991a.744.744,0,0,1,.314-.948.741.741,0,0,1,1.008.284.608.608,0,0,1,.029.058.74.74,0,0,1-1.32.664.618.618,0,0,1-.03-.058" transform="translate(0.4 1.389)" fill="#808285"/>
      <path id="Path_48395" data-name="Path 48395" d="M11.955,38.776a.743.743,0,0,1,.145-.989.739.739,0,0,1,1.041.105.622.622,0,0,1,.04.052.74.74,0,0,1-1.185.885l-.04-.053" transform="translate(0.47 1.495)" fill="#808285"/>
      <path id="Path_48396" data-name="Path 48396" d="M14.235,41.2a.745.745,0,0,1-.029-1,.731.731,0,0,1,.505-.255.738.738,0,0,1,.539.177c.016.015.032.03.047.046a.74.74,0,0,1-1.014,1.076c-.017-.015-.032-.029-.048-.045" transform="translate(0.558 1.587)" fill="#808285"/>
      <path id="Path_48397" data-name="Path 48397" d="M16.9,43.194a.744.744,0,0,1-.2-.978.741.741,0,0,1,1.015-.258.492.492,0,0,1,.054.036.739.739,0,0,1-.811,1.235.618.618,0,0,1-.055-.035" transform="translate(0.66 1.663)" fill="#808285"/>
      <path id="Path_48398" data-name="Path 48398" d="M19.874,44.694a.744.744,0,0,1-.369-.928.731.731,0,0,1,.388-.413.738.738,0,0,1,.567-.018c.02.008.041.017.059.026a.74.74,0,0,1-.584,1.359l-.06-.026" transform="translate(0.773 1.72)" fill="#808285"/>
      <path id="Path_48399" data-name="Path 48399" d="M23.062,45.655a.744.744,0,0,1-.525-.851.741.741,0,0,1,.865-.588.623.623,0,0,1,.063.015.74.74,0,0,1-.339,1.439.644.644,0,0,1-.064-.015" transform="translate(0.895 1.757)" fill="#808285"/>
      <path id="Path_48400" data-name="Path 48400" d="M26.367,46.046A.743.743,0,0,1,25.7,45.3a.74.74,0,0,1,.75-.73.461.461,0,0,1,.066,0,.734.734,0,0,1,.664.745.742.742,0,0,1-.75.731l-.066,0" transform="translate(1.022 1.771)" fill="#808285"/>
      <path id="Path_48401" data-name="Path 48401" d="M47.369,20.24a.838.838,0,0,1-.532.99.835.835,0,0,1-1.062-.512c-.008-.023-.015-.047-.021-.071a.832.832,0,0,1,1.593-.478c.008.024.016.047.022.071" transform="translate(1.818 0.779)" fill="#fff"/>
      <path id="Path_48402" data-name="Path 48402" d="M45.891,16.8a.836.836,0,0,1-.354,1.067.831.831,0,0,1-1.133-.319c-.011-.022-.023-.044-.032-.066a.832.832,0,0,1,1.486-.748c.012.021.023.044.033.066" transform="translate(1.761 0.648)" fill="#fff"/>
      <path id="Path_48403" data-name="Path 48403" d="M43.839,13.665a.833.833,0,0,1-1.334,1q-.023-.03-.044-.059a.833.833,0,0,1,1.333-1,.736.736,0,0,1,.045.059" transform="translate(1.682 0.528)" fill="#fff"/>
      <path id="Path_48404" data-name="Path 48404" d="M41.274,10.937a.837.837,0,0,1,.033,1.124.832.832,0,0,1-1.174.087c-.019-.017-.037-.033-.054-.051a.833.833,0,0,1,1.141-1.211c.019.017.037.033.054.051" transform="translate(1.584 0.424)" fill="#fff"/>
      <path id="Path_48405" data-name="Path 48405" d="M38.274,8.7A.836.836,0,0,1,38.5,9.8a.832.832,0,0,1-1.141.29l-.062-.041a.833.833,0,0,1,.914-1.391c.021.012.042.026.061.041" transform="translate(1.469 0.339)" fill="#e6e7e8"/>
      <path id="Path_48406" data-name="Path 48406" d="M34.93,7.007a.838.838,0,0,1,.416,1.045.834.834,0,0,1-1.074.483L34.2,8.506a.833.833,0,0,1,.658-1.528c.023.008.046.019.068.029" transform="translate(1.341 0.275)" fill="#e6e7e8"/>
      <path id="Path_48407" data-name="Path 48407" d="M31.344,5.927a.832.832,0,0,1,.241,1.49.828.828,0,0,1-.624.129.553.553,0,0,1-.072-.017.833.833,0,0,1,.383-1.619c.024,0,.048.01.072.017" transform="translate(1.204 0.234)" fill="#e6e7e8"/>
      <path id="Path_48408" data-name="Path 48408" d="M27.625,5.485a.837.837,0,0,1,.748.839.834.834,0,0,1-.843.822l-.074,0a.833.833,0,0,1,.1-1.662c.025,0,.05,0,.074,0" transform="translate(1.062 0.218)" fill="#e6e7e8"/>
      <path id="Path_48409" data-name="Path 48409" d="M23.886,5.7a.836.836,0,0,1,.882.7.831.831,0,0,1-.687.956c-.025,0-.049.007-.074.009A.833.833,0,0,1,23.812,5.7l.074-.008" transform="translate(0.919 0.226)" fill="#bcbec0"/>
      <path id="Path_48410" data-name="Path 48410" d="M20.24,6.553a.837.837,0,0,1,.99.533.833.833,0,0,1-.512,1.061.605.605,0,0,1-.071.021.832.832,0,0,1-.478-1.593c.023-.008.047-.016.071-.022" transform="translate(0.779 0.259)" fill="#bcbec0"/>
      <path id="Path_48411" data-name="Path 48411" d="M16.8,8.031a.836.836,0,0,1,1.067.354.831.831,0,0,1-.319,1.133c-.022.011-.044.023-.066.032a.832.832,0,0,1-.748-1.486l.066-.033" transform="translate(0.648 0.316)" fill="#bcbec0"/>
      <path id="Path_48412" data-name="Path 48412" d="M13.665,10.082a.833.833,0,0,1,1,1.334q-.03.023-.059.044a.833.833,0,0,1-1-1.333c.02-.016.04-.031.059-.045" transform="translate(0.529 0.395)" fill="#bcbec0"/>
      <path id="Path_48413" data-name="Path 48413" d="M10.937,12.648a.837.837,0,0,1,1.124-.033.832.832,0,0,1,.087,1.174c-.017.019-.033.037-.051.054A.833.833,0,0,1,10.886,12.7c.017-.019.033-.037.051-.054" transform="translate(0.425 0.493)" fill="#939598"/>
      <path id="Path_48414" data-name="Path 48414" d="M8.694,15.648a.836.836,0,0,1,1.1-.228.832.832,0,0,1,.29,1.141q-.02.033-.041.062a.833.833,0,0,1-1.391-.913.642.642,0,0,1,.041-.062" transform="translate(0.339 0.608)" fill="#939598"/>
      <path id="Path_48415" data-name="Path 48415" d="M7.007,18.992a.838.838,0,0,1,1.045-.416.834.834,0,0,1,.483,1.074c-.009.023-.019.046-.029.068a.833.833,0,0,1-1.528-.658c.009-.023.019-.046.029-.068" transform="translate(0.275 0.736)" fill="#939598"/>
      <path id="Path_48416" data-name="Path 48416" d="M5.927,22.578a.833.833,0,0,1,1.49-.241.827.827,0,0,1,.129.624.553.553,0,0,1-.017.072.833.833,0,0,1-1.619-.383c0-.024.01-.048.017-.072" transform="translate(0.234 0.873)" fill="#939598"/>
      <path id="Path_48417" data-name="Path 48417" d="M5.485,26.3a.837.837,0,0,1,.839-.748.834.834,0,0,1,.822.843c0,.025,0,.049-.005.074a.832.832,0,0,1-1.66-.1c0-.025,0-.05,0-.074" transform="translate(0.218 1.015)" fill="#939598"/>
      <path id="Path_48418" data-name="Path 48418" d="M5.7,30.036a.836.836,0,0,1,.7-.882.831.831,0,0,1,.956.687c0,.025.007.049.009.074a.833.833,0,0,1-1.652.194c0-.025-.007-.05-.009-.074" transform="translate(0.226 1.158)" fill="#808285"/>
      <path id="Path_48419" data-name="Path 48419" d="M6.553,33.683a.838.838,0,0,1,.533-.99.833.833,0,0,1,1.061.512.552.552,0,0,1,.021.071.832.832,0,0,1-1.593.478c-.008-.023-.016-.047-.022-.071" transform="translate(0.259 1.297)" fill="#808285"/>
      <path id="Path_48420" data-name="Path 48420" d="M8.031,37.124a.835.835,0,0,1,.354-1.067.831.831,0,0,1,1.133.319c.011.022.023.044.032.066a.832.832,0,0,1-1.486.748c-.011-.021-.023-.044-.033-.066" transform="translate(0.316 1.429)" fill="#808285"/>
      <path id="Path_48421" data-name="Path 48421" d="M10.083,40.257a.833.833,0,0,1,1.334-1q.023.03.044.059a.833.833,0,0,1-1.333,1,.591.591,0,0,1-.045-.059" transform="translate(0.395 1.548)" fill="#808285"/>
      <path id="Path_48422" data-name="Path 48422" d="M12.648,42.986a.837.837,0,0,1-.033-1.124.832.832,0,0,1,1.174-.087c.019.017.037.033.054.051A.833.833,0,0,1,12.7,43.037c-.019-.017-.037-.033-.054-.051" transform="translate(0.493 1.652)" fill="#808285"/>
      <path id="Path_48423" data-name="Path 48423" d="M15.648,45.228a.836.836,0,0,1-.228-1.1.832.832,0,0,1,1.141-.29l.062.041a.833.833,0,0,1-.913,1.391.643.643,0,0,1-.062-.041" transform="translate(0.608 1.737)" fill="#808285"/>
      <path id="Path_48424" data-name="Path 48424" d="M18.992,46.915a.838.838,0,0,1-.416-1.045.834.834,0,0,1,1.074-.483c.023.008.046.019.068.029a.833.833,0,0,1-.658,1.528l-.068-.029" transform="translate(0.736 1.802)" fill="#808285"/>
      <path id="Path_48425" data-name="Path 48425" d="M22.578,48a.837.837,0,0,1-.591-.957.833.833,0,0,1,.973-.662c.024,0,.048.01.072.017a.833.833,0,0,1-.383,1.619c-.024,0-.048-.01-.072-.017" transform="translate(0.873 1.842)" fill="#808285"/>
      <path id="Path_48426" data-name="Path 48426" d="M26.3,48.437a.837.837,0,0,1-.748-.839.836.836,0,0,1,.843-.822c.025,0,.049,0,.074.005a.832.832,0,0,1-.1,1.66c-.024,0-.049,0-.074,0" transform="translate(1.016 1.859)" fill="#808285"/>
      <path id="Path_48427" data-name="Path 48427" d="M47.369,20.24a.838.838,0,0,1-.532.99.835.835,0,0,1-1.062-.512c-.008-.023-.015-.047-.021-.071a.832.832,0,0,1,1.593-.478c.008.024.016.047.022.071" transform="translate(1.818 0.779)" fill="#fff"/>
      <path id="Path_48428" data-name="Path 48428" d="M45.891,16.8a.836.836,0,0,1-.354,1.067.831.831,0,0,1-1.133-.319c-.011-.022-.023-.044-.032-.066a.832.832,0,0,1,1.486-.748c.012.021.023.044.033.066" transform="translate(1.761 0.648)" fill="#fff"/>
      <path id="Path_48429" data-name="Path 48429" d="M43.839,13.665a.833.833,0,0,1-1.334,1q-.023-.03-.044-.059a.833.833,0,0,1,1.333-1,.736.736,0,0,1,.045.059" transform="translate(1.682 0.528)" fill="#fff"/>
      <path id="Path_48430" data-name="Path 48430" d="M41.274,10.937a.837.837,0,0,1,.033,1.124.832.832,0,0,1-1.174.087c-.019-.017-.037-.033-.054-.051a.833.833,0,0,1,1.141-1.211c.019.017.037.033.054.051" transform="translate(1.584 0.424)" fill="#fff"/>
      <path id="Path_48431" data-name="Path 48431" d="M38.274,8.7A.836.836,0,0,1,38.5,9.8a.832.832,0,0,1-1.141.29l-.062-.041a.833.833,0,0,1,.914-1.391c.021.012.042.026.061.041" transform="translate(1.469 0.339)" fill="#e6e7e8"/>
      <path id="Path_48432" data-name="Path 48432" d="M34.93,7.007a.838.838,0,0,1,.416,1.045.834.834,0,0,1-1.074.483L34.2,8.506a.833.833,0,0,1,.658-1.528c.023.008.046.019.068.029" transform="translate(1.341 0.275)" fill="#e6e7e8"/>
      <path id="Path_48433" data-name="Path 48433" d="M31.344,5.927a.832.832,0,0,1,.241,1.49.828.828,0,0,1-.624.129.553.553,0,0,1-.072-.017.833.833,0,0,1,.383-1.619c.024,0,.048.01.072.017" transform="translate(1.204 0.234)" fill="#e6e7e8"/>
      <path id="Path_48434" data-name="Path 48434" d="M27.625,5.485a.837.837,0,0,1,.748.839.834.834,0,0,1-.843.822l-.074,0a.833.833,0,0,1,.1-1.662c.025,0,.05,0,.074,0" transform="translate(1.062 0.218)" fill="#e6e7e8"/>
      <path id="Path_48435" data-name="Path 48435" d="M23.886,5.7a.836.836,0,0,1,.882.7.831.831,0,0,1-.687.956c-.025,0-.049.007-.074.009A.833.833,0,0,1,23.812,5.7l.074-.008" transform="translate(0.919 0.226)" fill="#bcbec0"/>
      <path id="Path_48436" data-name="Path 48436" d="M20.24,6.553a.837.837,0,0,1,.99.533.833.833,0,0,1-.512,1.061.605.605,0,0,1-.071.021.832.832,0,0,1-.478-1.593c.023-.008.047-.016.071-.022" transform="translate(0.779 0.259)" fill="#bcbec0"/>
      <path id="Path_48437" data-name="Path 48437" d="M16.8,8.031a.836.836,0,0,1,1.067.354.831.831,0,0,1-.319,1.133c-.022.011-.044.023-.066.032a.832.832,0,0,1-.748-1.486l.066-.033" transform="translate(0.648 0.316)" fill="#bcbec0"/>
      <path id="Path_48438" data-name="Path 48438" d="M13.665,10.082a.833.833,0,0,1,1,1.334q-.03.023-.059.044a.833.833,0,0,1-1-1.333c.02-.016.04-.031.059-.045" transform="translate(0.529 0.395)" fill="#bcbec0"/>
      <path id="Path_48439" data-name="Path 48439" d="M10.937,12.648a.837.837,0,0,1,1.124-.033.832.832,0,0,1,.087,1.174c-.017.019-.033.037-.051.054A.833.833,0,0,1,10.886,12.7c.017-.019.033-.037.051-.054" transform="translate(0.425 0.493)" fill="#939598"/>
      <path id="Path_48440" data-name="Path 48440" d="M8.694,15.648a.836.836,0,0,1,1.1-.228.832.832,0,0,1,.29,1.141q-.02.033-.041.062a.833.833,0,0,1-1.391-.913.642.642,0,0,1,.041-.062" transform="translate(0.339 0.608)" fill="#939598"/>
      <path id="Path_48441" data-name="Path 48441" d="M7.007,18.992a.838.838,0,0,1,1.045-.416.834.834,0,0,1,.483,1.074c-.009.023-.019.046-.029.068a.833.833,0,0,1-1.528-.658c.009-.023.019-.046.029-.068" transform="translate(0.275 0.736)" fill="#939598"/>
      <path id="Path_48442" data-name="Path 48442" d="M5.927,22.578a.833.833,0,0,1,1.49-.241.827.827,0,0,1,.129.624.553.553,0,0,1-.017.072.833.833,0,0,1-1.619-.383c0-.024.01-.048.017-.072" transform="translate(0.234 0.873)" fill="#939598"/>
      <path id="Path_48443" data-name="Path 48443" d="M5.485,26.3a.837.837,0,0,1,.839-.748.834.834,0,0,1,.822.843c0,.025,0,.049-.005.074a.832.832,0,0,1-1.66-.1c0-.025,0-.05,0-.074" transform="translate(0.218 1.015)" fill="#939598"/>
      <path id="Path_48444" data-name="Path 48444" d="M5.7,30.036a.836.836,0,0,1,.7-.882.831.831,0,0,1,.956.687c0,.025.007.049.009.074a.833.833,0,0,1-1.652.194c0-.025-.007-.05-.009-.074" transform="translate(0.226 1.158)" fill="#808285"/>
      <path id="Path_48445" data-name="Path 48445" d="M6.553,33.683a.838.838,0,0,1,.533-.99.833.833,0,0,1,1.061.512.552.552,0,0,1,.021.071.832.832,0,0,1-1.593.478c-.008-.023-.016-.047-.022-.071" transform="translate(0.259 1.297)" fill="#808285"/>
      <path id="Path_48446" data-name="Path 48446" d="M8.031,37.124a.835.835,0,0,1,.354-1.067.831.831,0,0,1,1.133.319c.011.022.023.044.032.066a.832.832,0,0,1-1.486.748c-.011-.021-.023-.044-.033-.066" transform="translate(0.316 1.429)" fill="#808285"/>
      <path id="Path_48447" data-name="Path 48447" d="M10.083,40.257a.833.833,0,0,1,1.334-1q.023.03.044.059a.833.833,0,0,1-1.333,1,.591.591,0,0,1-.045-.059" transform="translate(0.395 1.548)" fill="#808285"/>
      <path id="Path_48448" data-name="Path 48448" d="M12.648,42.986a.837.837,0,0,1-.033-1.124.832.832,0,0,1,1.174-.087c.019.017.037.033.054.051A.833.833,0,0,1,12.7,43.037c-.019-.017-.037-.033-.054-.051" transform="translate(0.493 1.652)" fill="#808285"/>
      <path id="Path_48449" data-name="Path 48449" d="M15.648,45.228a.836.836,0,0,1-.228-1.1.832.832,0,0,1,1.141-.29l.062.041a.833.833,0,0,1-.913,1.391.643.643,0,0,1-.062-.041" transform="translate(0.608 1.737)" fill="#808285"/>
      <path id="Path_48450" data-name="Path 48450" d="M18.992,46.915a.838.838,0,0,1-.416-1.045.834.834,0,0,1,1.074-.483c.023.008.046.019.068.029a.833.833,0,0,1-.658,1.528l-.068-.029" transform="translate(0.736 1.802)" fill="#808285"/>
      <path id="Path_48451" data-name="Path 48451" d="M22.578,48a.837.837,0,0,1-.591-.957.833.833,0,0,1,.973-.662c.024,0,.048.01.072.017a.833.833,0,0,1-.383,1.619c-.024,0-.048-.01-.072-.017" transform="translate(0.873 1.842)" fill="#808285"/>
      <path id="Path_48452" data-name="Path 48452" d="M26.3,48.437a.837.837,0,0,1-.748-.839.836.836,0,0,1,.843-.822c.025,0,.049,0,.074.005a.832.832,0,0,1-.1,1.66c-.024,0-.049,0-.074,0" transform="translate(1.016 1.859)" fill="#808285"/>
      <path id="Path_48453" data-name="Path 48453" d="M49.866,19.422a.939.939,0,0,1-.6,1.11.932.932,0,0,1-1.191-.574.761.761,0,0,1-.024-.079.934.934,0,0,1,1.788-.537.693.693,0,0,1,.024.079" transform="translate(1.909 0.744)" fill="#fff"/>
      <path id="Path_48454" data-name="Path 48454" d="M48.209,15.56A.935.935,0,0,1,47.1,16.842a.925.925,0,0,1-.561-.443.7.7,0,0,1-.037-.074.934.934,0,0,1,1.668-.839c.014.024.026.049.037.074" transform="translate(1.845 0.596)" fill="#fff"/>
      <path id="Path_48455" data-name="Path 48455" d="M35.907,4.573a.942.942,0,0,1,.468,1.172.939.939,0,0,1-1.206.544c-.026-.01-.051-.021-.076-.033a.934.934,0,0,1,.738-1.715c.026.009.052.021.076.032" transform="translate(1.374 0.178)" fill="#e6e7e8"/>
      <path id="Path_48456" data-name="Path 48456" d="M31.883,3.36a.938.938,0,0,1,.662,1.073.932.932,0,0,1-1.092.744.692.692,0,0,1-.08-.02A.934.934,0,0,1,31.8,3.342c.027.005.055.011.081.019" transform="translate(1.22 0.132)" fill="#e6e7e8"/>
      <path id="Path_48457" data-name="Path 48457" d="M27.71,2.864a.939.939,0,0,1,.839.942.934.934,0,0,1-.946.922.744.744,0,0,1-.083-.005.934.934,0,0,1,.107-1.863.731.731,0,0,1,.083,0" transform="translate(1.061 0.113)" fill="#e6e7e8"/>
      <path id="Path_48458" data-name="Path 48458" d="M23.513,3.1a.939.939,0,0,1,.99.782.933.933,0,0,1-.771,1.073c-.028,0-.055.007-.082.009a.935.935,0,0,1-.218-1.855c.027,0,.055-.007.082-.009" transform="translate(0.9 0.123)" fill="#bcbec0"/>
      <path id="Path_48459" data-name="Path 48459" d="M19.422,4.063a.939.939,0,0,1,1.11.6.935.935,0,0,1-.574,1.191.761.761,0,0,1-.079.024.934.934,0,0,1-.537-1.788c.026-.009.052-.017.079-.024" transform="translate(0.744 0.16)" fill="#bcbec0"/>
      <path id="Path_48460" data-name="Path 48460" d="M15.56,5.721a.94.94,0,0,1,1.2.4A.934.934,0,0,1,16.4,7.389c-.024.014-.049.026-.074.037a.934.934,0,0,1-.839-1.668c.024-.014.049-.026.074-.037" transform="translate(0.597 0.224)" fill="#bcbec0"/>
      <path id="Path_48461" data-name="Path 48461" d="M12.044,8.024a.939.939,0,0,1,1.248.182.933.933,0,0,1-.132,1.315.607.607,0,0,1-.067.049.934.934,0,0,1-1.116-1.5c.022-.018.044-.034.067-.05" transform="translate(0.462 0.312)" fill="#bcbec0"/>
      <path id="Path_48462" data-name="Path 48462" d="M8.982,10.9a.94.94,0,0,1,1.261-.037.934.934,0,0,1,.1,1.318c-.018.021-.037.041-.057.06a.935.935,0,0,1-1.359-1.281c.019-.021.037-.042.057-.06" transform="translate(0.346 0.423)" fill="#939598"/>
      <path id="Path_48463" data-name="Path 48463" d="M6.466,14.27A.94.94,0,0,1,7.7,14.014a.934.934,0,0,1,.325,1.281.786.786,0,0,1-.046.069A.934.934,0,0,1,6.42,14.339c.015-.024.03-.048.046-.07" transform="translate(0.25 0.552)" fill="#939598"/>
      <path id="Path_48464" data-name="Path 48464" d="M4.573,18.022a.939.939,0,0,1,1.172-.466.935.935,0,0,1,.544,1.2c-.01.026-.021.052-.033.076A.934.934,0,0,1,4.54,18.1c.009-.026.021-.051.032-.076" transform="translate(0.178 0.695)" fill="#939598"/>
      <path id="Path_48465" data-name="Path 48465" d="M3.36,22.046a.938.938,0,0,1,1.073-.662.932.932,0,0,1,.744,1.092c-.005.027-.012.054-.02.081a.934.934,0,0,1-1.816-.429.706.706,0,0,1,.019-.081" transform="translate(0.132 0.849)" fill="#939598"/>
      <path id="Path_48466" data-name="Path 48466" d="M2.864,26.22a.939.939,0,0,1,.942-.839.934.934,0,0,1,.922.946.744.744,0,0,1-.005.083A.934.934,0,0,1,2.86,26.3a.731.731,0,0,1,0-.083" transform="translate(0.114 1.009)" fill="#939598"/>
      <path id="Path_48467" data-name="Path 48467" d="M3.1,30.416a.939.939,0,0,1,.782-.99.933.933,0,0,1,1.073.771c0,.028.007.055.009.082a.934.934,0,0,1-1.854.218.739.739,0,0,1-.01-.082" transform="translate(0.123 1.169)" fill="#808285"/>
      <path id="Path_48468" data-name="Path 48468" d="M4.063,34.507a.939.939,0,0,1,.6-1.11.935.935,0,0,1,1.191.574.692.692,0,0,1,.024.079.934.934,0,0,1-1.788.537c-.009-.026-.017-.052-.024-.079" transform="translate(0.16 1.325)" fill="#808285"/>
      <path id="Path_48469" data-name="Path 48469" d="M5.721,38.37a.94.94,0,0,1,.4-1.2.934.934,0,0,1,1.272.359c.014.024.026.049.037.074a.934.934,0,0,1-1.668.839c-.014-.024-.026-.049-.037-.074" transform="translate(0.224 1.472)" fill="#808285"/>
      <path id="Path_48470" data-name="Path 48470" d="M8.024,41.886a.938.938,0,0,1,.182-1.248.933.933,0,0,1,1.315.132.608.608,0,0,1,.049.067.934.934,0,0,1-1.5,1.116c-.018-.022-.034-.044-.05-.067" transform="translate(0.313 1.607)" fill="#808285"/>
      <path id="Path_48471" data-name="Path 48471" d="M10.9,44.949a.94.94,0,0,1-.037-1.261.935.935,0,0,1,1.319-.1c.02.018.04.036.058.056a.935.935,0,0,1-1.28,1.36c-.02-.019-.042-.037-.06-.057" transform="translate(0.423 1.723)" fill="#808285"/>
      <path id="Path_48472" data-name="Path 48472" d="M14.27,47.464a.94.94,0,0,1-.256-1.235.934.934,0,0,1,1.281-.325.786.786,0,0,1,.069.046.934.934,0,0,1-1.024,1.56.793.793,0,0,1-.07-.045" transform="translate(0.552 1.819)" fill="#808285"/>
      <path id="Path_48473" data-name="Path 48473" d="M18.022,49.357a.94.94,0,0,1-.466-1.172.933.933,0,0,1,1.2-.544c.026.01.052.021.076.033a.934.934,0,0,1-.738,1.715c-.026-.009-.051-.021-.076-.032" transform="translate(0.695 1.891)" fill="#808285"/>
      <path id="Path_48474" data-name="Path 48474" d="M22.046,50.57a.938.938,0,0,1-.662-1.073.934.934,0,0,1,1.092-.744.692.692,0,0,1,.08.02.934.934,0,0,1-.428,1.816q-.042-.008-.081-.019" transform="translate(0.849 1.937)" fill="#808285"/>
      <path id="Path_48475" data-name="Path 48475" d="M26.22,51.065a.939.939,0,0,1-.839-.942.934.934,0,0,1,.946-.922c.028,0,.055,0,.083.005a.934.934,0,0,1-.107,1.863.731.731,0,0,1-.083,0" transform="translate(1.009 1.955)" fill="#808285"/>
      <path id="Path_48476" data-name="Path 48476" d="M52.592,18.53a1.046,1.046,0,0,1-1.468,1.2,1.038,1.038,0,0,1-.532-.6c-.01-.03-.02-.059-.027-.089a1.045,1.045,0,0,1,2-.6.866.866,0,0,1,.027.088" transform="translate(2.008 0.705)" fill="#fff"/>
      <path id="Path_48477" data-name="Path 48477" d="M36.974,1.917A1.051,1.051,0,0,1,37.5,3.228a1.044,1.044,0,0,1-1.349.607.762.762,0,0,1-.084-.036,1.045,1.045,0,0,1,.826-1.918.875.875,0,0,1,.085.036" transform="translate(1.41 0.072)" fill="#e6e7e8"/>
      <path id="Path_48478" data-name="Path 48478" d="M32.472.559a1.045,1.045,0,0,1-.48,2.033.878.878,0,0,1-.09-.021,1.045,1.045,0,0,1,.48-2.033c.03.005.06.012.09.021" transform="translate(1.238 0.02)" fill="#e6e7e8"/>
      <path id="Path_48479" data-name="Path 48479" d="M27.8.005a1.052,1.052,0,0,1,.939,1.054,1.046,1.046,0,0,1-1.058,1.031.887.887,0,0,1-.093-.005A1.046,1.046,0,0,1,27.711,0c.031,0,.062,0,.093.005" transform="translate(1.059 0)" fill="#e6e7e8"/>
      <path id="Path_48480" data-name="Path 48480" d="M23.108.27a1.051,1.051,0,0,1,1.107.874,1.047,1.047,0,0,1-.863,1.2c-.031,0-.061.008-.093.01A1.045,1.045,0,0,1,23.016.282c.031-.005.062-.009.093-.011" transform="translate(0.88 0.01)" fill="#bcbec0"/>
      <path id="Path_48481" data-name="Path 48481" d="M18.53,1.346a1.051,1.051,0,0,1,1.242.67,1.044,1.044,0,0,1-.642,1.331c-.03.01-.059.02-.089.027a1.045,1.045,0,0,1-.6-2,.867.867,0,0,1,.088-.027" transform="translate(0.705 0.052)" fill="#bcbec0"/>
      <path id="Path_48482" data-name="Path 48482" d="M14.209,3.2a1.052,1.052,0,0,1,1.34.443,1.047,1.047,0,0,1-.4,1.423.886.886,0,0,1-.083.042,1.046,1.046,0,0,1-.939-1.866c.027-.015.055-.029.083-.042" transform="translate(0.54 0.123)" fill="#bcbec0"/>
      <path id="Path_48483" data-name="Path 48483" d="M10.276,5.778a1.052,1.052,0,0,1,1.4.2,1.046,1.046,0,0,1-.148,1.471.77.77,0,0,1-.075.055A1.045,1.045,0,0,1,10.2,5.834c.024-.02.049-.038.074-.056" transform="translate(0.39 0.222)" fill="#bcbec0"/>
      <path id="Path_48484" data-name="Path 48484" d="M6.849,9A1.051,1.051,0,0,1,8.26,8.957a1.046,1.046,0,0,1,.109,1.474c-.02.024-.042.046-.063.068a1.045,1.045,0,0,1-1.52-1.433c.02-.023.042-.046.063-.068" transform="translate(0.26 0.346)" fill="#939598"/>
      <path id="Path_48485" data-name="Path 48485" d="M4.035,12.766a1.05,1.05,0,0,1,1.382-.286,1.045,1.045,0,0,1,.365,1.433.829.829,0,0,1-.052.077,1.045,1.045,0,0,1-1.746-1.146c.016-.027.033-.053.051-.078" transform="translate(0.153 0.49)" fill="#939598"/>
      <path id="Path_48486" data-name="Path 48486" d="M1.916,16.964a1.051,1.051,0,0,1,1.311-.522,1.046,1.046,0,0,1,.608,1.349q-.017.044-.037.084a1.045,1.045,0,0,1-1.918-.826c.011-.029.023-.057.036-.085" transform="translate(0.072 0.651)" fill="#939598"/>
      <path id="Path_48487" data-name="Path 48487" d="M.559,21.466a1.051,1.051,0,0,1,1.2-.741,1.044,1.044,0,0,1,.833,1.222q-.009.045-.022.09a1.045,1.045,0,0,1-2.033-.48.878.878,0,0,1,.021-.09" transform="translate(0.021 0.823)" fill="#939598"/>
      <path id="Path_48488" data-name="Path 48488" d="M.005,26.136A1.052,1.052,0,0,1,1.06,25.2a1.046,1.046,0,0,1,1.031,1.058.9.9,0,0,1-.005.093A1.046,1.046,0,0,1,0,26.228c0-.031,0-.062.005-.093" transform="translate(0 1.001)" fill="#939598"/>
      <path id="Path_48489" data-name="Path 48489" d="M.27,30.831a1.052,1.052,0,0,1,.874-1.107,1.047,1.047,0,0,1,1.2.863c0,.031.008.062.01.093a1.045,1.045,0,0,1-2.074.244c-.005-.031-.009-.062-.011-.093" transform="translate(0.011 1.181)" fill="#808285"/>
      <path id="Path_48490" data-name="Path 48490" d="M1.346,35.408a1.051,1.051,0,0,1,.67-1.243,1.045,1.045,0,0,1,1.332.642c.009.03.019.059.026.089a1.045,1.045,0,0,1-2,.6c-.01-.03-.02-.059-.027-.089" transform="translate(0.052 1.355)" fill="#808285"/>
      <path id="Path_48491" data-name="Path 48491" d="M3.2,39.729a1.052,1.052,0,0,1,.443-1.34,1.047,1.047,0,0,1,1.423.4.776.776,0,0,1,.042.083,1.046,1.046,0,0,1-1.866.939c-.015-.027-.029-.055-.042-.083" transform="translate(0.124 1.52)" fill="#808285"/>
      <path id="Path_48492" data-name="Path 48492" d="M5.778,43.662a1.051,1.051,0,0,1,.2-1.4,1.046,1.046,0,0,1,1.471.148.77.77,0,0,1,.055.075,1.045,1.045,0,0,1-1.674,1.249q-.03-.037-.056-.075" transform="translate(0.223 1.67)" fill="#808285"/>
      <path id="Path_48493" data-name="Path 48493" d="M9,47.089a1.051,1.051,0,0,1-.042-1.411,1.047,1.047,0,0,1,1.474-.11c.023.021.046.042.068.064a1.046,1.046,0,0,1-1.433,1.52c-.023-.02-.046-.042-.068-.063" transform="translate(0.346 1.801)" fill="#808285"/>
      <path id="Path_48494" data-name="Path 48494" d="M12.766,49.9a1.05,1.05,0,0,1-.286-1.382,1.045,1.045,0,0,1,1.433-.365c.027.017.053.033.077.051a1.046,1.046,0,0,1-1.146,1.747c-.027-.017-.053-.033-.078-.051" transform="translate(0.49 1.908)" fill="#808285"/>
      <path id="Path_48495" data-name="Path 48495" d="M16.964,52.022a1.051,1.051,0,0,1-.522-1.311A1.046,1.046,0,0,1,17.79,50.1q.044.017.084.037a1.045,1.045,0,0,1-.826,1.918c-.029-.011-.057-.023-.085-.036" transform="translate(0.651 1.988)" fill="#808285"/>
      <path id="Path_48496" data-name="Path 48496" d="M21.466,53.378a1.05,1.05,0,0,1-.741-1.2,1.045,1.045,0,0,1,1.222-.832c.03.005.06.012.09.021a1.045,1.045,0,0,1-.48,2.033.878.878,0,0,1-.09-.021" transform="translate(0.823 2.04)" fill="#808285"/>
      <path id="Path_48497" data-name="Path 48497" d="M26.136,53.933a1.051,1.051,0,0,1-.939-1.054,1.047,1.047,0,0,1,1.058-1.031c.031,0,.062,0,.093.005a1.046,1.046,0,0,1-.12,2.086.9.9,0,0,1-.093-.005" transform="translate(1.002 2.06)" fill="#808285"/>
      <path id="Path_48498" data-name="Path 48498" d="M44.559,19.425a.741.741,0,0,1-.961.935.734.734,0,0,1-.413-.388c-.009-.02-.018-.041-.025-.06a.74.74,0,0,1,1.375-.547c.008.02.017.04.024.06" transform="translate(1.714 0.752)" fill="#fff"/>
      <path id="Path_48499" data-name="Path 48499" d="M42.983,16.5a.74.74,0,0,1-1.258.777.607.607,0,0,1-.034-.055.733.733,0,0,1,.23-.971.742.742,0,0,1,1.028.193q.019.028.034.056" transform="translate(1.653 0.64)" fill="#fff"/>
      <path id="Path_48500" data-name="Path 48500" d="M40.921,13.891a.74.74,0,0,1-1.1.984.65.65,0,0,1-.044-.05.732.732,0,0,1,.056-1,.742.742,0,0,1,1.047.012.636.636,0,0,1,.044.049" transform="translate(1.574 0.541)" fill="#fff"/>
      <path id="Path_48501" data-name="Path 48501" d="M38.437,11.68a.742.742,0,0,1,.117.99.741.741,0,0,1-1.034.169.484.484,0,0,1-.051-.041.733.733,0,0,1-.117-.991.742.742,0,0,1,1.032-.168.636.636,0,0,1,.052.041" transform="translate(1.479 0.457)" fill="#e6e7e8"/>
      <path id="Path_48502" data-name="Path 48502" d="M35.606,9.933a.739.739,0,0,1-.7,1.3.626.626,0,0,1-.058-.031.734.734,0,0,1-.288-.956.742.742,0,0,1,.988-.345.626.626,0,0,1,.058.031" transform="translate(1.371 0.39)" fill="#e6e7e8"/>
      <path id="Path_48503" data-name="Path 48503" d="M32.513,8.7a.742.742,0,0,1,.449.89.739.739,0,0,1-.913.512c-.021-.005-.042-.012-.062-.02a.734.734,0,0,1-.449-.891.742.742,0,0,1,.913-.512l.062.021" transform="translate(1.252 0.344)" fill="#e6e7e8"/>
      <path id="Path_48504" data-name="Path 48504" d="M29.254,8.028a.738.738,0,0,1,.33,1.3.735.735,0,0,1-.542.163.662.662,0,0,1-.066-.009.734.734,0,0,1-.6-.8.741.741,0,0,1,.81-.662q.033,0,.066.009" transform="translate(1.128 0.318)" fill="#e6e7e8"/>
      <path id="Path_48505" data-name="Path 48505" d="M25.927,7.929a.743.743,0,0,1,.728.683.739.739,0,0,1-.683.792c-.022,0-.044,0-.066,0a.739.739,0,0,1-.045-1.475l.066,0" transform="translate(1.001 0.315)" fill="#bcbec0"/>
      <path id="Path_48506" data-name="Path 48506" d="M22.632,8.408a.742.742,0,0,1,.835.547.727.727,0,0,1-.08.559.737.737,0,0,1-.453.339l-.064.014a.739.739,0,0,1-.3-1.445c.022-.005.043-.01.064-.014" transform="translate(0.875 0.334)" fill="#bcbec0"/>
      <path id="Path_48507" data-name="Path 48507" d="M19.471,9.451a.744.744,0,0,1,.918.394.739.739,0,0,1-.37.977l-.061.024a.739.739,0,0,1-.548-1.37c.021-.009.041-.018.061-.025" transform="translate(0.754 0.374)" fill="#bcbec0"/>
      <path id="Path_48508" data-name="Path 48508" d="M16.538,11.025a.744.744,0,0,1,.972.229.736.736,0,0,1-.194,1.026.607.607,0,0,1-.055.034.739.739,0,0,1-.779-1.255c.019-.011.037-.024.056-.034" transform="translate(0.642 0.434)" fill="#bcbec0"/>
      <path id="Path_48509" data-name="Path 48509" d="M13.924,13.083a.745.745,0,0,1,1,.056.737.737,0,0,1-.012,1.045.639.639,0,0,1-.049.044.739.739,0,0,1-.985-1.1.639.639,0,0,1,.049-.044" transform="translate(0.543 0.513)" fill="#939598"/>
      <path id="Path_48510" data-name="Path 48510" d="M11.708,15.563a.746.746,0,0,1,.992-.117.739.739,0,0,1,.169,1.031.484.484,0,0,1-.041.051.739.739,0,0,1-1.161-.913.636.636,0,0,1,.041-.052" transform="translate(0.458 0.608)" fill="#939598"/>
      <path id="Path_48511" data-name="Path 48511" d="M9.957,18.39a.744.744,0,0,1,.957-.287.738.738,0,0,1,.346.986.609.609,0,0,1-.031.057.74.74,0,0,1-1.3-.7.626.626,0,0,1,.031-.058" transform="translate(0.392 0.716)" fill="#939598"/>
      <path id="Path_48512" data-name="Path 48512" d="M8.724,21.476a.745.745,0,0,1,.892-.449.739.739,0,0,1,.513.911.549.549,0,0,1-.021.062.74.74,0,0,1-1.4-.462c.006-.021.014-.042.021-.062" transform="translate(0.345 0.834)" fill="#939598"/>
      <path id="Path_48513" data-name="Path 48513" d="M8.046,24.73a.745.745,0,0,1,.8-.6.74.74,0,0,1,.663.809c0,.022-.005.043-.009.064a.74.74,0,0,1-1.464-.212.641.641,0,0,1,.009-.064" transform="translate(0.319 0.959)" fill="#939598"/>
      <path id="Path_48514" data-name="Path 48514" d="M7.946,28.051a.744.744,0,0,1,.685-.727.741.741,0,0,1,.793.681c0,.023,0,.045,0,.066a.74.74,0,0,1-1.479.046c0-.022,0-.044,0-.066" transform="translate(0.316 1.086)" fill="#808285"/>
      <path id="Path_48515" data-name="Path 48515" d="M8.424,31.339a.743.743,0,0,1,.548-.834.74.74,0,0,1,.9.533c.005.021.009.043.012.063a.734.734,0,0,1-.548.835.741.741,0,0,1-.9-.533c-.005-.022-.01-.043-.014-.064" transform="translate(0.334 1.211)" fill="#808285"/>
      <path id="Path_48516" data-name="Path 48516" d="M9.468,34.494a.741.741,0,0,1,.4-.916.74.74,0,0,1,.978.369.612.612,0,0,1,.025.06.74.74,0,0,1-1.374.548c-.009-.021-.018-.041-.025-.061" transform="translate(0.375 1.332)" fill="#808285"/>
      <path id="Path_48517" data-name="Path 48517" d="M11.044,37.42a.74.74,0,0,1,1.258-.777.608.608,0,0,1,.034.055.733.733,0,0,1-.23.971.742.742,0,0,1-1.028-.194c-.011-.018-.024-.036-.034-.055" transform="translate(0.435 1.443)" fill="#808285"/>
      <path id="Path_48518" data-name="Path 48518" d="M13.105,40.028a.74.74,0,0,1,1.1-.984.653.653,0,0,1,.044.05.731.731,0,0,1-.056,1,.742.742,0,0,1-1.047-.012.638.638,0,0,1-.044-.049" transform="translate(0.514 1.543)" fill="#808285"/>
      <path id="Path_48519" data-name="Path 48519" d="M15.59,42.239a.743.743,0,0,1-.117-.991.742.742,0,0,1,1.034-.168.485.485,0,0,1,.051.041.732.732,0,0,1,.117.99.741.741,0,0,1-1.032.169c-.018-.012-.035-.027-.052-.041" transform="translate(0.61 1.627)" fill="#808285"/>
      <path id="Path_48520" data-name="Path 48520" d="M18.421,43.986a.74.74,0,0,1,.7-1.3.61.61,0,0,1,.057.031.734.734,0,0,1,.288.956.742.742,0,0,1-.988.345.626.626,0,0,1-.058-.031" transform="translate(0.718 1.693)" fill="#808285"/>
      <path id="Path_48521" data-name="Path 48521" d="M21.513,45.216a.741.741,0,0,1-.449-.891.742.742,0,0,1,.913-.512l.062.021a.739.739,0,0,1-.464,1.4c-.021-.005-.042-.012-.062-.02" transform="translate(0.836 1.74)" fill="#808285"/>
      <path id="Path_48522" data-name="Path 48522" d="M24.773,45.89a.744.744,0,0,1-.6-.8.74.74,0,0,1,.81-.661q.033,0,.066.009a.739.739,0,0,1-.212,1.461.66.66,0,0,1-.066-.009" transform="translate(0.961 1.765)" fill="#808285"/>
      <path id="Path_48523" data-name="Path 48523" d="M44.558,19.414a.74.74,0,0,1-.961.936.731.731,0,0,1-.413-.388.442.442,0,0,1-.024-.061.735.735,0,0,1,.394-.918.743.743,0,0,1,.979.37c.008.021.017.041.024.061" transform="translate(1.714 0.752)" fill="#fff"/>
      <path id="Path_48524" data-name="Path 48524" d="M42.981,16.481a.743.743,0,0,1-.229.972.74.74,0,0,1-1.029-.193q-.019-.028-.034-.056a.741.741,0,0,1,1.258-.779q.019.028.034.056" transform="translate(1.653 0.64)" fill="#fff"/>
      <path id="Path_48525" data-name="Path 48525" d="M40.919,13.868a.743.743,0,0,1-.057,1,.738.738,0,0,1-1.046-.012.639.639,0,0,1-.044-.049.74.74,0,0,1,1.1-.985.64.64,0,0,1,.044.049" transform="translate(1.574 0.54)" fill="#fff"/>
      <path id="Path_48526" data-name="Path 48526" d="M38.435,11.652a.744.744,0,0,1,.117.992.739.739,0,0,1-1.034.169.484.484,0,0,1-.051-.041.74.74,0,0,1,.915-1.161.635.635,0,0,1,.052.041" transform="translate(1.479 0.456)" fill="#e6e7e8"/>
      <path id="Path_48527" data-name="Path 48527" d="M35.6,9.9a.744.744,0,0,1,.288.957.741.741,0,0,1-.988.346.626.626,0,0,1-.058-.031.74.74,0,0,1,.7-1.3A.626.626,0,0,1,35.6,9.9" transform="translate(1.371 0.389)" fill="#e6e7e8"/>
      <path id="Path_48528" data-name="Path 48528" d="M32.51,8.669a.743.743,0,0,1,.449.892.74.74,0,0,1-.913.513.609.609,0,0,1-.061-.021.74.74,0,0,1,.463-1.4l.062.021" transform="translate(1.252 0.342)" fill="#e6e7e8"/>
      <path id="Path_48529" data-name="Path 48529" d="M29.251,7.992a.745.745,0,0,1,.6.8.74.74,0,0,1-.81.663q-.033,0-.066-.009a.74.74,0,0,1,.212-1.464q.033,0,.066.009" transform="translate(1.128 0.317)" fill="#e6e7e8"/>
      <path id="Path_48530" data-name="Path 48530" d="M25.924,7.892a.744.744,0,0,1,.728.685.74.74,0,0,1-.683.793l-.066,0a.74.74,0,0,1-.045-1.479l.066,0" transform="translate(1.001 0.313)" fill="#bcbec0"/>
      <path id="Path_48531" data-name="Path 48531" d="M22.629,8.371a.745.745,0,0,1,.836.548.742.742,0,0,1-.534.9c-.022.005-.043.009-.064.012a.74.74,0,0,1-.3-1.447c.022-.005.043-.01.064-.014" transform="translate(0.875 0.332)" fill="#bcbec0"/>
      <path id="Path_48532" data-name="Path 48532" d="M19.467,9.415a.743.743,0,0,1,.918.4.74.74,0,0,1-.369.978c-.021.009-.041.018-.061.025a.74.74,0,0,1-.549-1.374c.022-.009.041-.018.061-.025" transform="translate(0.754 0.372)" fill="#bcbec0"/>
      <path id="Path_48533" data-name="Path 48533" d="M16.535,10.992a.743.743,0,0,1,.972.229.74.74,0,0,1-.193,1.029q-.028.019-.056.034a.741.741,0,0,1-.779-1.258c.019-.011.037-.024.056-.034" transform="translate(0.642 0.433)" fill="#bcbec0"/>
      <path id="Path_48534" data-name="Path 48534" d="M13.921,13.053a.744.744,0,0,1,1,.057.738.738,0,0,1-.012,1.046.4.4,0,0,1-.049.044.74.74,0,0,1-.984-1.1c.016-.016.032-.03.048-.044" transform="translate(0.543 0.512)" fill="#939598"/>
      <path id="Path_48535" data-name="Path 48535" d="M11.706,15.539a.744.744,0,0,1,.992-.117.739.739,0,0,1,.169,1.034.484.484,0,0,1-.041.051.74.74,0,0,1-1.161-.915.637.637,0,0,1,.041-.052" transform="translate(0.458 0.607)" fill="#939598"/>
      <path id="Path_48536" data-name="Path 48536" d="M9.955,18.37a.744.744,0,0,1,.957-.288.741.741,0,0,1,.346.988.627.627,0,0,1-.031.058.74.74,0,0,1-1.3-.7.627.627,0,0,1,.031-.058" transform="translate(0.392 0.716)" fill="#939598"/>
      <path id="Path_48537" data-name="Path 48537" d="M8.723,21.462a.743.743,0,0,1,.892-.449.741.741,0,0,1,.513.913.607.607,0,0,1-.021.061.74.74,0,0,1-1.4-.463c.006-.021.014-.042.021-.062" transform="translate(0.345 0.834)" fill="#939598"/>
      <path id="Path_48538" data-name="Path 48538" d="M8.046,24.722a.745.745,0,0,1,.8-.6.74.74,0,0,1,.663.81q0,.033-.009.066a.74.74,0,0,1-1.464-.212c0-.022.005-.045.009-.066" transform="translate(0.319 0.958)" fill="#939598"/>
      <path id="Path_48539" data-name="Path 48539" d="M7.946,28.05a.744.744,0,0,1,.685-.728.74.74,0,0,1,.793.683c0,.022,0,.044,0,.066a.74.74,0,0,1-1.479.045c0-.022,0-.044,0-.066" transform="translate(0.316 1.086)" fill="#808285"/>
      <path id="Path_48540" data-name="Path 48540" d="M8.425,31.344a.745.745,0,0,1,.548-.836.742.742,0,0,1,.9.534c.005.022.008.044.012.064a.74.74,0,0,1-1.447.3c-.005-.022-.01-.043-.014-.064" transform="translate(0.335 1.211)" fill="#808285"/>
      <path id="Path_48541" data-name="Path 48541" d="M9.469,34.506a.743.743,0,0,1,.4-.918.74.74,0,0,1,.978.37.631.631,0,0,1,.025.061.74.74,0,0,1-1.374.548c-.009-.021-.018-.041-.025-.061" transform="translate(0.375 1.332)" fill="#808285"/>
      <path id="Path_48542" data-name="Path 48542" d="M11.046,37.437a.742.742,0,0,1,.23-.972.739.739,0,0,1,1.028.193q.019.028.034.056a.741.741,0,0,1-1.258.779c-.011-.019-.024-.037-.034-.056" transform="translate(0.435 1.444)" fill="#808285"/>
      <path id="Path_48543" data-name="Path 48543" d="M13.107,40.051a.744.744,0,0,1,.057-1,.738.738,0,0,1,1.046.012.64.64,0,0,1,.044.049.74.74,0,0,1-1.1.985.639.639,0,0,1-.044-.049" transform="translate(0.514 1.544)" fill="#808285"/>
      <path id="Path_48544" data-name="Path 48544" d="M15.592,42.267a.746.746,0,0,1-.117-.993.74.74,0,0,1,1.034-.168.623.623,0,0,1,.051.041.74.74,0,0,1-.915,1.161c-.018-.012-.035-.027-.052-.041" transform="translate(0.61 1.628)" fill="#808285"/>
      <path id="Path_48545" data-name="Path 48545" d="M18.424,44.018a.744.744,0,0,1-.288-.957.738.738,0,0,1,.988-.346.625.625,0,0,1,.058.031.74.74,0,0,1-.7,1.3.626.626,0,0,1-.058-.031" transform="translate(0.718 1.695)" fill="#808285"/>
      <path id="Path_48546" data-name="Path 48546" d="M21.516,45.25a.74.74,0,0,1,.464-1.4.606.606,0,0,1,.061.021.74.74,0,0,1-.463,1.4l-.062-.021" transform="translate(0.836 1.741)" fill="#808285"/>
      <path id="Path_48547" data-name="Path 48547" d="M24.776,45.927a.745.745,0,0,1-.6-.8.742.742,0,0,1,.81-.663.477.477,0,0,1,.066.01.74.74,0,0,1-.212,1.463c-.022,0-.045-.005-.066-.009" transform="translate(0.961 1.767)" fill="#808285"/>
      <path id="Path_48548" data-name="Path 48548" d="M46.755,18.474a.833.833,0,0,1-1.08,1.053.827.827,0,0,1-.465-.437q-.016-.034-.028-.069a.833.833,0,0,1,1.546-.617c.009.023.019.046.027.069" transform="translate(1.794 0.712)" fill="#fff"/>
      <path id="Path_48549" data-name="Path 48549" d="M44.981,15.175a.837.837,0,0,1-.258,1.094.832.832,0,0,1-1.157-.218c-.014-.021-.027-.042-.038-.062a.833.833,0,0,1,1.415-.875c.014.02.026.042.038.062" transform="translate(1.726 0.586)" fill="#fff"/>
      <path id="Path_48550" data-name="Path 48550" d="M42.661,12.236a.837.837,0,0,1-.064,1.122.832.832,0,0,1-1.177-.014c-.018-.019-.033-.036-.049-.055a.833.833,0,0,1,1.241-1.108c.017.018.033.036.049.055" transform="translate(1.637 0.474)" fill="#fff"/>
      <path id="Path_48551" data-name="Path 48551" d="M39.866,9.743a.833.833,0,0,1-1.03,1.307c-.02-.015-.04-.03-.057-.046A.833.833,0,0,1,39.807,9.7l.058.046" transform="translate(1.53 0.379)" fill="#e6e7e8"/>
      <path id="Path_48552" data-name="Path 48552" d="M36.68,7.772A.837.837,0,0,1,37,8.849a.833.833,0,0,1-1.111.39c-.023-.011-.045-.023-.066-.035a.833.833,0,0,1,.787-1.466c.023.011.045.023.066.035" transform="translate(1.408 0.304)" fill="#e6e7e8"/>
      <path id="Path_48553" data-name="Path 48553" d="M33.2,6.386a.837.837,0,0,1,.505,1,.832.832,0,0,1-1.026.577c-.024-.007-.048-.015-.071-.024a.832.832,0,0,1,.521-1.579c.024.006.048.015.071.023" transform="translate(1.275 0.251)" fill="#e6e7e8"/>
      <path id="Path_48554" data-name="Path 48554" d="M29.534,5.626a.837.837,0,0,1,.673.9.833.833,0,0,1-.912.747c-.024,0-.049-.006-.073-.011a.832.832,0,0,1,.239-1.646c.024,0,.049.006.073.01" transform="translate(1.135 0.223)" fill="#e6e7e8"/>
      <path id="Path_48555" data-name="Path 48555" d="M25.79,5.512a.837.837,0,0,1,.818.77.833.833,0,0,1-.767.893l-.074,0a.833.833,0,0,1-.051-1.664l.074,0" transform="translate(0.992 0.219)" fill="#bcbec0"/>
      <path id="Path_48556" data-name="Path 48556" d="M22.084,6.051a.837.837,0,0,1,.94.617.832.832,0,0,1-.6,1.013c-.024.006-.048.01-.073.015a.832.832,0,0,1-.339-1.628l.073-.016" transform="translate(0.85 0.24)" fill="#bcbec0"/>
      <path id="Path_48557" data-name="Path 48557" d="M18.527,7.226a.834.834,0,0,1,1.053,1.081.828.828,0,0,1-.437.464q-.034.016-.069.028a.833.833,0,0,1-.617-1.546l.069-.027" transform="translate(0.714 0.285)" fill="#bcbec0"/>
      <path id="Path_48558" data-name="Path 48558" d="M15.229,9a.833.833,0,0,1,.875,1.415c-.021.014-.042.027-.062.038a.832.832,0,0,1-.875-1.414c.02-.015.042-.027.062-.04" transform="translate(0.588 0.353)" fill="#bcbec0"/>
      <path id="Path_48559" data-name="Path 48559" d="M12.289,11.319a.837.837,0,0,1,1.122.064.832.832,0,0,1-.014,1.177c-.019.018-.036.033-.055.049a.833.833,0,0,1-1.108-1.24c.018-.018.036-.034.055-.05" transform="translate(0.476 0.442)" fill="#939598"/>
      <path id="Path_48560" data-name="Path 48560" d="M9.8,14.114a.833.833,0,0,1,1.307,1.03l-.045.058a.833.833,0,0,1-1.307-1.03c.015-.02.029-.04.045-.058" transform="translate(0.381 0.549)" fill="#939598"/>
      <path id="Path_48561" data-name="Path 48561" d="M7.826,17.3A.837.837,0,0,1,8.9,16.976a.832.832,0,0,1,.39,1.111c-.011.022-.023.044-.035.064a.833.833,0,0,1-1.466-.787c.011-.023.023-.045.035-.066" transform="translate(0.306 0.671)" fill="#939598"/>
      <path id="Path_48562" data-name="Path 48562" d="M6.44,20.778a.837.837,0,0,1,1-.505A.833.833,0,0,1,8.02,21.3c-.007.024-.015.048-.024.071a.832.832,0,0,1-1.579-.521c.006-.024.015-.048.023-.071" transform="translate(0.254 0.804)" fill="#939598"/>
      <path id="Path_48563" data-name="Path 48563" d="M5.679,24.446a.837.837,0,0,1,.9-.673.833.833,0,0,1,.747.912c0,.024-.006.049-.011.073a.832.832,0,0,1-1.646-.239c0-.024.006-.049.01-.073" transform="translate(0.225 0.944)" fill="#939598"/>
      <path id="Path_48564" data-name="Path 48564" d="M5.566,28.189a.837.837,0,0,1,.77-.818.833.833,0,0,1,.893.767c0,.025,0,.05,0,.074a.833.833,0,0,1-1.664.051c0-.025,0-.05,0-.074" transform="translate(0.221 1.088)" fill="#808285"/>
      <path id="Path_48565" data-name="Path 48565" d="M6.1,31.9a.837.837,0,0,1,.617-.94.832.832,0,0,1,1.013.6.6.6,0,0,1,.015.073.832.832,0,0,1-1.628.339c-.006-.024-.011-.049-.016-.073" transform="translate(0.242 1.229)" fill="#808285"/>
      <path id="Path_48566" data-name="Path 48566" d="M7.279,35.452A.834.834,0,0,1,8.36,34.4a.828.828,0,0,1,.464.437q.016.034.028.069a.833.833,0,0,1-1.545.617q-.016-.034-.028-.069" transform="translate(0.287 1.365)" fill="#808285"/>
      <path id="Path_48567" data-name="Path 48567" d="M9.053,38.75a.837.837,0,0,1,.258-1.094.832.832,0,0,1,1.157.218c.014.021.027.042.038.062a.832.832,0,0,1-1.414.875c-.015-.02-.027-.042-.04-.062" transform="translate(0.356 1.491)" fill="#808285"/>
      <path id="Path_48568" data-name="Path 48568" d="M11.373,41.691a.837.837,0,0,1,.064-1.122.819.819,0,0,1,.591-.237.827.827,0,0,1,.586.251c.018.019.033.036.049.055a.833.833,0,0,1-1.24,1.108c-.018-.018-.034-.036-.05-.055" transform="translate(0.445 1.603)" fill="#808285"/>
      <path id="Path_48569" data-name="Path 48569" d="M14.168,44.184a.838.838,0,0,1-.132-1.117.833.833,0,0,1,1.162-.19c.02.015.04.03.057.046a.833.833,0,0,1-1.029,1.307l-.058-.046" transform="translate(0.552 1.698)" fill="#808285"/>
      <path id="Path_48570" data-name="Path 48570" d="M17.353,46.153a.837.837,0,0,1-.323-1.076.824.824,0,0,1,.474-.425.832.832,0,0,1,.637.035c.022.011.044.023.064.035a.832.832,0,0,1-.787,1.465.651.651,0,0,1-.066-.034" transform="translate(0.674 1.773)" fill="#808285"/>
      <path id="Path_48571" data-name="Path 48571" d="M20.832,47.54a.837.837,0,0,1-.505-1,.832.832,0,0,1,1.026-.576l.071.023a.833.833,0,0,1-.521,1.58c-.024-.006-.048-.015-.071-.023" transform="translate(0.807 1.825)" fill="#808285"/>
      <path id="Path_48572" data-name="Path 48572" d="M24.5,48.3a.837.837,0,0,1-.673-.9.835.835,0,0,1,.912-.747c.024,0,.049.006.073.011a.832.832,0,0,1-.239,1.646c-.024,0-.049-.006-.073-.01" transform="translate(0.947 1.854)" fill="#808285"/>
      <path id="Path_48573" data-name="Path 48573" d="M46.755,18.474a.833.833,0,0,1-1.08,1.053.827.827,0,0,1-.465-.437q-.016-.034-.028-.069a.833.833,0,0,1,1.546-.617c.009.023.019.046.027.069" transform="translate(1.794 0.712)" fill="#fff"/>
      <path id="Path_48574" data-name="Path 48574" d="M44.981,15.175a.837.837,0,0,1-.258,1.094.832.832,0,0,1-1.157-.218c-.014-.021-.027-.042-.038-.062a.833.833,0,0,1,1.415-.875c.014.02.026.042.038.062" transform="translate(1.726 0.586)" fill="#fff"/>
      <path id="Path_48575" data-name="Path 48575" d="M42.661,12.236a.837.837,0,0,1-.064,1.122.832.832,0,0,1-1.177-.014c-.018-.019-.033-.036-.049-.055a.833.833,0,0,1,1.241-1.108c.017.018.033.036.049.055" transform="translate(1.637 0.474)" fill="#fff"/>
      <path id="Path_48576" data-name="Path 48576" d="M39.866,9.743a.833.833,0,0,1-1.03,1.307c-.02-.015-.04-.03-.057-.046A.833.833,0,0,1,39.807,9.7l.058.046" transform="translate(1.53 0.379)" fill="#e6e7e8"/>
      <path id="Path_48577" data-name="Path 48577" d="M36.68,7.772A.837.837,0,0,1,37,8.849a.833.833,0,0,1-1.111.39c-.023-.011-.045-.023-.066-.035a.833.833,0,0,1,.787-1.466c.023.011.045.023.066.035" transform="translate(1.408 0.304)" fill="#e6e7e8"/>
      <path id="Path_48578" data-name="Path 48578" d="M33.2,6.386a.837.837,0,0,1,.505,1,.832.832,0,0,1-1.026.577c-.024-.007-.048-.015-.071-.024a.832.832,0,0,1,.521-1.579c.024.006.048.015.071.023" transform="translate(1.275 0.251)" fill="#e6e7e8"/>
      <path id="Path_48579" data-name="Path 48579" d="M29.534,5.626a.837.837,0,0,1,.673.9.833.833,0,0,1-.912.747c-.024,0-.049-.006-.073-.011a.832.832,0,0,1,.239-1.646c.024,0,.049.006.073.01" transform="translate(1.135 0.223)" fill="#e6e7e8"/>
      <path id="Path_48580" data-name="Path 48580" d="M25.79,5.512a.837.837,0,0,1,.818.77.833.833,0,0,1-.767.893l-.074,0a.833.833,0,0,1-.051-1.664l.074,0" transform="translate(0.992 0.219)" fill="#bcbec0"/>
      <path id="Path_48581" data-name="Path 48581" d="M22.084,6.051a.837.837,0,0,1,.94.617.832.832,0,0,1-.6,1.013c-.024.006-.048.01-.073.015a.832.832,0,0,1-.339-1.628l.073-.016" transform="translate(0.85 0.24)" fill="#bcbec0"/>
      <path id="Path_48582" data-name="Path 48582" d="M18.527,7.226a.834.834,0,0,1,1.053,1.081.828.828,0,0,1-.437.464q-.034.016-.069.028a.833.833,0,0,1-.617-1.546l.069-.027" transform="translate(0.714 0.285)" fill="#bcbec0"/>
      <path id="Path_48583" data-name="Path 48583" d="M15.229,9a.833.833,0,0,1,.875,1.415c-.021.014-.042.027-.062.038a.832.832,0,0,1-.875-1.414c.02-.015.042-.027.062-.04" transform="translate(0.588 0.353)" fill="#bcbec0"/>
      <path id="Path_48584" data-name="Path 48584" d="M12.289,11.319a.837.837,0,0,1,1.122.064.832.832,0,0,1-.014,1.177c-.019.018-.036.033-.055.049a.833.833,0,0,1-1.108-1.24c.018-.018.036-.034.055-.05" transform="translate(0.476 0.442)" fill="#939598"/>
      <path id="Path_48585" data-name="Path 48585" d="M9.8,14.114a.833.833,0,0,1,1.307,1.03l-.045.058a.833.833,0,0,1-1.307-1.03c.015-.02.029-.04.045-.058" transform="translate(0.381 0.549)" fill="#939598"/>
      <path id="Path_48586" data-name="Path 48586" d="M7.826,17.3A.837.837,0,0,1,8.9,16.976a.832.832,0,0,1,.39,1.111c-.011.022-.023.044-.035.064a.833.833,0,0,1-1.466-.787c.011-.023.023-.045.035-.066" transform="translate(0.306 0.671)" fill="#939598"/>
      <path id="Path_48587" data-name="Path 48587" d="M6.44,20.778a.837.837,0,0,1,1-.505A.833.833,0,0,1,8.02,21.3c-.007.024-.015.048-.024.071a.832.832,0,0,1-1.579-.521c.006-.024.015-.048.023-.071" transform="translate(0.254 0.804)" fill="#939598"/>
      <path id="Path_48588" data-name="Path 48588" d="M5.679,24.446a.837.837,0,0,1,.9-.673.833.833,0,0,1,.747.912c0,.024-.006.049-.011.073a.832.832,0,0,1-1.646-.239c0-.024.006-.049.01-.073" transform="translate(0.225 0.944)" fill="#939598"/>
      <path id="Path_48589" data-name="Path 48589" d="M5.566,28.189a.837.837,0,0,1,.77-.818.833.833,0,0,1,.893.767c0,.025,0,.05,0,.074a.833.833,0,0,1-1.664.051c0-.025,0-.05,0-.074" transform="translate(0.221 1.088)" fill="#808285"/>
      <path id="Path_48590" data-name="Path 48590" d="M6.1,31.9a.837.837,0,0,1,.617-.94.832.832,0,0,1,1.013.6.6.6,0,0,1,.015.073.832.832,0,0,1-1.628.339c-.006-.024-.011-.049-.016-.073" transform="translate(0.242 1.229)" fill="#808285"/>
      <path id="Path_48591" data-name="Path 48591" d="M7.279,35.452A.834.834,0,0,1,8.36,34.4a.828.828,0,0,1,.464.437q.016.034.028.069a.833.833,0,0,1-1.545.617q-.016-.034-.028-.069" transform="translate(0.287 1.365)" fill="#808285"/>
      <path id="Path_48592" data-name="Path 48592" d="M9.053,38.75a.837.837,0,0,1,.258-1.094.832.832,0,0,1,1.157.218c.014.021.027.042.038.062a.832.832,0,0,1-1.414.875c-.015-.02-.027-.042-.04-.062" transform="translate(0.356 1.491)" fill="#808285"/>
      <path id="Path_48593" data-name="Path 48593" d="M11.373,41.691a.837.837,0,0,1,.064-1.122.819.819,0,0,1,.591-.237.827.827,0,0,1,.586.251c.018.019.033.036.049.055a.833.833,0,0,1-1.24,1.108c-.018-.018-.034-.036-.05-.055" transform="translate(0.445 1.603)" fill="#808285"/>
      <path id="Path_48594" data-name="Path 48594" d="M14.168,44.184a.838.838,0,0,1-.132-1.117.833.833,0,0,1,1.162-.19c.02.015.04.03.057.046a.833.833,0,0,1-1.029,1.307l-.058-.046" transform="translate(0.552 1.698)" fill="#808285"/>
      <path id="Path_48595" data-name="Path 48595" d="M17.353,46.153a.837.837,0,0,1-.323-1.076.824.824,0,0,1,.474-.425.832.832,0,0,1,.637.035c.022.011.044.023.064.035a.832.832,0,0,1-.787,1.465.651.651,0,0,1-.066-.034" transform="translate(0.674 1.773)" fill="#808285"/>
      <path id="Path_48596" data-name="Path 48596" d="M20.832,47.54a.837.837,0,0,1-.505-1,.832.832,0,0,1,1.026-.576l.071.023a.833.833,0,0,1-.521,1.58c-.024-.006-.048-.015-.071-.023" transform="translate(0.807 1.825)" fill="#808285"/>
      <path id="Path_48597" data-name="Path 48597" d="M24.5,48.3a.837.837,0,0,1-.673-.9.835.835,0,0,1,.912-.747c.024,0,.049.006.073.011a.832.832,0,0,1-.239,1.646c-.024,0-.049-.006-.073-.01" transform="translate(0.947 1.854)" fill="#808285"/>
      <path id="Path_48598" data-name="Path 48598" d="M49.17,17.44a.941.941,0,0,1-.5,1.159.935.935,0,0,1-1.236-.468.7.7,0,0,1-.03-.077.934.934,0,0,1,1.733-.691c.011.025.022.051.031.077" transform="translate(1.882 0.668)" fill="#fff"/>
      <path id="Path_48599" data-name="Path 48599" d="M33.96,3.875A.94.94,0,0,1,34.528,5a.935.935,0,0,1-1.152.648L33.3,5.623a.935.935,0,0,1,.584-1.774c.027.007.053.017.079.026" transform="translate(1.299 0.151)" fill="#e6e7e8"/>
      <path id="Path_48600" data-name="Path 48600" d="M29.845,3.021a.935.935,0,0,1,.417,1.642.929.929,0,0,1-.685.206.692.692,0,0,1-.081-.011.934.934,0,0,1,.267-1.848.743.743,0,0,1,.082.011" transform="translate(1.142 0.119)" fill="#e6e7e8"/>
      <path id="Path_48601" data-name="Path 48601" d="M25.644,2.894a.939.939,0,0,1,.918.865.933.933,0,0,1-.861,1,.741.741,0,0,1-.083,0A.934.934,0,0,1,25.561,2.9c.028,0,.056,0,.083,0" transform="translate(0.982 0.115)" fill="#bcbec0"/>
      <path id="Path_48602" data-name="Path 48602" d="M21.485,3.5a.938.938,0,0,1,1.054.691.932.932,0,0,1-.674,1.136.748.748,0,0,1-.081.017A.934.934,0,0,1,21.4,3.516c.027-.006.054-.012.081-.017" transform="translate(0.823 0.138)" fill="#bcbec0"/>
      <path id="Path_48603" data-name="Path 48603" d="M17.494,4.817a.941.941,0,0,1,1.159.5.935.935,0,0,1-.468,1.236c-.025.011-.051.022-.077.031a.934.934,0,0,1-.691-1.734c.025-.011.051-.022.077-.031" transform="translate(0.67 0.189)" fill="#bcbec0"/>
      <path id="Path_48604" data-name="Path 48604" d="M13.792,6.807a.935.935,0,0,1,1.375.99.929.929,0,0,1-.392.6c-.023.016-.047.03-.071.044a.934.934,0,0,1-.983-1.588c.023-.016.047-.03.071-.044" transform="translate(0.529 0.266)" fill="#bcbec0"/>
      <path id="Path_48605" data-name="Path 48605" d="M10.493,9.411a.939.939,0,0,1,1.259.072.934.934,0,0,1-.016,1.322.787.787,0,0,1-.062.055.934.934,0,0,1-1.242-1.393c.02-.019.041-.037.061-.055" transform="translate(0.403 0.365)" fill="#939598"/>
      <path id="Path_48606" data-name="Path 48606" d="M7.7,12.547A.939.939,0,0,1,8.949,12.4a.935.935,0,0,1,.213,1.3.632.632,0,0,1-.051.064.934.934,0,0,1-1.466-1.155.787.787,0,0,1,.051-.066" transform="translate(0.297 0.486)" fill="#939598"/>
      <path id="Path_48607" data-name="Path 48607" d="M5.485,16.122a.938.938,0,0,1,1.208-.363.934.934,0,0,1,.437,1.247.811.811,0,0,1-.04.073A.935.935,0,0,1,5.446,16.2c.012-.025.026-.049.04-.073" transform="translate(0.213 0.622)" fill="#939598"/>
      <path id="Path_48608" data-name="Path 48608" d="M3.929,20.027a.941.941,0,0,1,1.127-.568A.935.935,0,0,1,5.7,20.611c-.008.027-.017.054-.026.079A.935.935,0,0,1,3.9,20.106c.008-.027.017-.053.026-.079" transform="translate(0.154 0.772)" fill="#939598"/>
      <path id="Path_48609" data-name="Path 48609" d="M3.075,24.142a.935.935,0,0,1,1.642-.417.927.927,0,0,1,.206.685.743.743,0,0,1-.011.082.934.934,0,0,1-1.848-.268c0-.028.006-.055.011-.082" transform="translate(0.122 0.929)" fill="#939598"/>
      <path id="Path_48610" data-name="Path 48610" d="M2.948,28.343a.939.939,0,0,1,.865-.918.921.921,0,0,1,.679.223.93.93,0,0,1,.322.638.741.741,0,0,1,0,.083.934.934,0,0,1-1.865.057c0-.028,0-.056,0-.083" transform="translate(0.117 1.09)" fill="#808285"/>
      <path id="Path_48611" data-name="Path 48611" d="M3.552,32.5a.94.94,0,0,1,.692-1.055.934.934,0,0,1,1.135.675A.748.748,0,0,1,5.4,32.2a.934.934,0,0,1-1.827.381.754.754,0,0,1-.018-.081" transform="translate(0.141 1.248)" fill="#808285"/>
      <path id="Path_48612" data-name="Path 48612" d="M4.871,36.493a.941.941,0,0,1,.5-1.159.928.928,0,0,1,.715-.022.918.918,0,0,1,.52.49.708.708,0,0,1,.032.077A.934.934,0,0,1,4.9,36.57c-.011-.025-.022-.051-.031-.077" transform="translate(0.192 1.401)" fill="#808285"/>
      <path id="Path_48613" data-name="Path 48613" d="M6.861,40.2a.935.935,0,0,1,.99-1.375.922.922,0,0,1,.6.392c.016.023.03.047.044.071a.934.934,0,0,1-1.588.983c-.016-.023-.03-.047-.044-.071" transform="translate(0.268 1.542)" fill="#808285"/>
      <path id="Path_48614" data-name="Path 48614" d="M9.465,43.5a.939.939,0,0,1,.072-1.259.934.934,0,0,1,1.322.016c.019.02.037.041.055.062A.934.934,0,0,1,9.52,43.557c-.019-.02-.037-.041-.055-.061" transform="translate(0.368 1.668)" fill="#808285"/>
      <path id="Path_48615" data-name="Path 48615" d="M12.6,46.293a.939.939,0,0,1-.148-1.253.936.936,0,0,1,1.3-.214.782.782,0,0,1,.064.052.934.934,0,0,1-1.155,1.466.787.787,0,0,1-.066-.051" transform="translate(0.488 1.774)" fill="#808285"/>
      <path id="Path_48616" data-name="Path 48616" d="M16.176,48.5a.938.938,0,0,1-.363-1.208.934.934,0,0,1,1.247-.437.812.812,0,0,1,.073.04.934.934,0,0,1-.884,1.644c-.025-.011-.049-.025-.073-.038" transform="translate(0.625 1.858)" fill="#808285"/>
      <path id="Path_48617" data-name="Path 48617" d="M20.081,50.059a.941.941,0,0,1-.568-1.127.935.935,0,0,1,1.152-.647l.079.026a.935.935,0,0,1-.584,1.774l-.079-.026" transform="translate(0.774 1.917)" fill="#808285"/>
      <path id="Path_48618" data-name="Path 48618" d="M24.2,50.913a.94.94,0,0,1-.755-1.011.935.935,0,0,1,1.023-.837.743.743,0,0,1,.082.011.934.934,0,0,1-.268,1.848.71.71,0,0,1-.082-.011" transform="translate(0.932 1.95)" fill="#808285"/>
      <path id="Path_48619" data-name="Path 48619" d="M51.807,16.313a1.046,1.046,0,0,1-1.94.775c-.012-.029-.025-.058-.034-.086a1.046,1.046,0,0,1,1.94-.775c.012.029.024.057.034.086" transform="translate(1.978 0.62)" fill="#fff"/>
      <path id="Path_48620" data-name="Path 48620" d="M34.789,1.136a1.051,1.051,0,0,1,.635,1.26,1.045,1.045,0,0,1-1.289.724.879.879,0,0,1-.088-.029A1.045,1.045,0,0,1,34.7,1.106c.03.008.059.019.088.029" transform="translate(1.326 0.042)" fill="#e6e7e8"/>
      <path id="Path_48621" data-name="Path 48621" d="M30.185.181a1.046,1.046,0,0,1-.3,2.068l-.091-.014a1.046,1.046,0,0,1,.3-2.068c.03,0,.061.008.091.014" transform="translate(1.15 0.006)" fill="#e6e7e8"/>
      <path id="Path_48622" data-name="Path 48622" d="M25.486.038A1.05,1.05,0,0,1,26.513,1a1.045,1.045,0,0,1-.964,1.121.688.688,0,0,1-.093,0A1.045,1.045,0,0,1,25.393.041c.03,0,.062,0,.093,0" transform="translate(0.971 0.001)" fill="#bcbec0"/>
      <path id="Path_48623" data-name="Path 48623" d="M20.832.716a1.052,1.052,0,0,1,1.18.774,1.044,1.044,0,0,1-.755,1.272c-.03.007-.06.015-.09.019A1.045,1.045,0,0,1,20.741.734q.045-.011.09-.019" transform="translate(0.793 0.028)" fill="#bcbec0"/>
      <path id="Path_48624" data-name="Path 48624" d="M16.367,2.189a1.05,1.05,0,0,1,1.3.557,1.046,1.046,0,0,1-.522,1.383.745.745,0,0,1-.086.034,1.046,1.046,0,0,1-.775-1.94c.028-.012.057-.024.086-.034" transform="translate(0.623 0.084)" fill="#bcbec0"/>
      <path id="Path_48625" data-name="Path 48625" d="M12.225,4.417A1.052,1.052,0,0,1,13.6,4.74a1.045,1.045,0,0,1-.274,1.454c-.026.017-.052.033-.079.049a1.046,1.046,0,0,1-1.1-1.777c.026-.018.052-.033.079-.049" transform="translate(0.465 0.17)" fill="#bcbec0"/>
      <path id="Path_48626" data-name="Path 48626" d="M8.534,7.329a1.051,1.051,0,0,1,1.409.08,1.046,1.046,0,0,1-.018,1.479c-.023.022-.046.043-.07.061a1.045,1.045,0,0,1-1.39-1.558q.033-.033.069-.062" transform="translate(0.324 0.282)" fill="#939598"/>
      <path id="Path_48627" data-name="Path 48627" d="M5.4,10.839a1.051,1.051,0,0,1,1.4-.165,1.044,1.044,0,0,1,.239,1.459c-.019.025-.037.05-.057.073a1.046,1.046,0,0,1-1.641-1.293c.018-.025.037-.05.057-.073" transform="translate(0.205 0.416)" fill="#939598"/>
      <path id="Path_48628" data-name="Path 48628" d="M2.931,14.838a1.051,1.051,0,0,1,1.352-.407,1.046,1.046,0,0,1,.489,1.4c-.014.028-.028.055-.044.082a1.046,1.046,0,0,1-1.84-.989c.014-.028.028-.056.044-.082" transform="translate(0.111 0.569)" fill="#939598"/>
      <path id="Path_48629" data-name="Path 48629" d="M1.19,19.207a1.051,1.051,0,0,1,1.26-.635,1.045,1.045,0,0,1,.724,1.289.879.879,0,0,1-.029.088A1.045,1.045,0,0,1,1.16,19.3c.008-.03.019-.059.029-.088" transform="translate(0.045 0.736)" fill="#939598"/>
      <path id="Path_48630" data-name="Path 48630" d="M.234,23.81a1.051,1.051,0,0,1,1.131-.844A1.047,1.047,0,0,1,2.3,24.11c0,.031-.008.062-.014.093A1.046,1.046,0,0,1,.22,23.9c0-.03.008-.061.014-.091" transform="translate(0.009 0.912)" fill="#939598"/>
      <path id="Path_48631" data-name="Path 48631" d="M.092,28.511a1.05,1.05,0,0,1,.967-1.027,1.045,1.045,0,0,1,1.121.964.688.688,0,0,1,0,.093A1.045,1.045,0,0,1,.1,28.6c0-.031,0-.062,0-.093" transform="translate(0.004 1.092)" fill="#808285"/>
      <path id="Path_48632" data-name="Path 48632" d="M.769,33.164a1.051,1.051,0,0,1,.775-1.18,1.046,1.046,0,0,1,1.271.755.7.7,0,0,1,.019.09,1.046,1.046,0,0,1-2.045.425c-.007-.029-.014-.06-.019-.09" transform="translate(0.03 1.27)" fill="#808285"/>
      <path id="Path_48633" data-name="Path 48633" d="M2.243,37.63a1.05,1.05,0,0,1,.557-1.3,1.045,1.045,0,0,1,1.383.523.621.621,0,0,1,.034.086,1.045,1.045,0,0,1-1.94.774c-.012-.028-.024-.057-.034-.086" transform="translate(0.087 1.44)" fill="#808285"/>
      <path id="Path_48634" data-name="Path 48634" d="M4.47,41.771A1.052,1.052,0,0,1,4.793,40.4a1.045,1.045,0,0,1,1.454.274.872.872,0,0,1,.048.078,1.046,1.046,0,0,1-1.776,1.1c-.018-.026-.033-.052-.049-.079" transform="translate(0.172 1.598)" fill="#808285"/>
      <path id="Path_48635" data-name="Path 48635" d="M7.383,45.463a1.051,1.051,0,0,1,.08-1.409,1.046,1.046,0,0,1,1.479.018c.022.023.043.046.061.07a1.045,1.045,0,0,1-1.558,1.391c-.022-.023-.043-.046-.062-.07" transform="translate(0.284 1.739)" fill="#808285"/>
      <path id="Path_48636" data-name="Path 48636" d="M10.893,48.593a1.051,1.051,0,0,1-.165-1.4,1.044,1.044,0,0,1,1.459-.239c.025.018.05.037.073.057a1.046,1.046,0,0,1-1.293,1.641c-.025-.018-.05-.037-.073-.057" transform="translate(0.419 1.858)" fill="#808285"/>
      <path id="Path_48637" data-name="Path 48637" d="M14.892,51.065a1.051,1.051,0,0,1-.407-1.352,1.046,1.046,0,0,1,1.4-.489q.042.02.081.044a1.045,1.045,0,0,1-.988,1.84c-.028-.014-.056-.028-.082-.044" transform="translate(0.572 1.952)" fill="#808285"/>
      <path id="Path_48638" data-name="Path 48638" d="M19.261,52.806a1.051,1.051,0,0,1-.635-1.26,1.045,1.045,0,0,1,1.289-.724.879.879,0,0,1,.088.029,1.045,1.045,0,0,1-.654,1.984c-.03-.008-.059-.019-.088-.029" transform="translate(0.739 2.018)" fill="#808285"/>
      <path id="Path_48639" data-name="Path 48639" d="M23.864,53.762a1.051,1.051,0,0,1-.844-1.131,1.045,1.045,0,0,1,1.144-.936.9.9,0,0,1,.093.014,1.037,1.037,0,0,1,.844,1.13,1.048,1.048,0,0,1-1.145.937.924.924,0,0,1-.091-.014" transform="translate(0.915 2.054)" fill="#808285"/>
    </g>
  </g>
</svg>
