<svg xmlns="http://www.w3.org/2000/svg" width="83.942" height="83.942" viewBox="0 0 83.942 83.942"><g transform="translate(0.001 -0.001)"><path d="M170.2,183.012a1.229,1.229,0,0,0-1.042.138l-48.23,31.123a1.23,1.23,0,0,0-.217,1.889,30.5,30.5,0,0,0,45.987-2.533,1.229,1.229,0,1,0-1.941-1.509,28.05,28.05,0,0,1-41.2,3.385l5.676-3.663a20.13,20.13,0,0,0,7.075,2.85v.352a6.037,6.037,0,1,0,12.075,0v-1.012a16.893,16.893,0,0,0,5.668-3.459,17.651,17.651,0,0,0,5.44-10.032,16.2,16.2,0,0,0-.578-7.85L169.2,186.05a28.111,28.111,0,0,1-1.885,22.134,1.229,1.229,0,1,0,2.167,1.161,30.557,30.557,0,0,0,1.487-25.615,1.23,1.23,0,0,0-.768-.718Zm-23.343,17.455a5.185,5.185,0,0,1-3.9,2.515Zm10.205-.334a15.181,15.181,0,0,1-4.679,8.629,14.449,14.449,0,0,1-5.593,3.21,1.229,1.229,0,0,0-.87,1.176v1.9a3.578,3.578,0,1,1-7.157,0v-1.4a1.23,1.23,0,0,0-1.07-1.219,16.626,16.626,0,0,1-6.145-2.076l7.664-4.946c.715.065,1.51.085,2.469.085l.636,0A7.746,7.746,0,0,0,150,198.948c.032-.185.055-.372.073-.559l6.687-4.315A13.843,13.843,0,0,1,157.063,200.132Z" transform="translate(-100.632 -152.958)" fill="#19cccc"/><path d="M77.224,19.222A41.957,41.957,0,0,0,.956,33.13,41.957,41.957,0,0,0,33.129,82.986a42.331,42.331,0,0,0,8.925.956,41.968,41.968,0,0,0,35.17-64.72Zm3.357,31.073a39.5,39.5,0,0,1-71.8,13.093A39.517,39.517,0,0,1,41.892,2.46a39.855,39.855,0,0,1,8.4.9A39.5,39.5,0,0,1,80.581,50.295Z" transform="translate(0)" fill="#19cccc"/><path d="M122.7,39.025a1.229,1.229,0,0,0-.338-1,30.237,30.237,0,0,0-8.688-6.26,5.934,5.934,0,0,0-1.314-1.533,17.615,17.615,0,0,0-6.111-3.215v-.3a6.037,6.037,0,0,0-12.075,0v.671a14.535,14.535,0,0,0-5.589,3.791A30.5,30.5,0,0,0,72.1,70.46a1.23,1.23,0,0,0,1.81.581l48.23-31.123a1.23,1.23,0,0,0,.555-.893ZM73.87,68.14A28.044,28.044,0,0,1,85.884,35.318a15.817,15.817,0,0,0-1.068,3.449,15.337,15.337,0,0,0-.268,3.029,1.229,1.229,0,1,0,2.459-.031,13.176,13.176,0,0,1,3.228-8.749,12.059,12.059,0,0,1,5.523-3.572,1.229,1.229,0,0,0,.871-1.176v-1.55a3.578,3.578,0,0,1,7.157,0V27.96a1.229,1.229,0,0,0,.937,1.194,15.33,15.33,0,0,1,6.062,2.975,3.508,3.508,0,0,1,.9,1.136,3.579,3.579,0,0,1-5.483,4.365,9.089,9.089,0,0,0-8.346-1.346,5.413,5.413,0,0,0-3.593,4.264A4.077,4.077,0,0,0,95.3,44.5c2.036,1.6,5.353,3.013,8.644,4.234L96.61,53.466a28.6,28.6,0,0,1-5.725-3.335,9.948,9.948,0,0,1-3.038-4.081,1.229,1.229,0,1,0-2.277.928,12.408,12.408,0,0,0,3.8,5.088,28.327,28.327,0,0,0,4.817,2.966Zm32.672-21.083c-3.634-1.288-7.6-2.824-9.713-4.484A2.228,2.228,0,0,1,96.682,41a2.988,2.988,0,0,1,1.887-2.364,6.551,6.551,0,0,1,6.062.881,6.036,6.036,0,0,0,9.9-4.518,27.756,27.756,0,0,1,4.987,3.686Z" transform="translate(-58.495 -17.29)" fill="#19cccc"/></g></svg>