<svg id="footer_youtube_Hover_State_" data-name="footer youtube (Hover State)" xmlns="http://www.w3.org/2000/svg" width="36" height="36" viewBox="0 0 36 36">
  <g id="Rectangle_19885" data-name="Rectangle 19885" fill="#00e0cb" stroke="#fff" stroke-width="1">
    <rect width="36" height="36" rx="18" stroke="none"/>
    <rect x="0.5" y="0.5" width="35" height="35" rx="17.5" fill="none"/>
  </g>
  <path id="youtube" d="M83.5,200.181a2.5,2.5,0,0,0-1.76-1.763C80.187,198,73.958,198,73.958,198s-6.228,0-7.782.416a2.492,2.492,0,0,0-1.76,1.763,27.924,27.924,0,0,0,0,9.6,2.5,2.5,0,0,0,1.76,1.763c1.554.418,7.782.418,7.782.418s6.228,0,7.782-.418a2.492,2.492,0,0,0,1.76-1.763,27.912,27.912,0,0,0,0-9.6ZM71.98,207.958V202l5.157,2.956Z" transform="translate(-55.959 -186.98)" fill="#fff"/>
</svg>
